<svg width="27" height="27" viewBox="0 0 27 27" fill="none" xmlns="http://www.w3.org/2000/svg">
<path d="M9.63446 16.0909C12.675 15.9757 18.6547 16.9891 18.2493 21.9636C18.1142 22.7927 17.5173 23 17.2358 23H9.63446L2.03313 23C1.7516 23 1.15475 22.7927 1.01961 21.9636C0.614209 16.9891 6.59392 15.9757 9.63446 16.0909Z" fill="#868686"/>
<path d="M14.3642 8.83637C14.3642 11.5074 12.2466 13.6727 9.63446 13.6727C7.02231 13.6727 4.90473 11.5074 4.90473 8.83637C4.90473 6.16532 7.02231 4 9.63446 4C12.2466 4 14.3642 6.16532 14.3642 8.83637Z" fill="#868686"/>
<path d="M20.5946 12.6364V9.52729C20.5946 9.29698 20.7635 8.83637 21.4392 8.83637C22.1149 8.83637 22.2838 9.29698 22.2838 9.52729V12.6364H25.3243C25.5496 12.6364 26 12.8091 26 13.5C26 14.1909 25.5496 14.3637 25.3243 14.3637H22.2838V17.4728C22.2838 17.7031 22.1149 18.1637 21.4392 18.1637C20.7635 18.1637 20.5946 17.7031 20.5946 17.4728V14.3637H17.5541C17.3288 14.3637 16.8784 14.1909 16.8784 13.5C16.8784 12.8091 17.3288 12.6364 17.5541 12.6364H20.5946Z" fill="#868686"/>
</svg>
