<svg width="27" height="27" viewBox="0 0 27 27" fill="none" xmlns="http://www.w3.org/2000/svg">
<path fill-rule="evenodd" clip-rule="evenodd" d="M24 7.41524V21.2924C24 22.7878 22.7868 24 21.2903 24H5.70968C4.21316 24 3 22.7878 3 21.2924V7.41524C3 7.1332 3 6.39988 3.33871 6.06143L7.06452 2.33845C7.17742 2.22564 7.53871 2 8.08065 2H18.9194C19.4613 2 19.8226 2.22564 19.9355 2.33845L23.6613 6.06143C24 6.39988 24 7.1332 24 7.41524ZM6.04839 5.72298L8.08065 3.69226H18.9194L20.9516 5.72298H6.04839ZM19.4274 10.6305C19.0558 10.2577 18.4533 10.2577 18.0817 10.6305L11.6111 17.1359L9.137 14.6537C8.76539 14.2809 8.16289 14.2809 7.79129 14.6537C7.41968 15.0265 7.41968 15.631 7.79129 16.0038L11.0131 19.2361C11.2124 19.4271 11.7253 19.6944 12.182 19.2361L19.4274 11.9671C19.799 11.5943 19.799 11.0034 19.4274 10.6305Z" fill="#868686"/>
</svg>
