<svg width="27" height="27" viewBox="0 0 27 27" fill="none" xmlns="http://www.w3.org/2000/svg">
<path fill-rule="evenodd" clip-rule="evenodd" d="M8.65529 5H22.275C23.78 5 25 6.23983 25 7.76923V20.2308C25 21.7602 23.78 23 22.275 23H8.65529C8.43788 23 8.23353 22.8945 8.10526 22.7162L2.13121 14.4085C1.95626 14.1652 1.95626 13.8348 2.13122 13.5915L8.10526 5.28383C8.23353 5.10545 8.43788 5 8.65529 5ZM18.7001 9.15385L15.2938 12.6154L11.8875 9.15385L10.6953 10.3654L14.1 13.8269L10.6941 17.2885L11.8863 18.5L15.2925 15.0385L18.6988 18.5L19.891 17.2885L16.4844 13.8269L19.8922 10.3654L18.7001 9.15385Z" fill="#868686"/>
</svg>
