<svg width="27" height="27" viewBox="0 0 27 27" fill="none" xmlns="http://www.w3.org/2000/svg">
<path d="M4.24848 19.882L6.07242 18.076C6.2632 17.8871 6.37045 17.6309 6.37045 17.3638V10.562C6.37045 8.50728 7.57351 4.46706 12.3045 4.19675C12.3045 3.46449 12.6436 2 14 2C15.3564 2 15.6955 3.46449 15.6955 4.19675C20.4265 4.46706 21.6295 8.50728 21.6295 10.562V17.3638C21.6295 17.6309 21.7368 17.8871 21.9276 18.076L23.7515 19.882C24.2824 20.4077 23.9063 21.3066 23.1555 21.3066H4.84454C4.09374 21.3066 3.71759 20.4077 4.24848 19.882Z" fill="#868686"/>
<path d="M15.2448 22.3139H12.8884C12.0502 22.3139 11.4163 23.0835 11.8797 23.7751C12.3261 24.4413 13.0219 25 14 25C15.0225 25 15.6751 24.3486 16.1064 23.6351C16.4712 23.0317 15.955 22.3139 15.2448 22.3139Z" fill="#868686"/>
</svg>
