<svg width="27" height="27" viewBox="0 0 27 27" fill="none" xmlns="http://www.w3.org/2000/svg">
<path d="M14.7148 22.3139H12.3901C11.5632 22.3139 10.9378 23.0835 11.395 23.7751C11.8354 24.4413 12.5218 25 13.4868 25C14.4956 25 15.1394 24.3486 15.5648 23.6351C15.9247 23.0317 15.4155 22.3139 14.7148 22.3139Z" fill="#868686"/>
<path d="M23.107 19.882L21.3076 18.076C21.1194 17.8871 21.0136 17.6309 21.0136 17.3638V10.562C21.0136 8.50728 19.8268 4.46706 15.1594 4.19675C15.1594 3.46449 14.8249 2 13.4868 2C12.1487 2 11.8141 3.46449 11.8141 4.19675C10.0806 4.29714 8.82719 4.9176 7.93641 5.76323L4.7948 2.59688C4.38422 2.18477 3.71853 2.18477 3.30794 2.59688C2.89735 3.00898 2.89735 3.67714 3.30794 4.08925L17.3076 18.1408L18.5242 19.3619L22.2061 23.0574C22.6167 23.4696 23.2824 23.4696 23.693 23.0574C24.1036 22.6453 24.1017 22.0526 23.6911 21.6405L23.1125 21.0588C23.4071 20.7542 23.458 20.2343 23.107 19.882Z" fill="#868686"/>
<path d="M3.8665 19.882L5.66589 18.076C5.8541 17.8871 5.95991 17.6309 5.95991 17.3638V10.562C5.95991 10.1726 6.00254 9.71186 6.10342 9.21898L18.1464 21.3066H4.45453C3.71384 21.3066 3.34275 20.4077 3.8665 19.882Z" fill="#868686"/>
</svg>
