<svg width="27" height="27" viewBox="0 0 27 27" fill="none" xmlns="http://www.w3.org/2000/svg">
<path fill-rule="evenodd" clip-rule="evenodd" d="M23.76 13.5C23.76 19.1664 19.1664 23.76 13.5 23.76C7.83355 23.76 3.23999 19.1664 3.23999 13.5C3.23999 7.83356 7.83355 3.24001 13.5 3.24001C19.1664 3.24001 23.76 7.83356 23.76 13.5ZM9.56699 10.251C9.56699 8.88301 10.707 8.54101 11.277 8.54101H15.723C16.293 8.54101 17.433 8.88301 17.433 10.251V17.433C17.433 17.775 17.433 18.117 16.749 18.117C16.065 18.117 14.184 17.091 13.5 17.091C12.816 17.091 10.935 18.117 10.251 18.117C9.56699 18.117 9.56699 17.775 9.56699 17.433V10.251Z" fill="#868686"/>
</svg>
