<svg width="17" height="17" viewBox="0 0 17 17" fill="none" xmlns="http://www.w3.org/2000/svg">
<path d="M2 7.97297V13.2432C2 13.8288 2.37143 15 3.85714 15H13.1429C14.6286 15 15 13.8288 15 13.2432V7.97297H2Z" fill="#868686"/>
<path d="M2 6.56757V5.16216C2 4.69369 2.29714 3.75676 3.48571 3.75676H3.85714V2.87838C3.85714 2.58559 4.04286 2 4.78571 2C5.52857 2 5.71429 2.58559 5.71429 2.87838V3.75676H11.2857V2.87838C11.2857 2.58559 11.4714 2 12.2143 2C12.9571 2 13.1429 2.58559 13.1429 2.87838V3.75676H13.5143C14.0095 3.75676 15 4.03784 15 5.16216V6.56757H2Z" fill="#868686"/>
</svg>
