<svg width="27" height="27" viewBox="0 0 27 27" fill="none" xmlns="http://www.w3.org/2000/svg">
<path fill-rule="evenodd" clip-rule="evenodd" d="M21.7778 23C22.5185 23 24 22.5556 24 20.7778V9C24 8.33333 23.6 7 22 7H18.8889C18.8148 7 18.6222 6.95556 18.4444 6.77778C18.3756 6.70891 18.2099 6.52657 18.0071 6.3033C17.6863 5.95019 17.2723 5.49448 17 5.22222C16.9259 5.14815 16.7333 5 16.5556 5H11.4444C11.2667 5 11.0741 5.14815 11 5.22222C10.7277 5.49448 10.3137 5.95019 9.99293 6.30329C9.79004 6.52662 9.62443 6.7089 9.55556 6.77778C9.37778 6.95556 9.18518 7 9.11111 7H6C4.4 7 4 8.33333 4 9V20.7778C4 22.5556 5.48148 23 6.22222 23H21.7778ZM17.7385 14.9608C17.7385 12.8022 15.9886 11.0523 13.83 11.0523C13.4005 11.0523 12.9872 11.1216 12.6006 11.2495C12.2495 11.3658 11.8511 11.3133 11.5896 11.0518C11.2174 10.6796 11.2713 10.0565 11.7504 9.83856C12.436 9.52666 13.1977 9.35292 13.9999 9.35292C17.0032 9.35292 19.4378 11.7876 19.4378 14.7908V15.1307H20.9964C21.2992 15.1307 21.4508 15.4968 21.2367 15.7109L18.8285 18.1191C18.6958 18.2519 18.4806 18.2519 18.3478 18.1191L18.3212 18.0925L17.189 16.9603L15.9396 15.7109C15.7255 15.4968 15.8771 15.1307 16.1799 15.1307H17.7349C17.7373 15.0744 17.7385 15.0177 17.7385 14.9608ZM10.3609 14.9494C10.3609 17.108 12.1108 18.8579 14.2694 18.8579C14.6989 18.8579 15.1122 18.7886 15.4988 18.6606C15.8499 18.5443 16.2483 18.5968 16.5098 18.8583C16.882 19.2306 16.8281 19.8536 16.349 20.0716C15.6634 20.3835 14.9017 20.5572 14.0995 20.5572C11.0962 20.5572 8.66156 18.1226 8.66156 15.1193V14.7794H7.10299C6.8002 14.7794 6.64856 14.4133 6.86267 14.1992L9.27091 11.791C9.40364 11.6583 9.61883 11.6583 9.75156 11.791L9.77823 11.8177L10.9104 12.9498L12.1598 14.1992C12.3739 14.4133 12.2223 14.7794 11.9195 14.7794H10.3645C10.3621 14.8358 10.3609 14.8924 10.3609 14.9494Z" fill="#868686"/>
</svg>
