<svg width="27" height="27" viewBox="0 0 27 27" fill="none" xmlns="http://www.w3.org/2000/svg">
<path d="M8.1118 16.6575C7.49068 16.616 6 16.0349 6 14.6654V11.6268C6 11.0874 6.52174 9.75929 8.1118 9.75929H13.6522C14.2087 9.75929 14.3478 10.2192 14.3478 10.4491V15.9677C14.3478 16.5195 13.8841 16.6575 13.6522 16.6575H13.1553C13.3209 17.114 13.6522 19.77 13.6522 20.019C13.6522 21.3885 11.1677 21.264 10.6708 20.019C10.1739 18.774 9.5528 17.529 9.30435 16.6575H8.1118Z" fill="#868686"/>
<path d="M19.2322 7.50299C19.8612 7.00003 20.3645 6.99991 20.4903 7C20.6165 7.00009 21.1196 7.00046 21.6226 7.50308C21.6432 7.52371 22 7.88026 22 8.38321V17.6887C22 18.1916 21.6432 18.5482 21.6226 18.5688C21.1196 19.0714 20.6165 19.0718 20.4903 19.0719C20.3645 19.072 19.8612 19.0718 19.2322 18.5689L16.4348 16.6675C16.3188 16.6067 16.087 16.3816 16.087 15.9677V10.4491C16.087 10.0352 16.3188 9.80386 16.4348 9.73992L19.2322 7.50299Z" fill="#868686"/>
</svg>
