<svg width="27" height="27" viewBox="0 0 27 27" fill="none" xmlns="http://www.w3.org/2000/svg">
<path d="M10.0732 10.44C10.0732 9.76 10.4829 8.4 12.122 8.4H18.9512C20.5902 8.4 21 9.76 21 10.44V19.96C21 20.64 20.5902 22 18.9512 22H12.122C10.4829 22 10.0732 20.64 10.0732 19.96V10.44Z" fill="#868686"/>
<path d="M16.561 6.36C16.7886 6.36 17.2439 6.224 17.2439 5.68C17.2439 5.136 16.7886 5 16.561 5H11.0976C9.73171 5 7 5.816 7 9.08V17.92C7 18.1467 7.13659 18.6 7.68293 18.6C8.22927 18.6 8.36585 18.1467 8.36585 17.92V9.08C8.36585 8.17333 8.9122 6.36 11.0976 6.36H16.561Z" fill="#868686"/>
</svg>
