<svg width="27" height="27" viewBox="0 0 27 27" fill="none" xmlns="http://www.w3.org/2000/svg">
<path fill-rule="evenodd" clip-rule="evenodd" d="M13 23C18.5228 23 23 18.5228 23 13C23 7.47715 18.5228 3 13 3C7.47715 3 3 7.47715 3 13C3 18.5228 7.47715 23 13 23ZM17.0208 17.0208C16.4551 17.5865 15.8423 17.2565 15.6066 17.0208L13.0139 14.4281L10.4212 17.0208C10.1855 17.2565 9.57262 17.5865 9.00694 17.0208C8.44125 16.4551 8.77124 15.8423 9.00694 15.6066L11.5997 13.0139L9.00694 10.4212C8.77124 10.1854 8.44125 9.57262 9.00694 9.00694C9.57262 8.44125 10.1855 8.77123 10.4212 9.00694L13.0139 11.5997L15.6066 9.00694C15.8423 8.77123 16.4551 8.44125 17.0208 9.00694C17.5865 9.57262 17.2565 10.1854 17.0208 10.4212L14.4281 13.0139L17.0208 15.6066C17.2565 15.8423 17.5865 16.4551 17.0208 17.0208Z" fill="#868686"/>
</svg>
