<svg width="27" height="27" viewBox="0 0 27 27" fill="none" xmlns="http://www.w3.org/2000/svg">
<path d="M15 6C15 7.10457 14.1046 8 13 8C11.8954 8 11 7.10457 11 6C11 4.89543 11.8954 4 13 4C14.1046 4 15 4.89543 15 6Z" fill="#868686"/>
<path d="M15 13C15 14.1046 14.1046 15 13 15C11.8954 15 11 14.1046 11 13C11 11.8954 11.8954 11 13 11C14.1046 11 15 11.8954 15 13Z" fill="#868686"/>
<path d="M15 20C15 21.1046 14.1046 22 13 22C11.8954 22 11 21.1046 11 20C11 18.8954 11.8954 18 13 18C14.1046 18 15 18.8954 15 20Z" fill="#868686"/>
</svg>
