<svg width="27" height="27" viewBox="0 0 27 27" fill="none" xmlns="http://www.w3.org/2000/svg">
<path fill-rule="evenodd" clip-rule="evenodd" d="M7.97087 4C6.98058 4 5 4.59478 5 6.97391V20.0261C5 22.4052 6.98058 23 7.97087 23H19.0291C20.0194 23 22 22.4052 22 20.0261V10.6856C22 10.5498 22 10.4435 21.835 10.2783L16.2233 4.66087C16.2233 4.66087 15.5631 4 15.233 4H7.97087ZM19.7108 10.465L15.7083 6.45837C15.2895 6.03911 14.5728 6.33574 14.5728 6.92835V10.935C14.5728 11.3023 14.8705 11.6 15.2378 11.6H19.2404C19.8327 11.6 20.1294 10.884 19.7108 10.465Z" fill="#868686"/>
</svg>
