<svg width="27" height="27" viewBox="0 0 27 27" fill="none" xmlns="http://www.w3.org/2000/svg">
<path d="M11.2251 3C10.9442 3.99213 9.87684 6.80315 7.85446 10.1102C5.83207 13.4173 5.32651 15.2362 5.15795 15.7323C4.92025 16.4317 4.85459 18.2787 5.66354 19.8661C6.33767 21.189 8.21682 23.5039 10.3825 23.5039C9.04455 21.8631 9.04468 20.631 9.04476 19.8834L9.04477 19.8661C9.04477 18.2126 10.6391 15.4016 10.8986 15.4016C11.1581 15.4016 12.0116 17.2205 12.2363 17.8819C12.6296 17.5512 13.5 16.5 13.7531 14.5748C13.8093 13.748 13.7637 11.2677 13.7637 11.2677C13.7637 10.937 13.9217 10.8819 14.0902 10.937C14.8205 11.4331 16.2474 13.0205 17.4608 16.063C18.6743 19.1055 16.1231 22.5118 15.607 23.1732L14.9434 24C15.8872 24 17.4047 23.5039 17.9664 23.1732C20.6629 21.5858 21 18.2126 21 16.7244C21 15.7323 20.6292 13.1528 18.472 10.1102C16.3148 7.06772 12.7419 4.10236 11.2251 3Z" fill="#868686"/>
</svg>
