<svg width="27" height="27" viewBox="0 0 27 27" fill="none" xmlns="http://www.w3.org/2000/svg">
<path fill-rule="evenodd" clip-rule="evenodd" d="M11.9814 25C11.3667 25 10.1372 24.6225 10.1372 23.1124V15.8315C10.1372 15.5842 9.9616 15.3689 9.87378 15.2921C8.81997 14.1685 6.58061 11.9213 6.44889 11.7865C6.31716 11.6517 6.18543 11.382 6.18543 11.2472V9.89888C6.18543 9.62921 6.3435 9.08989 6.97579 9.08989H19.885C20.5173 9.08989 20.6754 9.62921 20.6754 9.89888V11.2472C20.6754 11.382 20.5437 11.6517 20.4119 11.7865C20.2802 11.9213 18.1726 14.1685 17.1188 15.2921C17.0309 15.3689 16.8553 15.5842 16.8553 15.8315V23.1124C16.8553 24.6225 15.6258 25 15.0111 25H11.9814ZM12.5083 16.3708C12.5083 15.7236 13.2109 15.5618 13.5621 15.5618C14.4052 15.5618 14.6159 16.1011 14.6159 16.3708V19.0674C14.6159 19.3371 14.4052 19.8764 13.5621 19.8764C12.7191 19.8764 12.5083 19.3371 12.5083 19.0674V16.3708Z" fill="#868686"/>
<path d="M13.5621 5.31461C13.2109 5.31461 12.5083 5.15281 12.5083 4.50562V1.80899C12.5083 1.53933 12.7191 1 13.5621 1C14.4052 1 14.6159 1.53933 14.6159 1.80899V4.50562C14.6159 4.77528 14.4052 5.31461 13.5621 5.31461Z" fill="#868686"/>
<path d="M18.6328 6.16205C18.3844 5.90783 17.9993 5.28496 18.4464 4.8273L20.3092 2.92039C20.4955 2.7297 21.0171 2.50085 21.6132 3.11099C22.2094 3.72113 21.9859 4.25505 21.7996 4.44574L19.9368 6.35266C19.7505 6.54335 19.2289 6.7722 18.6328 6.16205Z" fill="#868686"/>
<path d="M8.36723 6.22193C8.61563 5.9677 9.00066 5.34484 8.55359 4.88718L6.6908 2.98026C6.50452 2.78957 5.98292 2.56072 5.38676 3.17087C4.7906 3.78101 5.01412 4.31493 5.2004 4.50562L7.06319 6.41253C7.24947 6.60322 7.77107 6.83207 8.36723 6.22193Z" fill="#868686"/>
</svg>
