<svg width="27" height="27" viewBox="0 0 27 27" fill="none" xmlns="http://www.w3.org/2000/svg">
<path d="M0.30742 15.9093H2.94102C4.08801 20.5534 8.32347 24 13.373 24C17.0962 24 20.3768 22.1261 22.3031 19.2801C22.6111 18.8251 22.4346 18.2201 21.9545 17.9474C21.4556 17.6642 20.8231 17.849 20.4925 18.3146C18.9201 20.5296 16.3175 21.9773 13.373 21.9773C9.46184 21.9773 6.154 19.423 5.06222 15.9093H8.03018C8.30352 15.9093 8.4404 15.5825 8.24713 15.3914L4.79536 11.9779L4.38575 11.5729C4.26593 11.4544 4.07167 11.4544 3.95186 11.5729L2.64733 12.8629L0.0904761 15.3914C-0.1028 15.5825 0.0340861 15.9093 0.30742 15.9093Z" fill="#868686"/>
<path d="M26.6926 11.0907H24.059C22.912 6.44661 18.6765 3 13.627 3C9.90381 3 6.62316 4.87386 4.69686 7.71994C4.3889 8.17495 4.56537 8.77993 5.04552 9.05257C5.54438 9.33583 6.17694 9.15103 6.50747 8.68544C8.07991 6.47045 10.6825 5.02267 13.627 5.02267C17.5382 5.02267 20.846 7.57696 21.9378 11.0907H18.9698C18.6965 11.0907 18.5596 11.4175 18.7529 11.6086L22.2046 15.0221L22.6142 15.4271C22.7341 15.5456 22.9283 15.5456 23.0481 15.4271L24.3527 14.1371L26.9095 11.6086C27.1028 11.4175 26.9659 11.0907 26.6926 11.0907Z" fill="#868686"/>
</svg>
