<svg width="27" height="27" viewBox="0 0 27 27" fill="none" xmlns="http://www.w3.org/2000/svg">
<path fill-rule="evenodd" clip-rule="evenodd" d="M21.5902 22C22.3934 22 24 21.5245 24 19.6226V8.75472C24 7.96226 23.518 6.37736 21.5902 6.37736H13.6721C13.5344 6.37736 13.041 5.92453 12.8115 5.69811L11.6066 4.50943C11.1934 4.10189 10.7459 4 10.5738 4H5.40984C4.60656 4 3 4.47547 3 6.37736V19.6226C3 20.4151 3.48197 22 5.40984 22H21.5902ZM10.0634 13.1283L6.29023 17.8433C5.93377 18.2887 6.25537 18.9434 6.83064 18.9434H19.4411C20.3612 18.9434 20.822 17.8459 20.1714 17.2041L17.6176 14.6847C17.3425 14.4134 16.8944 14.4205 16.6284 14.7005L14.7913 16.6336C14.6526 16.7796 14.4167 16.7762 14.2823 16.6263L11.1195 13.0992C10.8352 12.7821 10.3293 12.7961 10.0634 13.1283Z" fill="#868686"/>
</svg>
