<svg width="33" height="33" viewBox="0 0 33 33" fill="none" xmlns="http://www.w3.org/2000/svg">
<path fill-rule="evenodd" clip-rule="evenodd" d="M4.2729 25.7297C7.72194 21.4356 7.65984 16.2641 7.62746 13.5681C7.62462 13.332 7.62202 13.1148 7.62202 12.9189C7.62202 7.99314 11.7457 4 16.8324 4C21.9192 4 26.0428 7.99314 26.0428 12.9189L26.0428 13.0446C26.0416 15.5433 26.0391 21.1381 29.7271 25.7297C30.1737 26.3784 30.3969 27.6757 27.7176 27.6757C26.7686 27.6757 24.5644 27.1892 23.3634 26.0263C22.9232 25.5999 22.5261 25.5676 22.1912 25.5676C21.8563 25.5676 21.4926 25.5676 21.019 26.0263C20.1817 26.8371 18.6185 28 16.8324 28C15.0464 28 13.4832 26.8371 12.6459 26.0263C12.1722 25.5676 11.8086 25.5676 11.4736 25.5676C11.1387 25.5676 10.7751 25.5676 10.3014 26.0263C9.10047 27.1892 7.23135 27.6757 6.28244 27.6757C3.60305 27.6757 3.82634 26.3784 4.2729 25.7297ZM14.6554 11.9459C14.6554 12.9311 13.9806 13.7297 13.1483 13.7297C12.3159 13.7297 11.6411 12.9311 11.6411 11.9459C11.6411 10.9608 12.3159 10.1622 13.1483 10.1622C13.9806 10.1622 14.6554 10.9608 14.6554 11.9459ZM20.8515 13.7297C21.6839 13.7297 22.3587 12.9311 22.3587 11.9459C22.3587 10.9608 21.6839 10.1622 20.8515 10.1622C20.0191 10.1622 19.3443 10.9608 19.3443 11.9459C19.3443 12.9311 20.0191 13.7297 20.8515 13.7297Z" fill="#868686"/>
</svg>
