<svg width="27" height="27" viewBox="0 0 27 27" fill="none" xmlns="http://www.w3.org/2000/svg">
<path d="M10.0674 15.2727C12.2039 15.1939 16.4059 15.8873 16.121 19.2909C16.026 19.8582 15.6066 20 15.4088 20H10.0674L4.72597 20C4.52814 20 4.10874 19.8582 4.01378 19.2909C3.72891 15.8873 7.93081 15.1939 10.0674 15.2727Z" fill="#868686"/>
<path d="M13.3909 10.3091C13.3909 12.1367 11.9029 13.6182 10.0674 13.6182C8.23183 13.6182 6.74383 12.1367 6.74383 10.3091C6.74383 8.48153 8.23183 7 10.0674 7C11.9029 7 13.3909 8.48153 13.3909 10.3091Z" fill="#868686"/>
<path d="M16.8277 15.5008C18.9643 15.4221 23 16.2016 23 18.8555C23 19.0767 22.8667 19.519 22.3336 19.519H18.3354V18.8555C18.3354 17.1969 17.2907 15.9003 16.8277 15.5008Z" fill="#868686"/>
<path d="M20.0013 11.3914C20.0013 12.7655 18.8825 13.8795 17.5024 13.8795C16.1223 13.8795 15.0035 12.7655 15.0035 11.3914C15.0035 10.0173 16.1223 8.90337 17.5024 8.90337C18.8825 8.90337 20.0013 10.0173 20.0013 11.3914Z" fill="#868686"/>
</svg>
