<svg width="17" height="17" viewBox="0 0 17 17" fill="none" xmlns="http://www.w3.org/2000/svg">
<path fill-rule="evenodd" clip-rule="evenodd" d="M14 9.05714V13.8857C14 14.5011 13.4905 15 12.8621 15H4.13793C3.50947 15 3 14.5011 3 13.8857V9.05714C3 8.44174 3.50947 7.94286 4.13793 7.94286H4.7069V5.71429C4.7069 4.47619 5.46552 2 8.5 2C11.5345 2 12.2931 4.47619 12.2931 5.71429V7.94286H12.8621C13.4905 7.94286 14 8.44174 14 9.05714ZM10.7759 5.71429V7.94286H6.22414V5.71429C6.22414 4.97143 6.67931 3.48571 8.5 3.48571C10.3207 3.48571 10.7759 4.97143 10.7759 5.71429Z" fill="#868686"/>
</svg>
