<svg width="27" height="27" viewBox="0 0 27 27" fill="none" xmlns="http://www.w3.org/2000/svg">
<path fill-rule="evenodd" clip-rule="evenodd" d="M16.8929 11.4677C17.4583 11.4677 18.5893 11.8065 18.5893 13.1613V22.3065C18.5893 23.6613 17.4583 24 16.8929 24H5.69643C5.13095 24 4 23.6613 4 22.3065V13.1613C4 11.8065 5.13095 11.4677 5.69643 11.4677H14.1786V7.40323C14.1786 5.93548 15.0607 3 18.5893 3C22.1179 3 23 5.93548 23 7.40323V9.77419C23 10 22.8304 10.4516 22.1518 10.4516C21.4732 10.4516 21.3036 10 21.3036 9.77419V7.40323C21.3036 6.5 20.7607 4.69355 18.5893 4.69355C16.4179 4.69355 15.875 6.5 15.875 7.40323V11.4677H16.8929ZM11.2946 19.5968C12.3252 19.5968 13.1607 18.7627 13.1607 17.7339C13.1607 16.705 12.3252 15.871 11.2946 15.871C10.264 15.871 9.42857 16.705 9.42857 17.7339C9.42857 18.7627 10.264 19.5968 11.2946 19.5968Z" fill="#868686"/>
</svg>
