<svg width="27" height="27" viewBox="0 0 27 27" fill="none" xmlns="http://www.w3.org/2000/svg">
<path d="M1 8.69247H11.0663V10.9104H1V8.69247ZM1 14.2373H12.0619V16.4552H1V14.2373ZM1 19.7821H20.174V22H1V19.7821Z" fill="#868686"/>
<path fill-rule="evenodd" clip-rule="evenodd" d="M26 10.9226C26 14.1935 23.3256 16.8452 20.0265 16.8452C16.7275 16.8452 14.0531 14.1935 14.0531 10.9226C14.0531 7.65163 16.7275 5 20.0265 5C23.3256 5 26 7.65163 26 10.9226ZM21.0221 12.8968C21.0221 13.4419 20.5764 13.8839 20.0265 13.8839C19.4767 13.8839 19.031 13.4419 19.031 12.8968C19.031 12.3516 19.4767 11.9097 20.0265 11.9097C20.5764 11.9097 21.0221 12.3516 21.0221 12.8968ZM21.0221 9.93548V7.96129C21.0221 7.41613 20.5764 6.97419 20.0265 6.97419C19.4767 6.97419 19.031 7.41613 19.031 7.96129V9.93548C19.031 10.4806 19.4767 10.9226 20.0265 10.9226C20.5764 10.9226 21.0221 10.4806 21.0221 9.93548Z" fill="#868686"/>
</svg>
