<svg width="27" height="27" viewBox="0 0 27 27" fill="none" xmlns="http://www.w3.org/2000/svg">
<path d="M10 6.97391C9.94444 6.09275 10.4667 4 13 4C15.5333 4 16 6.14783 16 6.97391V12.9217L10 6.97391Z" fill="#868686"/>
<path d="M18.3079 13.8134C18.3373 13.5642 18.4484 13.3261 18.6461 13.1694C18.9504 12.928 19.3829 12.928 19.6873 13.1694C19.8849 13.3261 20.0022 13.5634 19.9879 13.8139C19.9447 14.5681 19.7772 15.6671 19.3396 16.2162L17.9863 14.8746C18.1743 14.5727 18.2678 14.1534 18.3079 13.8134Z" fill="#868686"/>
<path d="M11.9731 20.026C11.9883 20.0261 12 20.0383 12 20.0534V22.0087C12 22.5562 12.4477 23 13 23C13.5523 23 14 22.5562 14 22.0087V20.0534C14 20.0383 14.0121 20.0261 14.0273 20.0259C14.8789 20.0171 16.0529 19.5962 17.1097 18.8131L20.3905 22.0654C20.5673 22.2407 20.8071 22.3391 21.0572 22.3391C21.5779 22.3391 22 21.9207 22 21.4045C22 21.1567 21.9007 20.9189 21.7239 20.7437L5.60948 4.76937C5.43267 4.5941 5.19286 4.49565 4.94281 4.49565C4.42211 4.49565 4 4.91407 4 5.43024C4 5.67812 4.09933 5.91584 4.27614 6.09111L10 11.7652V13.7478C10 14.4087 10.8667 15.7304 12.3333 15.7304C12.8336 15.7304 13.264 15.5767 13.6141 15.3478L15.7356 17.4509C14.9496 17.9612 14.0097 18.2579 13 18.2579C10.3745 18.2579 8.22171 16.6555 8.01607 14.1451C7.99558 13.8949 7.88494 13.6566 7.68726 13.4998C7.38291 13.2584 6.95043 13.2584 6.64608 13.4998L6.63556 13.5081C6.44355 13.6604 6.324 13.888 6.32961 14.1317C6.41513 17.8447 10.0318 20.0061 11.9731 20.026Z" fill="#868686"/>
</svg>
