<svg width="27" height="27" viewBox="0 0 27 27" fill="none" xmlns="http://www.w3.org/2000/svg">
<path d="M10.5766 6.97391C10.5225 6.09275 11.0313 4 13.4998 4C15.9683 4 16.423 6.14783 16.423 6.97391V12.9217C16.4771 13.8029 15.9683 15.8957 13.4998 15.8957C11.0313 15.8957 10.5766 13.7478 10.5766 12.9217L10.5766 6.97391Z" fill="#868686"/>
<path d="M12.5254 20.0534V22.0087C12.5254 22.5562 12.9616 23 13.4998 23C14.0379 23 14.4742 22.5562 14.4742 22.0087V20.0534C14.4742 20.0383 14.486 20.0261 14.5008 20.0259C16.3924 20.0061 19.9165 17.8447 19.9998 14.1316C20.0053 13.8879 19.8888 13.6604 19.7017 13.5081L19.6915 13.4998C19.3949 13.2584 18.9735 13.2584 18.6769 13.4998C18.4843 13.6565 18.3765 13.8949 18.3565 14.145C18.1562 16.6554 16.058 18.2579 13.4998 18.2579C10.9416 18.2579 8.84384 16.6555 8.64347 14.1451C8.6235 13.8949 8.51569 13.6566 8.32307 13.4998C8.02651 13.2584 7.60511 13.2584 7.30855 13.4998L7.2983 13.5081C7.11121 13.6604 6.99472 13.888 7.00018 14.1317C7.08351 17.8447 10.6076 20.0061 12.4992 20.026C12.514 20.0261 12.5254 20.0383 12.5254 20.0534Z" fill="#868686"/>
</svg>
