<svg width="17" height="17" viewBox="0 0 17 17" fill="none" xmlns="http://www.w3.org/2000/svg">
<path d="M3.65134 6.52025H5.73255C5.79013 6.52025 5.84535 6.49812 5.88607 6.45873L8.30066 4.12303C8.38209 4.04425 8.49254 4 8.6077 4H8.86207C9.10189 4 9.2963 4.18806 9.2963 4.42004V12.8209C9.2963 13.0529 9.10189 13.2409 8.86207 13.2409H8.6077C8.49254 13.2409 8.38209 13.1967 8.30066 13.1179L5.88607 10.7822C5.84535 10.7428 5.79013 10.7207 5.73255 10.7207H3.65134C3.29162 10.7207 3 10.4386 3 10.0906V7.15031C3 6.80234 3.29162 6.52025 3.65134 6.52025Z" fill="#868686"/>
<path d="M14 7L11 10M11 7L14 10" stroke="#868686" stroke-width="0.8" stroke-linecap="round"/>
</svg>
