<svg width="27" height="27" viewBox="0 0 27 27" fill="none" xmlns="http://www.w3.org/2000/svg">
<path d="M7.07692 22C6.71795 22 6 21.7882 6 20.9412V5.05884C6 4.7059 6.21538 4.00002 7.07692 4.00002H10.3077C10.6667 4.00002 11.3846 4.21178 11.3846 5.05884V20.9412C11.3846 21.2941 11.1692 22 10.3077 22H7.07692Z" fill="#868686"/>
<path d="M15.6923 22C15.3333 22 14.6154 21.7882 14.6154 20.9412V5.05882C14.6154 4.70588 14.8308 4 15.6923 4H18.9231C19.2821 4 20 4.21176 20 5.05882V20.9412C20 21.2941 19.7846 22 18.9231 22H15.6923Z" fill="#868686"/>
</svg>
