<svg width="17" height="17" viewBox="0 0 17 17" fill="none" xmlns="http://www.w3.org/2000/svg">
<path d="M7.08313 11.6643L4.13944 13.7798C4.10938 13.8014 4.08165 13.826 4.05331 13.8498C4.00324 13.8919 3.94694 13.9261 3.88632 13.9512C3.80855 13.9834 3.7252 14 3.64102 14C3.55684 14 3.47348 13.9834 3.39571 13.9512C3.31794 13.919 3.24727 13.8718 3.18775 13.8122C3.12823 13.7527 3.08101 13.6821 3.04879 13.6043C3.01658 13.5265 3 13.4431 3 13.359C3 13.2748 3.01658 13.1914 3.04879 13.1137C3.08101 13.0359 3.12823 12.9652 3.18775 12.9057L5.46053 10.1128C5.684 9.83818 5.66091 9.43842 5.40732 9.19136L3.90692 7.72958C3.634 7.46369 3.63035 7.02216 3.94579 6.80841C4.5737 6.3829 5.5879 5.95007 7.05996 5.98855C7.25759 5.99372 7.45173 5.92319 7.59154 5.78341L9.75281 3.62266L10.1752 3.2003C10.4422 2.93323 10.8752 2.93323 11.1423 3.2003L11.5646 3.62266L13.377 5.4345L13.7997 5.8572C14.0668 6.12426 14.0668 6.55722 13.7997 6.82428L13.377 7.24698L11.2364 9.38764C11.0852 9.5389 11.0159 9.75303 11.0344 9.96614C11.1703 11.5309 10.6823 12.4846 10.22 13.0742C9.98403 13.3751 9.53514 13.3634 9.26973 13.0881L7.97445 11.7449C7.73862 11.5004 7.35901 11.466 7.08313 11.6643Z" fill="#868686"/>
</svg>
