<svg width="27" height="27" viewBox="0 0 27 27" fill="none" xmlns="http://www.w3.org/2000/svg">
<path d="M12.625 15.4175C12.3958 15.4175 11.9375 15.5517 11.9375 16.0884V18.4365H8.98614C8.67989 18.4365 8.52652 18.7978 8.74307 19.0091L13.7569 23.9018C13.8912 24.0327 14.1088 24.0327 14.2431 23.9018L19.2569 19.0091C19.4735 18.7978 19.3201 18.4365 19.0139 18.4365H16.0625V16.0884C16.0625 15.8648 15.925 15.4175 15.375 15.4175H12.625Z" fill="#868686"/>
<path d="M4.03125 11.3923H23.9688C24.5383 11.3923 25 11.8428 25 12.3986C25 12.9544 24.5383 13.4049 23.9688 13.4049H4.03125C3.46171 13.4049 3 12.9544 3 12.3986C3 11.8428 3.46171 11.3923 4.03125 11.3923Z" fill="#868686"/>
<path d="M12.625 2H15.375C15.7547 2 16.0625 2.30036 16.0625 2.67088V9.04421C16.0625 9.41472 15.7547 9.71509 15.375 9.71509H12.625C12.2453 9.71509 11.9375 9.41472 11.9375 9.04421V2.67088C11.9375 2.30036 12.2453 2 12.625 2Z" fill="#868686"/>
</svg>
