<svg width="27" height="27" viewBox="0 0 27 27" fill="none" xmlns="http://www.w3.org/2000/svg">
<path fill-rule="evenodd" clip-rule="evenodd" d="M13.5 25C19.8513 25 25 19.8513 25 13.5C25 7.14873 19.8513 2 13.5 2C7.14873 2 2 7.14873 2 13.5C2 19.8513 7.14873 25 13.5 25ZM13.5 24C19.299 24 24 19.299 24 13.5C24 7.70101 19.299 3 13.5 3C7.70104 3 3.00003 7.70101 3.00003 13.5C3.00003 19.299 7.70104 24 13.5 24Z" fill="#868686"/>
<path d="M13.5162 16.4682C13.2863 16.2298 12.9163 16.1963 12.6473 16.3896L9.7775 18.452C9.7482 18.473 9.72116 18.497 9.69354 18.5203C9.64472 18.5613 9.58984 18.5946 9.53074 18.6191C9.45492 18.6505 9.37366 18.6667 9.29159 18.6667C9.20953 18.6667 9.12826 18.6505 9.05244 18.6191C8.97662 18.5877 8.90773 18.5417 8.8497 18.4836C8.79167 18.4256 8.74564 18.3567 8.71424 18.2809C8.68283 18.2051 8.66667 18.1238 8.66667 18.0417C8.66667 17.9597 8.68283 17.8784 8.71424 17.8026C8.74564 17.7268 8.79167 17.6579 8.8497 17.5998L11.0654 14.877C11.2833 14.6093 11.2608 14.2196 11.0136 13.9787L9.55083 12.5537C9.28475 12.2944 9.2812 11.864 9.58871 11.6556C10.2009 11.2408 11.1896 10.8188 12.6247 10.8563C12.8174 10.8614 13.0066 10.7926 13.1429 10.6564L15.25 8.54985L15.6617 8.13809C15.9221 7.87773 16.3442 7.87773 16.6045 8.13809L17.0163 8.54985L18.7832 10.3162L19.1953 10.7283C19.4556 10.9886 19.4556 11.4107 19.1953 11.6711L18.7832 12.0832L16.6963 14.1701C16.5489 14.3176 16.4813 14.5263 16.4994 14.7341C16.6319 16.2595 16.1562 17.1893 15.7054 17.7642C15.4754 18.0575 15.0378 18.046 14.779 17.7777L13.5162 16.4682Z" fill="#868686"/>
<path fill-rule="evenodd" clip-rule="evenodd" d="M13.5162 16.4682C13.2863 16.2298 12.9163 16.1963 12.6473 16.3896L9.7775 18.452C9.7482 18.473 9.72116 18.497 9.69354 18.5203C9.64472 18.5613 9.58984 18.5946 9.53074 18.6191C9.45492 18.6505 9.37366 18.6667 9.29159 18.6667C9.20953 18.6667 9.12826 18.6505 9.05244 18.6191C8.97662 18.5877 8.90773 18.5417 8.8497 18.4836C8.79167 18.4256 8.74564 18.3567 8.71424 18.2809C8.68283 18.2051 8.66667 18.1238 8.66667 18.0417C8.66667 17.9597 8.68283 17.8784 8.71424 17.8026C8.74564 17.7268 8.79167 17.6579 8.8497 17.5998L11.0654 14.877C11.2833 14.6093 11.2608 14.2196 11.0136 13.9787L9.55083 12.5537C9.28475 12.2944 9.2812 11.864 9.58871 11.6556C10.2009 11.2408 11.1896 10.8188 12.6247 10.8563C12.8174 10.8614 13.0066 10.7926 13.1429 10.6564L15.25 8.54985L15.6617 8.13809C15.9221 7.87773 16.3442 7.87773 16.6045 8.13809L17.0163 8.54985L18.7832 10.3162L19.1953 10.7283C19.4556 10.9886 19.4556 11.4107 19.1953 11.6711L18.7832 12.0832L16.6963 14.1701C16.5489 14.3176 16.4813 14.5263 16.4994 14.7341C16.6319 16.2595 16.1562 17.1893 15.7054 17.7642C15.4754 18.0575 15.0378 18.046 14.779 17.7777L13.5162 16.4682Z" fill="#868686"/>
</svg>
