<svg width="27" height="27" viewBox="0 0 27 27" fill="none" xmlns="http://www.w3.org/2000/svg">
<path fill-rule="evenodd" clip-rule="evenodd" d="M23 13C23 18.5228 18.5228 23 13 23C7.47715 23 3 18.5228 3 13C3 7.47715 7.47715 3 13 3C18.5228 3 23 7.47715 23 13ZM13 18.6667C12.2 18.6667 12 18 12 17.6667V14H8.33333C8 14 7.33333 13.8 7.33333 13C7.33333 12.2 8 12 8.33333 12H12V8.33333C12 8 12.2 7.33333 13 7.33333C13.8 7.33333 14 8 14 8.33333V12H17.6667C18 12 18.6667 12.2 18.6667 13C18.6667 13.8 18 14 17.6667 14H14V17.6667C14 18 13.8 18.6667 13 18.6667Z" fill="#868686"/>
</svg>
