<svg width="27" height="27" viewBox="0 0 27 27" fill="none" xmlns="http://www.w3.org/2000/svg">
<path d="M10.7941 5.39024C10.7941 4.5935 11.3353 3 13.5 3C15.6647 3 16.2059 4.5935 16.2059 5.39024V21.6098C16.2059 22.4065 15.6647 24 13.5 24C11.3353 24 10.7941 22.4065 10.7941 21.6098V5.39024Z" fill="#868686"/>
<path d="M19.5882 11.7073C19.5882 10.9106 20.1294 9.31707 22.2941 9.31707C24.4588 9.31707 25 10.9106 25 11.7073V21.6098C25 22.4065 24.4588 24 22.2941 24C20.1294 24 19.5882 22.4065 19.5882 21.6098V11.7073Z" fill="#868686"/>
<path d="M2 21.6098C2 22.4065 2.54118 24 4.70588 24C6.87059 24 7.41176 22.4065 7.41176 21.6098V16.4878C7.41176 15.6911 6.87059 14.0976 4.70588 14.0976C2.54118 14.0976 2 15.6911 2 16.4878V21.6098Z" fill="#868686"/>
</svg>
