<svg width="27" height="27" viewBox="0 0 27 27" fill="none" xmlns="http://www.w3.org/2000/svg">
<path fill-rule="evenodd" clip-rule="evenodd" d="M4.73087 19.1622C4.93154 20.4384 3.07 23.9863 3.07 23.9863C2.95719 24.3242 2.96847 25 3.91616 25C7.9777 24.189 9.89565 22.9726 10.3469 22.4658C11.1936 22.6902 11.8135 22.6879 12.6709 22.6847L13 22.6839C12.8864 22.6839 13.1055 22.6835 13 22.6839C19.0751 22.6839 24 18.0536 24 12.3419C24 6.63024 19.0751 2 13 2C6.92487 2 2 6.63024 2 12.3419C2 14.955 3.03076 17.3417 4.73087 19.1622ZM16.3067 9.65085C16.5955 9.36135 17.0638 9.36135 17.3526 9.65085C17.6414 9.94034 17.6414 10.3992 17.3526 10.6887C16.1616 11.8824 14.4294 13.62 13.3505 14.7023C13.1293 14.9241 12.9356 15.1185 12.7796 15.2749L12.3983 15.6573C12.0434 16.0131 11.6448 15.8056 11.4898 15.6573L9.32431 13.4853C9.03549 13.1958 9.03549 12.7264 9.32431 12.4369C9.61312 12.1475 10.0814 12.1475 10.3702 12.4369L11.9546 14.0264L16.3067 9.65085Z" fill="#868686"/>
</svg>
