<svg width="27" height="27" viewBox="0 0 27 27" fill="none" xmlns="http://www.w3.org/2000/svg">
<path d="M5.33333 15C5.22222 15 5 15.0667 5 15.3333V16.6667C5 16.7778 5.06667 17 5.33333 17H20.6667C20.7778 17 21 16.9333 21 16.6667V15.3333C21 15.2222 20.9333 15 20.6667 15H5.33333Z" fill="#868686"/>
<path d="M5.33333 9C5.22222 9 5 9.06667 5 9.33333V10.6667C5 10.7778 5.06667 11 5.33333 11H20.6667C20.7778 11 21 10.9333 21 10.6667V9.33333C21 9.22222 20.9333 9 20.6667 9H5.33333Z" fill="#868686"/>
</svg>
