<svg width="27" height="27" viewBox="0 0 27 27" fill="none" xmlns="http://www.w3.org/2000/svg">
<path d="M16.7429 19.8365H9.85482V21.6666C9.85482 21.963 9.48385 22.1115 9.26689 21.9019L6.48214 19.2113C6.34764 19.0814 6.34764 18.8707 6.48214 18.7408L9.26689 16.0502C9.48385 15.8406 9.85482 15.9891 9.85482 16.2855V18.1727H16.7429C18.801 18.1727 20.558 16.9268 21.2499 15.173C21.3983 14.7968 21.7506 14.5125 22.1673 14.5125C22.7122 14.5125 23.1316 14.9864 22.9618 15.4866C22.1041 18.0124 19.6439 19.8365 16.7429 19.8365Z" fill="#868686"/>
<path d="M21.5645 8.29548V11.8505C21.5645 12.0724 21.7022 12.516 22.2533 12.516C22.8043 12.516 22.9421 12.0724 22.9421 11.8505V6.4971C22.9421 6.32961 22.8015 6.19383 22.6282 6.19383H22.2016C22.0114 6.19383 21.8262 6.25242 21.6728 6.3611L19.7522 7.72191C19.5059 7.89636 19.4257 8.2169 19.5623 8.48076C19.717 8.77978 20.0934 8.90098 20.4029 8.75147L21.4671 8.23735C21.5118 8.21574 21.5645 8.24716 21.5645 8.29548Z" fill="#868686"/>
<path d="M14.2312 5.09813L17.0159 7.78865C17.1504 7.9186 17.1504 8.12928 17.0159 8.25923L14.2312 10.9498C14.0142 11.1594 13.6432 11.0109 13.6432 10.7145V8.85581H10.5436C7.88072 8.85581 5.72201 10.9415 5.72201 13.5143C5.72201 13.8816 5.76601 14.239 5.84919 14.5818C5.94515 14.9772 5.81433 15.4071 5.46332 15.6307C5.01205 15.918 4.39705 15.7503 4.24913 15.2481C4.08686 14.6971 4 14.1155 4 13.5143C4 10.0226 6.92968 7.19207 10.5436 7.19207H13.6432V5.33341C13.6432 5.03697 14.0142 4.88851 14.2312 5.09813Z" fill="#868686"/>
</svg>
