<svg width="27" height="27" viewBox="0 0 27 27" fill="none" xmlns="http://www.w3.org/2000/svg">
<path d="M22.1646 4.17308C22.1646 3.71399 21.7924 3.34183 21.3333 3.34183C20.8742 3.34183 20.5021 3.71399 20.5021 4.17308H22.1646ZM21.3333 13L20.7718 13.6129C21.0967 13.9106 21.5974 13.903 21.9132 13.5956L21.3333 13ZM24.5799 10.9995C24.9088 10.6792 24.9158 10.1529 24.5956 9.82399C24.2754 9.49505 23.7491 9.488 23.4201 9.80824L24.5799 10.9995ZM19.0616 9.79097C18.7231 9.48082 18.1973 9.50379 17.8871 9.84228C17.577 10.1808 17.5999 10.7066 17.9384 11.0167L19.0616 9.79097ZM14.0021 12.8269C14.0021 13.286 14.3742 13.6582 14.8333 13.6582C15.2924 13.6582 15.6646 13.286 15.6646 12.8269H14.0021ZM14.8333 4L15.4132 3.4044C15.0974 3.09699 14.5967 3.08942 14.2718 3.38713L14.8333 4ZM16.9201 7.19176C17.2491 7.512 17.7754 7.50495 18.0956 7.17601C18.4158 6.84707 18.4088 6.32079 18.0799 6.00055L16.9201 7.19176ZM11.4384 5.98328C11.0999 6.29343 11.077 6.81924 11.3871 7.15772C11.6973 7.49621 12.2231 7.51918 12.5616 7.20903L11.4384 5.98328ZM20.5021 4.17308V13H22.1646V4.17308H20.5021ZM21.9132 13.5956L24.5799 10.9995L23.4201 9.80824L20.7535 12.4044L21.9132 13.5956ZM21.8949 12.3871L19.0616 9.79097L17.9384 11.0167L20.7718 13.6129L21.8949 12.3871ZM15.6646 12.8269V4H14.0021V12.8269H15.6646ZM14.2535 4.5956L16.9201 7.19176L18.0799 6.00055L15.4132 3.4044L14.2535 4.5956ZM14.2718 3.38713L11.4384 5.98328L12.5616 7.20903L15.3949 4.61287L14.2718 3.38713Z" fill="#868686"/>
<path d="M15.5103 20.8084H8.74796V22.6623C8.74796 22.9626 8.38377 23.1129 8.17077 22.9006L5.43684 20.1752C5.30479 20.0435 5.30479 19.8301 5.43684 19.6985L8.17077 16.9731C8.38377 16.7607 8.74796 16.9111 8.74796 17.2114V19.1231H15.5103C17.0856 19.1231 18.4812 18.356 19.3417 17.176C19.6226 16.7907 20.1405 16.6111 20.5634 16.8327C20.9659 17.0437 21.1318 17.5393 20.882 17.918C19.7337 19.659 17.7566 20.8084 15.5103 20.8084Z" fill="#868686"/>
<path d="M9.4242 8C5.87621 8 3 10.8673 3 14.4042C3 15.0132 3.08528 15.6024 3.24458 16.1605C3.3898 16.6693 3.99358 16.8392 4.43662 16.5481C4.78121 16.3216 4.90964 15.8861 4.81544 15.4855C4.73377 15.1383 4.69058 14.7763 4.69058 14.4042C4.69058 11.798 6.80989 9.68532 9.4242 9.68532C9.61093 9.68532 9.76231 9.53441 9.76231 9.34825V8.33706C9.76231 8.15091 9.61093 8 9.4242 8Z" fill="#868686"/>
</svg>
