<svg width="27" height="27" viewBox="0 0 27 27" fill="none" xmlns="http://www.w3.org/2000/svg">
<path d="M16.5536 19.8365H9.76786V21.6666C9.76786 21.963 9.4024 22.1115 9.18866 21.9019L6.44527 19.2113C6.31277 19.0814 6.31277 18.8707 6.44527 18.7408L9.18866 16.0502C9.4024 15.8406 9.76786 15.9891 9.76786 16.2855V18.1727H16.5536C19.1769 18.1727 21.3036 16.0871 21.3036 13.5143C21.3036 13.2078 21.2734 12.9083 21.2158 12.6184C21.1286 12.1792 21.3209 11.7098 21.7392 11.531C22.1816 11.3418 22.7017 11.5494 22.8162 12.0093C22.9363 12.4916 23 12.9956 23 13.5143C23 17.0059 20.1138 19.8365 16.5536 19.8365Z" fill="#868686"/>
<path d="M18.4899 5.09813L21.2333 7.78865C21.3658 7.9186 21.3658 8.12928 21.2333 8.25923L18.4899 10.9498C18.2762 11.1594 17.9107 11.0109 17.9107 10.7145V8.85581H10.4464C7.82308 8.85581 5.69643 10.9415 5.69643 13.5143C5.69643 13.8816 5.73977 14.239 5.82172 14.5818C5.91625 14.9772 5.78738 15.4071 5.44159 15.6307C4.99702 15.918 4.39115 15.7503 4.24543 15.2481C4.08557 14.6971 4 14.1155 4 13.5143C4 10.0226 6.88616 7.19207 10.4464 7.19207H17.9107V5.33341C17.9107 5.03697 18.2762 4.88851 18.4899 5.09813Z" fill="#868686"/>
</svg>
