<svg width="27" height="27" viewBox="0 0 27 27" fill="none" xmlns="http://www.w3.org/2000/svg">
<path d="M10.4286 3C12.3988 3 14.2882 3.78265 15.6814 5.17578C17.0745 6.56891 17.8571 8.45839 17.8571 10.4286C17.8571 12.2686 17.1829 13.96 16.0743 15.2629L16.3829 15.5714H17.2857L23 21.2857L21.2857 23L15.5714 17.2857V16.3829L15.2629 16.0743C13.9149 17.2249 12.2008 17.857 10.4286 17.8571C8.45839 17.8571 6.56891 17.0745 5.17578 15.6814C3.78265 14.2882 3 12.3988 3 10.4286C3 8.45839 3.78265 6.56891 5.17578 5.17578C6.56891 3.78265 8.45839 3 10.4286 3ZM10.4286 5.28571C7.57143 5.28571 5.28571 7.57143 5.28571 10.4286C5.28571 13.2857 7.57143 15.5714 10.4286 15.5714C13.2857 15.5714 15.5714 13.2857 15.5714 10.4286C15.5714 7.57143 13.2857 5.28571 10.4286 5.28571Z" fill="#868686"/>
</svg>
