<svg width="27" height="27" viewBox="0 0 27 27" fill="none" xmlns="http://www.w3.org/2000/svg">
<path d="M9.47313 13.5C9.47313 12.9439 9.25689 12.4368 8.90144 12.0532C8.49197 11.6113 7.89778 11.3333 7.23657 11.3333C6.00134 11.3333 5 12.3034 5 13.5C5 14.6966 6.00134 15.6667 7.23657 15.6667C7.88992 15.6667 8.47785 15.3953 8.88676 14.9625C9.25094 14.5771 9.47313 14.0637 9.47313 13.5Z" fill="#868686"/>
<path d="M21 7.16666C21 5.97005 19.9987 5 18.7634 5C17.5282 5 16.5269 5.97005 16.5269 7.16666C16.5269 7.42658 16.5741 7.6758 16.6607 7.90672C16.9729 8.73892 17.7965 9.33333 18.7634 9.33333C19.9987 9.33333 21 8.36328 21 7.16666Z" fill="#868686"/>
<path d="M18.7634 22C19.9987 22 21 21.03 21 19.8333C21 18.6367 19.9987 17.6667 18.7634 17.6667C17.7965 17.6667 16.9729 18.2611 16.6607 19.0933C16.5741 19.3242 16.5269 19.5734 16.5269 19.8333C16.5269 21.03 17.5282 22 18.7634 22Z" fill="#868686"/>
<path d="M16.6607 19.0933L8.88676 14.9625M16.6607 19.0933C16.9729 18.2611 17.7965 17.6667 18.7634 17.6667M16.6607 19.0933C16.5741 19.3242 16.5269 19.5734 16.5269 19.8333M8.88676 14.9625C8.47785 15.3953 7.88992 15.6667 7.23657 15.6667M8.88676 14.9625C9.25094 14.5771 9.47313 14.0637 9.47313 13.5M16.5269 19.8333C16.5269 21.03 17.5282 22 18.7634 22C19.9987 22 21 21.03 21 19.8333C21 18.6367 19.9987 17.6667 18.7634 17.6667M16.5269 19.8333C16.5269 18.6367 17.5282 17.6667 18.7634 17.6667M16.6607 7.90672L8.90144 12.0532M16.6607 7.90672C16.5741 7.6758 16.5269 7.42658 16.5269 7.16666M16.6607 7.90672C16.9729 8.73892 17.7965 9.33333 18.7634 9.33333M8.90144 12.0532C9.25689 12.4368 9.47313 12.9439 9.47313 13.5M8.90144 12.0532C8.49197 11.6113 7.89778 11.3333 7.23657 11.3333M16.5269 7.16666C16.5269 5.97005 17.5282 5 18.7634 5C19.9987 5 21 5.97005 21 7.16666C21 8.36328 19.9987 9.33333 18.7634 9.33333M16.5269 7.16666C16.5269 8.36328 17.5282 9.33333 18.7634 9.33333M9.47313 13.5C9.47313 12.3034 8.47179 11.3333 7.23657 11.3333M9.47313 13.5C9.47313 14.6966 8.47179 15.6667 7.23657 15.6667M7.23657 11.3333C6.00134 11.3333 5 12.3034 5 13.5C5 14.6966 6.00134 15.6667 7.23657 15.6667" stroke="#868686" stroke-width="1.6625"/>
</svg>
