<svg width="27" height="27" viewBox="0 0 27 27" fill="none" xmlns="http://www.w3.org/2000/svg">
<path d="M18.3595 16.3333V14.6667C18.3595 14.5556 18.4622 14.3333 18.8733 14.3333C19.2535 14.3333 20.9334 15.9498 21.9061 16.9396C22.0313 17.067 22.0313 17.2663 21.9061 17.3937C20.9334 18.3836 19.2535 20 18.8733 20C18.4622 20 18.3595 19.7778 18.3595 19.6667V18H17.3318C16.696 18 14.8682 17.1646 13.2212 15.5L14.3966 14.0971C16.4713 16.3305 17.3469 16.3333 18.0169 16.3333H18.3595Z" fill="#868686"/>
<path d="M18.3595 9.66667V11.3333C18.3595 11.4444 18.4622 11.6667 18.8733 11.6667C19.2535 11.6667 20.9334 10.0502 21.9061 9.06035C22.0313 8.93296 22.0313 8.7337 21.9061 8.60631C20.9334 7.61642 19.2535 6 18.8733 6C18.4622 6 18.3595 6.22222 18.3595 6.33333V8H17.3318C16.4768 8 14.1876 8.86391 11.8621 12.3168C11.8584 12.3223 11.8547 12.3278 11.851 12.3333C11.6946 12.5661 11.5362 12.7882 11.3766 13C9.15958 15.9418 6.697 16.8964 5.6851 17C5.45673 17 5 17.1333 5 17.6667C5 18.2 5.45673 18.3333 5.6851 18.3333C6.71275 18.3333 9.81096 17.6469 12.3648 14.3333C15.9616 9.66667 17.1605 9.66667 18.0169 9.66667H18.3595Z" fill="#868686"/>
<path d="M5.6851 9C5.45673 9 5 8.86667 5 8.33333C5 7.8 5.45673 7.66667 5.6851 7.66667C6.55686 7.66667 8.91866 8.16066 11.1742 10.3333L10.1383 11.5707C8.30233 9.73566 6.51078 9.08457 5.6851 9Z" fill="#868686"/>
</svg>
