<svg width="27" height="27" viewBox="0 0 27 27" fill="none" xmlns="http://www.w3.org/2000/svg">
<path d="M14.8928 12.4766C15.0643 12.5957 15.1667 12.7912 15.1667 13C15.1667 13.2088 15.0643 13.4043 14.8928 13.5234L7 19L6.83205 19.1119C6.47639 19.3491 6 19.0941 6 18.6666V7.33333C6 6.90588 6.47639 6.65092 6.83205 6.88803L7.00002 7L14.8928 12.4766Z" fill="#868686"/>
<path d="M20 6V20M7 19L14.8928 13.5234C15.0643 13.4043 15.1667 13.2088 15.1667 13V13C15.1667 12.7912 15.0643 12.5957 14.8928 12.4766L7.00002 7L6.83205 6.88803C6.47639 6.65092 6 6.90588 6 7.33333V7.33333V18.6666V18.6666C6 19.0941 6.47639 19.3491 6.83205 19.1119L7 19Z" stroke="#868686" stroke-width="2.66" stroke-linecap="round"/>
</svg>
