<svg width="27" height="27" viewBox="0 0 27 27" fill="none" xmlns="http://www.w3.org/2000/svg">
<path d="M12.1072 12.4766C11.9357 12.5957 11.8333 12.7912 11.8333 13C11.8333 13.2088 11.9357 13.4043 12.1072 13.5234L20 19L20.168 19.1119C20.5236 19.3491 21 19.0941 21 18.6666V7.33333C21 6.90588 20.5236 6.65092 20.1679 6.88803L20 7L12.1072 12.4766Z" fill="#868686"/>
<path d="M7 6V20M20 19L12.1072 13.5234C11.9357 13.4043 11.8333 13.2088 11.8333 13V13C11.8333 12.7912 11.9357 12.5957 12.1072 12.4766L20 7L20.1679 6.88803C20.5236 6.65092 21 6.90588 21 7.33333V7.33333V18.6666V18.6666C21 19.0941 20.5236 19.3491 20.168 19.1119L20 19Z" stroke="#868686" stroke-width="2.66" stroke-linecap="round"/>
</svg>
