<svg width="27" height="27" viewBox="0 0 27 27" fill="none" xmlns="http://www.w3.org/2000/svg">
<path d="M14 11.4634C14.1111 11.4634 14.3333 11.5317 14.3333 11.8049V13.1707C14.3333 13.2846 14.2667 13.5122 14 13.5122H3.33333C3.06667 13.5122 3 13.2846 3 13.1707V11.8049C3 11.5317 3.22222 11.4634 3.33333 11.4634H14Z" fill="#868686"/>
<path d="M19.6667 6C19.7778 6 20 6.06829 20 6.34146V7.70732C20 7.82114 19.9333 8.04878 19.6667 8.04878H3.33333C3.06667 8.04878 3 7.82114 3 7.70732V6.34146C3 6.06829 3.22222 6 3.33333 6H19.6667Z" fill="#868686"/>
<path d="M9.33333 16.5854C9.44444 16.5854 9.66667 16.6537 9.66667 16.9268V18.2927C9.66667 18.4065 9.6 18.6341 9.33333 18.6341H3.33333C3.06667 18.6341 3 18.4065 3 18.2927V16.9268C3 16.6537 3.22222 16.5854 3.33333 16.5854H9.33333Z" fill="#868686"/>
<path d="M9.33333 16.5854C9.44444 16.5854 9.66667 16.6537 9.66667 16.9268V18.2927C9.66667 18.4065 9.6 18.6341 9.33333 18.6341H3.33333C3.06667 18.6341 3 18.4065 3 18.2927V16.9268C3 16.6537 3.22222 16.5854 3.33333 16.5854H9.33333Z" fill="#868686"/>
<path d="M19.6667 6C19.7778 6 20 6.06829 20 6.34146V7.70732C20 7.82114 19.9333 8.04878 19.6667 8.04878H3.33333C3.06667 8.04878 3 7.82114 3 7.70732V6.34146C3 6.06829 3.22222 6 3.33333 6H19.6667Z" fill="#868686"/>
<path fill-rule="evenodd" clip-rule="evenodd" d="M19.1666 20C21.2837 20 22.9999 18.2419 22.9999 16.0732C22.9999 13.9044 21.2837 12.1463 19.1666 12.1463C17.0495 12.1463 15.3333 13.9044 15.3333 16.0732C15.3333 18.2419 17.0495 20 19.1666 20ZM21.6666 16.5854C21.6666 16.039 21.2221 15.9024 20.9999 15.9024H20.3324C20.1488 15.9024 19.9999 15.7536 19.9999 15.5699V14.1951C19.9999 13.9675 19.8666 13.5122 19.3333 13.5122C18.7999 13.5122 18.6666 13.9675 18.6666 14.1951V16.5854C18.6666 16.813 18.7999 17.2683 19.3333 17.2683H20.9999C21.2221 17.2683 21.6666 17.1317 21.6666 16.5854Z" fill="#868686"/>
</svg>
