<svg width="27" height="27" viewBox="0 0 27 27" fill="none" xmlns="http://www.w3.org/2000/svg">
<path d="M19.8833 17.5268H17.2324L16.7284 19H15.1207L17.8523 11.85H19.2533L22 19H20.3923L19.8833 17.5268ZM17.6406 16.3335H19.4751L18.5528 13.6571L17.6406 16.3335Z" fill="#868686"/>
<path fill-rule="evenodd" clip-rule="evenodd" d="M17.2324 17.5268H19.8833L20.3923 19H22L19.2533 11.85H17.8523L15.1207 19H16.7284L17.2324 17.5268ZM19.4751 16.3335H17.6406L18.5528 13.6571L19.4751 16.3335Z" fill="#868686"/>
<path d="M13.8103 11.2C13.9195 11.2 14.1379 11.265 14.1379 11.525V12.825C14.1379 12.9333 14.0724 13.15 13.8103 13.15H3.32759C3.06552 13.15 3 12.9333 3 12.825V11.525C3 11.265 3.21839 11.2 3.32759 11.2H13.8103Z" fill="#868686"/>
<path d="M19.3793 6C19.4885 6 19.7069 6.065 19.7069 6.325V7.625C19.7069 7.73333 19.6414 7.95 19.3793 7.95H3.32759C3.06552 7.95 3 7.73333 3 7.625V6.325C3 6.065 3.21839 6 3.32759 6H19.3793Z" fill="#868686"/>
<path d="M9.22414 16.075C9.33333 16.075 9.55172 16.14 9.55172 16.4V17.7C9.55172 17.8083 9.48621 18.025 9.22414 18.025H3.32759C3.06552 18.025 3 17.8083 3 17.7V16.4C3 16.14 3.21839 16.075 3.32759 16.075H9.22414Z" fill="#868686"/>
</svg>
