<svg width="27" height="27" viewBox="0 0 27 27" fill="none" xmlns="http://www.w3.org/2000/svg">
<path fill-rule="evenodd" clip-rule="evenodd" d="M5.35714 17.6667H21.6429C22.3924 17.6667 23 18.2636 23 19V20.6667C23 21.403 22.3924 22 21.6429 22H5.35714C4.60761 22 4 21.403 4 20.6667V19C4 18.2636 4.60761 17.6667 5.35714 17.6667ZM6.88393 21C7.53977 21 8.07143 20.4777 8.07143 19.8333C8.07143 19.189 7.53977 18.6667 6.88393 18.6667C6.22809 18.6667 5.69643 19.189 5.69643 19.8333C5.69643 20.4777 6.22809 21 6.88393 21Z" fill="#868686"/>
<path fill-rule="evenodd" clip-rule="evenodd" d="M5.35714 11.3333H21.6429C22.3924 11.3333 23 11.9303 23 12.6667V14.3333C23 15.0697 22.3924 15.6667 21.6429 15.6667H5.35714C4.60761 15.6667 4 15.0697 4 14.3333V12.6667C4 11.9303 4.60761 11.3333 5.35714 11.3333ZM6.88393 14.6667C7.53977 14.6667 8.07143 14.1443 8.07143 13.5C8.07143 12.8557 7.53977 12.3333 6.88393 12.3333C6.22809 12.3333 5.69643 12.8557 5.69643 13.5C5.69643 14.1443 6.22809 14.6667 6.88393 14.6667Z" fill="#868686"/>
<path fill-rule="evenodd" clip-rule="evenodd" d="M5.35714 5H21.6429C22.3924 5 23 5.59695 23 6.33333V8C23 8.73638 22.3924 9.33333 21.6429 9.33333H5.35714C4.60761 9.33333 4 8.73638 4 8V6.33333C4 5.59695 4.60761 5 5.35714 5ZM6.88393 8.33333C7.53977 8.33333 8.07143 7.811 8.07143 7.16667C8.07143 6.52233 7.53977 6 6.88393 6C6.22809 6 5.69643 6.52233 5.69643 7.16667C5.69643 7.811 6.22809 8.33333 6.88393 8.33333Z" fill="#868686"/>
</svg>
