<svg width="27" height="27" viewBox="0 0 27 27" fill="none" xmlns="http://www.w3.org/2000/svg">
<path fill-rule="evenodd" clip-rule="evenodd" d="M26 13.5C26 20.4036 20.4036 26 13.5 26C6.59644 26 1 20.4036 1 13.5C1 6.59644 6.59644 1 13.5 1C20.4036 1 26 6.59644 26 13.5ZM12.0128 21.6436V20.0179C9.14608 19.3099 7.01854 16.6954 7.01854 13.5784C7.01854 11.2801 8.17525 9.25504 9.93208 8.06597C10.213 7.87587 10.5864 7.9848 10.7547 8.28119C10.9295 8.58913 10.8155 8.9796 10.5281 9.18363C9.16079 10.1543 8.2671 11.7608 8.2671 13.5784C8.2671 15.9927 9.84382 18.0346 12.0128 18.7085L12.0128 16.8764C12.0128 16.7077 12.2145 16.6232 12.3325 16.7425L14.6896 19.1261C14.7628 19.2 14.7628 19.32 14.6896 19.3939L12.3325 21.7775C12.2145 21.8968 12.0128 21.8123 12.0128 21.6436ZM14.9873 6.98211V5.35643C14.9873 5.18771 14.7855 5.10321 14.6675 5.22252L12.3104 7.60609C12.2373 7.68005 12.2373 7.79996 12.3104 7.87392L14.6675 10.2575C14.7855 10.3768 14.9873 10.2923 14.9873 10.1236V8.2915C17.1562 8.96544 18.7329 11.0073 18.7329 13.4216C18.7329 15.2392 17.8393 16.8457 16.472 17.8164C16.1846 18.0204 16.0705 18.4109 16.2454 18.7188C16.4136 19.0152 16.7871 19.1241 17.068 18.934C18.8248 17.745 19.9815 15.7199 19.9815 13.4216C19.9815 10.3046 17.854 7.69014 14.9873 6.98211Z" fill="#868686"/>
</svg>
