<svg width="27" height="27" viewBox="0 0 27 27" fill="none" xmlns="http://www.w3.org/2000/svg">
<path d="M5.72868 7H15.9612C17.4683 7 18.6899 8.2536 18.6899 9.8V18.2C18.6899 19.7464 17.4683 21 15.9612 21H5.72868C4.22167 21 3 19.7464 3 18.2L3 9.8C3 8.2536 4.22167 7 5.72868 7Z" fill="#868686"/>
<path d="M23.5893 8.7229L20.4594 11.5157C20.3104 11.6487 20.2248 11.8413 20.2248 12.0439V15.9561C20.2248 16.1587 20.3104 16.3513 20.4594 16.4843L23.6245 19.3085C23.9273 19.5787 24.375 19.5881 24.6883 19.3309C24.8853 19.1691 25 18.9243 25 18.6654V9.38247C25 9.12898 24.8928 8.88798 24.7061 8.72196C24.3855 8.43687 23.9094 8.43727 23.5893 8.7229Z" fill="#868686"/>
</svg>
