<svg width="27" height="27" viewBox="0 0 27 27" fill="none" xmlns="http://www.w3.org/2000/svg">
<path d="M23.5634 9.55529L20.3761 12.4423C20.2243 12.5798 20.1372 12.7789 20.1372 12.9884V17.0325C20.1372 17.242 20.2243 17.4411 20.3761 17.5786L23.5993 20.4981C23.9076 20.7773 24.3635 20.7871 24.6826 20.5212C24.8832 20.354 25 20.1009 25 19.8333V10.2371C25 9.97507 24.8908 9.72594 24.7007 9.55432C24.3743 9.25961 23.8894 9.26003 23.5634 9.55529Z" fill="#868686"/>
<path d="M15.7955 7.77426C17.3301 7.77426 18.5742 9.07016 18.5742 10.6687V17.3629L23.374 22.2353C23.7716 22.639 23.7716 23.2935 23.374 23.6972C22.9763 24.1009 22.3315 24.1009 21.9338 23.6972L2.29826 3.76471C1.90058 3.36101 1.90058 2.70648 2.29826 2.30278C2.69595 1.89907 3.34073 1.89907 3.73841 2.30278L9.21564 7.77426H15.7955Z" fill="#868686"/>
<path d="M15.7955 22.2466H5.37525C3.84061 22.2466 2.59653 20.9507 2.59653 19.3522L2.59653 10.6687C2.59653 9.59131 3.16166 8.65139 4 8.15304L17.4918 21.6449C17.0225 22.0222 16.4342 22.2466 15.7955 22.2466Z" fill="#868686"/>
</svg>
