<svg width="20" height="20" viewBox="0 0 20 20" fill="none" xmlns="http://www.w3.org/2000/svg">
<path fill-rule="evenodd" clip-rule="evenodd" d="M10.1667 5C5.9 5 3 8.16667 3 9.83333C3 11.5 5.9 14.6667 10.1667 14.6667C14.4333 14.6667 17.3333 11.3333 17.3333 9.83333C17.3333 8.16667 14.4333 5 10.1667 5ZM10.2083 13.25C12.0722 13.25 13.5833 11.739 13.5833 9.875C13.5833 8.01104 12.0722 6.5 10.2083 6.5C8.34429 6.5 6.83325 8.01104 6.83325 9.875C6.83325 11.739 8.34429 13.25 10.2083 13.25Z" fill="#868686"/>
<path d="M12.3333 9.875C12.3333 11.0486 11.3819 12 10.2083 12C9.03465 12 8.08325 11.0486 8.08325 9.875C8.08325 8.70139 9.03465 7.75 10.2083 7.75C11.3819 7.75 12.3333 8.70139 12.3333 9.875Z" fill="#868686"/>
</svg>
