<svg width="27" height="27" viewBox="0 0 27 27" fill="none" xmlns="http://www.w3.org/2000/svg">
<path d="M8.57 7L9.15193 6.40643C8.82869 6.08952 8.31131 6.08952 7.98807 6.40643L8.57 7ZM4.41807 9.90643C4.09024 10.2278 4.08503 10.7541 4.40643 11.0819C4.72782 11.4098 5.25411 11.415 5.58193 11.0936L4.41807 9.90643ZM11.5581 11.0936C11.8859 11.415 12.4122 11.4098 12.7336 11.0819C13.055 10.7541 13.0498 10.2278 12.7219 9.90643L11.5581 11.0936ZM7.73875 20C7.73875 20.4591 8.11091 20.8313 8.57 20.8313C9.02909 20.8313 9.40125 20.4591 9.40125 20H7.73875ZM18.43 20L17.8481 20.5936C18.1713 20.9105 18.6887 20.9105 19.0119 20.5936L18.43 20ZM15.4419 15.9064C15.1141 15.585 14.5878 15.5902 14.2664 15.9181C13.945 16.2459 13.9502 16.7722 14.2781 17.0936L15.4419 15.9064ZM22.5819 17.0936C22.9098 16.7722 22.915 16.2459 22.5936 15.9181C22.2722 15.5902 21.7459 15.585 21.4181 15.9064L22.5819 17.0936ZM19.2613 7C19.2613 6.54091 18.8891 6.16875 18.43 6.16875C17.9709 6.16875 17.5988 6.54091 17.5988 7H19.2613ZM7.98807 6.40643L4.41807 9.90643L5.58193 11.0936L9.15193 7.59357L7.98807 6.40643ZM7.98807 7.59357L11.5581 11.0936L12.7219 9.90643L9.15193 6.40643L7.98807 7.59357ZM7.73875 7V20H9.40125V7H7.73875ZM19.0119 19.4064L15.4419 15.9064L14.2781 17.0936L17.8481 20.5936L19.0119 19.4064ZM19.0119 20.5936L22.5819 17.0936L21.4181 15.9064L17.8481 19.4064L19.0119 20.5936ZM19.2613 20V7H17.5988V20H19.2613Z" fill="#868686"/>
</svg>
