<svg width="20" height="20" viewBox="0 0 20 20" fill="none" xmlns="http://www.w3.org/2000/svg">
<path fill-rule="evenodd" clip-rule="evenodd" d="M10 5C5.83256 5 3 8.27586 3 10C3 11.7241 5.83256 15 10 15C14.1674 15 17 11.5517 17 10C17 8.27586 14.1674 5 10 5ZM10.0406 13.5345C11.8612 13.5345 13.3371 11.9713 13.3371 10.0431C13.3371 8.11487 11.8612 6.55172 10.0406 6.55172C8.22001 6.55172 6.74411 8.11487 6.74411 10.0431C6.74411 11.9713 8.22001 13.5345 10.0406 13.5345Z" fill="#868686"/>
<path d="M12.1162 10.0431C12.1162 11.2572 11.1869 12.2414 10.0406 12.2414C8.89431 12.2414 7.96504 11.2572 7.96504 10.0431C7.96504 8.82903 8.89431 7.84483 10.0406 7.84483C11.1869 7.84483 12.1162 8.82903 12.1162 10.0431Z" fill="#868686"/>
</svg>
