<svg width="27" height="27" viewBox="0 0 27 27" fill="none" xmlns="http://www.w3.org/2000/svg">
<path fill-rule="evenodd" clip-rule="evenodd" d="M9.42857 23.4872C9.42857 24.1709 10.1071 24.1709 10.7857 23.4872L13.8393 20.4103C14.0089 20.2393 14.5179 19.7265 14.8571 19.7265H20.625C23 19.7265 23 18.0171 23 17.3333V6.05128C23 5.36752 23 4 20.625 4H6.375C4 4 4 5.36752 4 6.05128V17.3333C4 18.359 4 19.7265 6.375 19.7265H8.75C9.08929 19.7265 9.42857 20.0684 9.42857 20.4103C9.42857 20.4103 9.42857 22.2856 9.42857 23.4872ZM17.5714 9.12821C16.7571 9.12821 16.5536 9.75499 16.5536 9.98291V14.4274C16.5536 14.6553 16.7571 15.2821 17.5714 15.2821C18.3857 15.2821 18.5893 14.6553 18.5893 14.4274V9.98291C18.5893 9.75499 18.3857 9.12821 17.5714 9.12821ZM13.5 7.4188C14.3143 7.4188 14.5179 7.9886 14.5179 8.2735V16.1368C14.5179 16.4217 14.3143 16.9915 13.5 16.9915C12.6857 16.9915 12.4821 16.4217 12.4821 16.1368V8.2735C12.4821 7.9886 12.6857 7.4188 13.5 7.4188ZM9.42857 8.44444C10.2429 8.44444 10.4464 9.01425 10.4464 9.29915V15.1111C10.4464 15.396 10.2429 15.9658 9.42857 15.9658C8.61428 15.9658 8.41071 15.396 8.41071 15.1111V9.29915C8.41071 9.01425 8.61428 8.44444 9.42857 8.44444Z" fill="#868686"/>
</svg>
