<svg width="27" height="27" viewBox="0 0 27 27" fill="none" xmlns="http://www.w3.org/2000/svg">
<path d="M14.686 21.2982V22.8421C14.686 23.4816 14.155 24 13.5 24C12.845 24 12.314 23.4816 12.314 22.8421V21.2982V21.2181C8.18098 20.6548 5 17.1901 5 13C5 12.7105 5.1779 12.1316 5.88953 12.1316C6.60116 12.1316 6.77907 12.7105 6.77907 13C6.77907 16.6238 9.78814 19.5614 13.5 19.5614C14.7152 19.5614 15.855 19.2466 16.8387 18.6959C18.0091 18.0406 18.9583 17.0514 19.5499 15.8614C19.9798 14.9966 20.2209 14.0258 20.2209 13C20.2209 12.7105 20.3988 12.1316 21.1105 12.1316C21.8221 12.1316 22 12.7105 22 13C22 14.5099 21.5869 15.9256 20.8651 17.1453C20.1011 18.4362 18.9913 19.5076 17.6593 20.2386C16.7573 20.7336 15.7534 21.0726 14.686 21.2181L14.686 21.2982Z" fill="#868686"/>
<path d="M13.5 2C15.7926 2 17.6512 3.81443 17.6512 6.05263V13.4881C17.5716 15.658 15.7447 17.3932 13.5027 17.3932C11.2101 17.3932 9.35154 15.5787 9.35154 13.3405V5.90508C9.43108 3.73522 11.258 2 13.5 2Z" fill="#868686"/>
</svg>
