<svg width="27" height="27" viewBox="0 0 27 27" fill="none" xmlns="http://www.w3.org/2000/svg">
<path d="M12.8689 17.3446C10.6111 17.3446 8.78074 15.5567 8.78074 13.3513V11.6399L14.3459 17.076C13.8878 17.2494 13.3897 17.3446 12.8689 17.3446Z" fill="#868686"/>
<path d="M14.0369 21.3378V22.8591C14.0369 23.4892 13.5139 24 12.8689 24C12.2238 24 11.7008 23.4892 11.7008 22.8591V21.3378V21.2589C7.63062 20.7038 4.49795 17.2898 4.49795 13.1611C4.49795 12.8759 4.67315 12.3054 5.37397 12.3054C6.07479 12.3054 6.25 12.8759 6.25 13.1611C6.25 16.7318 9.21337 19.6264 12.8689 19.6264C14.0656 19.6264 15.1881 19.3162 16.1568 18.7736C16.4661 18.6003 16.8609 18.6297 17.113 18.876C17.5453 19.2983 17.498 20.001 16.9649 20.2937C16.0767 20.7815 15.088 21.1155 14.0369 21.2589L14.0369 21.3378Z" fill="#868686"/>
<path d="M16.957 6.31554V13.3513C16.957 13.6025 16.9332 13.8482 16.8878 14.0865L18.8269 15.9806C19.2503 15.1285 19.4877 14.1719 19.4877 13.1611C19.4877 12.8759 19.6629 12.3054 20.3637 12.3054C21.0646 12.3054 21.2398 12.8759 21.2398 13.1611C21.2398 14.6489 20.833 16.0439 20.1221 17.2458L23.6864 20.7274C24.1045 21.1358 24.1045 21.798 23.6864 22.2064C23.2683 22.6149 22.5903 22.6149 22.1722 22.2064L18.8095 18.9218L17.5706 17.7116L3.3136 3.78539C2.89547 3.37695 2.89547 2.71476 3.3136 2.30632C3.73173 1.89789 4.40966 1.89789 4.82779 2.30632L8.7834 6.17015C8.86174 4.03208 10.6609 2.32228 12.8689 2.32228C15.1267 2.32228 16.957 4.11013 16.957 6.31554Z" fill="#868686"/>
</svg>
