<svg width="27" height="27" viewBox="0 0 27 27" fill="none" xmlns="http://www.w3.org/2000/svg">
<path d="M16.4138 9.53188V17.278C16.4138 17.5126 16.6564 17.6704 16.866 17.5525C17.8837 16.9804 19.1724 15.6403 19.1724 13.3332C19.1724 11.0041 17.859 9.72235 16.837 9.24914C16.6314 9.15389 16.4138 9.31129 16.4138 9.53188Z" fill="#868686"/>
<path d="M17.979 5.07203C21.4977 6.35773 24 9.64619 24 13.5C24 17.3538 21.4977 20.6423 17.979 21.928C17.1878 22.2171 16.4138 21.5959 16.4138 20.7778C16.4138 20.2162 16.7893 19.7259 17.3197 19.4975C19.8457 18.4099 21.5862 16.4012 21.5862 13.5C21.5862 10.5988 19.8457 8.59009 17.3197 7.50249C16.7893 7.27411 16.4138 6.78384 16.4138 6.22222C16.4138 5.40407 17.1878 4.78292 17.979 5.07203Z" fill="#868686"/>
<path d="M5.03448 10.1644H8.33993C8.43138 10.1644 8.51909 10.1292 8.58376 10.0667L12.4187 6.35702C12.548 6.23191 12.7234 6.16163 12.9064 6.16163H13.3103C13.6912 6.16163 14 6.46031 14 6.82875V20.1712C14 20.5397 13.6912 20.8384 13.3103 20.8384H12.9064C12.7234 20.8384 12.548 20.7681 12.4187 20.643L8.58376 16.9333C8.51909 16.8708 8.43138 16.8356 8.33993 16.8356H5.03448C4.46315 16.8356 4 16.3876 4 15.8349V11.1651C4 10.6124 4.46315 10.1644 5.03448 10.1644Z" fill="#868686"/>
</svg>
