<svg width="27" height="27" viewBox="0 0 27 27" fill="none" xmlns="http://www.w3.org/2000/svg">
<path d="M8.62013 11.8587C8.50586 11.9004 8.4323 12.0097 8.4323 12.1313V14.2912C8.4323 14.8348 8.18292 15.3484 7.7557 15.6847L5.39598 17.5418C5.06734 17.8005 4.81478 17.9696 4.3972 17.9928C3.84825 18.0232 3.21958 17.7209 2.8416 17.3216L2.07762 16.5146C1.41598 15.8158 0.875274 14.9238 1.06509 13.9803C1.21243 13.2479 6.07482 9 13 9C19.9252 9 24.7876 13.2479 24.9349 13.9803C25.1247 14.9238 24.584 15.8158 23.9224 16.5146L23.1584 17.3216C22.7804 17.7209 22.1517 18.0232 21.6028 17.9928C21.1852 17.9696 20.9327 17.8005 20.604 17.5418L18.2443 15.6847C17.8171 15.3484 17.5677 14.8348 17.5677 14.2912V12.1266C17.5677 12.0073 17.4956 11.8992 17.3847 11.8554C13.92 10.4889 10.3071 11.2436 8.62013 11.8587Z" fill="#868686"/>
</svg>
