<svg width="27" height="27" viewBox="0 0 27 27" fill="none" xmlns="http://www.w3.org/2000/svg">
<path d="M6.90816 20.25C6.71149 20.25 6.39874 20.1843 6.15632 20.0082C5.95179 19.8596 5.75 19.6033 5.75 19.075H4.25C4.25 20.0867 4.68426 20.7929 5.2748 21.2218C5.82745 21.6232 6.46878 21.75 6.90816 21.75V20.25ZM6.90816 6.25C6.46878 6.25 5.82745 6.37676 5.2748 6.77818C4.68426 7.20712 4.25 7.91333 4.25 8.925H5.75C5.75 8.39667 5.95179 8.14038 6.15632 7.99182C6.39874 7.81574 6.71149 7.75 6.90816 7.75V6.25ZM4.25 8.925V19.075H5.75V8.925H4.25ZM20.0918 21.75C20.5312 21.75 21.1725 21.6232 21.7252 21.2218C22.3157 20.7929 22.75 20.0867 22.75 19.075H21.25C21.25 19.6033 21.0482 19.8596 20.8437 20.0082C20.6013 20.1843 20.2885 20.25 20.0918 20.25V21.75ZM20.0918 7.75C20.2885 7.75 20.6013 7.81574 20.8437 7.99182C21.0482 8.14038 21.25 8.39667 21.25 8.925H22.75C22.75 7.91333 22.3157 7.20712 21.7252 6.77818C21.1725 6.37676 20.5312 6.25 20.0918 6.25V7.75ZM21.25 8.925V19.075H22.75V8.925H21.25ZM20.0918 20.25H6.90816V21.75H20.0918V20.25ZM6.90816 7.75H20.0918V6.25H6.90816V7.75Z" fill="#868686"/>
<path d="M12.8208 17H8.43506V16.1299L10.5049 13.9238C10.7891 13.6133 10.9985 13.3423 11.1333 13.1108C11.271 12.8794 11.3398 12.6597 11.3398 12.4517C11.3398 12.1675 11.2681 11.9448 11.1245 11.7837C10.981 11.6196 10.7759 11.5376 10.5093 11.5376C10.2222 11.5376 9.99512 11.6372 9.82812 11.8364C9.66406 12.0327 9.58203 12.292 9.58203 12.6143H8.30762C8.30762 12.2246 8.3999 11.8687 8.58447 11.5464C8.77197 11.2241 9.03564 10.9722 9.37549 10.7905C9.71533 10.606 10.1006 10.5137 10.5312 10.5137C11.1904 10.5137 11.7017 10.6719 12.0649 10.9883C12.4312 11.3047 12.6143 11.7515 12.6143 12.3286C12.6143 12.645 12.5322 12.9673 12.3682 13.2954C12.2041 13.6235 11.9229 14.0059 11.5244 14.4424L10.0698 15.9761H12.8208V17ZM16.0288 12.8076L17.2285 10.6016H18.7446L16.8813 13.7744L18.793 17H17.2593L16.0288 14.7588L14.7983 17H13.2646L15.1763 13.7744L13.313 10.6016H14.8291L16.0288 12.8076Z" fill="#868686"/>
</svg>
