<svg width="27" height="27" viewBox="0 0 27 27" fill="none" xmlns="http://www.w3.org/2000/svg">
<path d="M20.0577 7.34376C18.4587 5.8877 16.333 5 14 5C9.02944 5 5 9.02944 5 14C5 18.9706 9.02944 23 14 23C18.9706 23 23 18.9706 23 14C23 11.3624 21.8654 8.98989 20.0577 7.34376ZM20.0577 7.34376C19.3077 8.23559 17.8077 10.8154 17.8077 14C17.8077 17.1846 19.3077 19.7644 20.0577 20.6562M7.94231 7.34376C8.69231 8.23559 10.1923 10.8154 10.1923 14C10.1923 17.1846 8.69231 19.7644 7.94231 20.6562" stroke="#868686" stroke-width="1.3"/>
</svg>
