<svg width="27" height="27" viewBox="0 0 27 27" fill="none" xmlns="http://www.w3.org/2000/svg">
<path d="M24 5.92623C24 7.54234 22.6899 8.85246 21.0738 8.85246C19.4577 8.85246 18.1475 7.54234 18.1475 5.92623C18.1475 4.31012 19.4577 3 21.0738 3C22.6899 3 24 4.31012 24 5.92623Z" fill="#868686"/>
<path d="M12.8115 10.4016V17.9754M9.02459 14.1885H16.5984M22.4508 12.2951C22.5082 12.6393 22.623 13.5 22.623 14.1885C22.623 19.6073 18.2302 24 12.8115 24C7.39275 24 3 19.6073 3 14.1885C3 8.7698 7.39275 4.37705 12.8115 4.37705C13.3852 4.37705 14.3607 4.37705 14.877 4.54918M24 5.92623C24 7.54234 22.6899 8.85246 21.0738 8.85246C19.4577 8.85246 18.1475 7.54234 18.1475 5.92623C18.1475 4.31012 19.4577 3 21.0738 3C22.6899 3 24 4.31012 24 5.92623Z" stroke="#868686" stroke-width="1.5" stroke-linecap="round"/>
</svg>
