<svg width="27" height="27" viewBox="0 0 27 27" fill="none" xmlns="http://www.w3.org/2000/svg">
<path d="M10.6737 13.9937C10.84 14.1636 9.96396 17.9483 10.0087 17.9026C10.0535 17.8568 13.3337 15.9435 13.3337 15.8631C13.3337 15.7828 16.6587 18.0725 16.6587 17.9026C16.6587 17.7326 15.8275 14.1636 15.9937 13.9937C16.16 13.8237 18.82 11.2745 18.6537 11.2745C18.4875 11.2745 15.0556 10.7646 14.9962 10.7646C14.9368 10.7646 13.3337 7.29521 13.3337 7.36559C13.3337 7.43598 11.7394 10.7646 11.6712 10.7646C11.603 10.7646 8.17996 11.2745 8.01371 11.2745C7.84746 11.2745 10.5075 13.8237 10.6737 13.9937Z" stroke="#868686" stroke-width="1.5" stroke-linecap="round" stroke-linejoin="round"/>
</svg>
