<svg width="27" height="27" viewBox="0 0 27 27" fill="none" xmlns="http://www.w3.org/2000/svg">
<path d="M21.121 17.3837C22.8799 15.9084 24 13.6823 24 11.1919C24 8.70143 22.8799 6.47535 21.121 5M18.4406 7.38359C19.364 8.3132 19.9355 9.59953 19.9355 11.0207C19.9355 12.4569 19.3519 13.7553 18.4113 14.6871M3 23C3 21.4028 3.94839 18.7217 7.74194 18.7217H13.1613C16.9548 18.7217 17.9032 21.4028 17.9032 23M15.1935 10.6785C15.1935 13.3249 13.0705 15.4702 10.4516 15.4702C7.83271 15.4702 5.70968 13.3249 5.70968 10.6785C5.70968 8.03208 7.83271 5.88676 10.4516 5.88676C13.0705 5.88676 15.1935 8.03208 15.1935 10.6785Z" stroke="#868686" stroke-width="1.5" stroke-linecap="round"/>
</svg>
