<svg width="27" height="27" viewBox="0 0 27 27" fill="none" xmlns="http://www.w3.org/2000/svg">
<path d="M20.2742 10.3333C20.5768 10.5567 20.8268 10.7923 21.0332 11.0376M21.0332 11.0376C22.2131 12.4393 21.9678 14.1536 21.9678 15.6667C21.9678 19.8333 16.379 21 13.5 21C10.6209 21 5.03221 19.8333 5.03221 15.6667C5.03223 14.1536 4.7869 12.4393 5.96677 11.0376M21.0332 11.0376C21.776 11.4676 21.9657 9.85834 21.9678 9.33333V7.33346C21.9678 5.60012 20.7823 5.00012 19.7662 5.00012C18.75 5.00012 16.7178 6.66667 16.0404 6.66667C15.2274 6.66667 15.0709 6.50012 13.5 6.50012C11.9292 6.50012 11.7726 6.66667 10.9597 6.66667C10.2823 6.66667 8.24998 5 7.23384 5C6.21771 5 5.03223 5.6 5.03223 7.33333V9.33333C5.03428 9.85834 5.22405 11.4676 5.96677 11.0376M22.3065 18.8333C21.7984 18.5 20.6129 17.6667 19.7661 17.6667M24 16.1667C23.4919 15.8333 21.2903 15 20.4436 15M6.72582 10.3333C6.42322 10.5567 6.17318 10.7923 5.96677 11.0376M4.69355 18.8333C5.20162 18.5 6.3871 17.6667 7.23388 17.6667M3 16.1667C3.50807 15.8333 5.70968 15 6.55646 15M10.9597 14.1667C10.9597 14.6269 10.7322 15 10.4516 15C10.171 15 9.94353 14.6269 9.94353 14.1667C9.94353 13.7064 10.171 13.3333 10.4516 13.3333C10.7322 13.3333 10.9597 13.7064 10.9597 14.1667ZM17.3952 14.1667C17.3952 14.6269 17.1677 15 16.8871 15C16.6065 15 16.379 14.6269 16.379 14.1667C16.379 13.7064 16.6065 13.3333 16.8871 13.3333C17.1677 13.3333 17.3952 13.7064 17.3952 14.1667ZM14.5162 16.66C14.5162 16.8441 14.137 16.9933 13.6694 16.9933C13.2017 16.9933 12.8226 16.8441 12.8226 16.66C12.8226 16.4759 13.2017 16.3267 13.6694 16.3267C14.137 16.3267 14.5162 16.4759 14.5162 16.66Z" stroke="#868686" stroke-width="1.3" stroke-linecap="round"/>
</svg>
