<svg width="27" height="27" viewBox="0 0 27 27" fill="none" xmlns="http://www.w3.org/2000/svg">
<path d="M21.486 17.5461C21.7876 17.83 22.2623 17.8157 22.5461 17.514C22.83 17.2124 22.8157 16.7377 22.514 16.4539L21.486 17.5461ZM13.5 9L14.0141 8.45385C13.7253 8.18205 13.2748 8.18205 12.986 8.45385L13.5 9ZM4.48598 16.4538C4.18435 16.7377 4.16996 17.2124 4.45385 17.514C4.73774 17.8157 5.21239 17.83 5.51402 17.5462L4.48598 16.4538ZM22.514 16.4539L14.0141 8.45385L12.986 9.54615L21.486 17.5461L22.514 16.4539ZM5.51402 17.5462L14.0141 9.54615L12.986 8.45385L4.48598 16.4538L5.51402 17.5462Z" fill="#868686"/>
</svg>
