<svg width="17" height="17" viewBox="0 0 17 17" fill="none" xmlns="http://www.w3.org/2000/svg">
<path d="M9.41435 13.4685C9.67311 13.792 10.1451 13.8444 10.4685 13.5857C10.792 13.3269 10.8444 12.8549 10.5857 12.5315L9.41435 13.4685ZM6 8L5.41435 7.53148C5.19522 7.80539 5.19522 8.19461 5.41435 8.46852L6 8ZM10.5857 3.46852C10.8444 3.14507 10.792 2.67311 10.4685 2.41435C10.1451 2.15559 9.67311 2.20803 9.41435 2.53148L10.5857 3.46852ZM10.5857 12.5315L6.58565 7.53148L5.41435 8.46852L9.41435 13.4685L10.5857 12.5315ZM9.41435 2.53148L5.41435 7.53148L6.58565 8.46852L10.5857 3.46852L9.41435 2.53148Z" fill="#868686"/>
</svg>
