<svg width="27" height="27" viewBox="0 0 27 27" fill="none" xmlns="http://www.w3.org/2000/svg">
<path d="M13.5 9.08929L14.0303 8.55896C13.7374 8.26606 13.2626 8.26606 12.9697 8.55896L13.5 9.08929ZM8.38931 13.1393C8.09642 13.4322 8.09642 13.9071 8.38931 14.2C8.68221 14.4929 9.15708 14.4929 9.44997 14.2L8.38931 13.1393ZM17.55 14.2C17.8429 14.4929 18.3178 14.4929 18.6107 14.2C18.9036 13.9071 18.9036 13.4322 18.6107 13.1393L17.55 14.2ZM14.25 23V9.08929H12.75V23H14.25ZM12.9697 8.55896L8.38931 13.1393L9.44997 14.2L14.0303 9.61962L12.9697 8.55896ZM12.9697 9.61962L17.55 14.2L18.6107 13.1393L14.0303 8.55896L12.9697 9.61962ZM22.25 13.5C22.25 18.3325 18.3325 22.25 13.5 22.25V23.75C19.1609 23.75 23.75 19.1609 23.75 13.5H22.25ZM13.5 22.25C8.66751 22.25 4.75 18.3325 4.75 13.5H3.25C3.25 19.1609 7.83908 23.75 13.5 23.75V22.25ZM4.75 13.5C4.75 8.66751 8.66751 4.75 13.5 4.75V3.25C7.83908 3.25 3.25 7.83908 3.25 13.5H4.75ZM13.5 4.75C18.3325 4.75 22.25 8.66751 22.25 13.5H23.75C23.75 7.83908 19.1609 3.25 13.5 3.25V4.75Z" fill="#868686"/>
</svg>
