<svg width="27" height="27" viewBox="0 0 27 27" fill="none" xmlns="http://www.w3.org/2000/svg">
<path d="M5 12.75C4.58579 12.75 4.25 13.0858 4.25 13.5C4.25 13.9142 4.58579 14.25 5 14.25V12.75ZM21 13.5L21.525 14.0356C21.6689 13.8946 21.75 13.7015 21.75 13.5C21.75 13.2985 21.6689 13.1054 21.525 12.9644L21 13.5ZM13.8728 5.46437C13.577 5.17443 13.1021 5.1792 12.8122 5.47502C12.5223 5.77084 12.527 6.24569 12.8228 6.53563L13.8728 5.46437ZM12.8228 20.4644C12.527 20.7543 12.5223 21.2292 12.8122 21.525C13.1021 21.8208 13.577 21.8256 13.8728 21.5356L12.8228 20.4644ZM5 14.25H21V12.75H5V14.25ZM21.525 12.9644L13.8728 5.46437L12.8228 6.53563L20.475 14.0356L21.525 12.9644ZM20.475 12.9644L12.8228 20.4644L13.8728 21.5356L21.525 14.0356L20.475 12.9644Z" fill="#868686"/>
</svg>
