<svg width="27" height="27" viewBox="0 0 27 27" fill="none" xmlns="http://www.w3.org/2000/svg">
<path d="M6.36 21C5.90667 21 5 20.7209 5 19.6047V9.48837C5 8.37209 5.90667 8.09302 6.36 8.09302H9.76C9.87333 8.09302 10.1 8.16279 10.1 8.44186V15.0698C10.1 15.4186 10.304 16.1163 11.12 16.1163H19.62C19.7333 16.1163 19.96 16.186 19.96 16.4651V19.6047C19.96 20.0698 19.688 21 18.6 21H6.36Z" fill="#868686"/>
<path fill-rule="evenodd" clip-rule="evenodd" d="M13.5 6C12.9367 6 12.48 6.46854 12.48 7.04651V12.6279C12.48 13.2059 12.9367 13.6744 13.5 13.6744H20.98C21.5433 13.6744 22 13.2059 22 12.6279V7.04651C22 6.46854 21.5433 6 20.98 6H13.5ZM20.64 7.39535H13.84V12.2791H20.64V7.39535Z" fill="#868686"/>
</svg>
