<svg width="27" height="27" viewBox="0 0 27 27" fill="none" xmlns="http://www.w3.org/2000/svg">
<path d="M12.3511 23.0293C12.3511 23.5028 13.2302 24 13.7186 24C14.2069 24 15.086 23.5028 15.086 23.0293H12.3511Z" fill="#868686"/>
<path d="M12.7418 4.93159C13.0513 4.90692 13.3766 4.89402 13.7186 4.89402C14.0605 4.89402 14.3858 4.90692 14.6953 4.93159V3.94701C14.6953 3.63134 14.5 3 13.7186 3C12.9372 3 12.7418 3.63134 12.7418 3.94701V4.93159Z" fill="#868686"/>
<path d="M21.9232 20.3776H4.48826C4.97663 19.9041 6.8813 18.8151 6.8813 17.6787C6.8813 16.5423 6.8813 12.4701 6.8813 10.5761C6.8813 9.53435 7.73595 7.61657 8.76154 7.45084M12.7418 4.93159C13.0513 4.90692 13.3766 4.89402 13.7186 4.89402C14.0605 4.89402 14.3858 4.90692 14.6953 4.93159M12.7418 4.93159V3.94701C12.7418 3.63134 12.9372 3 13.7186 3C14.5 3 14.6953 3.63134 14.6953 3.94701V4.93159M12.7418 4.93159C12.0988 4.99794 10.8127 5.16381 10.8127 5.29639M14.6953 4.93159C19.6897 5.32963 20.5558 8.79259 20.5558 10.5761V14.9086M4 3L8.76154 7.45084M25 23.3606L8.76154 7.45084M12.3511 23.0293C12.3511 23.5028 13.2302 24 13.7186 24C14.2069 24 15.086 23.5028 15.086 23.0293H12.3511Z" stroke="#868686" stroke-width="1.5" stroke-linecap="round" stroke-linejoin="round"/>
</svg>
