<svg width="27" height="27" viewBox="0 0 27 27" fill="none" xmlns="http://www.w3.org/2000/svg">
<path d="M4 20.486C4 18.9159 4.92477 15.7757 8.62385 15.7757H11.5963M14.9404 14.8084C15.6835 14.0514 16.7156 13.5888 17.8716 13.5888C20.1835 13.5888 22 15.4393 22 17.7944C22 18.972 21.5459 20.0234 20.8028 20.7804M14.9404 14.8084C14.1972 15.5654 13.7431 16.6168 13.7431 17.7944C13.7431 20.1495 15.5596 22 17.8716 22C19.0275 22 20.0596 21.5374 20.8028 20.7804M14.9404 14.8084L20.8028 20.7804M11.5963 4C13.7431 4 15.5596 5.85047 15.5596 8.03738C15.5596 10.2243 13.7431 12.0748 11.5963 12.0748C9.44954 12.0748 7.63303 10.2243 7.63303 8.03738C7.63303 5.85047 9.44954 4 11.5963 4Z" stroke="#868686" stroke-width="1.5" stroke-linecap="round"/>
</svg>
