<svg width="27" height="27" viewBox="0 0 27 27" fill="none" xmlns="http://www.w3.org/2000/svg">
<path d="M20.1494 4.43593L19.6745 3.85547L19.6482 3.87697L19.624 3.90076L20.1494 4.43593ZM22.5033 4.43593L21.9778 4.9711L21.9778 4.97111L22.5033 4.43593ZM23.5121 5.42635L24.0375 4.89118L24.0375 4.89117L23.5121 5.42635ZM23.5121 7.73741L24.0052 8.30248L24.0218 8.288L24.0375 8.27258L23.5121 7.73741ZM13.9286 17.206L13.3977 16.6762L13.2242 16.85L13.1872 17.0928L13.9286 17.206ZM3 19.5171L2.95101 18.7687C2.64434 18.7888 2.38094 18.9939 2.28638 19.2863C2.19182 19.5787 2.28524 19.8993 2.52209 20.0951L3 19.5171ZM11.5958 13.885L20.6749 4.97111L19.624 3.90076L10.5449 12.8147L11.5958 13.885ZM20.6244 5.0164C20.6934 4.9599 20.9487 4.81167 21.2527 4.76429C21.5287 4.72127 21.7708 4.76787 21.9778 4.9711L23.0287 3.90076C22.395 3.2786 21.6283 3.18764 21.0217 3.28218C20.443 3.37237 19.9417 3.63684 19.6745 3.85547L20.6244 5.0164ZM21.9778 4.97111L22.9866 5.96153L24.0375 4.89117L23.0287 3.90075L21.9778 4.97111ZM22.9866 5.96153C22.9859 5.96087 22.9898 5.96468 22.9977 5.97392C23.0054 5.98288 23.0153 5.9953 23.027 6.0112C23.0506 6.04327 23.0781 6.08529 23.1058 6.13547C23.1621 6.23769 23.21 6.35749 23.2338 6.48068C23.2758 6.69805 23.253 6.94072 22.9866 7.20224L24.0375 8.27258C24.7127 7.60968 24.8299 6.83438 24.7066 6.19611C24.593 5.60797 24.2778 5.12716 24.0375 4.89118L22.9866 5.96153ZM13.1872 17.0928C12.9661 18.54 11.9615 20.1913 10.3682 20.8944C8.84114 21.5682 6.53432 21.4661 3.47791 18.9391L2.52209 20.0951C5.85468 22.8505 8.75994 23.2436 10.9738 22.2667C13.1214 21.319 14.3867 19.1736 14.67 17.3193L13.1872 17.0928ZM23.0189 7.17234C21.7838 8.25025 16.136 13.9328 13.4061 16.6678L14.4678 17.7275C17.2363 14.9537 22.8217 9.33538 24.0052 8.30248L23.0189 7.17234ZM13.4061 16.6678C13.4031 16.6708 13.4007 16.6732 13.3977 16.6762L14.4594 17.7359C14.462 17.7332 14.4652 17.73 14.4678 17.7275L13.4061 16.6678ZM10.9074 14.0819C11.0276 14.1087 11.2678 14.2116 11.5799 14.4237C11.8791 14.6271 12.1977 14.8993 12.4765 15.2113C13.069 15.8746 13.325 16.5296 13.2073 17.024L14.6666 17.3713C14.9591 16.1421 14.2862 14.9855 13.5951 14.2119C13.2319 13.8055 12.8201 13.453 12.4231 13.1831C12.039 12.9221 11.6175 12.7033 11.2333 12.6178L10.9074 14.0819ZM11.211 12.6132C10.3212 12.4433 8.95195 12.3842 7.76285 12.8239C7.15662 13.048 6.56715 13.4135 6.13022 13.9896C5.6883 14.5722 5.4445 15.3153 5.4445 16.2156H6.9445C6.9445 15.5972 7.10702 15.1839 7.32537 14.896C7.54871 14.6015 7.87345 14.3822 8.28301 14.2308C9.1255 13.9193 10.1942 13.9461 10.9297 14.0865L11.211 12.6132ZM5.4445 16.2156C5.4445 16.7636 5.3028 17.3735 4.94462 17.8475C4.60618 18.2954 4.01799 18.6988 2.95101 18.7687L3.04899 20.2655C4.50398 20.1702 5.51305 19.5833 6.14136 18.7518C6.74993 17.9465 6.9445 16.9882 6.9445 16.2156H5.4445Z" fill="#868686"/>
</svg>
