<svg width="27" height="27" viewBox="0 0 27 27" fill="none" xmlns="http://www.w3.org/2000/svg">
<path d="M7.47541 9.54098C7.47541 8.4002 8.4002 7.47541 9.54098 7.47541H10.2295C11.3703 7.47541 12.2951 8.4002 12.2951 9.54098V10.2295C12.2951 11.3703 11.3703 12.2951 10.2295 12.2951H9.54098C8.4002 12.2951 7.47541 11.3703 7.47541 10.2295V9.54098Z" stroke="#868686" stroke-width="1.5"/>
<path d="M7.47541 16.7705C7.47541 15.6297 8.4002 14.7049 9.54098 14.7049H10.2295C11.3703 14.7049 12.2951 15.6297 12.2951 16.7705V17.459C12.2951 18.5998 11.3703 19.5246 10.2295 19.5246H9.54098C8.4002 19.5246 7.47541 18.5998 7.47541 17.459V16.7705Z" stroke="#868686" stroke-width="1.5"/>
<path d="M14.7049 9.54098C14.7049 8.4002 15.6297 7.47541 16.7705 7.47541H17.459C18.5998 7.47541 19.5246 8.4002 19.5246 9.54098V10.2295C19.5246 11.3703 18.5998 12.2951 17.459 12.2951H16.7705C15.6297 12.2951 14.7049 11.3703 14.7049 10.2295V9.54098Z" stroke="#868686" stroke-width="1.5"/>
<path d="M14.7049 16.7705C14.7049 15.6297 15.6297 14.7049 16.7705 14.7049H17.459C18.5998 14.7049 19.5246 15.6297 19.5246 16.7705V17.459C19.5246 18.5998 18.5998 19.5246 17.459 19.5246H16.7705C15.6297 19.5246 14.7049 18.5998 14.7049 17.459V16.7705Z" stroke="#868686" stroke-width="1.5"/>
</svg>
