<svg width="27" height="27" viewBox="0 0 27 27" fill="none" xmlns="http://www.w3.org/2000/svg">
<path d="M25 21.8333C25 23.03 24.0074 24 22.7829 24C21.5585 24 20.5659 23.03 20.5659 21.8333C20.5659 20.6367 21.5585 19.6667 22.7829 19.6667C24.0074 19.6667 25 20.6367 25 21.8333Z" fill="#868686"/>
<path d="M16.9845 23.5833C17.3987 23.5833 17.7345 23.2475 17.7345 22.8333C17.7345 22.4191 17.3987 22.0833 16.9845 22.0833V23.5833ZM6.24031 22.8333L6.20178 23.5823L6.22103 23.5833H6.24031V22.8333ZM22.374 16.5C22.374 16.9142 22.7098 17.25 23.124 17.25C23.5382 17.25 23.874 16.9142 23.874 16.5H22.374ZM16.9845 22.0833H6.24031V23.5833H16.9845V22.0833ZM6.27884 22.0843C5.84841 22.0622 5.18593 21.9029 4.65256 21.52C4.15282 21.1611 3.75 20.6005 3.75 19.6667H2.25C2.25 21.1328 2.92729 22.1278 3.77768 22.7384C4.59443 23.3248 5.5521 23.5489 6.20178 23.5823L6.27884 22.0843ZM6.20178 3.75099C5.5521 3.78441 4.59443 4.00849 3.77768 4.59495C2.92729 5.20556 2.25 6.20049 2.25 7.66667H3.75C3.75 6.73284 4.15282 6.17222 4.65256 5.81338C5.18593 5.4304 5.84841 5.27115 6.27884 5.24901L6.20178 3.75099ZM19.8452 5.24901C20.2756 5.27115 20.9381 5.4304 21.4715 5.81338C21.9712 6.17222 22.374 6.73284 22.374 7.66667H23.874C23.874 6.20049 23.1967 5.20556 22.3464 4.59495C21.5296 4.00849 20.5719 3.78441 19.9222 3.75099L19.8452 5.24901ZM3.75 19.6667V9.83333H2.25V19.6667H3.75ZM3.75 9.83333V7.66667H2.25V9.83333H3.75ZM22.374 7.66667V9.83333H23.874V7.66667H22.374ZM22.374 9.83333V16.5H23.874V9.83333H22.374ZM3 10.5833H23.124V9.08333H3V10.5833ZM6.99031 4.5V2.5H5.49031V4.5H6.99031ZM6.99031 2.5C6.99031 2.49106 6.99094 2.53789 6.94004 2.60008C6.91666 2.62864 6.88086 2.66189 6.8284 2.69037C6.7793 2.71703 6.69548 2.75 6.5814 2.75V1.25C5.89737 1.25 5.49031 1.8998 5.49031 2.5H6.99031ZM6.5814 2.75C6.46731 2.75 6.38349 2.71703 6.33439 2.69037C6.28193 2.66189 6.24613 2.62864 6.22275 2.60008C6.17185 2.53789 6.17248 2.49106 6.17248 2.5H7.67248C7.67248 1.8998 7.26542 1.25 6.5814 1.25V2.75ZM19.8837 3.75H6.92248V5.25H19.8837V3.75ZM6.92248 3.75H6.24031V5.25H6.92248V3.75ZM6.17248 2.5V4.5H7.67248V2.5H6.17248ZM19.9516 4.5V2.5H18.4516V4.5H19.9516ZM19.9516 2.5C19.9516 2.49106 19.9522 2.53789 19.9013 2.60008C19.8779 2.62864 19.8421 2.66189 19.7896 2.69037C19.7405 2.71703 19.6567 2.75 19.5426 2.75V1.25C18.8586 1.25 18.4516 1.8998 18.4516 2.5H19.9516ZM19.5426 2.75C19.4285 2.75 19.3447 2.71703 19.2956 2.69037C19.2432 2.66189 19.2074 2.62864 19.184 2.60008C19.1331 2.53789 19.1337 2.49106 19.1337 2.5H20.6337C20.6337 1.8998 20.2267 1.25 19.5426 1.25V2.75ZM19.1337 2.5V4.5H20.6337V2.5H19.1337ZM24.25 21.8333C24.25 22.5996 23.6095 23.25 22.7829 23.25V24.75C24.4053 24.75 25.75 23.4603 25.75 21.8333H24.25ZM22.7829 23.25C21.9564 23.25 21.3159 22.5996 21.3159 21.8333H19.8159C19.8159 23.4603 21.1606 24.75 22.7829 24.75V23.25ZM21.3159 21.8333C21.3159 21.0671 21.9564 20.4167 22.7829 20.4167V18.9167C21.1606 18.9167 19.8159 20.2063 19.8159 21.8333H21.3159ZM22.7829 20.4167C23.6095 20.4167 24.25 21.0671 24.25 21.8333H25.75C25.75 20.2063 24.4053 18.9167 22.7829 18.9167V20.4167Z" fill="#868686"/>
</svg>
