<svg width="27" height="27" viewBox="0 0 27 27" fill="none" xmlns="http://www.w3.org/2000/svg">
<path d="M20.7797 5.52C21.7966 5.52 24 6.2928 24 8.712V10.896M20.7797 5.52H7.89831M20.7797 5.52V3.504C20.7797 3.168 20.5763 3 20.4407 3C20.3051 3 20.1017 3.168 20.1017 3.504V5.52M7.22034 5.52C6.0339 5.52 4 6.2928 4 8.712V10.896M7.22034 5.52V3.504C7.22034 3.168 7.42373 3 7.55932 3C7.69492 3 7.89831 3.168 7.89831 3.504V5.52M7.22034 5.52H7.89831M4 10.896V20.808C4 23.2272 6.20339 24 7.22034 24H20.7797C21.7966 24 24 23.2272 24 20.808V10.896M4 10.896H24" stroke="#868686" stroke-width="1.5"/>
</svg>
