<svg width="27" height="27" viewBox="0 0 27 27" fill="none" xmlns="http://www.w3.org/2000/svg">
<path d="M21.5356 13.5V7.55357C21.5356 6.64286 20.9892 4.82143 18.8035 4.82143H17.1963C16.8749 4.82143 16.232 4.5 15.7499 4.01786C15.4285 3.69643 14.882 2.89286 13.3392 2.89286H10.1249C8.58204 2.89286 8.03561 3.69643 7.71418 4.01786C7.23204 4.5 6.58918 4.82143 6.26775 4.82143H4.66061C2.4749 4.82143 1.92847 6.64286 1.92847 7.55357V17.8393C1.92847 20.025 3.7499 20.5714 4.66061 20.5714H14.4642M17.9999 20.5714H25.0713M21.5356 17.0357V24.1071M15.5892 12.375C15.5892 14.5052 13.8623 16.2321 11.732 16.2321C9.6018 16.2321 7.8749 14.5052 7.8749 12.375C7.8749 10.2448 9.6018 8.51786 11.732 8.51786C13.8623 8.51786 15.5892 10.2448 15.5892 12.375Z" stroke="#868686" stroke-width="1.5" stroke-linecap="round"/>
</svg>
