<svg width="27" height="27" viewBox="0 0 27 27" fill="none" xmlns="http://www.w3.org/2000/svg">
<path d="M13.5 12.45C13.5 12.7399 13.2761 12.975 13 12.975C12.7239 12.975 12.5 12.7399 12.5 12.45C12.5 12.16 12.7239 11.925 13 11.925C13.2761 11.925 13.5 12.16 13.5 12.45Z" fill="#868686"/>
<path d="M18 12.45C18 12.7399 17.7761 12.975 17.5 12.975C17.2239 12.975 17 12.7399 17 12.45C17 12.16 17.2239 11.925 17.5 11.925C17.7761 11.925 18 12.16 18 12.45Z" fill="#868686"/>
<path d="M9 12.45C9 12.7399 8.77614 12.975 8.5 12.975C8.22386 12.975 8 12.7399 8 12.45C8 12.16 8.22386 11.925 8.5 11.925C8.77614 11.925 9 12.16 9 12.45Z" fill="#868686"/>
<path d="M10.2459 21.5716C8.64588 22.8316 5.16667 23.825 4 24C4.33333 23.125 5.82637 20.85 5.5 18.75L5.48261 18.6821C3.93706 17.0185 3 14.8377 3 12.45C3 7.23091 7.47715 3 13 3C18.5228 3 23 7.23091 23 12.45C23 17.6691 18.5228 21.9 13 21.9M10.2459 21.5716C11.1236 21.7857 12.047 21.9 13 21.9M10.2459 21.5716L10.2804 21.5463C11.1451 21.7767 12.0573 21.9 13 21.9M9 12.45C9 12.7399 8.77614 12.975 8.5 12.975C8.22386 12.975 8 12.7399 8 12.45C8 12.16 8.22386 11.925 8.5 11.925C8.77614 11.925 9 12.16 9 12.45ZM13.5 12.45C13.5 12.7399 13.2761 12.975 13 12.975C12.7239 12.975 12.5 12.7399 12.5 12.45C12.5 12.16 12.7239 11.925 13 11.925C13.2761 11.925 13.5 12.16 13.5 12.45ZM18 12.45C18 12.7399 17.7761 12.975 17.5 12.975C17.2239 12.975 17 12.7399 17 12.45C17 12.16 17.2239 11.925 17.5 11.925C17.7761 11.925 18 12.16 18 12.45Z" stroke="#868686" stroke-width="1.5" stroke-linecap="round" stroke-linejoin="round"/>
</svg>
