<svg width="27" height="27" viewBox="0 0 27 27" fill="none" xmlns="http://www.w3.org/2000/svg">
<path d="M10.2459 21.5716C8.64588 22.8316 5.16667 23.825 4 24C4.33333 23.125 5.82637 20.85 5.5 18.75L5.48261 18.6821C3.93706 17.0185 3 14.8377 3 12.45C3 7.23091 7.47715 3 13 3C18.5228 3 23 7.23091 23 12.45C23 17.6691 18.5228 21.9 13 21.9M10.2459 21.5716C11.1236 21.7857 12.047 21.9 13 21.9M10.2459 21.5716L10.2804 21.5463C11.1451 21.7767 12.0573 21.9 13 21.9M9.16667 11.1852H17.1667M9.16667 15.0273H15.5" stroke="#868686" stroke-width="1.5" stroke-linecap="round" stroke-linejoin="round"/>
</svg>
