<svg width="27" height="27" viewBox="0 0 27 27" fill="none" xmlns="http://www.w3.org/2000/svg">
<path d="M15.437 6.09C15.8512 6.09 16.187 5.75421 16.187 5.34C16.187 4.92579 15.8512 4.59 15.437 4.59V6.09ZM19.4706 20.3H18.7206H19.4706ZM6.69748 15.54L6.16413 15.0127L6.13881 15.0383L6.11607 15.0662L6.69748 15.54ZM10.2269 17.75L9.69354 18.2773L10.2269 17.75ZM10.8992 17.75L11.4325 18.2773L11.4718 18.2376L11.5047 18.1925L10.8992 17.75ZM13.7563 13.84L13.2229 13.3127L13.1837 13.3524L13.1507 13.3975L13.7563 13.84ZM19.1345 17.92L18.6011 18.4473L19.1345 17.92ZM20.2206 5C20.2206 4.58579 19.8848 4.25 19.4706 4.25C19.0564 4.25 18.7206 4.58579 18.7206 5H20.2206ZM19.4706 13.33L18.9793 13.8967C19.2612 14.1411 19.68 14.1411 19.9619 13.8967L19.4706 13.33ZM23.4913 10.8367C23.8043 10.5653 23.838 10.0917 23.5667 9.77869C23.2953 9.46573 22.8217 9.43199 22.5087 9.70333L23.4913 10.8367ZM16.4325 9.70333C16.1195 9.43199 15.6458 9.46573 15.3745 9.77869C15.1032 10.0917 15.1369 10.5653 15.4499 10.8367L16.4325 9.70333ZM15.437 4.59H5.35294V6.09H15.437V4.59ZM5.35294 4.59C4.83902 4.59 4.08621 4.73972 3.44082 5.20974C2.75767 5.70727 2.25 6.52716 2.25 7.72H3.75C3.75 7.00884 4.02665 6.63873 4.32388 6.42226C4.65889 6.17828 5.08255 6.09 5.35294 6.09V4.59ZM2.25 7.72C2.25 8.67965 2.25 10.8177 2.25 13.1515C2.25 15.4763 2.25 17.978 2.25 19.62H3.75C3.75 17.978 3.75 15.4763 3.75 13.1515C3.75 10.8177 3.75 8.67965 3.75 7.72H2.25ZM5.35294 22.75H17.7899V21.25H5.35294V22.75ZM17.7899 22.75C18.1504 22.75 18.7247 22.6272 19.2285 22.2743C19.7721 21.8937 20.2206 21.2493 20.2206 20.3H18.7206C18.7206 20.7107 18.5529 20.9163 18.3681 21.0457C18.1437 21.2028 17.8776 21.25 17.7899 21.25V22.75ZM7.23083 16.0673C7.23772 16.0603 7.2603 16.0406 7.29389 16.0217C7.32657 16.0033 7.35463 15.9942 7.37396 15.991C7.38983 15.9884 7.39813 15.9898 7.406 15.9923C7.41337 15.9947 7.44943 16.0074 7.50866 16.0673L8.57537 15.0127C8.13429 14.5666 7.60946 14.4321 7.13024 14.511C6.699 14.582 6.36035 14.8142 6.16413 15.0127L7.23083 16.0673ZM7.50866 16.0673C7.52802 16.0869 7.54032 16.0993 7.56082 16.12C7.56194 16.1212 7.56306 16.1223 7.56419 16.1235C7.56532 16.1246 7.56645 16.1257 7.56758 16.1269C7.56871 16.128 7.56984 16.1292 7.57097 16.1303C7.57211 16.1315 7.57325 16.1326 7.57438 16.1338C7.57552 16.1349 7.57666 16.1361 7.57781 16.1372C7.57895 16.1384 7.5801 16.1395 7.58124 16.1407C7.58937 16.1489 7.58002 16.1395 7.58815 16.1477C7.60292 16.1626 7.58729 16.1468 7.60212 16.1618C7.60344 16.1632 7.60785 16.1676 7.60918 16.169C7.61036 16.1702 7.61155 16.1714 7.61273 16.1726C7.61392 16.1738 7.6151 16.175 7.61629 16.1762C7.62019 16.1801 7.64104 16.2012 7.6452 16.2054C7.65861 16.219 7.64647 16.2067 7.65993 16.2203C7.66763 16.2281 7.65966 16.22 7.66737 16.2278C7.66928 16.2298 7.67293 16.2334 7.67485 16.2354C7.67892 16.2395 7.7313 16.2925 7.73628 16.2975C7.75304 16.3145 7.84682 16.4093 7.8668 16.4295C7.91963 16.483 7.88193 16.4448 7.93544 16.499C7.94969 16.5134 7.99117 16.5553 8.00604 16.5704C8.08474 16.65 8.07148 16.6366 8.15217 16.7182C8.18433 16.7507 8.15731 16.7234 8.18957 16.756C8.19493 16.7614 8.20299 16.7696 8.20837 16.775C8.20957 16.7763 8.21661 16.7834 8.2178 16.7846C8.22442 16.7913 8.22063 16.7874 8.22725 16.7941C8.23483 16.8018 8.25754 16.8248 8.2652 16.8325C8.26678 16.8341 8.26837 16.8357 8.26996 16.8373C8.27154 16.8389 8.27313 16.8405 8.27472 16.8422C8.3029 16.8707 8.25608 16.8233 8.28426 16.8518C8.28585 16.8534 8.28744 16.855 8.28903 16.8566C8.29062 16.8582 8.29221 16.8599 8.29381 16.8615C8.29613 16.8638 8.30104 16.8688 8.30337 16.8711C8.33923 16.9074 8.34422 16.9125 8.38031 16.949C8.39919 16.9681 8.43879 17.0081 8.45783 17.0274C8.45944 17.029 8.46106 17.0306 8.46268 17.0323C8.4643 17.0339 8.46592 17.0356 8.46754 17.0372C8.47793 17.0477 8.46689 17.0365 8.47727 17.047C8.48817 17.0581 8.48583 17.0557 8.49673 17.0667C8.52923 17.0996 8.50319 17.0732 8.5357 17.1061C8.57035 17.1412 8.52055 17.0908 8.5552 17.1259C8.55946 17.1302 8.57044 17.1413 8.5747 17.1456C8.57558 17.1465 8.58358 17.1546 8.58445 17.1555C8.60638 17.1776 8.57228 17.1431 8.5942 17.1653C8.6067 17.178 8.60121 17.1724 8.61371 17.185C8.61533 17.1867 8.61696 17.1883 8.61858 17.19C8.6202 17.1916 8.62183 17.1933 8.62345 17.1949C8.62508 17.1965 8.6267 17.1982 8.62833 17.1998C8.62995 17.2015 8.63158 17.2031 8.6332 17.2048C8.63767 17.2093 8.63847 17.2101 8.64294 17.2146C8.65051 17.2223 8.64512 17.2168 8.65269 17.2245C8.69836 17.2707 8.64596 17.2177 8.69161 17.2638C8.72611 17.2987 8.73484 17.3076 8.76919 17.3423C8.80887 17.3825 8.76816 17.3413 8.80779 17.3814C8.8142 17.3878 8.811 17.3846 8.81741 17.3911C8.81902 17.3927 8.82062 17.3943 8.82222 17.396C8.82382 17.3976 8.82543 17.3992 8.82703 17.4008C8.83857 17.4125 8.83469 17.4086 8.84622 17.4202C8.86214 17.4363 8.90684 17.4815 8.92246 17.4973C8.98168 17.5572 9.01413 17.5901 9.0717 17.6483C9.12417 17.7014 9.09228 17.6691 9.14423 17.7217C9.14562 17.7231 9.21429 17.7925 9.21507 17.7933C9.25607 17.8348 9.31263 17.892 9.35076 17.9306C9.35107 17.9309 9.35865 17.9386 9.35895 17.9389C9.36077 17.9407 9.36528 17.9453 9.36709 17.9471C9.36845 17.9485 9.3698 17.9498 9.37115 17.9512C9.37251 17.9526 9.37386 17.9539 9.3752 17.9553C9.387 17.9672 9.37149 17.9515 9.38327 17.9635C9.39215 17.9724 9.39048 17.9707 9.3993 17.9797C9.40063 17.981 9.40195 17.9824 9.40328 17.9837C9.4046 17.985 9.40593 17.9864 9.40725 17.9877C9.41126 17.9918 9.41116 17.9917 9.41516 17.9957C9.41947 18.0001 9.4266 18.0073 9.43086 18.0116C9.4548 18.0358 9.42251 18.0031 9.4464 18.0273C9.48538 18.0667 9.4382 18.019 9.47695 18.0582C9.47821 18.0595 9.47947 18.0608 9.48072 18.062C9.48198 18.0633 9.48323 18.0646 9.48448 18.0658C9.48633 18.0677 9.49013 18.0715 9.49197 18.0734C9.51036 18.092 9.48847 18.0699 9.5068 18.0884C9.51427 18.096 9.5287 18.1106 9.53592 18.1179C9.57255 18.1549 9.55625 18.1384 9.59182 18.1744C9.6003 18.183 9.61035 18.1931 9.61855 18.2014C9.64361 18.2268 9.60007 18.1827 9.6251 18.2081C9.62619 18.2092 9.62728 18.2103 9.62836 18.2114C9.62944 18.2125 9.63052 18.2136 9.6316 18.2146C9.64686 18.2301 9.62281 18.2057 9.63805 18.2212C9.63912 18.2222 9.64018 18.2233 9.64125 18.2244C9.64231 18.2255 9.64338 18.2266 9.64444 18.2276C9.66709 18.2505 9.6721 18.2556 9.69354 18.2773L10.7602 17.2227C10.7355 17.1977 10.7371 17.1993 10.7111 17.173C10.7038 17.1656 10.6929 17.1546 10.6853 17.1469C10.6819 17.1434 10.6622 17.1235 10.6585 17.1198C10.6223 17.0832 10.6399 17.101 10.6026 17.0633C10.6014 17.0621 10.6002 17.0609 10.599 17.0596C10.5978 17.0584 10.5966 17.0572 10.5954 17.056C10.5942 17.0548 10.593 17.0535 10.5918 17.0523C10.5906 17.0511 10.5894 17.0499 10.5882 17.0486C10.5759 17.0362 10.5859 17.0463 10.5735 17.0338C10.5606 17.0208 10.5716 17.0319 10.5587 17.0188C10.5521 17.0122 10.5503 17.0104 10.5437 17.0036C10.5263 16.9861 10.5307 16.9905 10.5131 16.9727C10.4797 16.939 10.5155 16.9751 10.4819 16.9411C10.4402 16.899 10.4599 16.9189 10.4175 16.876C10.4085 16.8669 10.3935 16.8518 10.3844 16.8425C10.3685 16.8265 10.3835 16.8416 10.3676 16.8256C10.3662 16.8241 10.3648 16.8227 10.3634 16.8213C10.362 16.8199 10.3606 16.8184 10.3592 16.817C10.3522 16.81 10.3577 16.8155 10.3507 16.8085C10.3261 16.7836 10.307 16.7643 10.2818 16.7387C10.2787 16.7357 10.2673 16.7241 10.2642 16.721C10.264 16.7208 10.2468 16.7034 10.2466 16.7031C10.2414 16.698 10.2429 16.6994 10.2377 16.6942C10.1952 16.6511 10.2714 16.7282 10.2288 16.6852C10.2273 16.6837 10.2258 16.6822 10.2244 16.6807C10.2229 16.6792 10.2214 16.6776 10.2199 16.6761C10.2099 16.666 10.2209 16.6772 10.2109 16.6671C10.1908 16.6467 10.1591 16.6146 10.1384 16.5937C10.118 16.5731 10.1405 16.5958 10.12 16.5751C10.091 16.5458 10.1306 16.5858 10.1016 16.5565C10.06 16.5145 10.1246 16.5797 10.083 16.5377C10.0815 16.5361 10.0799 16.5346 10.0784 16.533C10.0768 16.5314 10.0753 16.5299 10.0737 16.5283C10.0722 16.5267 10.0706 16.5252 10.0691 16.5236C10.0675 16.522 10.066 16.5204 10.0644 16.5189C10.0386 16.4928 10.0528 16.5072 10.0269 16.481C10.0176 16.4715 9.99857 16.4523 9.98917 16.4428C9.98759 16.4412 9.98601 16.4396 9.98443 16.438C9.98285 16.4364 9.98127 16.4348 9.97969 16.4332C9.97811 16.4316 9.97653 16.43 9.97494 16.4284C9.97336 16.4268 9.97178 16.4252 9.97019 16.4236C9.96861 16.422 9.96703 16.4204 9.96544 16.4188C9.96386 16.4172 9.96227 16.4156 9.96068 16.414C9.9591 16.4124 9.95751 16.4107 9.95592 16.4091C9.95434 16.4075 9.95275 16.4059 9.95116 16.4043C9.94061 16.3937 9.94263 16.3957 9.93207 16.385C9.93048 16.3834 9.92888 16.3818 9.92729 16.3802C9.92569 16.3786 9.9241 16.3769 9.9225 16.3753C9.91502 16.3678 9.92041 16.3732 9.91293 16.3656C9.90626 16.3589 9.84279 16.2947 9.8359 16.2877C9.80102 16.2525 9.79334 16.2447 9.75832 16.2093C9.72923 16.1798 9.76796 16.219 9.73886 16.1896C9.72802 16.1786 9.73997 16.1907 9.72913 16.1797C9.72751 16.1781 9.72588 16.1765 9.72426 16.1748C9.72264 16.1732 9.72102 16.1715 9.71939 16.1699C9.68486 16.135 9.71496 16.1654 9.68041 16.1305C9.67869 16.1287 9.60412 16.0533 9.60241 16.0516C9.60078 16.0499 9.59916 16.0483 9.59753 16.0466C9.59591 16.045 9.59429 16.0433 9.59266 16.0417C9.59104 16.0401 9.58941 16.0384 9.58779 16.0368C9.58616 16.0351 9.58454 16.0335 9.58292 16.0318C9.56359 16.0123 9.58276 16.0317 9.56344 16.0121C9.52305 15.9713 9.5649 16.0136 9.52453 15.9728C9.51507 15.9632 9.49514 15.9431 9.48571 15.9335C9.4841 15.9319 9.48248 15.9303 9.48087 15.9286C9.47925 15.927 9.47764 15.9254 9.47603 15.9237C9.47441 15.9221 9.4728 15.9205 9.47119 15.9188C9.46957 15.9172 9.46796 15.9156 9.46635 15.9139C9.46543 15.913 9.45759 15.9051 9.45668 15.9042C9.45506 15.9025 9.45345 15.9009 9.45184 15.8993C9.45023 15.8976 9.44862 15.896 9.44701 15.8944C9.38772 15.8344 9.42914 15.8763 9.37008 15.8166C9.35777 15.8041 9.34414 15.7903 9.3319 15.7779C9.31363 15.7595 9.33115 15.7772 9.3129 15.7587C9.29343 15.739 9.32288 15.7688 9.30342 15.7491C9.29593 15.7416 9.30145 15.7471 9.29396 15.7396C9.26971 15.715 9.28043 15.7259 9.25627 15.7014C9.23516 15.6801 9.23989 15.6849 9.21888 15.6636C9.20256 15.6471 9.08707 15.5303 9.07274 15.5158C9.05643 15.4993 9.01785 15.4603 9.00215 15.4444C8.97052 15.4124 9.01639 15.4588 8.9848 15.4268C8.98336 15.4254 8.98192 15.4239 8.98048 15.4225C8.97904 15.421 8.9776 15.4196 8.97617 15.4181C8.97473 15.4167 8.9733 15.4152 8.97186 15.4138C8.97043 15.4123 8.969 15.4109 8.96757 15.4094C8.96339 15.4052 8.95461 15.3963 8.95047 15.3921C8.94557 15.3872 8.93836 15.3799 8.93351 15.375C8.91185 15.3531 8.92146 15.3628 8.89999 15.3411C8.88728 15.3282 8.90439 15.3455 8.8917 15.3327C8.89032 15.3313 8.88894 15.3299 8.88756 15.3285C8.88619 15.3271 8.88481 15.3257 8.88344 15.3243C8.87289 15.3136 8.87755 15.3184 8.86704 15.3077C8.84224 15.2826 8.82695 15.2672 8.80298 15.2429C8.76441 15.2039 8.77922 15.2189 8.74156 15.1808C8.73218 15.1713 8.74344 15.1827 8.73408 15.1732C8.73283 15.172 8.73159 15.1707 8.73035 15.1695C8.72911 15.1682 8.72788 15.167 8.72664 15.1657C8.71518 15.1541 8.72331 15.1624 8.71191 15.1508C8.7049 15.1437 8.68975 15.1284 8.683 15.1216C8.67053 15.109 8.68123 15.1198 8.66883 15.1072C8.65337 15.0916 8.67726 15.1158 8.66182 15.1002C8.66066 15.099 8.65949 15.0978 8.65833 15.0966C8.65717 15.0955 8.65602 15.0943 8.65486 15.0931C8.64865 15.0868 8.63346 15.0715 8.62752 15.0655C8.6224 15.0603 8.62593 15.0639 8.62082 15.0587C8.61971 15.0576 8.6186 15.0564 8.61749 15.0553C8.61638 15.0542 8.61527 15.0531 8.61417 15.052C8.60188 15.0395 8.61324 15.051 8.60102 15.0387C8.55881 14.996 8.61729 15.0551 8.57537 15.0127L7.50866 16.0673ZM9.69354 18.2773C9.83373 18.4191 10.0715 18.5834 10.3823 18.6345C10.7411 18.6936 11.1259 18.5874 11.4325 18.2773L10.3658 17.2227C10.3738 17.2146 10.4064 17.1862 10.4659 17.167C10.5249 17.1479 10.5817 17.1472 10.6261 17.1545C10.667 17.1612 10.6942 17.174 10.7088 17.1822C10.7225 17.1899 10.7391 17.2013 10.7602 17.2227L9.69354 18.2773ZM5.35294 21.25C5.10727 21.25 4.72512 21.1763 4.40206 20.9709C4.10559 20.7825 3.84498 20.4783 3.77094 19.9408L2.28497 20.1455C2.42482 21.1607 2.96539 21.835 3.59727 22.2368C4.20257 22.6216 4.87598 22.75 5.35294 22.75V21.25ZM3.77094 19.9408C3.7576 19.8439 3.75 19.7373 3.75 19.62H2.25C2.25 19.8021 2.2618 19.9773 2.28497 20.1455L3.77094 19.9408ZM6.11607 15.0662L2.44655 19.5694L3.60936 20.5169L7.27889 16.0138L6.11607 15.0662ZM11.5047 18.1925L14.3619 14.2825L13.1507 13.3975L10.2936 17.3075L11.5047 18.1925ZM14.2897 14.3673C14.2721 14.385 14.2824 14.3713 14.3226 14.3492C14.3586 14.3294 14.3964 14.3154 14.4289 14.3093C14.459 14.3036 14.4757 14.3061 14.4848 14.3087C14.4904 14.3102 14.519 14.3182 14.5675 14.3673L15.6342 13.3127C15.1678 12.8409 14.6111 12.7485 14.1509 12.8352C13.7398 12.9128 13.404 13.1296 13.2229 13.3127L14.2897 14.3673ZM20.2206 20.3V18.94H18.7206V20.3H20.2206ZM14.5675 14.3673L18.6011 18.4473L19.6678 17.3927L15.6342 13.3127L14.5675 14.3673ZM18.6011 18.4473C18.5734 18.4193 18.6082 18.4484 18.6494 18.5501C18.6861 18.6407 18.7206 18.7721 18.7206 18.94H20.2206C20.2206 18.2039 19.9223 17.6502 19.6678 17.3927L18.6011 18.4473ZM18.7206 5V13.33H20.2206V5H18.7206ZM19.9619 13.8967L23.4913 10.8367L22.5087 9.70333L18.9793 12.7633L19.9619 13.8967ZM19.9619 12.7633L16.4325 9.70333L15.4499 10.8367L18.9793 13.8967L19.9619 12.7633Z" fill="#868686"/>
</svg>
