<svg width="27" height="27" viewBox="0 0 27 27" fill="none" xmlns="http://www.w3.org/2000/svg">
<path d="M22 22L20.3333 20.3333M5 5L10 10M20.3333 20.3333H14.6667M20.3333 20.3333L14.6667 14.6667M10 15C9.33333 15 7.7 15 6.5 15C5.3 15 5 16 5 16.5C5 16.7778 5 17.6333 5 18.8333C5 20.0333 6 20.3333 6.5 20.3333H10M10 15V20.3333M10 15V10M10 20.3333H14.6667M10 10L14.6667 14.6667M14.6667 20.3333V14.6667M19.6667 14.6667V7C19.6667 6.44444 19.3333 5.33333 18 5.33333H16.3333C15 5.33333 14.6667 6.44444 14.6667 7V9.83333" stroke="#868686" stroke-width="1.5" stroke-linecap="round"/>
</svg>
