<svg width="27" height="27" viewBox="0 0 27 27" fill="none" xmlns="http://www.w3.org/2000/svg">
<path d="M7.97273 11.0106C8.54848 10.4408 10.0455 9.64303 11.4273 11.0106M15.5727 11.0086C16.1485 10.4388 17.6455 9.64106 19.0273 11.0086M10.0455 17.5043C11.0818 16.7635 13.9145 15.7265 16.9545 17.5043M13.3273 24C10.2182 23.4872 4 19.7265 4 10.8376V6.5641C4.11515 5.7094 4.79455 4 6.59091 4C8.83636 4 7.45455 4.51282 13.5 4.51282C19.5455 4.51282 18.1636 4 20.4091 4C22.2055 4 22.8848 5.7094 23 6.5641V10.8376C23 19.7265 16.4364 23.4872 13.3273 24Z" stroke="#868686" stroke-width="1.5" stroke-linecap="round"/>
</svg>
