<svg width="27" height="27" viewBox="0 0 27 27" fill="none" xmlns="http://www.w3.org/2000/svg">
<path d="M7.67934 21.9738L6.94023 21.8465L6.92934 21.9097V21.9738H7.67934ZM8.53379 17.014L9.2729 17.1413L9.28379 17.0781V17.014H8.53379ZM8.18754 15.8168L7.65699 16.3469L8.18754 15.8168ZM12.9769 20.6056L12.6413 19.9349L12.9769 20.6056ZM20.3251 21.9738H21.0751V21.9097L21.0642 21.8465L20.3251 21.9738ZM23.572 12.0541L24.1026 12.5842L24.1202 12.5666L24.1367 12.5478L23.572 12.0541ZM23.2302 10.6859L23.1145 11.427L23.1241 11.4283L23.2302 10.6859ZM17.7572 9.83074L17.5752 10.5583L17.608 10.5665L17.6415 10.5718L17.7572 9.83074ZM16.561 8.63354L15.8791 8.94581L15.8844 8.95736L15.8901 8.96873L16.561 8.63354ZM4.42798 12.0541L3.86334 12.5478L3.87978 12.5666L3.89743 12.5842L4.42798 12.0541ZM4.76975 10.6859L4.87591 11.4284L4.88563 11.4269L4.76975 10.6859ZM10.2381 9.83074L10.354 10.5717L10.3874 10.5665L10.4202 10.5583L10.2381 9.83074ZM14.6812 4.52883L15.3631 4.21655L15.3492 4.18607L15.3325 4.15696L14.6812 4.52883ZM13.3141 4.52883L13.9542 4.91967L13.96 4.91027L13.9654 4.90071L13.3141 4.52883ZM4.37066 2.64333C4.07777 2.35044 3.6029 2.35044 3.31 2.64333C3.01711 2.93622 3.01711 3.4111 3.31 3.70399L4.37066 2.64333ZM22.6138 23.0078C22.9067 23.3007 23.3816 23.3007 23.6745 23.0078C23.9674 22.7149 23.9674 22.2401 23.6745 21.9472L22.6138 23.0078ZM8.41846 22.1012L9.2729 17.1413L7.79468 16.8866L6.94023 21.8465L8.41846 22.1012ZM9.28379 17.014C9.28379 17.0407 9.28122 17.0538 9.28519 17.0187C9.28756 16.9978 9.29379 16.9467 9.29844 16.8976C9.30856 16.7908 9.31721 16.6403 9.2988 16.4652C9.25996 16.0958 9.10615 15.675 8.71808 15.2867L7.65699 16.3469C7.78159 16.4716 7.80091 16.5639 7.80702 16.6221C7.8111 16.6608 7.81018 16.7027 7.80512 16.7562C7.80218 16.7873 7.79942 16.8084 7.79468 16.8502C7.79156 16.8779 7.78379 16.9445 7.78379 17.014H9.28379ZM6.92934 21.9738C6.92934 22.0933 6.92851 22.2644 6.94727 22.4334C6.96629 22.6046 7.00992 22.8263 7.1304 23.0433C7.41859 23.5625 7.95317 23.75 8.53379 23.75V22.25C8.38919 22.25 8.34676 22.2274 8.35719 22.2323C8.36455 22.2357 8.38134 22.2451 8.40069 22.2632C8.42002 22.2814 8.43361 22.3004 8.44189 22.3153C8.45557 22.34 8.4458 22.3371 8.43811 22.2679C8.43017 22.1963 8.42934 22.1109 8.42934 21.9738H6.92934ZM8.53379 23.75C8.70356 23.75 8.85408 23.6917 8.88779 23.6794C8.95879 23.6534 9.0354 23.6204 9.11018 23.5862C9.26165 23.5169 9.44985 23.4223 9.65588 23.3147C10.0702 23.0982 10.5919 22.8106 11.1082 22.5212C12.1704 21.9259 13.1618 21.3517 13.3125 21.2763L12.6413 19.9349C12.4502 20.0305 11.3726 20.6535 10.3749 21.2127C9.86124 21.5005 9.3553 21.7794 8.96135 21.9852C8.76324 22.0887 8.60215 22.1691 8.4863 22.2221C8.42742 22.249 8.39087 22.2639 8.37258 22.2706C8.31701 22.2909 8.40214 22.25 8.53379 22.25V23.75ZM19.5751 21.9738C19.5751 22.1109 19.5743 22.1963 19.5664 22.2679C19.5587 22.3371 19.5489 22.34 19.5626 22.3153C19.5709 22.3004 19.5845 22.2814 19.6038 22.2632C19.6231 22.2451 19.6399 22.2357 19.6473 22.2323C19.6577 22.2274 19.6153 22.25 19.4707 22.25V23.75C20.0513 23.75 20.5859 23.5625 20.8741 23.0433C20.9946 22.8263 21.0382 22.6046 21.0572 22.4334C21.076 22.2644 21.0751 22.0933 21.0751 21.9738H19.5751ZM19.4707 22.25C19.6023 22.25 19.6875 22.2909 19.6319 22.2706C19.6136 22.2639 19.5771 22.249 19.5182 22.2221C19.4023 22.1691 19.2412 22.0887 19.0431 21.9852C18.6492 21.7794 18.1432 21.5005 17.6296 21.2127C16.6319 20.6535 15.5543 20.0305 15.3632 19.9349L14.6919 21.2763C14.8426 21.3517 15.8341 21.9259 16.8963 22.5212C17.4126 22.8106 17.9343 23.0982 18.3486 23.3147C18.5546 23.4223 18.7428 23.5169 18.8943 23.5862C18.9691 23.6204 19.0457 23.6534 19.1167 23.6794C19.1504 23.6917 19.3009 23.75 19.4707 23.75V22.25ZM15.3632 19.9349C14.8979 19.7021 13.7474 19.3814 12.6413 19.9349L13.3125 21.2763C13.8469 21.0089 14.4736 21.1671 14.6919 21.2763L15.3632 19.9349ZM20.343 16.3469L24.1026 12.5842L23.0415 11.524L19.2819 15.2867L20.343 16.3469ZM24.1367 12.5478C24.2528 12.4149 24.3889 12.2438 24.5016 12.052C24.6086 11.8701 24.7317 11.6078 24.7482 11.3036C24.767 10.9553 24.6407 10.5983 24.3281 10.3345C24.0546 10.1037 23.6982 9.99517 23.3364 9.94344L23.1241 11.4283C23.2347 11.4442 23.3044 11.4636 23.3441 11.4783C23.3838 11.4931 23.3817 11.4986 23.3606 11.4808C23.3361 11.4602 23.3008 11.4201 23.276 11.36C23.2519 11.3016 23.2488 11.2513 23.2503 11.2227C23.2517 11.1971 23.2565 11.1909 23.2502 11.2081C23.2442 11.2247 23.2316 11.2526 23.2085 11.2919C23.161 11.3727 23.0906 11.4653 23.0074 11.5605L24.1367 12.5478ZM23.346 9.94488L17.873 9.08973L17.6415 10.5718L23.1145 11.4269L23.346 9.94488ZM17.9393 9.10317C17.8059 9.0698 17.6775 8.9806 17.5475 8.82158C17.4144 8.65878 17.3188 8.47223 17.2319 8.29835L15.8901 8.96873C15.9741 9.1369 16.1348 9.46344 16.3862 9.77097C16.6407 10.0823 17.025 10.4207 17.5752 10.5583L17.9393 9.10317ZM8.71808 15.2867L4.95852 11.524L3.89743 12.5842L7.65699 16.3469L8.71808 15.2867ZM4.99261 11.5605C4.90942 11.4653 4.83899 11.3727 4.79153 11.2919C4.76842 11.2526 4.75585 11.2247 4.74979 11.2081C4.7435 11.1909 4.74828 11.1971 4.74966 11.2227C4.75121 11.2513 4.74812 11.3016 4.72398 11.36C4.69916 11.4201 4.66385 11.4602 4.63935 11.4808C4.61827 11.4986 4.61617 11.4931 4.65592 11.4783C4.6956 11.4636 4.76527 11.4442 4.87591 11.4283L4.6636 9.94344C4.30175 9.99517 3.9454 10.1037 3.67189 10.3345C3.35933 10.5983 3.23304 10.9553 3.25184 11.3036C3.26827 11.6078 3.39144 11.8701 3.49835 12.052C3.6111 12.2438 3.74716 12.4149 3.86334 12.5478L4.99261 11.5605ZM4.88563 11.4269L10.354 10.5717L10.1222 9.08975L4.65388 9.94489L4.88563 11.4269ZM17.2429 8.32126L15.3631 4.21655L13.9993 4.84111L15.8791 8.94581L17.2429 8.32126ZM12.1401 7.89084L13.9542 4.91967L12.674 4.13799L10.8599 7.10916L12.1401 7.89084ZM13.9654 4.90071C13.9783 4.87822 13.9947 4.85293 14.0138 4.82774C14.0329 4.80248 14.0522 4.78066 14.07 4.76332C14.0881 4.74572 14.1007 4.7366 14.1061 4.73315C14.1115 4.7297 14.1041 4.73545 14.0837 4.74128C14.0616 4.74759 14.0282 4.7527 13.9885 4.74844C13.9693 4.74639 13.9517 4.74246 13.9363 4.73745C13.9209 4.73247 13.9097 4.72707 13.9028 4.72321C13.8892 4.71561 13.8965 4.71638 13.9208 4.74298C13.9454 4.76995 13.9832 4.81884 14.0299 4.90071L15.3325 4.15696C15.1564 3.84843 14.9314 3.57985 14.6351 3.4141C14.3163 3.23576 13.977 3.21193 13.6724 3.29876C13.1427 3.44978 12.8093 3.90033 12.6628 4.15696L13.9654 4.90071ZM3.31 3.70399L9.08509 9.47908L10.1457 8.41842L4.37066 2.64333L3.31 3.70399ZM19.3129 19.7069L22.6138 23.0078L23.6745 21.9472L20.3736 18.6462L19.3129 19.7069ZM21.0642 21.8465L20.5824 19.0492L19.1041 19.3039L19.586 22.1012L21.0642 21.8465ZM9.08509 9.47908L9.90022 10.2942L10.9609 9.23355L10.1457 8.41842L9.08509 9.47908ZM10.4202 10.5583C10.5331 10.5301 10.6401 10.4925 10.7412 10.4465L10.1199 9.08123C10.1025 9.08915 10.0816 9.09678 10.0561 9.10317L10.4202 10.5583ZM20.3736 18.6462L10.9609 9.23355L9.90022 10.2942L19.3129 19.7069L20.3736 18.6462Z" fill="#868686"/>
</svg>
