<svg width="27" height="27" viewBox="0 0 27 27" fill="none" xmlns="http://www.w3.org/2000/svg">
<path d="M8.53379 17.014L7.67934 21.9738C7.67934 22.4869 7.67934 23 8.53379 23C8.83874 23 12.6351 20.7766 12.9769 20.6056C13.7972 20.1951 14.6858 20.4346 15.0276 20.6056C15.3694 20.7766 19.1657 23 19.4707 23C20.3251 23 20.3251 22.4869 20.3251 21.9738L19.4707 17.014C19.4707 16.8429 19.2998 16.3299 19.8125 15.8168L23.572 12.0541C23.9708 11.598 24.4265 10.8569 23.2302 10.6859L17.7572 9.83074C17.0737 9.65971 16.7319 8.97559 16.561 8.63354L14.6812 4.52883C14.1344 3.57107 13.542 4.12976 13.3141 4.52883L11.2635 8.63354C11.0926 8.97559 10.9217 9.65971 10.2381 9.83074L4.76975 10.6859C3.57353 10.8569 4.02923 11.598 4.42798 12.0541L8.18754 15.8168C8.7002 16.3299 8.53379 16.8429 8.53379 17.014Z" stroke="#868686" stroke-width="1.5"/>
</svg>
