<svg width="27" height="27" viewBox="0 0 27 27" fill="none" xmlns="http://www.w3.org/2000/svg">
<path d="M7.35 21C7.35 21.359 7.64101 21.65 8 21.65C8.35899 21.65 8.65 21.359 8.65 21H7.35ZM8 5L8.44027 4.52181C8.25044 4.34704 7.97522 4.3011 7.73892 4.40474C7.50262 4.50838 7.35 4.74197 7.35 5H8ZM10.9118 6.02128V5.37128V6.02128ZM13.1765 5.68085L12.9613 5.06749V5.06749L13.1765 5.68085ZM19 13.8511L18.5597 14.3293C18.7496 14.504 19.0248 14.55 19.2611 14.4463C19.4974 14.3427 19.65 14.1091 19.65 13.8511H19ZM16.0882 13.1702V13.8202V13.1702ZM13.8235 13.5106L14.0387 14.124L13.8235 13.5106ZM8.65 21V5H7.35V21H8.65ZM7.55973 5.47819C7.84898 5.7445 8.32761 6.0369 8.89017 6.26277C9.46074 6.49186 10.1637 6.67128 10.9118 6.67128V5.37128C10.3657 5.37128 9.82848 5.23864 9.37454 5.05638C8.91259 4.8709 8.58239 4.65267 8.44027 4.52181L7.55973 5.47819ZM10.9118 6.67128C11.5671 6.67128 11.9988 6.64938 12.3697 6.58616C12.7466 6.5219 13.0391 6.41786 13.3916 6.29422L12.9613 5.06749C12.5966 5.19542 12.4038 5.26159 12.1512 5.30465C11.8926 5.34874 11.5506 5.37128 10.9118 5.37128V6.67128ZM13.3916 6.29422C13.6635 6.19885 14.348 6.03597 15.1143 5.89452C15.8812 5.75295 16.6385 5.65 17.0588 5.65V4.35C16.5085 4.35 15.6482 4.474 14.8783 4.61612C14.1078 4.75835 13.3365 4.9359 12.9613 5.06749L13.3916 6.29422ZM17.0588 5.65H18.0294V4.35H17.0588V5.65ZM18.0294 5.65C18.0802 5.65 18.1766 5.67164 18.2435 5.72236C18.2709 5.74308 18.293 5.76809 18.3102 5.80316C18.3275 5.83836 18.35 5.90473 18.35 6.02128H19.65C19.65 5.41453 19.3971 4.96535 19.0285 4.68615C18.6911 4.43049 18.3021 4.35 18.0294 4.35V5.65ZM19.4403 13.3729C19.0967 13.0566 18.5547 12.8557 18.0166 12.729C17.45 12.5956 16.7795 12.5202 16.0882 12.5202V13.8202C16.6911 13.8202 17.2608 13.8866 17.7187 13.9944C18.2051 14.1089 18.4719 14.2484 18.5597 14.3293L19.4403 13.3729ZM16.0882 12.5202C15.4426 12.5202 15.0303 12.5334 14.6689 12.5926C14.2996 12.653 14.0027 12.759 13.6084 12.8973L14.0387 14.124C14.4531 13.9786 14.6416 13.9143 14.8789 13.8755C15.1241 13.8354 15.4398 13.8202 16.0882 13.8202V12.5202ZM13.6084 12.8973C13.3365 12.9926 12.652 13.1555 11.8857 13.297C11.1188 13.4385 10.3615 13.5415 9.94118 13.5415V14.8415C10.4915 14.8415 11.3518 14.7175 12.1217 14.5754C12.8922 14.4331 13.6635 14.2556 14.0387 14.124L13.6084 12.8973ZM9.94118 13.5415H8.97059V14.8415H9.94118V13.5415ZM8.97059 13.5415C8.91976 13.5415 8.82344 13.5199 8.75649 13.4691C8.72913 13.4484 8.70698 13.4234 8.68979 13.3883C8.67253 13.3531 8.65 13.2868 8.65 13.1702H7.35C7.35 13.777 7.60292 14.2261 7.97145 14.5053C8.30892 14.761 8.69788 14.8415 8.97059 14.8415V13.5415ZM19.65 13.8511V6.02128H18.35V13.8511H19.65Z" fill="#868686"/>
</svg>
