<svg width="27" height="27" viewBox="0 0 27 27" fill="none" xmlns="http://www.w3.org/2000/svg">
<path d="M13.1702 9.43396L12.7428 9.92364C12.8612 10.027 13.013 10.084 13.1702 10.084V9.43396ZM5 11.9811H5.65H5ZM13.8202 4.33962C13.8202 3.98064 13.5292 3.68962 13.1702 3.68962C12.8112 3.68962 12.5202 3.98064 12.5202 4.33962H13.8202ZM21 11.9811H20.35H21ZM17.766 8.07547L17.724 8.72411L17.7449 8.72547H17.766V8.07547ZM8.91489 8.21604C10.5458 8.21604 11.6873 9.0023 12.7428 9.92364L13.5977 8.94429C12.4744 7.96374 11.0287 6.91604 8.91489 6.91604V8.21604ZM8.91489 6.91604C7.83482 6.91604 6.68745 7.28799 5.80573 8.13245C4.91445 8.98606 4.35 10.2691 4.35 11.9811H5.65C5.65 10.5686 6.10683 9.64413 6.70491 9.07132C7.31255 8.48937 8.12263 8.21604 8.91489 8.21604V6.91604ZM12.5202 4.33962V6.54717H13.8202V4.33962H12.5202ZM12.5202 6.54717V9.43396H13.8202V6.54717H12.5202ZM13.6773 6.95381C13.978 6.5788 14.5664 5.98934 15.3141 5.4986C16.0656 5.00535 16.9195 4.65 17.766 4.65V3.35C16.5699 3.35 15.4663 3.84371 14.6008 4.41178C13.7315 4.98236 13.0433 5.66649 12.6631 6.14053L13.6773 6.95381ZM17.766 4.65C17.8325 4.65 17.9465 4.67524 18.025 4.7317C18.0578 4.75521 18.0812 4.78155 18.0982 4.81436C18.1148 4.84662 18.1372 4.90813 18.1372 5.01887H19.4372C19.4372 4.39883 19.1636 3.94892 18.7835 3.67585C18.4365 3.42665 18.0399 3.35 17.766 3.35V4.65ZM18.1372 5.01887C18.1372 5.07225 18.0929 5.24379 17.8944 5.54334C17.7119 5.81862 17.4543 6.121 17.1712 6.41353C16.8905 6.7036 16.5985 6.96984 16.358 7.17224C16.2378 7.27341 16.1337 7.35591 16.0533 7.41584C15.9605 7.48493 15.9295 7.50099 15.9439 7.49382L16.5242 8.65712C16.6237 8.6075 16.7363 8.52804 16.8297 8.4585C16.9354 8.37979 17.0601 8.28054 17.1952 8.16679C17.4654 7.93936 17.7904 7.6431 18.1054 7.3176C18.418 6.99456 18.7349 6.62832 18.978 6.26149C19.205 5.91894 19.4372 5.47492 19.4372 5.01887H18.1372ZM4.35 11.9811C4.35 14.701 4.96389 17.3209 6.07227 19.2842C7.17642 21.24 8.84387 22.65 10.9574 22.65V21.35C9.49656 21.35 8.18528 20.3827 7.20433 18.6451C6.2276 16.915 5.65 14.5254 5.65 11.9811H4.35ZM20.35 11.9811C20.35 14.5254 19.7724 16.915 18.7957 18.6451C17.8147 20.3827 16.5034 21.35 15.0426 21.35V22.65C17.1561 22.65 18.8236 21.24 19.9277 19.2842C21.0361 17.3209 21.65 14.701 21.65 11.9811H20.35ZM21.65 11.9811C21.65 11.248 21.4723 10.1479 20.9115 9.20724C20.3306 8.23285 19.3275 7.42547 17.766 7.42547V8.72547C18.7916 8.72547 19.4056 9.21998 19.7949 9.87295C20.2043 10.5597 20.35 11.4124 20.35 11.9811H21.65ZM15.9439 7.49382C15.8176 7.55681 15.6113 7.69433 15.4349 7.80799C15.2319 7.93883 14.9899 8.09168 14.726 8.23888L15.3591 9.37426C15.6599 9.20652 15.9296 9.03575 16.1391 8.90074C16.2473 8.83103 16.3315 8.77603 16.4045 8.72968C16.4399 8.70722 16.4682 8.6897 16.4906 8.67635C16.5016 8.66977 16.5101 8.6649 16.5163 8.66141C16.5228 8.65781 16.5251 8.65665 16.5242 8.65712L15.9439 7.49382ZM14.726 8.23888C14.1567 8.55633 13.5934 8.78396 13.1702 8.78396V10.084C13.9532 10.084 14.7706 9.70245 15.3591 9.37426L14.726 8.23888ZM17.8079 7.42683C17.3287 7.3958 16.1969 7.54818 14.7669 8.21793L15.3182 9.3952C16.6117 8.78942 17.5224 8.71107 17.724 8.72411L17.8079 7.42683ZM13 21.0104C12.4896 21.0104 12.0498 21.1128 11.7047 21.2C11.3244 21.296 11.1274 21.35 10.9574 21.35V22.65C11.3322 22.65 11.7309 22.5342 12.023 22.4604C12.3502 22.3778 12.6594 22.3104 13 22.3104V21.0104ZM13 22.3104C13.3406 22.3104 13.6498 22.3778 13.977 22.4604C14.2691 22.5342 14.6678 22.65 15.0426 22.65V21.35C14.8726 21.35 14.6756 21.296 14.2953 21.2C13.9502 21.1128 13.5104 21.0104 13 21.0104V22.3104Z" fill="#868686"/>
</svg>
