<svg width="27" height="27" viewBox="0 0 27 27" fill="none" xmlns="http://www.w3.org/2000/svg">
<path d="M5.25 20C5.25 20.4142 5.58579 20.75 6 20.75C6.41421 20.75 6.75 20.4142 6.75 20H5.25ZM6 15.8333L5.25085 15.7977L5.25 15.8155V15.8333H6ZM22 12.3333L22.5303 12.8637C22.8232 12.5708 22.8232 12.0959 22.5303 11.803L22 12.3333ZM17.197 6.46967C16.9041 6.17678 16.4292 6.17678 16.1363 6.46967C15.8434 6.76256 15.8434 7.23744 16.1363 7.53033L17.197 6.46967ZM16.1363 17.1363C15.8434 17.4292 15.8434 17.9041 16.1363 18.197C16.4292 18.4899 16.9041 18.4899 17.197 18.197L16.1363 17.1363ZM6.75 20V15.8333H5.25V20H6.75ZM6.74915 15.869C6.77152 15.3992 6.94605 14.6752 7.37564 14.0894C7.78041 13.5374 8.4241 13.0833 9.5 13.0833V11.5833C7.90923 11.5833 6.83071 12.2959 6.16603 13.2023C5.52618 14.0748 5.28403 15.1008 5.25085 15.7977L6.74915 15.869ZM9.5 13.0833C9.50521 13.0833 9.51043 13.0833 9.51567 13.0833C9.52091 13.0833 9.52617 13.0833 9.53144 13.0833C9.53671 13.0833 9.542 13.0833 9.5473 13.0833C9.5526 13.0833 9.55792 13.0833 9.56325 13.0833C9.56858 13.0833 9.57393 13.0833 9.57929 13.0833C9.58466 13.0833 9.59004 13.0833 9.59543 13.0833C9.60083 13.0833 9.60624 13.0833 9.61166 13.0833C9.61709 13.0833 9.62253 13.0833 9.62798 13.0833C9.63344 13.0833 9.63891 13.0833 9.64439 13.0833C9.64988 13.0833 9.65538 13.0833 9.6609 13.0833C9.66641 13.0833 9.67194 13.0833 9.67749 13.0833C9.68304 13.0833 9.6886 13.0833 9.69417 13.0833C9.69975 13.0833 9.70534 13.0833 9.71095 13.0833C9.71655 13.0833 9.72218 13.0833 9.72781 13.0833C9.73345 13.0833 9.7391 13.0833 9.74476 13.0833C9.75043 13.0833 9.75611 13.0833 9.76181 13.0833C9.7675 13.0833 9.77321 13.0833 9.77894 13.0833C9.78466 13.0833 9.7904 13.0833 9.79615 13.0833C9.80191 13.0833 9.80768 13.0833 9.81346 13.0833C9.81924 13.0833 9.82504 13.0833 9.83085 13.0833C9.83666 13.0833 9.84249 13.0833 9.84833 13.0833C9.85417 13.0833 9.86003 13.0833 9.8659 13.0833C9.87177 13.0833 9.87765 13.0833 9.88355 13.0833C9.88945 13.0833 9.89537 13.0833 9.90129 13.0833C9.90722 13.0833 9.91316 13.0833 9.91912 13.0833C9.92507 13.0833 9.93104 13.0833 9.93703 13.0833C9.94301 13.0833 9.94901 13.0833 9.95502 13.0833C9.96104 13.0833 9.96706 13.0833 9.9731 13.0833C9.97915 13.0833 9.9852 13.0833 9.99127 13.0833C9.99734 13.0833 10.0034 13.0833 10.0095 13.0833C10.0156 13.0833 10.0217 13.0833 10.0278 13.0833C10.034 13.0833 10.0401 13.0833 10.0463 13.0833C10.0524 13.0833 10.0586 13.0833 10.0648 13.0833C10.0709 13.0833 10.0771 13.0833 10.0833 13.0833C10.0896 13.0833 10.0958 13.0833 10.102 13.0833C10.1082 13.0833 10.1145 13.0833 10.1208 13.0833C10.127 13.0833 10.1333 13.0833 10.1396 13.0833C10.1459 13.0833 10.1522 13.0833 10.1585 13.0833C10.1648 13.0833 10.1711 13.0833 10.1775 13.0833C10.1838 13.0833 10.1902 13.0833 10.1965 13.0833C10.2029 13.0833 10.2093 13.0833 10.2157 13.0833C10.2221 13.0833 10.2285 13.0833 10.2349 13.0833C10.2413 13.0833 10.2478 13.0833 10.2542 13.0833C10.2607 13.0833 10.2671 13.0833 10.2736 13.0833C10.2801 13.0833 10.2866 13.0833 10.2931 13.0833C10.2996 13.0833 10.3061 13.0833 10.3126 13.0833C10.3192 13.0833 10.3257 13.0833 10.3322 13.0833C10.3388 13.0833 10.3454 13.0833 10.3519 13.0833C10.3585 13.0833 10.3651 13.0833 10.3717 13.0833C10.3783 13.0833 10.3849 13.0833 10.3916 13.0833C10.3982 13.0833 10.4048 13.0833 10.4115 13.0833C10.4182 13.0833 10.4248 13.0833 10.4315 13.0833C10.4382 13.0833 10.4449 13.0833 10.4516 13.0833C10.4583 13.0833 10.465 13.0833 10.4718 13.0833C10.4785 13.0833 10.4852 13.0833 10.492 13.0833C10.4987 13.0833 10.5055 13.0833 10.5123 13.0833C10.5191 13.0833 10.5259 13.0833 10.5327 13.0833C10.5395 13.0833 10.5463 13.0833 10.5531 13.0833C10.56 13.0833 10.5668 13.0833 10.5737 13.0833C10.5805 13.0833 10.5874 13.0833 10.5943 13.0833C10.6011 13.0833 10.608 13.0833 10.6149 13.0833C10.6218 13.0833 10.6288 13.0833 10.6357 13.0833C10.6426 13.0833 10.6496 13.0833 10.6565 13.0833C10.6635 13.0833 10.6704 13.0833 10.6774 13.0833C10.6844 13.0833 10.6914 13.0833 10.6984 13.0833C10.7054 13.0833 10.7124 13.0833 10.7194 13.0833C10.7264 13.0833 10.7335 13.0833 10.7405 13.0833C10.7476 13.0833 10.7546 13.0833 10.7617 13.0833C10.7688 13.0833 10.7759 13.0833 10.7829 13.0833C10.79 13.0833 10.7971 13.0833 10.8043 13.0833C10.8114 13.0833 10.8185 13.0833 10.8257 13.0833C10.8328 13.0833 10.8399 13.0833 10.8471 13.0833C10.8543 13.0833 10.8615 13.0833 10.8686 13.0833C10.8758 13.0833 10.883 13.0833 10.8902 13.0833C10.8974 13.0833 10.9047 13.0833 10.9119 13.0833C10.9191 13.0833 10.9264 13.0833 10.9336 13.0833C10.9409 13.0833 10.9482 13.0833 10.9554 13.0833C10.9627 13.0833 10.97 13.0833 10.9773 13.0833C10.9846 13.0833 10.9919 13.0833 10.9992 13.0833C11.0065 13.0833 11.0139 13.0833 11.0212 13.0833C11.0286 13.0833 11.0359 13.0833 11.0433 13.0833C11.0507 13.0833 11.058 13.0833 11.0654 13.0833C11.0728 13.0833 11.0802 13.0833 11.0876 13.0833C11.095 13.0833 11.1024 13.0833 11.1099 13.0833C11.1173 13.0833 11.1248 13.0833 11.1322 13.0833C11.1397 13.0833 11.1471 13.0833 11.1546 13.0833C11.1621 13.0833 11.1696 13.0833 11.177 13.0833C11.1845 13.0833 11.192 13.0833 11.1996 13.0833C11.2071 13.0833 11.2146 13.0833 11.2221 13.0833C11.2297 13.0833 11.2372 13.0833 11.2448 13.0833C11.2524 13.0833 11.2599 13.0833 11.2675 13.0833C11.2751 13.0833 11.2827 13.0833 11.2903 13.0833C11.2979 13.0833 11.3055 13.0833 11.3131 13.0833C11.3207 13.0833 11.3283 13.0833 11.336 13.0833C11.3436 13.0833 11.3513 13.0833 11.3589 13.0833C11.3666 13.0833 11.3743 13.0833 11.382 13.0833C11.3896 13.0833 11.3973 13.0833 11.405 13.0833C11.4127 13.0833 11.4204 13.0833 11.4282 13.0833C11.4359 13.0833 11.4436 13.0833 11.4514 13.0833C11.4591 13.0833 11.4669 13.0833 11.4746 13.0833C11.4824 13.0833 11.4901 13.0833 11.4979 13.0833C11.5057 13.0833 11.5135 13.0833 11.5213 13.0833C11.5291 13.0833 11.5369 13.0833 11.5447 13.0833C11.5526 13.0833 11.5604 13.0833 11.5682 13.0833C11.5761 13.0833 11.5839 13.0833 11.5918 13.0833C11.5996 13.0833 11.6075 13.0833 11.6154 13.0833C11.6232 13.0833 11.6311 13.0833 11.639 13.0833C11.6469 13.0833 11.6548 13.0833 11.6627 13.0833C11.6707 13.0833 11.6786 13.0833 11.6865 13.0833C11.6945 13.0833 11.7024 13.0833 11.7103 13.0833C11.7183 13.0833 11.7263 13.0833 11.7342 13.0833C11.7422 13.0833 11.7502 13.0833 11.7582 13.0833C11.7662 13.0833 11.7742 13.0833 11.7822 13.0833C11.7902 13.0833 11.7982 13.0833 11.8062 13.0833C11.8142 13.0833 11.8223 13.0833 11.8303 13.0833C11.8384 13.0833 11.8464 13.0833 11.8545 13.0833C11.8625 13.0833 11.8706 13.0833 11.8787 13.0833C11.8868 13.0833 11.8949 13.0833 11.903 13.0833C11.9111 13.0833 11.9192 13.0833 11.9273 13.0833C11.9354 13.0833 11.9435 13.0833 11.9516 13.0833C11.9598 13.0833 11.9679 13.0833 11.9761 13.0833C11.9842 13.0833 11.9924 13.0833 12.0005 13.0833C12.0087 13.0833 12.0169 13.0833 12.0251 13.0833C12.0332 13.0833 12.0414 13.0833 12.0496 13.0833C12.0578 13.0833 12.066 13.0833 12.0743 13.0833C12.0825 13.0833 12.0907 13.0833 12.0989 13.0833C12.1072 13.0833 12.1154 13.0833 12.1237 13.0833C12.1319 13.0833 12.1402 13.0833 12.1484 13.0833C12.1567 13.0833 12.165 13.0833 12.1733 13.0833C12.1815 13.0833 12.1898 13.0833 12.1981 13.0833C12.2064 13.0833 12.2147 13.0833 12.2231 13.0833C12.2314 13.0833 12.2397 13.0833 12.248 13.0833C12.2564 13.0833 12.2647 13.0833 12.273 13.0833C12.2814 13.0833 12.2898 13.0833 12.2981 13.0833C12.3065 13.0833 12.3149 13.0833 12.3232 13.0833C12.3316 13.0833 12.34 13.0833 12.3484 13.0833C12.3568 13.0833 12.3652 13.0833 12.3736 13.0833C12.382 13.0833 12.3904 13.0833 12.3988 13.0833C12.4073 13.0833 12.4157 13.0833 12.4241 13.0833C12.4326 13.0833 12.441 13.0833 12.4495 13.0833C12.4579 13.0833 12.4664 13.0833 12.4749 13.0833C12.4834 13.0833 12.4918 13.0833 12.5003 13.0833C12.5088 13.0833 12.5173 13.0833 12.5258 13.0833C12.5343 13.0833 12.5428 13.0833 12.5513 13.0833C12.5598 13.0833 12.5684 13.0833 12.5769 13.0833C12.5854 13.0833 12.5939 13.0833 12.6025 13.0833C12.611 13.0833 12.6196 13.0833 12.6281 13.0833C12.6367 13.0833 12.6453 13.0833 12.6538 13.0833C12.6624 13.0833 12.671 13.0833 12.6796 13.0833C12.6882 13.0833 12.6968 13.0833 12.7054 13.0833C12.714 13.0833 12.7226 13.0833 12.7312 13.0833C12.7398 13.0833 12.7484 13.0833 12.757 13.0833C12.7657 13.0833 12.7743 13.0833 12.7829 13.0833C12.7916 13.0833 12.8002 13.0833 12.8089 13.0833C12.8175 13.0833 12.8262 13.0833 12.8349 13.0833C12.8435 13.0833 12.8522 13.0833 12.8609 13.0833C12.8696 13.0833 12.8783 13.0833 12.887 13.0833C12.8956 13.0833 12.9043 13.0833 12.9131 13.0833C12.9218 13.0833 12.9305 13.0833 12.9392 13.0833C12.9479 13.0833 12.9566 13.0833 12.9654 13.0833C12.9741 13.0833 12.9828 13.0833 12.9916 13.0833C13.0003 13.0833 13.0091 13.0833 13.0178 13.0833C13.0266 13.0833 13.0354 13.0833 13.0441 13.0833C13.0529 13.0833 13.0617 13.0833 13.0705 13.0833C13.0792 13.0833 13.088 13.0833 13.0968 13.0833C13.1056 13.0833 13.1144 13.0833 13.1232 13.0833C13.132 13.0833 13.1409 13.0833 13.1497 13.0833C13.1585 13.0833 13.1673 13.0833 13.1761 13.0833C13.185 13.0833 13.1938 13.0833 13.2027 13.0833C13.2115 13.0833 13.2203 13.0833 13.2292 13.0833C13.2381 13.0833 13.2469 13.0833 13.2558 13.0833C13.2646 13.0833 13.2735 13.0833 13.2824 13.0833C13.2913 13.0833 13.3001 13.0833 13.309 13.0833C13.3179 13.0833 13.3268 13.0833 13.3357 13.0833C13.3446 13.0833 13.3535 13.0833 13.3624 13.0833C13.3713 13.0833 13.3803 13.0833 13.3892 13.0833C13.3981 13.0833 13.407 13.0833 13.416 13.0833C13.4249 13.0833 13.4338 13.0833 13.4428 13.0833C13.4517 13.0833 13.4607 13.0833 13.4696 13.0833C13.4786 13.0833 13.4875 13.0833 13.4965 13.0833C13.5054 13.0833 13.5144 13.0833 13.5234 13.0833C13.5324 13.0833 13.5413 13.0833 13.5503 13.0833C13.5593 13.0833 13.5683 13.0833 13.5773 13.0833C13.5863 13.0833 13.5953 13.0833 13.6043 13.0833C13.6133 13.0833 13.6223 13.0833 13.6313 13.0833C13.6403 13.0833 13.6493 13.0833 13.6584 13.0833C13.6674 13.0833 13.6764 13.0833 13.6854 13.0833C13.6945 13.0833 13.7035 13.0833 13.7126 13.0833C13.7216 13.0833 13.7306 13.0833 13.7397 13.0833C13.7488 13.0833 13.7578 13.0833 13.7669 13.0833C13.7759 13.0833 13.785 13.0833 13.7941 13.0833C13.8031 13.0833 13.8122 13.0833 13.8213 13.0833C13.8304 13.0833 13.8395 13.0833 13.8485 13.0833C13.8576 13.0833 13.8667 13.0833 13.8758 13.0833C13.8849 13.0833 13.894 13.0833 13.9031 13.0833C13.9122 13.0833 13.9213 13.0833 13.9304 13.0833C13.9396 13.0833 13.9487 13.0833 13.9578 13.0833C13.9669 13.0833 13.9761 13.0833 13.9852 13.0833C13.9943 13.0833 14.0034 13.0833 14.0126 13.0833C14.0217 13.0833 14.0309 13.0833 14.04 13.0833C14.0492 13.0833 14.0583 13.0833 14.0675 13.0833C14.0766 13.0833 14.0858 13.0833 14.0949 13.0833C14.1041 13.0833 14.1133 13.0833 14.1224 13.0833C14.1316 13.0833 14.1408 13.0833 14.15 13.0833C14.1591 13.0833 14.1683 13.0833 14.1775 13.0833C14.1867 13.0833 14.1959 13.0833 14.2051 13.0833C14.2143 13.0833 14.2235 13.0833 14.2327 13.0833C14.2419 13.0833 14.2511 13.0833 14.2603 13.0833C14.2695 13.0833 14.2787 13.0833 14.2879 13.0833C14.2971 13.0833 14.3063 13.0833 14.3156 13.0833C14.3248 13.0833 14.334 13.0833 14.3432 13.0833C14.3525 13.0833 14.3617 13.0833 14.3709 13.0833C14.3802 13.0833 14.3894 13.0833 14.3986 13.0833C14.4079 13.0833 14.4171 13.0833 14.4264 13.0833C14.4356 13.0833 14.4449 13.0833 14.4541 13.0833C14.4634 13.0833 14.4726 13.0833 14.4819 13.0833C14.4912 13.0833 14.5004 13.0833 14.5097 13.0833C14.519 13.0833 14.5282 13.0833 14.5375 13.0833C14.5468 13.0833 14.5561 13.0833 14.5653 13.0833C14.5746 13.0833 14.5839 13.0833 14.5932 13.0833C14.6025 13.0833 14.6117 13.0833 14.621 13.0833C14.6303 13.0833 14.6396 13.0833 14.6489 13.0833C14.6582 13.0833 14.6675 13.0833 14.6768 13.0833C14.6861 13.0833 14.6954 13.0833 14.7047 13.0833C14.714 13.0833 14.7233 13.0833 14.7326 13.0833C14.7419 13.0833 14.7513 13.0833 14.7606 13.0833C14.7699 13.0833 14.7792 13.0833 14.7885 13.0833C14.7979 13.0833 14.8072 13.0833 14.8165 13.0833C14.8258 13.0833 14.8352 13.0833 14.8445 13.0833C14.8538 13.0833 14.8631 13.0833 14.8725 13.0833C14.8818 13.0833 14.8912 13.0833 14.9005 13.0833C14.9098 13.0833 14.9192 13.0833 14.9285 13.0833C14.9379 13.0833 14.9472 13.0833 14.9566 13.0833C14.9659 13.0833 14.9753 13.0833 14.9846 13.0833C14.994 13.0833 15.0033 13.0833 15.0127 13.0833C15.022 13.0833 15.0314 13.0833 15.0407 13.0833C15.0501 13.0833 15.0595 13.0833 15.0688 13.0833C15.0782 13.0833 15.0876 13.0833 15.0969 13.0833C15.1063 13.0833 15.1157 13.0833 15.125 13.0833C15.1344 13.0833 15.1438 13.0833 15.1532 13.0833C15.1625 13.0833 15.1719 13.0833 15.1813 13.0833C15.1907 13.0833 15.2 13.0833 15.2094 13.0833C15.2188 13.0833 15.2282 13.0833 15.2376 13.0833C15.2469 13.0833 15.2563 13.0833 15.2657 13.0833C15.2751 13.0833 15.2845 13.0833 15.2939 13.0833C15.3033 13.0833 15.3127 13.0833 15.3221 13.0833C15.3315 13.0833 15.3408 13.0833 15.3502 13.0833C15.3596 13.0833 15.369 13.0833 15.3784 13.0833C15.3878 13.0833 15.3972 13.0833 15.4066 13.0833C15.416 13.0833 15.4254 13.0833 15.4348 13.0833C15.4442 13.0833 15.4536 13.0833 15.463 13.0833C15.4724 13.0833 15.4818 13.0833 15.4913 13.0833C15.5007 13.0833 15.5101 13.0833 15.5195 13.0833C15.5289 13.0833 15.5383 13.0833 15.5477 13.0833C15.5571 13.0833 15.5665 13.0833 15.5759 13.0833C15.5853 13.0833 15.5948 13.0833 15.6042 13.0833C15.6136 13.0833 15.623 13.0833 15.6324 13.0833C15.6418 13.0833 15.6512 13.0833 15.6607 13.0833C15.6701 13.0833 15.6795 13.0833 15.6889 13.0833C15.6983 13.0833 15.7077 13.0833 15.7172 13.0833C15.7266 13.0833 15.736 13.0833 15.7454 13.0833C15.7548 13.0833 15.7642 13.0833 15.7737 13.0833C15.7831 13.0833 15.7925 13.0833 15.8019 13.0833C15.8113 13.0833 15.8208 13.0833 15.8302 13.0833C15.8396 13.0833 15.849 13.0833 15.8585 13.0833C15.8679 13.0833 15.8773 13.0833 15.8867 13.0833C15.8961 13.0833 15.9056 13.0833 15.915 13.0833C15.9244 13.0833 15.9338 13.0833 15.9433 13.0833C15.9527 13.0833 15.9621 13.0833 15.9715 13.0833C15.9809 13.0833 15.9904 13.0833 15.9998 13.0833C16.0092 13.0833 16.0186 13.0833 16.0281 13.0833C16.0375 13.0833 16.0469 13.0833 16.0563 13.0833C16.0657 13.0833 16.0752 13.0833 16.0846 13.0833C16.094 13.0833 16.1034 13.0833 16.1128 13.0833C16.1223 13.0833 16.1317 13.0833 16.1411 13.0833C16.1505 13.0833 16.1599 13.0833 16.1694 13.0833C16.1788 13.0833 16.1882 13.0833 16.1976 13.0833C16.207 13.0833 16.2165 13.0833 16.2259 13.0833C16.2353 13.0833 16.2447 13.0833 16.2541 13.0833C16.2635 13.0833 16.273 13.0833 16.2824 13.0833C16.2918 13.0833 16.3012 13.0833 16.3106 13.0833C16.32 13.0833 16.3294 13.0833 16.3389 13.0833C16.3483 13.0833 16.3577 13.0833 16.3671 13.0833C16.3765 13.0833 16.3859 13.0833 16.3953 13.0833C16.4047 13.0833 16.4141 13.0833 16.4235 13.0833C16.433 13.0833 16.4424 13.0833 16.4518 13.0833C16.4612 13.0833 16.4706 13.0833 16.48 13.0833C16.4894 13.0833 16.4988 13.0833 16.5082 13.0833C16.5176 13.0833 16.527 13.0833 16.5364 13.0833C16.5458 13.0833 16.5552 13.0833 16.5646 13.0833C16.574 13.0833 16.5834 13.0833 16.5928 13.0833C16.6021 13.0833 16.6115 13.0833 16.6209 13.0833C16.6303 13.0833 16.6397 13.0833 16.6491 13.0833C16.6585 13.0833 16.6679 13.0833 16.6773 13.0833C16.6866 13.0833 16.696 13.0833 16.7054 13.0833C16.7148 13.0833 16.7242 13.0833 16.7335 13.0833C16.7429 13.0833 16.7523 13.0833 16.7617 13.0833C16.7711 13.0833 16.7804 13.0833 16.7898 13.0833C16.7992 13.0833 16.8085 13.0833 16.8179 13.0833C16.8273 13.0833 16.8367 13.0833 16.846 13.0833C16.8554 13.0833 16.8647 13.0833 16.8741 13.0833C16.8835 13.0833 16.8928 13.0833 16.9022 13.0833C16.9115 13.0833 16.9209 13.0833 16.9303 13.0833C16.9396 13.0833 16.949 13.0833 16.9583 13.0833C16.9677 13.0833 16.977 13.0833 16.9864 13.0833C16.9957 13.0833 17.005 13.0833 17.0144 13.0833C17.0237 13.0833 17.0331 13.0833 17.0424 13.0833C17.0517 13.0833 17.0611 13.0833 17.0704 13.0833C17.0797 13.0833 17.0891 13.0833 17.0984 13.0833C17.1077 13.0833 17.117 13.0833 17.1264 13.0833C17.1357 13.0833 17.145 13.0833 17.1543 13.0833C17.1636 13.0833 17.173 13.0833 17.1823 13.0833C17.1916 13.0833 17.2009 13.0833 17.2102 13.0833C17.2195 13.0833 17.2288 13.0833 17.2381 13.0833C17.2474 13.0833 17.2567 13.0833 17.266 13.0833C17.2753 13.0833 17.2846 13.0833 17.2939 13.0833C17.3032 13.0833 17.3125 13.0833 17.3218 13.0833C17.3311 13.0833 17.3403 13.0833 17.3496 13.0833C17.3589 13.0833 17.3682 13.0833 17.3775 13.0833C17.3867 13.0833 17.396 13.0833 17.4053 13.0833C17.4145 13.0833 17.4238 13.0833 17.4331 13.0833C17.4423 13.0833 17.4516 13.0833 17.4609 13.0833C17.4701 13.0833 17.4794 13.0833 17.4886 13.0833C17.4979 13.0833 17.5071 13.0833 17.5164 13.0833C17.5256 13.0833 17.5348 13.0833 17.5441 13.0833C17.5533 13.0833 17.5625 13.0833 17.5718 13.0833C17.581 13.0833 17.5902 13.0833 17.5995 13.0833C17.6087 13.0833 17.6179 13.0833 17.6271 13.0833C17.6363 13.0833 17.6456 13.0833 17.6548 13.0833C17.664 13.0833 17.6732 13.0833 17.6824 13.0833C17.6916 13.0833 17.7008 13.0833 17.71 13.0833C17.7192 13.0833 17.7284 13.0833 17.7376 13.0833C17.7467 13.0833 17.7559 13.0833 17.7651 13.0833C17.7743 13.0833 17.7835 13.0833 17.7926 13.0833C17.8018 13.0833 17.811 13.0833 17.8202 13.0833C17.8293 13.0833 17.8385 13.0833 17.8476 13.0833C17.8568 13.0833 17.866 13.0833 17.8751 13.0833C17.8843 13.0833 17.8934 13.0833 17.9025 13.0833C17.9117 13.0833 17.9208 13.0833 17.93 13.0833C17.9391 13.0833 17.9482 13.0833 17.9573 13.0833C17.9665 13.0833 17.9756 13.0833 17.9847 13.0833C17.9938 13.0833 18.0029 13.0833 18.0121 13.0833C18.0212 13.0833 18.0303 13.0833 18.0394 13.0833C18.0485 13.0833 18.0576 13.0833 18.0667 13.0833C18.0757 13.0833 18.0848 13.0833 18.0939 13.0833C18.103 13.0833 18.1121 13.0833 18.1211 13.0833C18.1302 13.0833 18.1393 13.0833 18.1484 13.0833C18.1574 13.0833 18.1665 13.0833 18.1755 13.0833C18.1846 13.0833 18.1936 13.0833 18.2027 13.0833C18.2117 13.0833 18.2208 13.0833 18.2298 13.0833C18.2389 13.0833 18.2479 13.0833 18.2569 13.0833C18.2659 13.0833 18.275 13.0833 18.284 13.0833C18.293 13.0833 18.302 13.0833 18.311 13.0833C18.32 13.0833 18.329 13.0833 18.338 13.0833C18.347 13.0833 18.356 13.0833 18.365 13.0833C18.374 13.0833 18.383 13.0833 18.3919 13.0833C18.4009 13.0833 18.4099 13.0833 18.4189 13.0833C18.4278 13.0833 18.4368 13.0833 18.4458 13.0833C18.4547 13.0833 18.4637 13.0833 18.4726 13.0833C18.4816 13.0833 18.4905 13.0833 18.4994 13.0833C18.5084 13.0833 18.5173 13.0833 18.5262 13.0833C18.5352 13.0833 18.5441 13.0833 18.553 13.0833C18.5619 13.0833 18.5708 13.0833 18.5797 13.0833C18.5886 13.0833 18.5975 13.0833 18.6064 13.0833C18.6153 13.0833 18.6242 13.0833 18.6331 13.0833C18.6419 13.0833 18.6508 13.0833 18.6597 13.0833C18.6686 13.0833 18.6774 13.0833 18.6863 13.0833C18.6951 13.0833 18.704 13.0833 18.7128 13.0833C18.7217 13.0833 18.7305 13.0833 18.7394 13.0833C18.7482 13.0833 18.757 13.0833 18.7659 13.0833C18.7747 13.0833 18.7835 13.0833 18.7923 13.0833C18.8011 13.0833 18.8099 13.0833 18.8187 13.0833C18.8275 13.0833 18.8363 13.0833 18.8451 13.0833C18.8539 13.0833 18.8627 13.0833 18.8715 13.0833C18.8802 13.0833 18.889 13.0833 18.8978 13.0833C18.9065 13.0833 18.9153 13.0833 18.924 13.0833C18.9328 13.0833 18.9415 13.0833 18.9503 13.0833C18.959 13.0833 18.9677 13.0833 18.9765 13.0833C18.9852 13.0833 18.9939 13.0833 19.0026 13.0833C19.0113 13.0833 19.02 13.0833 19.0287 13.0833C19.0374 13.0833 19.0461 13.0833 19.0548 13.0833C19.0635 13.0833 19.0722 13.0833 19.0809 13.0833C19.0895 13.0833 19.0982 13.0833 19.1069 13.0833C19.1155 13.0833 19.1242 13.0833 19.1328 13.0833C19.1415 13.0833 19.1501 13.0833 19.1587 13.0833C19.1674 13.0833 19.176 13.0833 19.1846 13.0833C19.1932 13.0833 19.2018 13.0833 19.2104 13.0833C19.2191 13.0833 19.2277 13.0833 19.2362 13.0833C19.2448 13.0833 19.2534 13.0833 19.262 13.0833C19.2706 13.0833 19.2791 13.0833 19.2877 13.0833C19.2963 13.0833 19.3048 13.0833 19.3134 13.0833C19.3219 13.0833 19.3305 13.0833 19.339 13.0833C19.3475 13.0833 19.3561 13.0833 19.3646 13.0833C19.3731 13.0833 19.3816 13.0833 19.3901 13.0833C19.3986 13.0833 19.4071 13.0833 19.4156 13.0833C19.4241 13.0833 19.4326 13.0833 19.4411 13.0833C19.4496 13.0833 19.458 13.0833 19.4665 13.0833C19.475 13.0833 19.4834 13.0833 19.4919 13.0833C19.5003 13.0833 19.5087 13.0833 19.5172 13.0833C19.5256 13.0833 19.534 13.0833 19.5424 13.0833C19.5509 13.0833 19.5593 13.0833 19.5677 13.0833C19.5761 13.0833 19.5845 13.0833 19.5929 13.0833C19.6012 13.0833 19.6096 13.0833 19.618 13.0833C19.6264 13.0833 19.6347 13.0833 19.6431 13.0833C19.6514 13.0833 19.6598 13.0833 19.6681 13.0833C19.6764 13.0833 19.6848 13.0833 19.6931 13.0833C19.7014 13.0833 19.7097 13.0833 19.718 13.0833C19.7263 13.0833 19.7346 13.0833 19.7429 13.0833C19.7512 13.0833 19.7595 13.0833 19.7678 13.0833C19.7761 13.0833 19.7843 13.0833 19.7926 13.0833C19.8008 13.0833 19.8091 13.0833 19.8173 13.0833C19.8256 13.0833 19.8338 13.0833 19.842 13.0833C19.8502 13.0833 19.8585 13.0833 19.8667 13.0833C19.8749 13.0833 19.8831 13.0833 19.8913 13.0833C19.8995 13.0833 19.9076 13.0833 19.9158 13.0833C19.924 13.0833 19.9322 13.0833 19.9403 13.0833C19.9485 13.0833 19.9566 13.0833 19.9648 13.0833C19.9729 13.0833 19.981 13.0833 19.9891 13.0833C19.9973 13.0833 20.0054 13.0833 20.0135 13.0833C20.0216 13.0833 20.0297 13.0833 20.0378 13.0833C20.0459 13.0833 20.0539 13.0833 20.062 13.0833C20.0701 13.0833 20.0781 13.0833 20.0862 13.0833C20.0942 13.0833 20.1023 13.0833 20.1103 13.0833C20.1183 13.0833 20.1264 13.0833 20.1344 13.0833C20.1424 13.0833 20.1504 13.0833 20.1584 13.0833C20.1664 13.0833 20.1744 13.0833 20.1824 13.0833C20.1903 13.0833 20.1983 13.0833 20.2063 13.0833C20.2142 13.0833 20.2222 13.0833 20.2301 13.0833C20.2381 13.0833 20.246 13.0833 20.2539 13.0833C20.2618 13.0833 20.2698 13.0833 20.2777 13.0833C20.2856 13.0833 20.2935 13.0833 20.3013 13.0833C20.3092 13.0833 20.3171 13.0833 20.325 13.0833C20.3328 13.0833 20.3407 13.0833 20.3485 13.0833C20.3564 13.0833 20.3642 13.0833 20.372 13.0833C20.3799 13.0833 20.3877 13.0833 20.3955 13.0833C20.4033 13.0833 20.4111 13.0833 20.4189 13.0833C20.4267 13.0833 20.4345 13.0833 20.4422 13.0833C20.45 13.0833 20.4578 13.0833 20.4655 13.0833C20.4733 13.0833 20.481 13.0833 20.4887 13.0833C20.4965 13.0833 20.5042 13.0833 20.5119 13.0833C20.5196 13.0833 20.5273 13.0833 20.535 13.0833C20.5427 13.0833 20.5504 13.0833 20.558 13.0833C20.5657 13.0833 20.5734 13.0833 20.581 13.0833C20.5887 13.0833 20.5963 13.0833 20.6039 13.0833C20.6116 13.0833 20.6192 13.0833 20.6268 13.0833C20.6344 13.0833 20.642 13.0833 20.6496 13.0833C20.6572 13.0833 20.6648 13.0833 20.6723 13.0833C20.6799 13.0833 20.6874 13.0833 20.695 13.0833C20.7025 13.0833 20.7101 13.0833 20.7176 13.0833C20.7251 13.0833 20.7326 13.0833 20.7401 13.0833C20.7476 13.0833 20.7551 13.0833 20.7626 13.0833C20.7701 13.0833 20.7776 13.0833 20.785 13.0833C20.7925 13.0833 20.7999 13.0833 20.8074 13.0833C20.8148 13.0833 20.8223 13.0833 20.8297 13.0833C20.8371 13.0833 20.8445 13.0833 20.8519 13.0833C20.8593 13.0833 20.8667 13.0833 20.8741 13.0833C20.8814 13.0833 20.8888 13.0833 20.8962 13.0833C20.9035 13.0833 20.9108 13.0833 20.9182 13.0833C20.9255 13.0833 20.9328 13.0833 20.9401 13.0833C20.9474 13.0833 20.9547 13.0833 20.962 13.0833C20.9693 13.0833 20.9766 13.0833 20.9839 13.0833C20.9911 13.0833 20.9984 13.0833 21.0056 13.0833C21.0129 13.0833 21.0201 13.0833 21.0273 13.0833C21.0345 13.0833 21.0417 13.0833 21.0489 13.0833C21.0561 13.0833 21.0633 13.0833 21.0705 13.0833C21.0777 13.0833 21.0848 13.0833 21.092 13.0833C21.0991 13.0833 21.1063 13.0833 21.1134 13.0833C21.1205 13.0833 21.1276 13.0833 21.1347 13.0833C21.1418 13.0833 21.1489 13.0833 21.156 13.0833C21.1631 13.0833 21.1702 13.0833 21.1772 13.0833C21.1843 13.0833 21.1913 13.0833 21.1984 13.0833C21.2054 13.0833 21.2124 13.0833 21.2194 13.0833C21.2264 13.0833 21.2334 13.0833 21.2404 13.0833C21.2474 13.0833 21.2544 13.0833 21.2614 13.0833C21.2683 13.0833 21.2753 13.0833 21.2822 13.0833C21.2891 13.0833 21.2961 13.0833 21.303 13.0833C21.3099 13.0833 21.3168 13.0833 21.3237 13.0833C21.3306 13.0833 21.3375 13.0833 21.3443 13.0833C21.3512 13.0833 21.358 13.0833 21.3649 13.0833C21.3717 13.0833 21.3786 13.0833 21.3854 13.0833C21.3922 13.0833 21.399 13.0833 21.4058 13.0833C21.4126 13.0833 21.4194 13.0833 21.4261 13.0833C21.4329 13.0833 21.4397 13.0833 21.4464 13.0833C21.4531 13.0833 21.4599 13.0833 21.4666 13.0833C21.4733 13.0833 21.48 13.0833 21.4867 13.0833C21.4934 13.0833 21.5001 13.0833 21.5067 13.0833C21.5134 13.0833 21.5201 13.0833 21.5267 13.0833C21.5333 13.0833 21.54 13.0833 21.5466 13.0833C21.5532 13.0833 21.5598 13.0833 21.5664 13.0833C21.573 13.0833 21.5796 13.0833 21.5861 13.0833C21.5927 13.0833 21.5992 13.0833 21.6058 13.0833C21.6123 13.0833 21.6188 13.0833 21.6254 13.0833C21.6319 13.0833 21.6384 13.0833 21.6449 13.0833C21.6513 13.0833 21.6578 13.0833 21.6643 13.0833C21.6707 13.0833 21.6772 13.0833 21.6836 13.0833C21.69 13.0833 21.6965 13.0833 21.7029 13.0833C21.7093 13.0833 21.7157 13.0833 21.7221 13.0833C21.7284 13.0833 21.7348 13.0833 21.7412 13.0833C21.7475 13.0833 21.7539 13.0833 21.7602 13.0833C21.7665 13.0833 21.7728 13.0833 21.7791 13.0833C21.7854 13.0833 21.7917 13.0833 21.798 13.0833C21.8043 13.0833 21.8105 13.0833 21.8168 13.0833C21.823 13.0833 21.8292 13.0833 21.8355 13.0833C21.8417 13.0833 21.8479 13.0833 21.8541 13.0833C21.8603 13.0833 21.8664 13.0833 21.8726 13.0833C21.8788 13.0833 21.8849 13.0833 21.8911 13.0833C21.8972 13.0833 21.9033 13.0833 21.9094 13.0833C21.9155 13.0833 21.9216 13.0833 21.9277 13.0833C21.9338 13.0833 21.9399 13.0833 21.9459 13.0833C21.952 13.0833 21.958 13.0833 21.964 13.0833C21.97 13.0833 21.9761 13.0833 21.9821 13.0833C21.9881 13.0833 21.994 13.0833 22 13.0833V11.5833C21.994 11.5833 21.9881 11.5833 21.9821 11.5833C21.9761 11.5833 21.97 11.5833 21.964 11.5833C21.958 11.5833 21.952 11.5833 21.9459 11.5833C21.9399 11.5833 21.9338 11.5833 21.9277 11.5833C21.9216 11.5833 21.9155 11.5833 21.9094 11.5833C21.9033 11.5833 21.8972 11.5833 21.8911 11.5833C21.8849 11.5833 21.8788 11.5833 21.8726 11.5833C21.8664 11.5833 21.8603 11.5833 21.8541 11.5833C21.8479 11.5833 21.8417 11.5833 21.8355 11.5833C21.8292 11.5833 21.823 11.5833 21.8168 11.5833C21.8105 11.5833 21.8043 11.5833 21.798 11.5833C21.7917 11.5833 21.7854 11.5833 21.7791 11.5833C21.7728 11.5833 21.7665 11.5833 21.7602 11.5833C21.7539 11.5833 21.7475 11.5833 21.7412 11.5833C21.7348 11.5833 21.7284 11.5833 21.7221 11.5833C21.7157 11.5833 21.7093 11.5833 21.7029 11.5833C21.6965 11.5833 21.69 11.5833 21.6836 11.5833C21.6772 11.5833 21.6707 11.5833 21.6643 11.5833C21.6578 11.5833 21.6513 11.5833 21.6449 11.5833C21.6384 11.5833 21.6319 11.5833 21.6254 11.5833C21.6188 11.5833 21.6123 11.5833 21.6058 11.5833C21.5992 11.5833 21.5927 11.5833 21.5861 11.5833C21.5796 11.5833 21.573 11.5833 21.5664 11.5833C21.5598 11.5833 21.5532 11.5833 21.5466 11.5833C21.54 11.5833 21.5333 11.5833 21.5267 11.5833C21.5201 11.5833 21.5134 11.5833 21.5067 11.5833C21.5001 11.5833 21.4934 11.5833 21.4867 11.5833C21.48 11.5833 21.4733 11.5833 21.4666 11.5833C21.4599 11.5833 21.4531 11.5833 21.4464 11.5833C21.4397 11.5833 21.4329 11.5833 21.4261 11.5833C21.4194 11.5833 21.4126 11.5833 21.4058 11.5833C21.399 11.5833 21.3922 11.5833 21.3854 11.5833C21.3786 11.5833 21.3717 11.5833 21.3649 11.5833C21.358 11.5833 21.3512 11.5833 21.3443 11.5833C21.3375 11.5833 21.3306 11.5833 21.3237 11.5833C21.3168 11.5833 21.3099 11.5833 21.303 11.5833C21.2961 11.5833 21.2891 11.5833 21.2822 11.5833C21.2753 11.5833 21.2683 11.5833 21.2614 11.5833C21.2544 11.5833 21.2474 11.5833 21.2404 11.5833C21.2334 11.5833 21.2264 11.5833 21.2194 11.5833C21.2124 11.5833 21.2054 11.5833 21.1984 11.5833C21.1913 11.5833 21.1843 11.5833 21.1772 11.5833C21.1702 11.5833 21.1631 11.5833 21.156 11.5833C21.1489 11.5833 21.1418 11.5833 21.1347 11.5833C21.1276 11.5833 21.1205 11.5833 21.1134 11.5833C21.1063 11.5833 21.0991 11.5833 21.092 11.5833C21.0848 11.5833 21.0777 11.5833 21.0705 11.5833C21.0633 11.5833 21.0561 11.5833 21.0489 11.5833C21.0417 11.5833 21.0345 11.5833 21.0273 11.5833C21.0201 11.5833 21.0129 11.5833 21.0056 11.5833C20.9984 11.5833 20.9911 11.5833 20.9839 11.5833C20.9766 11.5833 20.9693 11.5833 20.962 11.5833C20.9547 11.5833 20.9474 11.5833 20.9401 11.5833C20.9328 11.5833 20.9255 11.5833 20.9182 11.5833C20.9108 11.5833 20.9035 11.5833 20.8962 11.5833C20.8888 11.5833 20.8814 11.5833 20.8741 11.5833C20.8667 11.5833 20.8593 11.5833 20.8519 11.5833C20.8445 11.5833 20.8371 11.5833 20.8297 11.5833C20.8223 11.5833 20.8148 11.5833 20.8074 11.5833C20.7999 11.5833 20.7925 11.5833 20.785 11.5833C20.7776 11.5833 20.7701 11.5833 20.7626 11.5833C20.7551 11.5833 20.7476 11.5833 20.7401 11.5833C20.7326 11.5833 20.7251 11.5833 20.7176 11.5833C20.7101 11.5833 20.7025 11.5833 20.695 11.5833C20.6874 11.5833 20.6799 11.5833 20.6723 11.5833C20.6648 11.5833 20.6572 11.5833 20.6496 11.5833C20.642 11.5833 20.6344 11.5833 20.6268 11.5833C20.6192 11.5833 20.6116 11.5833 20.6039 11.5833C20.5963 11.5833 20.5887 11.5833 20.581 11.5833C20.5734 11.5833 20.5657 11.5833 20.558 11.5833C20.5504 11.5833 20.5427 11.5833 20.535 11.5833C20.5273 11.5833 20.5196 11.5833 20.5119 11.5833C20.5042 11.5833 20.4965 11.5833 20.4887 11.5833C20.481 11.5833 20.4733 11.5833 20.4655 11.5833C20.4578 11.5833 20.45 11.5833 20.4422 11.5833C20.4345 11.5833 20.4267 11.5833 20.4189 11.5833C20.4111 11.5833 20.4033 11.5833 20.3955 11.5833C20.3877 11.5833 20.3799 11.5833 20.372 11.5833C20.3642 11.5833 20.3564 11.5833 20.3485 11.5833C20.3407 11.5833 20.3328 11.5833 20.325 11.5833C20.3171 11.5833 20.3092 11.5833 20.3013 11.5833C20.2935 11.5833 20.2856 11.5833 20.2777 11.5833C20.2698 11.5833 20.2618 11.5833 20.2539 11.5833C20.246 11.5833 20.2381 11.5833 20.2301 11.5833C20.2222 11.5833 20.2142 11.5833 20.2063 11.5833C20.1983 11.5833 20.1903 11.5833 20.1824 11.5833C20.1744 11.5833 20.1664 11.5833 20.1584 11.5833C20.1504 11.5833 20.1424 11.5833 20.1344 11.5833C20.1264 11.5833 20.1183 11.5833 20.1103 11.5833C20.1023 11.5833 20.0942 11.5833 20.0862 11.5833C20.0781 11.5833 20.0701 11.5833 20.062 11.5833C20.0539 11.5833 20.0459 11.5833 20.0378 11.5833C20.0297 11.5833 20.0216 11.5833 20.0135 11.5833C20.0054 11.5833 19.9973 11.5833 19.9891 11.5833C19.981 11.5833 19.9729 11.5833 19.9648 11.5833C19.9566 11.5833 19.9485 11.5833 19.9403 11.5833C19.9322 11.5833 19.924 11.5833 19.9158 11.5833C19.9076 11.5833 19.8995 11.5833 19.8913 11.5833C19.8831 11.5833 19.8749 11.5833 19.8667 11.5833C19.8585 11.5833 19.8502 11.5833 19.842 11.5833C19.8338 11.5833 19.8256 11.5833 19.8173 11.5833C19.8091 11.5833 19.8008 11.5833 19.7926 11.5833C19.7843 11.5833 19.7761 11.5833 19.7678 11.5833C19.7595 11.5833 19.7512 11.5833 19.7429 11.5833C19.7346 11.5833 19.7263 11.5833 19.718 11.5833C19.7097 11.5833 19.7014 11.5833 19.6931 11.5833C19.6848 11.5833 19.6764 11.5833 19.6681 11.5833C19.6598 11.5833 19.6514 11.5833 19.6431 11.5833C19.6347 11.5833 19.6264 11.5833 19.618 11.5833C19.6096 11.5833 19.6012 11.5833 19.5929 11.5833C19.5845 11.5833 19.5761 11.5833 19.5677 11.5833C19.5593 11.5833 19.5509 11.5833 19.5424 11.5833C19.534 11.5833 19.5256 11.5833 19.5172 11.5833C19.5087 11.5833 19.5003 11.5833 19.4919 11.5833C19.4834 11.5833 19.475 11.5833 19.4665 11.5833C19.458 11.5833 19.4496 11.5833 19.4411 11.5833C19.4326 11.5833 19.4241 11.5833 19.4156 11.5833C19.4071 11.5833 19.3986 11.5833 19.3901 11.5833C19.3816 11.5833 19.3731 11.5833 19.3646 11.5833C19.3561 11.5833 19.3475 11.5833 19.339 11.5833C19.3305 11.5833 19.3219 11.5833 19.3134 11.5833C19.3048 11.5833 19.2963 11.5833 19.2877 11.5833C19.2791 11.5833 19.2706 11.5833 19.262 11.5833C19.2534 11.5833 19.2448 11.5833 19.2362 11.5833C19.2277 11.5833 19.2191 11.5833 19.2104 11.5833C19.2018 11.5833 19.1932 11.5833 19.1846 11.5833C19.176 11.5833 19.1674 11.5833 19.1587 11.5833C19.1501 11.5833 19.1415 11.5833 19.1328 11.5833C19.1242 11.5833 19.1155 11.5833 19.1069 11.5833C19.0982 11.5833 19.0895 11.5833 19.0809 11.5833C19.0722 11.5833 19.0635 11.5833 19.0548 11.5833C19.0461 11.5833 19.0374 11.5833 19.0287 11.5833C19.02 11.5833 19.0113 11.5833 19.0026 11.5833C18.9939 11.5833 18.9852 11.5833 18.9765 11.5833C18.9677 11.5833 18.959 11.5833 18.9503 11.5833C18.9415 11.5833 18.9328 11.5833 18.924 11.5833C18.9153 11.5833 18.9065 11.5833 18.8978 11.5833C18.889 11.5833 18.8802 11.5833 18.8715 11.5833C18.8627 11.5833 18.8539 11.5833 18.8451 11.5833C18.8363 11.5833 18.8275 11.5833 18.8187 11.5833C18.8099 11.5833 18.8011 11.5833 18.7923 11.5833C18.7835 11.5833 18.7747 11.5833 18.7659 11.5833C18.757 11.5833 18.7482 11.5833 18.7394 11.5833C18.7305 11.5833 18.7217 11.5833 18.7128 11.5833C18.704 11.5833 18.6951 11.5833 18.6863 11.5833C18.6774 11.5833 18.6686 11.5833 18.6597 11.5833C18.6508 11.5833 18.6419 11.5833 18.6331 11.5833C18.6242 11.5833 18.6153 11.5833 18.6064 11.5833C18.5975 11.5833 18.5886 11.5833 18.5797 11.5833C18.5708 11.5833 18.5619 11.5833 18.553 11.5833C18.5441 11.5833 18.5352 11.5833 18.5262 11.5833C18.5173 11.5833 18.5084 11.5833 18.4994 11.5833C18.4905 11.5833 18.4816 11.5833 18.4726 11.5833C18.4637 11.5833 18.4547 11.5833 18.4458 11.5833C18.4368 11.5833 18.4278 11.5833 18.4189 11.5833C18.4099 11.5833 18.4009 11.5833 18.3919 11.5833C18.383 11.5833 18.374 11.5833 18.365 11.5833C18.356 11.5833 18.347 11.5833 18.338 11.5833C18.329 11.5833 18.32 11.5833 18.311 11.5833C18.302 11.5833 18.293 11.5833 18.284 11.5833C18.275 11.5833 18.2659 11.5833 18.2569 11.5833C18.2479 11.5833 18.2389 11.5833 18.2298 11.5833C18.2208 11.5833 18.2117 11.5833 18.2027 11.5833C18.1936 11.5833 18.1846 11.5833 18.1755 11.5833C18.1665 11.5833 18.1574 11.5833 18.1484 11.5833C18.1393 11.5833 18.1302 11.5833 18.1211 11.5833C18.1121 11.5833 18.103 11.5833 18.0939 11.5833C18.0848 11.5833 18.0757 11.5833 18.0667 11.5833C18.0576 11.5833 18.0485 11.5833 18.0394 11.5833C18.0303 11.5833 18.0212 11.5833 18.0121 11.5833C18.0029 11.5833 17.9938 11.5833 17.9847 11.5833C17.9756 11.5833 17.9665 11.5833 17.9573 11.5833C17.9482 11.5833 17.9391 11.5833 17.93 11.5833C17.9208 11.5833 17.9117 11.5833 17.9025 11.5833C17.8934 11.5833 17.8843 11.5833 17.8751 11.5833C17.866 11.5833 17.8568 11.5833 17.8476 11.5833C17.8385 11.5833 17.8293 11.5833 17.8202 11.5833C17.811 11.5833 17.8018 11.5833 17.7926 11.5833C17.7835 11.5833 17.7743 11.5833 17.7651 11.5833C17.7559 11.5833 17.7467 11.5833 17.7376 11.5833C17.7284 11.5833 17.7192 11.5833 17.71 11.5833C17.7008 11.5833 17.6916 11.5833 17.6824 11.5833C17.6732 11.5833 17.664 11.5833 17.6548 11.5833C17.6456 11.5833 17.6363 11.5833 17.6271 11.5833C17.6179 11.5833 17.6087 11.5833 17.5995 11.5833C17.5902 11.5833 17.581 11.5833 17.5718 11.5833C17.5625 11.5833 17.5533 11.5833 17.5441 11.5833C17.5348 11.5833 17.5256 11.5833 17.5164 11.5833C17.5071 11.5833 17.4979 11.5833 17.4886 11.5833C17.4794 11.5833 17.4701 11.5833 17.4609 11.5833C17.4516 11.5833 17.4423 11.5833 17.4331 11.5833C17.4238 11.5833 17.4145 11.5833 17.4053 11.5833C17.396 11.5833 17.3867 11.5833 17.3775 11.5833C17.3682 11.5833 17.3589 11.5833 17.3496 11.5833C17.3403 11.5833 17.3311 11.5833 17.3218 11.5833C17.3125 11.5833 17.3032 11.5833 17.2939 11.5833C17.2846 11.5833 17.2753 11.5833 17.266 11.5833C17.2567 11.5833 17.2474 11.5833 17.2381 11.5833C17.2288 11.5833 17.2195 11.5833 17.2102 11.5833C17.2009 11.5833 17.1916 11.5833 17.1823 11.5833C17.173 11.5833 17.1636 11.5833 17.1543 11.5833C17.145 11.5833 17.1357 11.5833 17.1264 11.5833C17.117 11.5833 17.1077 11.5833 17.0984 11.5833C17.0891 11.5833 17.0797 11.5833 17.0704 11.5833C17.0611 11.5833 17.0517 11.5833 17.0424 11.5833C17.0331 11.5833 17.0237 11.5833 17.0144 11.5833C17.005 11.5833 16.9957 11.5833 16.9864 11.5833C16.977 11.5833 16.9677 11.5833 16.9583 11.5833C16.949 11.5833 16.9396 11.5833 16.9303 11.5833C16.9209 11.5833 16.9115 11.5833 16.9022 11.5833C16.8928 11.5833 16.8835 11.5833 16.8741 11.5833C16.8647 11.5833 16.8554 11.5833 16.846 11.5833C16.8367 11.5833 16.8273 11.5833 16.8179 11.5833C16.8085 11.5833 16.7992 11.5833 16.7898 11.5833C16.7804 11.5833 16.7711 11.5833 16.7617 11.5833C16.7523 11.5833 16.7429 11.5833 16.7335 11.5833C16.7242 11.5833 16.7148 11.5833 16.7054 11.5833C16.696 11.5833 16.6866 11.5833 16.6773 11.5833C16.6679 11.5833 16.6585 11.5833 16.6491 11.5833C16.6397 11.5833 16.6303 11.5833 16.6209 11.5833C16.6115 11.5833 16.6021 11.5833 16.5928 11.5833C16.5834 11.5833 16.574 11.5833 16.5646 11.5833C16.5552 11.5833 16.5458 11.5833 16.5364 11.5833C16.527 11.5833 16.5176 11.5833 16.5082 11.5833C16.4988 11.5833 16.4894 11.5833 16.48 11.5833C16.4706 11.5833 16.4612 11.5833 16.4518 11.5833C16.4424 11.5833 16.433 11.5833 16.4235 11.5833C16.4141 11.5833 16.4047 11.5833 16.3953 11.5833C16.3859 11.5833 16.3765 11.5833 16.3671 11.5833C16.3577 11.5833 16.3483 11.5833 16.3389 11.5833C16.3294 11.5833 16.32 11.5833 16.3106 11.5833C16.3012 11.5833 16.2918 11.5833 16.2824 11.5833C16.273 11.5833 16.2635 11.5833 16.2541 11.5833C16.2447 11.5833 16.2353 11.5833 16.2259 11.5833C16.2165 11.5833 16.207 11.5833 16.1976 11.5833C16.1882 11.5833 16.1788 11.5833 16.1694 11.5833C16.1599 11.5833 16.1505 11.5833 16.1411 11.5833C16.1317 11.5833 16.1223 11.5833 16.1128 11.5833C16.1034 11.5833 16.094 11.5833 16.0846 11.5833C16.0752 11.5833 16.0657 11.5833 16.0563 11.5833C16.0469 11.5833 16.0375 11.5833 16.0281 11.5833C16.0186 11.5833 16.0092 11.5833 15.9998 11.5833C15.9904 11.5833 15.9809 11.5833 15.9715 11.5833C15.9621 11.5833 15.9527 11.5833 15.9433 11.5833C15.9338 11.5833 15.9244 11.5833 15.915 11.5833C15.9056 11.5833 15.8961 11.5833 15.8867 11.5833C15.8773 11.5833 15.8679 11.5833 15.8585 11.5833C15.849 11.5833 15.8396 11.5833 15.8302 11.5833C15.8208 11.5833 15.8113 11.5833 15.8019 11.5833C15.7925 11.5833 15.7831 11.5833 15.7737 11.5833C15.7642 11.5833 15.7548 11.5833 15.7454 11.5833C15.736 11.5833 15.7266 11.5833 15.7172 11.5833C15.7077 11.5833 15.6983 11.5833 15.6889 11.5833C15.6795 11.5833 15.6701 11.5833 15.6607 11.5833C15.6512 11.5833 15.6418 11.5833 15.6324 11.5833C15.623 11.5833 15.6136 11.5833 15.6042 11.5833C15.5948 11.5833 15.5853 11.5833 15.5759 11.5833C15.5665 11.5833 15.5571 11.5833 15.5477 11.5833C15.5383 11.5833 15.5289 11.5833 15.5195 11.5833C15.5101 11.5833 15.5007 11.5833 15.4913 11.5833C15.4818 11.5833 15.4724 11.5833 15.463 11.5833C15.4536 11.5833 15.4442 11.5833 15.4348 11.5833C15.4254 11.5833 15.416 11.5833 15.4066 11.5833C15.3972 11.5833 15.3878 11.5833 15.3784 11.5833C15.369 11.5833 15.3596 11.5833 15.3502 11.5833C15.3408 11.5833 15.3315 11.5833 15.3221 11.5833C15.3127 11.5833 15.3033 11.5833 15.2939 11.5833C15.2845 11.5833 15.2751 11.5833 15.2657 11.5833C15.2563 11.5833 15.2469 11.5833 15.2376 11.5833C15.2282 11.5833 15.2188 11.5833 15.2094 11.5833C15.2 11.5833 15.1907 11.5833 15.1813 11.5833C15.1719 11.5833 15.1625 11.5833 15.1532 11.5833C15.1438 11.5833 15.1344 11.5833 15.125 11.5833C15.1157 11.5833 15.1063 11.5833 15.0969 11.5833C15.0876 11.5833 15.0782 11.5833 15.0688 11.5833C15.0595 11.5833 15.0501 11.5833 15.0407 11.5833C15.0314 11.5833 15.022 11.5833 15.0127 11.5833C15.0033 11.5833 14.994 11.5833 14.9846 11.5833C14.9753 11.5833 14.9659 11.5833 14.9566 11.5833C14.9472 11.5833 14.9379 11.5833 14.9285 11.5833C14.9192 11.5833 14.9098 11.5833 14.9005 11.5833C14.8912 11.5833 14.8818 11.5833 14.8725 11.5833C14.8631 11.5833 14.8538 11.5833 14.8445 11.5833C14.8352 11.5833 14.8258 11.5833 14.8165 11.5833C14.8072 11.5833 14.7979 11.5833 14.7885 11.5833C14.7792 11.5833 14.7699 11.5833 14.7606 11.5833C14.7513 11.5833 14.7419 11.5833 14.7326 11.5833C14.7233 11.5833 14.714 11.5833 14.7047 11.5833C14.6954 11.5833 14.6861 11.5833 14.6768 11.5833C14.6675 11.5833 14.6582 11.5833 14.6489 11.5833C14.6396 11.5833 14.6303 11.5833 14.621 11.5833C14.6117 11.5833 14.6025 11.5833 14.5932 11.5833C14.5839 11.5833 14.5746 11.5833 14.5653 11.5833C14.5561 11.5833 14.5468 11.5833 14.5375 11.5833C14.5282 11.5833 14.519 11.5833 14.5097 11.5833C14.5004 11.5833 14.4912 11.5833 14.4819 11.5833C14.4726 11.5833 14.4634 11.5833 14.4541 11.5833C14.4449 11.5833 14.4356 11.5833 14.4264 11.5833C14.4171 11.5833 14.4079 11.5833 14.3986 11.5833C14.3894 11.5833 14.3802 11.5833 14.3709 11.5833C14.3617 11.5833 14.3525 11.5833 14.3432 11.5833C14.334 11.5833 14.3248 11.5833 14.3156 11.5833C14.3063 11.5833 14.2971 11.5833 14.2879 11.5833C14.2787 11.5833 14.2695 11.5833 14.2603 11.5833C14.2511 11.5833 14.2419 11.5833 14.2327 11.5833C14.2235 11.5833 14.2143 11.5833 14.2051 11.5833C14.1959 11.5833 14.1867 11.5833 14.1775 11.5833C14.1683 11.5833 14.1591 11.5833 14.15 11.5833C14.1408 11.5833 14.1316 11.5833 14.1224 11.5833C14.1133 11.5833 14.1041 11.5833 14.0949 11.5833C14.0858 11.5833 14.0766 11.5833 14.0675 11.5833C14.0583 11.5833 14.0492 11.5833 14.04 11.5833C14.0309 11.5833 14.0217 11.5833 14.0126 11.5833C14.0034 11.5833 13.9943 11.5833 13.9852 11.5833C13.9761 11.5833 13.9669 11.5833 13.9578 11.5833C13.9487 11.5833 13.9396 11.5833 13.9304 11.5833C13.9213 11.5833 13.9122 11.5833 13.9031 11.5833C13.894 11.5833 13.8849 11.5833 13.8758 11.5833C13.8667 11.5833 13.8576 11.5833 13.8485 11.5833C13.8395 11.5833 13.8304 11.5833 13.8213 11.5833C13.8122 11.5833 13.8031 11.5833 13.7941 11.5833C13.785 11.5833 13.7759 11.5833 13.7669 11.5833C13.7578 11.5833 13.7488 11.5833 13.7397 11.5833C13.7306 11.5833 13.7216 11.5833 13.7126 11.5833C13.7035 11.5833 13.6945 11.5833 13.6854 11.5833C13.6764 11.5833 13.6674 11.5833 13.6584 11.5833C13.6493 11.5833 13.6403 11.5833 13.6313 11.5833C13.6223 11.5833 13.6133 11.5833 13.6043 11.5833C13.5953 11.5833 13.5863 11.5833 13.5773 11.5833C13.5683 11.5833 13.5593 11.5833 13.5503 11.5833C13.5413 11.5833 13.5324 11.5833 13.5234 11.5833C13.5144 11.5833 13.5054 11.5833 13.4965 11.5833C13.4875 11.5833 13.4786 11.5833 13.4696 11.5833C13.4607 11.5833 13.4517 11.5833 13.4428 11.5833C13.4338 11.5833 13.4249 11.5833 13.416 11.5833C13.407 11.5833 13.3981 11.5833 13.3892 11.5833C13.3803 11.5833 13.3713 11.5833 13.3624 11.5833C13.3535 11.5833 13.3446 11.5833 13.3357 11.5833C13.3268 11.5833 13.3179 11.5833 13.309 11.5833C13.3001 11.5833 13.2913 11.5833 13.2824 11.5833C13.2735 11.5833 13.2646 11.5833 13.2558 11.5833C13.2469 11.5833 13.2381 11.5833 13.2292 11.5833C13.2203 11.5833 13.2115 11.5833 13.2027 11.5833C13.1938 11.5833 13.185 11.5833 13.1761 11.5833C13.1673 11.5833 13.1585 11.5833 13.1497 11.5833C13.1409 11.5833 13.132 11.5833 13.1232 11.5833C13.1144 11.5833 13.1056 11.5833 13.0968 11.5833C13.088 11.5833 13.0792 11.5833 13.0705 11.5833C13.0617 11.5833 13.0529 11.5833 13.0441 11.5833C13.0354 11.5833 13.0266 11.5833 13.0178 11.5833C13.0091 11.5833 13.0003 11.5833 12.9916 11.5833C12.9828 11.5833 12.9741 11.5833 12.9654 11.5833C12.9566 11.5833 12.9479 11.5833 12.9392 11.5833C12.9305 11.5833 12.9218 11.5833 12.9131 11.5833C12.9043 11.5833 12.8956 11.5833 12.887 11.5833C12.8783 11.5833 12.8696 11.5833 12.8609 11.5833C12.8522 11.5833 12.8435 11.5833 12.8349 11.5833C12.8262 11.5833 12.8175 11.5833 12.8089 11.5833C12.8002 11.5833 12.7916 11.5833 12.7829 11.5833C12.7743 11.5833 12.7657 11.5833 12.757 11.5833C12.7484 11.5833 12.7398 11.5833 12.7312 11.5833C12.7226 11.5833 12.714 11.5833 12.7054 11.5833C12.6968 11.5833 12.6882 11.5833 12.6796 11.5833C12.671 11.5833 12.6624 11.5833 12.6538 11.5833C12.6453 11.5833 12.6367 11.5833 12.6281 11.5833C12.6196 11.5833 12.611 11.5833 12.6025 11.5833C12.5939 11.5833 12.5854 11.5833 12.5769 11.5833C12.5684 11.5833 12.5598 11.5833 12.5513 11.5833C12.5428 11.5833 12.5343 11.5833 12.5258 11.5833C12.5173 11.5833 12.5088 11.5833 12.5003 11.5833C12.4918 11.5833 12.4834 11.5833 12.4749 11.5833C12.4664 11.5833 12.4579 11.5833 12.4495 11.5833C12.441 11.5833 12.4326 11.5833 12.4241 11.5833C12.4157 11.5833 12.4073 11.5833 12.3988 11.5833C12.3904 11.5833 12.382 11.5833 12.3736 11.5833C12.3652 11.5833 12.3568 11.5833 12.3484 11.5833C12.34 11.5833 12.3316 11.5833 12.3232 11.5833C12.3149 11.5833 12.3065 11.5833 12.2981 11.5833C12.2898 11.5833 12.2814 11.5833 12.273 11.5833C12.2647 11.5833 12.2564 11.5833 12.248 11.5833C12.2397 11.5833 12.2314 11.5833 12.2231 11.5833C12.2147 11.5833 12.2064 11.5833 12.1981 11.5833C12.1898 11.5833 12.1815 11.5833 12.1733 11.5833C12.165 11.5833 12.1567 11.5833 12.1484 11.5833C12.1402 11.5833 12.1319 11.5833 12.1237 11.5833C12.1154 11.5833 12.1072 11.5833 12.0989 11.5833C12.0907 11.5833 12.0825 11.5833 12.0743 11.5833C12.066 11.5833 12.0578 11.5833 12.0496 11.5833C12.0414 11.5833 12.0332 11.5833 12.0251 11.5833C12.0169 11.5833 12.0087 11.5833 12.0005 11.5833C11.9924 11.5833 11.9842 11.5833 11.9761 11.5833C11.9679 11.5833 11.9598 11.5833 11.9516 11.5833C11.9435 11.5833 11.9354 11.5833 11.9273 11.5833C11.9192 11.5833 11.9111 11.5833 11.903 11.5833C11.8949 11.5833 11.8868 11.5833 11.8787 11.5833C11.8706 11.5833 11.8625 11.5833 11.8545 11.5833C11.8464 11.5833 11.8384 11.5833 11.8303 11.5833C11.8223 11.5833 11.8142 11.5833 11.8062 11.5833C11.7982 11.5833 11.7902 11.5833 11.7822 11.5833C11.7742 11.5833 11.7662 11.5833 11.7582 11.5833C11.7502 11.5833 11.7422 11.5833 11.7342 11.5833C11.7263 11.5833 11.7183 11.5833 11.7103 11.5833C11.7024 11.5833 11.6945 11.5833 11.6865 11.5833C11.6786 11.5833 11.6707 11.5833 11.6627 11.5833C11.6548 11.5833 11.6469 11.5833 11.639 11.5833C11.6311 11.5833 11.6232 11.5833 11.6154 11.5833C11.6075 11.5833 11.5996 11.5833 11.5918 11.5833C11.5839 11.5833 11.5761 11.5833 11.5682 11.5833C11.5604 11.5833 11.5526 11.5833 11.5447 11.5833C11.5369 11.5833 11.5291 11.5833 11.5213 11.5833C11.5135 11.5833 11.5057 11.5833 11.4979 11.5833C11.4901 11.5833 11.4824 11.5833 11.4746 11.5833C11.4669 11.5833 11.4591 11.5833 11.4514 11.5833C11.4436 11.5833 11.4359 11.5833 11.4282 11.5833C11.4204 11.5833 11.4127 11.5833 11.405 11.5833C11.3973 11.5833 11.3896 11.5833 11.382 11.5833C11.3743 11.5833 11.3666 11.5833 11.3589 11.5833C11.3513 11.5833 11.3436 11.5833 11.336 11.5833C11.3283 11.5833 11.3207 11.5833 11.3131 11.5833C11.3055 11.5833 11.2979 11.5833 11.2903 11.5833C11.2827 11.5833 11.2751 11.5833 11.2675 11.5833C11.2599 11.5833 11.2524 11.5833 11.2448 11.5833C11.2372 11.5833 11.2297 11.5833 11.2221 11.5833C11.2146 11.5833 11.2071 11.5833 11.1996 11.5833C11.192 11.5833 11.1845 11.5833 11.177 11.5833C11.1696 11.5833 11.1621 11.5833 11.1546 11.5833C11.1471 11.5833 11.1397 11.5833 11.1322 11.5833C11.1248 11.5833 11.1173 11.5833 11.1099 11.5833C11.1024 11.5833 11.095 11.5833 11.0876 11.5833C11.0802 11.5833 11.0728 11.5833 11.0654 11.5833C11.058 11.5833 11.0507 11.5833 11.0433 11.5833C11.0359 11.5833 11.0286 11.5833 11.0212 11.5833C11.0139 11.5833 11.0065 11.5833 10.9992 11.5833C10.9919 11.5833 10.9846 11.5833 10.9773 11.5833C10.97 11.5833 10.9627 11.5833 10.9554 11.5833C10.9482 11.5833 10.9409 11.5833 10.9336 11.5833C10.9264 11.5833 10.9191 11.5833 10.9119 11.5833C10.9047 11.5833 10.8974 11.5833 10.8902 11.5833C10.883 11.5833 10.8758 11.5833 10.8686 11.5833C10.8615 11.5833 10.8543 11.5833 10.8471 11.5833C10.8399 11.5833 10.8328 11.5833 10.8257 11.5833C10.8185 11.5833 10.8114 11.5833 10.8043 11.5833C10.7971 11.5833 10.79 11.5833 10.7829 11.5833C10.7759 11.5833 10.7688 11.5833 10.7617 11.5833C10.7546 11.5833 10.7476 11.5833 10.7405 11.5833C10.7335 11.5833 10.7264 11.5833 10.7194 11.5833C10.7124 11.5833 10.7054 11.5833 10.6984 11.5833C10.6914 11.5833 10.6844 11.5833 10.6774 11.5833C10.6704 11.5833 10.6635 11.5833 10.6565 11.5833C10.6496 11.5833 10.6426 11.5833 10.6357 11.5833C10.6288 11.5833 10.6218 11.5833 10.6149 11.5833C10.608 11.5833 10.6011 11.5833 10.5943 11.5833C10.5874 11.5833 10.5805 11.5833 10.5737 11.5833C10.5668 11.5833 10.56 11.5833 10.5531 11.5833C10.5463 11.5833 10.5395 11.5833 10.5327 11.5833C10.5259 11.5833 10.5191 11.5833 10.5123 11.5833C10.5055 11.5833 10.4987 11.5833 10.492 11.5833C10.4852 11.5833 10.4785 11.5833 10.4718 11.5833C10.465 11.5833 10.4583 11.5833 10.4516 11.5833C10.4449 11.5833 10.4382 11.5833 10.4315 11.5833C10.4248 11.5833 10.4182 11.5833 10.4115 11.5833C10.4048 11.5833 10.3982 11.5833 10.3916 11.5833C10.3849 11.5833 10.3783 11.5833 10.3717 11.5833C10.3651 11.5833 10.3585 11.5833 10.3519 11.5833C10.3454 11.5833 10.3388 11.5833 10.3322 11.5833C10.3257 11.5833 10.3192 11.5833 10.3126 11.5833C10.3061 11.5833 10.2996 11.5833 10.2931 11.5833C10.2866 11.5833 10.2801 11.5833 10.2736 11.5833C10.2671 11.5833 10.2607 11.5833 10.2542 11.5833C10.2478 11.5833 10.2413 11.5833 10.2349 11.5833C10.2285 11.5833 10.2221 11.5833 10.2157 11.5833C10.2093 11.5833 10.2029 11.5833 10.1965 11.5833C10.1902 11.5833 10.1838 11.5833 10.1775 11.5833C10.1711 11.5833 10.1648 11.5833 10.1585 11.5833C10.1522 11.5833 10.1459 11.5833 10.1396 11.5833C10.1333 11.5833 10.127 11.5833 10.1208 11.5833C10.1145 11.5833 10.1082 11.5833 10.102 11.5833C10.0958 11.5833 10.0896 11.5833 10.0833 11.5833C10.0771 11.5833 10.0709 11.5833 10.0648 11.5833C10.0586 11.5833 10.0524 11.5833 10.0463 11.5833C10.0401 11.5833 10.034 11.5833 10.0278 11.5833C10.0217 11.5833 10.0156 11.5833 10.0095 11.5833C10.0034 11.5833 9.99734 11.5833 9.99127 11.5833C9.9852 11.5833 9.97915 11.5833 9.9731 11.5833C9.96706 11.5833 9.96104 11.5833 9.95502 11.5833C9.94901 11.5833 9.94301 11.5833 9.93703 11.5833C9.93104 11.5833 9.92507 11.5833 9.91912 11.5833C9.91316 11.5833 9.90722 11.5833 9.90129 11.5833C9.89537 11.5833 9.88945 11.5833 9.88355 11.5833C9.87765 11.5833 9.87177 11.5833 9.8659 11.5833C9.86003 11.5833 9.85417 11.5833 9.84833 11.5833C9.84249 11.5833 9.83666 11.5833 9.83085 11.5833C9.82504 11.5833 9.81924 11.5833 9.81346 11.5833C9.80768 11.5833 9.80191 11.5833 9.79615 11.5833C9.7904 11.5833 9.78466 11.5833 9.77894 11.5833C9.77321 11.5833 9.7675 11.5833 9.76181 11.5833C9.75611 11.5833 9.75043 11.5833 9.74476 11.5833C9.7391 11.5833 9.73345 11.5833 9.72781 11.5833C9.72218 11.5833 9.71655 11.5833 9.71095 11.5833C9.70534 11.5833 9.69975 11.5833 9.69417 11.5833C9.6886 11.5833 9.68304 11.5833 9.67749 11.5833C9.67194 11.5833 9.66641 11.5833 9.6609 11.5833C9.65538 11.5833 9.64988 11.5833 9.64439 11.5833C9.63891 11.5833 9.63344 11.5833 9.62798 11.5833C9.62253 11.5833 9.61709 11.5833 9.61166 11.5833C9.60624 11.5833 9.60083 11.5833 9.59543 11.5833C9.59004 11.5833 9.58466 11.5833 9.57929 11.5833C9.57393 11.5833 9.56858 11.5833 9.56325 11.5833C9.55792 11.5833 9.5526 11.5833 9.5473 11.5833C9.542 11.5833 9.53671 11.5833 9.53144 11.5833C9.52617 11.5833 9.52091 11.5833 9.51567 11.5833C9.51043 11.5833 9.50521 11.5833 9.5 11.5833V13.0833ZM22.5303 11.803L17.197 6.46967L16.1363 7.53033L21.4697 12.8637L22.5303 11.803ZM21.4697 11.803L16.1363 17.1363L17.197 18.197L22.5303 12.8637L21.4697 11.803Z" fill="#868686"/>
</svg>
