<svg width="27" height="27" viewBox="0 0 27 27" fill="none" xmlns="http://www.w3.org/2000/svg">
<path d="M5.02885 20.0032C5.24962 21.5877 6.68271 22 7.42857 22H20.2653C20.7279 22 22 21.6531 22 20.2653V18.8776M5.02885 20.0032C5.01001 19.868 5 19.7242 5 19.5714C5 16.2177 5 9.37143 5 7.42857C5 5.48571 6.61905 5 7.42857 5H19.5714C20.381 5 22 5.48571 22 7.42857V18.8776M5.02885 20.0032L8.81633 15.4082C9.04762 15.1769 9.64898 14.8531 10.2041 15.4082C10.7592 15.9633 11.9388 17.1429 12.4592 17.6633C12.5748 17.7789 12.8755 17.9408 13.1531 17.6633L16.102 13.6735C16.2755 13.5 16.9347 13.1184 17.4898 13.6735L21.6531 17.8367C21.7687 17.9524 22 18.3224 22 18.8776" stroke="#868686" stroke-width="1.5"/>
</svg>
