<svg width="27" height="27" viewBox="0 0 27 27" fill="none" xmlns="http://www.w3.org/2000/svg">
<path d="M16.8333 16.3333C16.8333 15.2919 16.8333 13.8333 16.8333 13.8333M19.6667 11C19.1667 11 18.0333 11 17.5 11C16.9667 11 16.8333 11.4444 16.8333 11.6667V13.8333M19 13.8333H16.8333M14.1667 11V16.3333M11.3333 11.5C11.1111 11.2222 10.6333 10.8333 9.83333 10.8333C9.16667 10.8333 8.66667 11.1667 8.33333 11.5C8 11.8333 7.66667 12.3834 7.66667 13.6667C7.66667 14.95 8.22222 15.5556 8.5 15.8333C8.66667 16 9.13333 16.5 10.3333 16.5C11.5 16.5 11.5 16.5 11.5 14.5C11.5 13.7108 10.7778 13.8333 10.3333 13.8333M18.8333 5C20.5556 5 24 6.03333 24 10.1667V16.8333C24 20.9667 20.5556 22 18.8333 22H8.16667C6.44444 22 3 20.9667 3 16.8333V10.1667C3 6.03333 6.44444 5 8.16667 5H18.8333Z" stroke="#868686" stroke-width="1.5" stroke-linecap="round"/>
</svg>
