<svg width="27" height="27" viewBox="0 0 27 27" fill="none" xmlns="http://www.w3.org/2000/svg">
<path d="M17.0309 14.6951L16.4192 14.2611L17.0309 14.6951ZM17.0309 10.2088L16.8046 9.49366L16.7923 9.49779L17.0309 10.2088ZM22.8083 8.38109L23.0346 9.09627L23.0469 9.09213L22.8083 8.38109ZM12.0788 12.0366L11.7987 11.3409L12.0788 12.0366ZM14.126 14.1473C14.4659 14.3842 14.9334 14.3006 15.1702 13.9608C15.407 13.621 15.3235 13.1535 14.9837 12.9167L14.126 14.1473ZM7.2918 8.04877L7.41589 8.78843L7.46119 8.78084L7.50521 8.76777L7.2918 8.04877ZM20.1672 4.22718L20.3806 4.94618L20.3899 4.94344L20.399 4.94046L20.1672 4.22718ZM3.82535 12.8674H4.57535V12.7658L4.54832 12.6679L3.82535 12.8674ZM3 9.87652H2.25V9.9781L2.27702 10.076L3 9.87652ZM3.66028 9.04572V9.79572H3.80615L3.94138 9.74105L3.66028 9.04572ZM23.6337 3.99695L24.3766 3.89434L24.3672 3.82634L24.3456 3.76118L23.6337 3.99695ZM23.9638 6.38719L23.2209 6.4898L23.225 6.51955L23.2314 6.54887L23.9638 6.38719ZM6.30139 14.2988L6.9028 13.8507L6.30139 14.2988ZM5.97125 17.8521L6.60842 18.2477L5.97125 17.8521ZM11.7487 17.2729C12.3605 17.2729 13.6044 17.0201 14.7329 16.6752C15.3108 16.4985 15.896 16.2864 16.3903 16.0497C16.8485 15.8301 17.3572 15.5313 17.6425 15.1291L16.4192 14.2611C16.3745 14.3242 16.1816 14.4864 15.7423 14.6968C15.339 14.89 14.8305 15.0768 14.2943 15.2407C13.1943 15.577 12.1273 15.7729 11.7487 15.7729V17.2729ZM17.6425 15.1291C17.7255 15.0123 17.7563 14.8979 17.7646 14.8676C17.7781 14.8183 17.7863 14.7729 17.7914 14.74C17.8018 14.6731 17.8084 14.6006 17.813 14.5334C17.8224 14.3959 17.8277 14.2209 17.8306 14.0285C17.8363 13.6406 17.8324 13.1383 17.825 12.628C17.81 11.5871 17.7809 10.5368 17.7809 10.2088H16.2809C16.2809 10.5455 16.3108 11.6552 16.3252 12.6498C16.3325 13.1572 16.3361 13.6415 16.3307 14.0065C16.328 14.1905 16.3232 14.3336 16.3165 14.4304C16.3149 14.4538 16.3133 14.4724 16.3119 14.4867C16.3112 14.4937 16.3106 14.4992 16.3101 14.5032C16.3098 14.5052 16.3096 14.5067 16.3095 14.5077C16.3093 14.5088 16.3092 14.5093 16.3092 14.5093C16.3093 14.5093 16.3093 14.5091 16.3093 14.5088C16.3094 14.5085 16.3095 14.508 16.3096 14.5074C16.3098 14.5061 16.3102 14.504 16.3108 14.5012C16.3118 14.4961 16.314 14.4856 16.3179 14.4714C16.3197 14.4648 16.3437 14.3675 16.4192 14.2611L17.6425 15.1291ZM17.2571 10.9239L23.0345 9.09616L22.5821 7.66602L16.8047 9.49377L17.2571 10.9239ZM12.4987 16.5229V13.0335H10.9987V16.5229H12.4987ZM12.4987 13.0335C12.4987 12.9508 12.5001 12.7996 12.5261 12.666C12.5392 12.5987 12.5517 12.5743 12.5492 12.5791C12.5468 12.5835 12.4961 12.6771 12.3589 12.7323L11.7987 11.3409C11.4965 11.4626 11.322 11.6932 11.2268 11.8711C11.1314 12.0492 11.0819 12.2347 11.0538 12.3792C10.9973 12.6693 10.9987 12.9501 10.9987 13.0335H12.4987ZM12.3589 12.7323C13.1758 12.4034 15.3071 11.5783 17.2695 10.9199L16.7923 9.49779C14.7931 10.1686 12.6326 11.0051 11.7987 11.3409L12.3589 12.7323ZM11.9801 12.6519L14.126 14.1473L14.9837 12.9167L12.8378 11.4213L11.9801 12.6519ZM11 16.4791C10.9711 16.9729 10.9677 17.5521 10.9626 18.1311C10.9574 18.7196 10.9506 19.318 10.9174 19.8854C10.8841 20.4557 10.8255 20.9654 10.7257 21.3779C10.6219 21.8067 10.4948 22.038 10.3913 22.1421L11.4554 23.1993C11.8471 22.805 12.057 22.2539 12.1836 21.7308C12.3142 21.1913 12.3794 20.5794 12.4149 19.9729C12.4505 19.3632 12.4574 18.7294 12.4625 18.1443C12.4678 17.5498 12.4712 17.0144 12.4974 16.5666L11 16.4791ZM10.3913 22.1421C10.3233 22.2105 10.1451 22.3315 9.82842 22.4786C9.53035 22.6171 9.16991 22.7516 8.79784 22.8698C8.42712 22.9877 8.05786 23.0853 7.74674 23.1528C7.41768 23.2241 7.20598 23.25 7.12673 23.25V24.75C7.37763 24.75 7.72304 24.6928 8.06457 24.6187C8.42405 24.5408 8.83888 24.4308 9.25224 24.2994C9.66425 24.1684 10.0879 24.0121 10.4604 23.839C10.8144 23.6746 11.1932 23.4633 11.4554 23.1993L10.3913 22.1421ZM7.50521 8.76777L20.3806 4.94618L19.9538 3.50818L7.0784 7.32977L7.50521 8.76777ZM7.16771 7.30911C7.20338 7.30312 7.20397 7.30743 7.13161 7.3055C7.07284 7.30393 6.99488 7.29929 6.89692 7.2919C6.79989 7.28457 6.69281 7.27529 6.57572 7.26519C6.46032 7.25524 6.33651 7.24461 6.21321 7.23533C5.97329 7.21729 5.70565 7.20188 5.47796 7.20992C5.36648 7.21385 5.23203 7.22421 5.10198 7.25447C5.01721 7.2742 4.72864 7.34365 4.53641 7.61171L5.75539 8.48583C5.67065 8.60401 5.5725 8.66062 5.52766 8.68293C5.47983 8.70672 5.44613 8.71446 5.44195 8.71544C5.43504 8.71704 5.45922 8.71151 5.53087 8.70898C5.66942 8.70409 5.86604 8.71346 6.1007 8.73111C6.21468 8.73968 6.33073 8.74963 6.44683 8.75964C6.56122 8.76951 6.67723 8.77958 6.78396 8.78764C6.88976 8.79563 6.99622 8.80242 7.09155 8.80497C7.1733 8.80715 7.29769 8.80827 7.41589 8.78843L7.16771 7.30911ZM4.54832 12.6679L3.72298 9.67701L2.27702 10.076L3.10237 13.0669L4.54832 12.6679ZM3.75 9.87652C3.75 9.86253 3.75215 9.83171 3.76027 9.79595C3.76846 9.75988 3.77838 9.73787 3.78301 9.72977C3.78693 9.72292 3.77691 9.74342 3.74261 9.76569C3.72542 9.77684 3.70678 9.78528 3.68887 9.79046C3.68035 9.79293 3.67325 9.7943 3.66801 9.79502C3.66282 9.79573 3.6601 9.79572 3.66028 9.79572V8.29572C3.07167 8.29572 2.68366 8.63078 2.4811 8.98478C2.29965 9.30187 2.25 9.64783 2.25 9.87652H3.75ZM22.8907 4.09957L23.2209 6.4898L24.7068 6.28457L24.3766 3.89434L22.8907 4.09957ZM23.2314 6.54887C23.2596 6.67633 23.266 6.91902 23.1764 7.1437C23.0997 7.33601 22.9444 7.54433 22.5697 7.67005L23.0469 9.09213C23.8607 8.81907 24.3382 8.27967 24.5697 7.69935C24.7882 7.15139 24.7781 6.59651 24.6962 6.2255L23.2314 6.54887ZM3.07535 12.8674C3.07535 13.2051 3.28269 13.4053 3.3562 13.4682C3.44314 13.5427 3.53097 13.5869 3.57584 13.6082C3.67146 13.6536 3.78216 13.6906 3.86197 13.7167C4.05092 13.7785 4.2484 13.8366 4.48253 13.9264C4.95152 14.1061 5.4105 14.3584 5.69997 14.7469L6.9028 13.8507C6.35904 13.1209 5.58 12.7406 5.01928 12.5257C4.73855 12.4181 4.47325 12.3385 4.32814 12.291C4.24091 12.2625 4.21676 12.252 4.21928 12.2532C4.22309 12.255 4.23485 12.2607 4.25149 12.2707C4.26708 12.28 4.29676 12.2989 4.3318 12.3288C4.38084 12.3708 4.57535 12.5504 4.57535 12.8674H3.07535ZM7.12673 23.25C6.84461 23.25 6.62116 23.1697 6.48058 23.0489C6.35941 22.9448 6.22604 22.7494 6.22604 22.3384H4.72604C4.72604 23.1238 5.00535 23.7591 5.50319 24.1868C5.98162 24.5977 6.58352 24.75 7.12673 24.75V23.25ZM6.22604 22.3384C6.22604 21.9425 6.20418 21.5364 6.18654 21.1585C6.16849 20.7719 6.15437 20.407 6.16387 20.0531C6.18288 19.345 6.29621 18.7506 6.60842 18.2477L5.33408 17.4565C4.82095 18.2829 4.68667 19.1839 4.66441 20.0128C4.65328 20.4274 4.6701 20.8414 4.68817 21.2284C4.70664 21.6242 4.72604 21.9865 4.72604 22.3384H6.22604ZM6.60842 18.2477C7.01463 17.5935 7.24676 16.7518 7.31647 15.9947C7.3518 15.6109 7.34789 15.2238 7.29262 14.8693C7.23911 14.5262 7.12821 14.1532 6.9028 13.8507L5.69997 14.7469C5.72217 14.7767 5.77633 14.8811 5.81053 15.1004C5.84294 15.3083 5.84935 15.5686 5.82278 15.8571C5.76869 16.4447 5.58815 17.0473 5.33408 17.4565L6.60842 18.2477ZM3.94138 9.74105C4.25947 9.61246 4.6395 9.38784 4.94716 9.17968C5.10556 9.07252 5.25873 8.96029 5.38865 8.85402C5.5014 8.76179 5.65187 8.6302 5.75539 8.48583L4.53641 7.61171C4.5574 7.58244 4.5428 7.608 4.4389 7.69299C4.35216 7.76395 4.23709 7.84904 4.10662 7.93731C3.83654 8.12003 3.55629 8.27879 3.37917 8.3504L3.94138 9.74105ZM24.3456 3.76118C24.2627 3.51067 24.0894 3.16289 23.8122 2.86392C23.5297 2.5592 23.0829 2.25 22.4782 2.25V3.75C22.5338 3.75 22.6097 3.77312 22.7123 3.88379C22.8203 4.00022 22.8946 4.15092 22.9217 4.23272L24.3456 3.76118ZM22.4782 2.25C22.0176 2.25 21.6552 2.36686 21.3982 2.49622C21.2709 2.56028 21.1709 2.62664 21.0978 2.68182C21.0612 2.70945 21.0311 2.73445 21.0075 2.75522C20.9957 2.76561 20.9855 2.77498 20.9769 2.78312C20.9726 2.78719 20.9687 2.79096 20.9651 2.7944C20.9634 2.79612 20.9617 2.79776 20.9601 2.79932C20.9593 2.8001 20.9586 2.80086 20.9578 2.80159C20.9575 2.80196 20.9571 2.80232 20.9567 2.80268C20.9566 2.80286 20.9563 2.80312 20.9562 2.80321C20.956 2.80347 20.9557 2.80373 21.4878 3.33232C22.0198 3.8609 22.0196 3.86116 22.0193 3.86142C22.0192 3.8615 22.019 3.86176 22.0188 3.86193C22.0185 3.86226 22.0182 3.86259 22.0178 3.86292C22.0172 3.86358 22.0165 3.86421 22.0159 3.86483C22.0147 3.86607 22.0135 3.86723 22.0124 3.86833C22.0101 3.87051 22.0081 3.87241 22.0064 3.87405C22.0029 3.87732 22.0004 3.87955 21.999 3.88086C21.996 3.88346 21.9969 3.88249 22.0016 3.87897C22.011 3.87184 22.0348 3.85511 22.0726 3.83609C22.1457 3.7993 22.2785 3.75 22.4782 3.75V2.25ZM20.9557 2.80373C20.7785 2.98208 20.4002 3.36284 19.9354 3.51391L20.399 4.94046C21.2548 4.66233 21.8669 4.01487 22.0198 3.8609L20.9557 2.80373Z" fill="#868686"/>
</svg>
