<svg width="27" height="27" viewBox="0 0 27 27" fill="none" xmlns="http://www.w3.org/2000/svg">
<path d="M8.73048 5C6.56903 5 4.90284 5.9935 4.33992 6.49025C3.95129 6.79509 4.00219 7.15258 4.00219 7.31816L4.00219 18.5778C4.00219 18.909 4.34004 19.5714 5.01549 19.5714L6.12124 19.051M8.73048 5C11.4323 5 13.1209 6.65583 14.6407 6.65583L14.642 6.65583M8.73048 5V15.9286M19.2 11.0714V6.65583C19.2 6.32466 18.8622 5.66222 18.1867 5.66222C17.3426 5.66222 16.1611 6.65526 14.642 6.65583M14.642 12.8061V6.65583M9.76513 22C9.45554 22 8.83636 21.7936 8.83636 20.9678C8.83636 20.7958 8.8828 20.3743 9.06855 20.0646L11.5066 16.4518C12.2031 15.6777 13.0545 16.1077 13.3641 16.4518L14.2928 17.484C14.4786 17.6905 14.6798 17.57 14.7572 17.484C15.299 16.7099 16.5683 14.9552 17.3113 14.1294C18.0543 13.3037 18.7045 13.7853 18.9367 14.1294L22.7678 20.0646C22.9536 20.3743 23 20.7958 23 20.9678C23 21.7936 22.3808 22 22.0712 22H9.76513Z" stroke="#868686" stroke-width="1.5" stroke-linecap="round"/>
</svg>
