<svg width="27" height="27" viewBox="0 0 27 27" fill="none" xmlns="http://www.w3.org/2000/svg">
<path d="M14.25 13.1667C14.25 12.7525 13.9142 12.4167 13.5 12.4167C13.0858 12.4167 12.75 12.7525 12.75 13.1667H14.25ZM12.75 17.5C12.75 17.9142 13.0858 18.25 13.5 18.25C13.9142 18.25 14.25 17.9142 14.25 17.5H12.75ZM13.3333 9.66667V8.91667C12.9191 8.91667 12.5833 9.25245 12.5833 9.66667H13.3333ZM13.3333 10H12.5833C12.5833 10.4142 12.9191 10.75 13.3333 10.75V10ZM13.6667 10V10.75C14.0809 10.75 14.4167 10.4142 14.4167 10H13.6667ZM13.6667 9.66667H14.4167C14.4167 9.25245 14.0809 8.91667 13.6667 8.91667V9.66667ZM22.25 13.5C22.25 18.3325 18.3325 22.25 13.5 22.25V23.75C19.1609 23.75 23.75 19.1609 23.75 13.5H22.25ZM13.5 22.25C8.66751 22.25 4.75 18.3325 4.75 13.5H3.25C3.25 19.1609 7.83908 23.75 13.5 23.75V22.25ZM4.75 13.5C4.75 8.66751 8.66751 4.75 13.5 4.75V3.25C7.83908 3.25 3.25 7.83908 3.25 13.5H4.75ZM13.5 4.75C18.3325 4.75 22.25 8.66751 22.25 13.5H23.75C23.75 7.83908 19.1609 3.25 13.5 3.25V4.75ZM12.75 13.1667V17.5H14.25V13.1667H12.75ZM12.5833 9.66667V10H14.0833V9.66667H12.5833ZM13.3333 10.75H13.6667V9.25H13.3333V10.75ZM14.4167 10V9.66667H12.9167V10H14.4167ZM13.6667 8.91667H13.3333V10.4167H13.6667V8.91667Z" fill="#868686"/>
</svg>
