<svg width="27" height="27" viewBox="0 0 27 27" fill="none" xmlns="http://www.w3.org/2000/svg">
<path d="M2.52257 21.1877L3.05181 21.7191L2.52257 21.1877ZM2.52257 23.544L1.99332 24.0755L2.52257 23.544ZM13.5077 16.6433L12.9785 16.1118L13.5077 16.6433ZM13.6767 18.158L13.0065 18.4945L13.0329 18.5472L13.0673 18.5951L13.6767 18.158ZM13.6767 20.5144L14.2759 20.9656L14.2811 20.9586L14.2862 20.9515L13.6767 20.5144ZM10.1277 20.5144L10.6569 19.983C10.3643 19.6915 9.89107 19.6915 9.59843 19.983L10.1277 20.5144ZM9.78966 20.851L9.26042 20.3196C8.9819 20.597 8.9648 21.0424 9.22121 21.3403L9.78966 20.851ZM9.95867 23.2074L10.5578 23.6586L10.563 23.6516L10.5681 23.6445L9.95867 23.2074ZM6.91661 23.3757L7.44585 22.8443C7.15321 22.5529 6.68001 22.5529 6.38736 22.8443L6.91661 23.3757ZM3.53659 24.5539L3.00734 25.0853C3.02094 25.0989 3.03504 25.1119 3.04963 25.1243L3.53659 24.5539ZM11.0671 11.9645L11.7497 11.6537L11.0671 11.9645ZM10.9344 12.8102L11.4636 13.3416L10.9344 12.8102ZM14.7683 15.808L15.1589 15.1677L14.7683 15.808ZM14.3075 15.8467L13.7783 15.3153L14.3075 15.8467ZM24.25 9.23745C24.25 12.8175 21.3351 15.7249 17.7329 15.7249V17.2249C22.1577 17.2249 25.75 13.6517 25.75 9.23745H24.25ZM11.2157 9.23745C11.2157 5.65742 14.1306 2.75 17.7329 2.75V1.25C13.308 1.25 9.71572 4.82321 9.71572 9.23745H11.2157ZM17.7329 2.75C21.3351 2.75 24.25 5.65742 24.25 9.23745H25.75C25.75 4.82321 22.1577 1.25 17.7329 1.25V2.75ZM19.5179 9.23745C19.5179 10.2147 18.7216 11.0121 17.7329 11.0121V12.5121C19.5442 12.5121 21.0179 11.0489 21.0179 9.23745H19.5179ZM17.7329 11.0121C16.7441 11.0121 15.9478 10.2147 15.9478 9.23745H14.4478C14.4478 11.0489 15.9215 12.5121 17.7329 12.5121V11.0121ZM15.9478 9.23745C15.9478 8.26021 16.7441 7.46276 17.7329 7.46276V5.96276C15.9215 5.96276 14.4478 7.426 14.4478 9.23745H15.9478ZM17.7329 7.46276C18.7216 7.46276 19.5179 8.26021 19.5179 9.23745H21.0179C21.0179 7.426 19.5442 5.96276 17.7329 5.96276V7.46276ZM17.7329 15.7249C17.4431 15.7249 16.9639 15.6939 16.4613 15.6019C15.9477 15.5078 15.4772 15.3619 15.1589 15.1677L14.3777 16.4483C14.9256 16.7825 15.6052 16.97 16.1912 17.0773C16.7883 17.1867 17.3582 17.2249 17.7329 17.2249V15.7249ZM9.71572 9.23745C9.71572 10.5745 10.1079 11.6678 10.3846 12.2754L11.7497 11.6537C11.5271 11.165 11.2157 10.2896 11.2157 9.23745H9.71572ZM10.4052 12.2788L1.99332 20.6562L3.05181 21.7191L11.4636 13.3416L10.4052 12.2788ZM1.99332 20.6562C1.71118 20.9372 1.37952 21.4274 1.2796 22.0387C1.172 22.697 1.3468 23.4316 1.99332 24.0755L3.05181 23.0126C2.75192 22.714 2.72954 22.4667 2.75996 22.2807C2.79806 22.0475 2.93961 21.8308 3.05181 21.7191L1.99332 20.6562ZM13.7783 15.3153L12.9785 16.1118L14.037 17.1747L14.8368 16.3781L13.7783 15.3153ZM12.9785 16.1118C12.7492 16.3402 12.5401 16.5885 12.4312 16.8682C12.2951 17.2178 12.3385 17.551 12.4936 17.8291C12.6009 18.0215 12.7831 18.204 12.8331 18.2593C12.9156 18.3503 12.9676 18.4171 13.0065 18.4945L14.347 17.8215C14.2169 17.5624 14.0576 17.3767 13.9447 17.2521C13.8779 17.1784 13.8541 17.1545 13.819 17.1139C13.7905 17.081 13.7933 17.0799 13.8036 17.0984C13.8174 17.1231 13.8421 17.1778 13.8483 17.2542C13.8546 17.3314 13.8385 17.388 13.829 17.4124C13.8205 17.4343 13.8438 17.3671 14.037 17.1747L12.9785 16.1118ZM13.0776 20.0632C12.9053 20.292 12.5734 20.5614 12.1807 20.6359C11.8421 20.7002 11.3231 20.6464 10.6569 19.983L9.59843 21.0458C10.5547 21.9982 11.5567 22.2811 12.4603 22.1097C13.3097 21.9485 13.9411 21.4101 14.2759 20.9656L13.0776 20.0632ZM13.6767 18.158C13.0673 18.5951 13.0671 18.5949 13.0669 18.5946C13.0668 18.5945 13.0666 18.5942 13.0665 18.5941C13.0663 18.5937 13.066 18.5934 13.0658 18.5931C13.0654 18.5925 13.065 18.5919 13.0646 18.5914C13.0639 18.5904 13.0634 18.5897 13.0631 18.5892C13.0625 18.5883 13.0625 18.5884 13.0632 18.5894C13.0646 18.5915 13.0685 18.5974 13.0744 18.6069C13.0863 18.6259 13.1055 18.6585 13.1281 18.7025C13.1739 18.7919 13.2284 18.9193 13.2642 19.0688C13.3331 19.3569 13.332 19.7082 13.0673 20.0773L14.2862 20.9515C14.8665 20.1424 14.8654 19.3155 14.7231 18.72C14.6532 18.4276 14.5493 18.1868 14.4631 18.0186C14.4196 17.9337 14.3794 17.865 14.3484 17.815C14.3328 17.79 14.3194 17.7694 14.3088 17.7537C14.3035 17.7458 14.299 17.7391 14.2952 17.7336C14.2933 17.7309 14.2916 17.7285 14.2901 17.7264C14.2893 17.7253 14.2886 17.7243 14.288 17.7234C14.2876 17.723 14.2873 17.7225 14.287 17.7221C14.2869 17.7219 14.2867 17.7216 14.2866 17.7215C14.2864 17.7212 14.2862 17.7209 13.6767 18.158ZM9.35955 22.7562C9.20839 22.957 8.90139 23.182 8.55007 23.2492C8.24407 23.3079 7.86134 23.2581 7.44585 22.8443L6.38736 23.9071C7.15489 24.6715 8.03969 24.8743 8.83222 24.7225C9.57942 24.5794 10.2019 24.1311 10.5578 23.6586L9.35955 22.7562ZM9.78966 20.851C9.22121 21.3403 9.221 21.34 9.22079 21.3398C9.22072 21.3397 9.22052 21.3395 9.22039 21.3393C9.22013 21.339 9.21988 21.3387 9.21965 21.3385C9.21919 21.3379 9.21879 21.3375 9.21844 21.337C9.21775 21.3362 9.21728 21.3357 9.21703 21.3354C9.21652 21.3348 9.21686 21.3352 9.21798 21.3365C9.22022 21.3393 9.22549 21.3459 9.23316 21.3561C9.2486 21.3765 9.27309 21.4104 9.30184 21.4557C9.36055 21.5481 9.43008 21.6768 9.47983 21.8254C9.5754 22.111 9.59229 22.4314 9.34921 22.7703L10.5681 23.6445C11.1701 22.8052 11.1024 21.9474 10.9023 21.3494C10.8041 21.0562 10.673 20.8167 10.568 20.6514C10.5148 20.5678 10.4667 20.5005 10.43 20.4519C10.4116 20.4275 10.3959 20.4076 10.3837 20.3926C10.3776 20.385 10.3724 20.3787 10.3681 20.3735C10.3659 20.371 10.364 20.3687 10.3623 20.3667C10.3615 20.3658 10.3607 20.3649 10.36 20.364C10.3597 20.3636 10.3594 20.3632 10.359 20.3629C10.3589 20.3627 10.3586 20.3624 10.3586 20.3623C10.3583 20.362 10.3581 20.3618 9.78966 20.851ZM10.3189 21.3824L10.6569 21.0458L9.59843 19.983L9.26042 20.3196L10.3189 21.3824ZM1.99332 24.0755L3.00734 25.0853L4.06583 24.0225L3.05181 23.0126L1.99332 24.0755ZM3.04963 25.1243C3.33004 25.3637 3.80302 25.6414 4.36909 25.7251C4.97247 25.8142 5.66941 25.6763 6.26283 25.0853L5.20434 24.0225C4.98655 24.2394 4.78215 24.2698 4.58842 24.2412C4.35737 24.207 4.13746 24.0807 4.02354 23.9835L3.04963 25.1243ZM6.26283 25.0853C7.07404 24.2774 7.38952 23.9632 7.44585 23.9071L6.38736 22.8443C6.33306 22.8984 6.29238 22.9389 6.07893 23.1515C6.05065 23.1797 5.96084 23.2691 5.9203 23.3095C5.91193 23.3178 5.92311 23.3067 5.91474 23.315C5.89217 23.3375 5.93172 23.2981 5.90914 23.3206C5.90904 23.3207 5.89799 23.3317 5.89784 23.3318C5.89012 23.3395 5.8827 23.3469 5.87478 23.3548C5.87381 23.3558 5.87283 23.3567 5.87186 23.3577C5.87088 23.3587 5.8699 23.3597 5.86892 23.3606C5.86887 23.3607 5.86309 23.3664 5.86303 23.3665C5.85454 23.375 5.86559 23.364 5.85709 23.3724C5.84874 23.3807 5.85948 23.37 5.85112 23.3784C5.82028 23.4091 5.86994 23.3596 5.83906 23.3904C5.82689 23.4025 5.84514 23.3843 5.83297 23.3964C5.83195 23.3975 5.83093 23.3985 5.82991 23.3995C5.82889 23.4005 5.82786 23.4015 5.82684 23.4025C5.82582 23.4036 5.82479 23.4046 5.82376 23.4056C5.82273 23.4066 5.82171 23.4077 5.82067 23.4087C5.81894 23.4104 5.81622 23.4131 5.81447 23.4149C5.81296 23.4164 5.80351 23.4258 5.80195 23.4273C5.79416 23.4351 5.7971 23.4322 5.78926 23.44C5.7882 23.441 5.78714 23.4421 5.78607 23.4431C5.785 23.4442 5.78393 23.4453 5.78287 23.4463C5.7827 23.4465 5.7766 23.4526 5.77643 23.4528C5.75609 23.473 5.74468 23.4844 5.7235 23.5055C5.69207 23.5368 5.7003 23.5286 5.66801 23.5607C5.65112 23.5775 5.62769 23.6009 5.60993 23.6186C5.60374 23.6247 5.60123 23.6272 5.59499 23.6334C5.58701 23.6414 5.58793 23.6405 5.57989 23.6485C5.56019 23.6681 5.58439 23.644 5.56463 23.6637C5.56335 23.665 5.56207 23.6662 5.56078 23.6675C5.5595 23.6688 5.55822 23.6701 5.55693 23.6714C5.55564 23.6726 5.55436 23.6739 5.55307 23.6752C5.55178 23.6765 5.55049 23.6778 5.54919 23.6791C5.5479 23.6803 5.5466 23.6816 5.54531 23.6829C5.54401 23.6842 5.54271 23.6855 5.54141 23.6868C5.54011 23.6881 5.53881 23.6894 5.53751 23.6907C5.5362 23.692 5.5349 23.6933 5.53359 23.6946C5.49889 23.7292 5.55258 23.6757 5.51782 23.7103C5.49547 23.7326 5.50835 23.7197 5.48577 23.7422C5.48442 23.7436 5.48307 23.7449 5.48172 23.7463C5.48036 23.7476 5.47901 23.749 5.47765 23.7503C5.44881 23.779 5.49834 23.7297 5.46949 23.7584C5.46813 23.7598 5.46676 23.7612 5.46539 23.7625C5.46403 23.7639 5.46266 23.7652 5.46129 23.7666C5.425 23.8027 5.48934 23.7387 5.45304 23.7748C5.4491 23.7787 5.4487 23.7791 5.44475 23.7831C5.44336 23.7845 5.44198 23.7858 5.44059 23.7872C5.4392 23.7886 5.43781 23.79 5.43642 23.7914C5.41582 23.8119 5.44027 23.7875 5.41962 23.8081C5.41542 23.8123 5.38994 23.8377 5.38551 23.8421C5.37633 23.8512 5.38606 23.8415 5.37687 23.8507C5.35773 23.8697 5.38734 23.8402 5.36819 23.8593C5.36046 23.867 5.36721 23.8603 5.35946 23.868C5.34269 23.8847 5.36748 23.86 5.35069 23.8767C5.31065 23.9166 5.35545 23.872 5.31518 23.9121C5.30393 23.9233 5.30846 23.9188 5.29715 23.9301C5.27701 23.9501 5.29915 23.9281 5.27895 23.9482C5.27742 23.9497 5.2759 23.9512 5.27437 23.9528C5.27284 23.9543 5.27131 23.9558 5.26978 23.9573C5.2651 23.962 5.26527 23.9618 5.26057 23.9665C5.25437 23.9727 5.24827 23.9788 5.24201 23.985C5.22998 23.997 5.21661 24.0103 5.20434 24.0225L6.26283 25.0853ZM10.3846 12.2754C10.3868 12.2803 10.3884 12.2858 10.3892 12.2913C10.39 12.2969 10.3897 12.3009 10.3895 12.3026C10.3893 12.3041 10.3893 12.3021 10.3917 12.2973C10.3942 12.2921 10.3986 12.2853 10.4052 12.2788L11.4636 13.3416C11.935 12.8722 11.9903 12.1822 11.7497 11.6537L10.3846 12.2754ZM15.1589 15.1677C14.771 14.9311 14.1865 14.9088 13.7783 15.3153L14.8368 16.3781C14.6715 16.5427 14.4729 16.5063 14.3777 16.4483L15.1589 15.1677Z" fill="#868686"/>
</svg>
