<svg width="27" height="27" viewBox="0 0 27 27" fill="none" xmlns="http://www.w3.org/2000/svg">
<path d="M17.8649 10.6571C17.8649 10.9412 17.635 11.1714 17.3514 11.1714C17.0677 11.1714 16.8378 10.9412 16.8378 10.6571C16.8378 10.3731 17.0677 10.1429 17.3514 10.1429C17.635 10.1429 17.8649 10.3731 17.8649 10.6571Z" fill="#868686"/>
<path d="M4.17117 19.2286L3.66346 18.6766L3.65171 18.6874L3.64044 18.6986L4.17117 19.2286ZM10.322 13.5714L10.8297 14.1234L11.1866 13.7952L11.0338 13.3351L10.322 13.5714ZM13.6932 17.3947L14.0171 16.7182L13.5379 16.4887L13.1624 16.8647L13.6932 17.3947ZM22.25 11.5143C22.25 14.6989 19.6726 17.2786 16.4955 17.2786V18.7786C20.5031 18.7786 23.75 15.5252 23.75 11.5143H22.25ZM10.741 11.5143C10.741 8.3297 13.3184 5.75 16.4955 5.75V4.25C12.4879 4.25 9.24099 7.50339 9.24099 11.5143H10.741ZM16.4955 5.75C19.6726 5.75 22.25 8.3297 22.25 11.5143H23.75C23.75 7.50339 20.5031 4.25 16.4955 4.25V5.75ZM11.0338 13.3351C10.844 12.7637 10.741 12.1518 10.741 11.5143H9.24099C9.24099 12.3145 9.37047 13.0859 9.61019 13.8078L11.0338 13.3351ZM4.67889 19.7806L10.8297 14.1234L9.81426 13.0194L3.66346 18.6766L4.67889 19.7806ZM3.64044 18.6986C3.50617 18.8331 3.44316 18.993 3.41647 19.0655C3.37954 19.1659 3.35027 19.2794 3.32706 19.4031C3.28046 19.6514 3.25 19.9857 3.25 20.4286H4.75C4.75 20.0486 4.7766 19.8115 4.80132 19.6798C4.80733 19.6477 4.81288 19.6239 4.81726 19.6072C4.82171 19.5903 4.8244 19.583 4.82424 19.5834C4.8241 19.5838 4.82288 19.5871 4.82035 19.5928C4.81788 19.5984 4.81348 19.6079 4.80676 19.6203C4.79752 19.6373 4.76547 19.6948 4.7019 19.7585L3.64044 18.6986ZM3.25 20.4286C3.25 20.4302 3.25 20.4318 3.25 20.4334C3.25 20.435 3.25 20.4366 3.25 20.4382C3.25 20.4398 3.25 20.4414 3.25 20.443C3.25 20.4446 3.25 20.4462 3.25 20.4478C3.25 20.4494 3.25 20.451 3.25 20.4526C3.25 20.4542 3.25 20.4558 3.25 20.4573C3.25 20.4589 3.25 20.4605 3.25 20.4621C3.25 20.4637 3.25 20.4653 3.25 20.4669C3.25 20.4684 3.25 20.47 3.25 20.4716C3.25 20.4732 3.25 20.4748 3.25 20.4763C3.25 20.4779 3.25 20.4795 3.25 20.4811C3.25 20.4826 3.25 20.4842 3.25 20.4858C3.25 20.4874 3.25 20.4889 3.25 20.4905C3.25 20.4921 3.25 20.4936 3.25 20.4952C3.25 20.4968 3.25 20.4983 3.25 20.4999C3.25 20.5015 3.25 20.503 3.25 20.5046C3.25 20.5061 3.25 20.5077 3.25 20.5093C3.25 20.5108 3.25 20.5124 3.25 20.5139C3.25 20.5155 3.25 20.517 3.25 20.5186C3.25 20.5201 3.25 20.5217 3.25 20.5232C3.25 20.5248 3.25 20.5263 3.25 20.5279C3.25 20.5294 3.25 20.531 3.25 20.5325C3.25 20.534 3.25 20.5356 3.25 20.5371C3.25 20.5387 3.25 20.5402 3.25 20.5417C3.25 20.5433 3.25 20.5448 3.25 20.5463C3.25 20.5479 3.25 20.5494 3.25 20.5509C3.25 20.5525 3.25 20.554 3.25 20.5555C3.25 20.557 3.25 20.5586 3.25 20.5601C3.25 20.5616 3.25 20.5631 3.25 20.5647C3.25 20.5662 3.25 20.5677 3.25 20.5692C3.25 20.5707 3.25 20.5723 3.25 20.5738C3.25 20.5753 3.25 20.5768 3.25 20.5783C3.25 20.5798 3.25 20.5813 3.25 20.5829C3.25 20.5844 3.25 20.5859 3.25 20.5874C3.25 20.5889 3.25 20.5904 3.25 20.5919C3.25 20.5934 3.25 20.5949 3.25 20.5964C3.25 20.5979 3.25 20.5994 3.25 20.6009C3.25 20.6024 3.25 20.6039 3.25 20.6054C3.25 20.6069 3.25 20.6084 3.25 20.6099C3.25 20.6114 3.25 20.6129 3.25 20.6143C3.25 20.6158 3.25 20.6173 3.25 20.6188C3.25 20.6203 3.25 20.6218 3.25 20.6233C3.25 20.6247 3.25 20.6262 3.25 20.6277C3.25 20.6292 3.25 20.6307 3.25 20.6321C3.25 20.6336 3.25 20.6351 3.25 20.6366C3.25 20.6381 3.25 20.6395 3.25 20.641C3.25 20.6425 3.25 20.6439 3.25 20.6454C3.25 20.6469 3.25 20.6483 3.25 20.6498C3.25 20.6513 3.25 20.6527 3.25 20.6542C3.25 20.6557 3.25 20.6571 3.25 20.6586C3.25 20.6601 3.25 20.6615 3.25 20.663C3.25 20.6644 3.25 20.6659 3.25 20.6673C3.25 20.6688 3.25 20.6702 3.25 20.6717C3.25 20.6731 3.25 20.6746 3.25 20.676C3.25 20.6775 3.25 20.6789 3.25 20.6804C3.25 20.6818 3.25 20.6833 3.25 20.6847C3.25 20.6862 3.25 20.6876 3.25 20.689C3.25 20.6905 3.25 20.6919 3.25 20.6934C3.25 20.6948 3.25 20.6962 3.25 20.6977C3.25 20.6991 3.25 20.7005 3.25 20.702C3.25 20.7034 3.25 20.7048 3.25 20.7062C3.25 20.7077 3.25 20.7091 3.25 20.7105C3.25 20.712 3.25 20.7134 3.25 20.7148C3.25 20.7162 3.25 20.7176 3.25 20.7191C3.25 20.7205 3.25 20.7219 3.25 20.7233C3.25 20.7247 3.25 20.7261 3.25 20.7276C3.25 20.729 3.25 20.7304 3.25 20.7318C3.25 20.7332 3.25 20.7346 3.25 20.736C3.25 20.7374 3.25 20.7388 3.25 20.7402C3.25 20.7417 3.25 20.7431 3.25 20.7445C3.25 20.7459 3.25 20.7473 3.25 20.7487C3.25 20.7501 3.25 20.7515 3.25 20.7529C3.25 20.7542 3.25 20.7556 3.25 20.757C3.25 20.7584 3.25 20.7598 3.25 20.7612C3.25 20.7626 3.25 20.764 3.25 20.7654C3.25 20.7668 3.25 20.7682 3.25 20.7695C3.25 20.7709 3.25 20.7723 3.25 20.7737C3.25 20.7751 3.25 20.7765 3.25 20.7778C3.25 20.7792 3.25 20.7806 3.25 20.782C3.25 20.7833 3.25 20.7847 3.25 20.7861C3.25 20.7875 3.25 20.7888 3.25 20.7902C3.25 20.7916 3.25 20.7929 3.25 20.7943C3.25 20.7957 3.25 20.797 3.25 20.7984C3.25 20.7998 3.25 20.8011 3.25 20.8025C3.25 20.8039 3.25 20.8052 3.25 20.8066C3.25 20.8079 3.25 20.8093 3.25 20.8107C3.25 20.812 3.25 20.8134 3.25 20.8147C3.25 20.8161 3.25 20.8174 3.25 20.8188C3.25 20.8201 3.25 20.8215 3.25 20.8228C3.25 20.8242 3.25 20.8255 3.25 20.8269C3.25 20.8282 3.25 20.8295 3.25 20.8309C3.25 20.8322 3.25 20.8336 3.25 20.8349C3.25 20.8362 3.25 20.8376 3.25 20.8389C3.25 20.8403 3.25 20.8416 3.25 20.8429C3.25 20.8443 3.25 20.8456 3.25 20.8469C3.25 20.8482 3.25 20.8496 3.25 20.8509C3.25 20.8522 3.25 20.8536 3.25 20.8549C3.25 20.8562 3.25 20.8575 3.25 20.8588C3.25 20.8602 3.25 20.8615 3.25 20.8628C3.25 20.8641 3.25 20.8654 3.25 20.8668C3.25 20.8681 3.25 20.8694 3.25 20.8707C3.25 20.872 3.25 20.8733 3.25 20.8746C3.25 20.8759 3.25 20.8773 3.25 20.8786C3.25 20.8799 3.25 20.8812 3.25 20.8825C3.25 20.8838 3.25 20.8851 3.25 20.8864C3.25 20.8877 3.25 20.889 3.25 20.8903C3.25 20.8916 3.25 20.8929 3.25 20.8942C3.25 20.8955 3.25 20.8968 3.25 20.8981C3.25 20.8994 3.25 20.9006 3.25 20.9019C3.25 20.9032 3.25 20.9045 3.25 20.9058C3.25 20.9071 3.25 20.9084 3.25 20.9097C3.25 20.9109 3.25 20.9122 3.25 20.9135C3.25 20.9148 3.25 20.9161 3.25 20.9173C3.25 20.9186 3.25 20.9199 3.25 20.9212C3.25 20.9225 3.25 20.9237 3.25 20.925C3.25 20.9263 3.25 20.9275 3.25 20.9288C3.25 20.9301 3.25 20.9314 3.25 20.9326C3.25 20.9339 3.25 20.9352 3.25 20.9364C3.25 20.9377 3.25 20.9389 3.25 20.9402C3.25 20.9415 3.25 20.9427 3.25 20.944C3.25 20.9453 3.25 20.9465 3.25 20.9478C3.25 20.949 3.25 20.9503 3.25 20.9515C3.25 20.9528 3.25 20.954 3.25 20.9553C3.25 20.9565 3.25 20.9578 3.25 20.959C3.25 20.9603 3.25 20.9615 3.25 20.9628C3.25 20.964 3.25 20.9653 3.25 20.9665C3.25 20.9677 3.25 20.969 3.25 20.9702C3.25 20.9715 3.25 20.9727 3.25 20.9739C3.25 20.9752 3.25 20.9764 3.25 20.9776C3.25 20.9789 3.25 20.9801 3.25 20.9813C3.25 20.9826 3.25 20.9838 3.25 20.985C3.25 20.9862 3.25 20.9875 3.25 20.9887C3.25 20.9899 3.25 20.9911 3.25 20.9924C3.25 20.9936 3.25 20.9948 3.25 20.996C3.25 20.9972 3.25 20.9985 3.25 20.9997C3.25 21.0009 3.25 21.0021 3.25 21.0033C3.25 21.0045 3.25 21.0057 3.25 21.007C3.25 21.0082 3.25 21.0094 3.25 21.0106C3.25 21.0118 3.25 21.013 3.25 21.0142C3.25 21.0154 3.25 21.0166 3.25 21.0178C3.25 21.019 3.25 21.0202 3.25 21.0214C3.25 21.0226 3.25 21.0238 3.25 21.025C3.25 21.0262 3.25 21.0274 3.25 21.0286C3.25 21.0298 3.25 21.031 3.25 21.0322C3.25 21.0334 3.25 21.0346 3.25 21.0357C3.25 21.0369 3.25 21.0381 3.25 21.0393C3.25 21.0405 3.25 21.0417 3.25 21.0429C3.25 21.044 3.25 21.0452 3.25 21.0464C3.25 21.0476 3.25 21.0488 3.25 21.0499C3.25 21.0511 3.25 21.0523 3.25 21.0535C3.25 21.0546 3.25 21.0558 3.25 21.057C3.25 21.0581 3.25 21.0593 3.25 21.0605C3.25 21.0617 3.25 21.0628 3.25 21.064C3.25 21.0651 3.25 21.0663 3.25 21.0675C3.25 21.0686 3.25 21.0698 3.25 21.071C3.25 21.0721 3.25 21.0733 3.25 21.0744C3.25 21.0756 3.25 21.0767 3.25 21.0779C3.25 21.0791 3.25 21.0802 3.25 21.0814C3.25 21.0825 3.25 21.0837 3.25 21.0848C3.25 21.086 3.25 21.0871 3.25 21.0883C3.25 21.0894 3.25 21.0905 3.25 21.0917C3.25 21.0928 3.25 21.094 3.25 21.0951C3.25 21.0963 3.25 21.0974 3.25 21.0985C3.25 21.0997 3.25 21.1008 3.25 21.1019C3.25 21.1031 3.25 21.1042 3.25 21.1053C3.25 21.1065 3.25 21.1076 3.25 21.1087C3.25 21.1099 3.25 21.111 3.25 21.1121C3.25 21.1132 3.25 21.1144 3.25 21.1155C3.25 21.1166 3.25 21.1177 3.25 21.1189C3.25 21.12 3.25 21.1211 3.25 21.1222C3.25 21.1233 3.25 21.1244 3.25 21.1256C3.25 21.1267 3.25 21.1278 3.25 21.1289C3.25 21.13 3.25 21.1311 3.25 21.1322C3.25 21.1333 3.25 21.1345 3.25 21.1356C3.25 21.1367 3.25 21.1378 3.25 21.1389C3.25 21.14 3.25 21.1411 3.25 21.1422C3.25 21.1433 3.25 21.1444 3.25 21.1455C3.25 21.1466 3.25 21.1477 3.25 21.1488C3.25 21.1499 3.25 21.151 3.25 21.1521C3.25 21.1531 3.25 21.1542 3.25 21.1553C3.25 21.1564 3.25 21.1575 3.25 21.1586C3.25 21.1597 3.25 21.1608 3.25 21.1619C3.25 21.1629 3.25 21.164 3.25 21.1651C3.25 21.1662 3.25 21.1673 3.25 21.1683C3.25 21.1694 3.25 21.1705 3.25 21.1716C3.25 21.1727 3.25 21.1737 3.25 21.1748C3.25 21.1759 3.25 21.1769 3.25 21.178C3.25 21.1791 3.25 21.1802 3.25 21.1812C3.25 21.1823 3.25 21.1834 3.25 21.1844C3.25 21.1855 3.25 21.1866 3.25 21.1876C3.25 21.1887 3.25 21.1897 3.25 21.1908C3.25 21.1919 3.25 21.1929 3.25 21.194C3.25 21.195 3.25 21.1961 3.25 21.1971C3.25 21.1982 3.25 21.1992 3.25 21.2003C3.25 21.2013 3.25 21.2024 3.25 21.2034C3.25 21.2045 3.25 21.2055 3.25 21.2066C3.25 21.2076 3.25 21.2087 3.25 21.2097C3.25 21.2108 3.25 21.2118 3.25 21.2128C3.25 21.2139 3.25 21.2149 3.25 21.216C3.25 21.217 3.25 21.218 3.25 21.2191C3.25 21.2201 3.25 21.2211 3.25 21.2222C3.25 21.2232 3.25 21.2242 3.25 21.2253C3.25 21.2263 3.25 21.2273 3.25 21.2283C3.25 21.2294 3.25 21.2304 3.25 21.2314C3.25 21.2324 3.25 21.2335 3.25 21.2345C3.25 21.2355 3.25 21.2365 3.25 21.2375C3.25 21.2386 3.25 21.2396 3.25 21.2406C3.25 21.2416 3.25 21.2426 3.25 21.2436C3.25 21.2446 3.25 21.2457 3.25 21.2467C3.25 21.2477 3.25 21.2487 3.25 21.2497C3.25 21.2507 3.25 21.2517 3.25 21.2527C3.25 21.2537 3.25 21.2547 3.25 21.2557C3.25 21.2567 3.25 21.2577 3.25 21.2587C3.25 21.2597 3.25 21.2607 3.25 21.2617C3.25 21.2627 3.25 21.2637 3.25 21.2647C3.25 21.2657 3.25 21.2667 3.25 21.2677C3.25 21.2687 3.25 21.2697 3.25 21.2706C3.25 21.2716 3.25 21.2726 3.25 21.2736C3.25 21.2746 3.25 21.2756 3.25 21.2766C3.25 21.2775 3.25 21.2785 3.25 21.2795C3.25 21.2805 3.25 21.2815 3.25 21.2824C3.25 21.2834 3.25 21.2844 3.25 21.2854C3.25 21.2863 3.25 21.2873 3.25 21.2883C3.25 21.2892 3.25 21.2902 3.25 21.2912C3.25 21.2922 3.25 21.2931 3.25 21.2941C3.25 21.2951 3.25 21.296 3.25 21.297C3.25 21.2979 3.25 21.2989 3.25 21.2999C3.25 21.3008 3.25 21.3018 3.25 21.3027C3.25 21.3037 3.25 21.3047 3.25 21.3056C3.25 21.3066 3.25 21.3075 3.25 21.3085C3.25 21.3094 3.25 21.3104 3.25 21.3113C3.25 21.3123 3.25 21.3132 3.25 21.3142C3.25 21.3151 3.25 21.3161 3.25 21.317C3.25 21.318 3.25 21.3189 3.25 21.3198C3.25 21.3208 3.25 21.3217 3.25 21.3227C3.25 21.3236 3.25 21.3245 3.25 21.3255C3.25 21.3264 3.25 21.3273 3.25 21.3283C3.25 21.3292 3.25 21.3301 3.25 21.3311C3.25 21.332 3.25 21.3329 3.25 21.3339C3.25 21.3348 3.25 21.3357 3.25 21.3366C3.25 21.3376 3.25 21.3385 3.25 21.3394C3.25 21.3403 3.25 21.3413 3.25 21.3422C3.25 21.3431 3.25 21.344 3.25 21.3449C3.25 21.3458 3.25 21.3468 3.25 21.3477C3.25 21.3486 3.25 21.3495 3.25 21.3504C3.25 21.3513 3.25 21.3522 3.25 21.3531C3.25 21.3541 3.25 21.355 3.25 21.3559C3.25 21.3568 3.25 21.3577 3.25 21.3586C3.25 21.3595 3.25 21.3604 3.25 21.3613C3.25 21.3622 3.25 21.3631 3.25 21.364C3.25 21.3649 3.25 21.3658 3.25 21.3667C3.25 21.3676 3.25 21.3685 3.25 21.3694C3.25 21.3702 3.25 21.3711 3.25 21.372C3.25 21.3729 3.25 21.3738 3.25 21.3747C3.25 21.3756 3.25 21.3765 3.25 21.3774C3.25 21.3782 3.25 21.3791 3.25 21.38C3.25 21.3809 3.25 21.3818 3.25 21.3826C3.25 21.3835 3.25 21.3844 3.25 21.3853C3.25 21.3862 3.25 21.387 3.25 21.3879C3.25 21.3888 3.25 21.3896 3.25 21.3905C3.25 21.3914 3.25 21.3923 3.25 21.3931C3.25 21.394 3.25 21.3949 3.25 21.3957C3.25 21.3966 3.25 21.3975 3.25 21.3983C3.25 21.3992 3.25 21.4 3.25 21.4009C3.25 21.4018 3.25 21.4026 3.25 21.4035C3.25 21.4043 3.25 21.4052 3.25 21.406C3.25 21.4069 3.25 21.4078 3.25 21.4086C3.25 21.4095 3.25 21.4103 3.25 21.4112C3.25 21.412 3.25 21.4129 3.25 21.4137C3.25 21.4145 3.25 21.4154 3.25 21.4162C3.25 21.4171 3.25 21.4179 3.25 21.4188C3.25 21.4196 3.25 21.4204 3.25 21.4213C3.25 21.4221 3.25 21.423 3.25 21.4238C3.25 21.4246 3.25 21.4255 3.25 21.4263C3.25 21.4271 3.25 21.428 3.25 21.4288C3.25 21.4296 3.25 21.4305 3.25 21.4313C3.25 21.4321 3.25 21.4329 3.25 21.4338C3.25 21.4346 3.25 21.4354 3.25 21.4362C3.25 21.4371 3.25 21.4379 3.25 21.4387C3.25 21.4395 3.25 21.4403 3.25 21.4412C3.25 21.442 3.25 21.4428 3.25 21.4436C3.25 21.4444 3.25 21.4452 3.25 21.446C3.25 21.4469 3.25 21.4477 3.25 21.4485C3.25 21.4493 3.25 21.4501 3.25 21.4509C3.25 21.4517 3.25 21.4525 3.25 21.4533C3.25 21.4541 3.25 21.4549 3.25 21.4557C3.25 21.4565 3.25 21.4573 3.25 21.4581C3.25 21.4589 3.25 21.4597 3.25 21.4605C3.25 21.4613 3.25 21.4621 3.25 21.4629C3.25 21.4637 3.25 21.4645 3.25 21.4653C3.25 21.4661 3.25 21.4668 3.25 21.4676C3.25 21.4684 3.25 21.4692 3.25 21.47C3.25 21.4708 3.25 21.4716 3.25 21.4723C3.25 21.4731 3.25 21.4739 3.25 21.4747C3.25 21.4755 3.25 21.4762 3.25 21.477C3.25 21.4778 3.25 21.4786 3.25 21.4793C3.25 21.4801 3.25 21.4809 3.25 21.4817C3.25 21.4824 3.25 21.4832 3.25 21.484C3.25 21.4847 3.25 21.4855 3.25 21.4863C3.25 21.487 3.25 21.4878 3.25 21.4886C3.25 21.4893 3.25 21.4901 3.25 21.4909C3.25 21.4916 3.25 21.4924 3.25 21.4931C3.25 21.4939 3.25 21.4947 3.25 21.4954C3.25 21.4962 3.25 21.4969 3.25 21.4977C3.25 21.4984 3.25 21.4992 3.25 21.4999C3.25 21.5007 3.25 21.5014 3.25 21.5022C3.25 21.5029 3.25 21.5037 3.25 21.5044C3.25 21.5052 3.25 21.5059 3.25 21.5067C3.25 21.5074 3.25 21.5081 3.25 21.5089C3.25 21.5096 3.25 21.5104 3.25 21.5111C3.25 21.5118 3.25 21.5126 3.25 21.5133C3.25 21.514 3.25 21.5148 3.25 21.5155C3.25 21.5162 3.25 21.517 3.25 21.5177C3.25 21.5184 3.25 21.5191 3.25 21.5199C3.25 21.5206 3.25 21.5213 3.25 21.5221C3.25 21.5228 3.25 21.5235 3.25 21.5242C3.25 21.5249 3.25 21.5257 3.25 21.5264C3.25 21.5271 3.25 21.5278 3.25 21.5285C3.25 21.5292 3.25 21.53 3.25 21.5307C3.25 21.5314 3.25 21.5321 3.25 21.5328C3.25 21.5335 3.25 21.5342 3.25 21.5349C3.25 21.5357 3.25 21.5364 3.25 21.5371C3.25 21.5378 3.25 21.5385 3.25 21.5392C3.25 21.5399 3.25 21.5406 3.25 21.5413C3.25 21.542 3.25 21.5427 3.25 21.5434C3.25 21.5441 3.25 21.5448 3.25 21.5455C3.25 21.5462 3.25 21.5469 3.25 21.5475C3.25 21.5482 3.25 21.5489 3.25 21.5496C3.25 21.5503 3.25 21.551 3.25 21.5517C3.25 21.5524 3.25 21.5531 3.25 21.5537C3.25 21.5544 3.25 21.5551 3.25 21.5558C3.25 21.5565 3.25 21.5572 3.25 21.5578C3.25 21.5585 3.25 21.5592 3.25 21.5599C3.25 21.5605 3.25 21.5612 3.25 21.5619C3.25 21.5626 3.25 21.5632 3.25 21.5639C3.25 21.5646 3.25 21.5653 3.25 21.5659C3.25 21.5666 3.25 21.5673 3.25 21.5679C3.25 21.5686 3.25 21.5693 3.25 21.5699C3.25 21.5706 3.25 21.5712 3.25 21.5719C3.25 21.5726 3.25 21.5732 3.25 21.5739C3.25 21.5745 3.25 21.5752 3.25 21.5759C3.25 21.5765 3.25 21.5772 3.25 21.5778C3.25 21.5785 3.25 21.5791 3.25 21.5798C3.25 21.5804 3.25 21.5811 3.25 21.5817C3.25 21.5824 3.25 21.583 3.25 21.5837C3.25 21.5843 3.25 21.5849 3.25 21.5856C3.25 21.5862 3.25 21.5869 3.25 21.5875C3.25 21.5882 3.25 21.5888 3.25 21.5894C3.25 21.5901 3.25 21.5907 3.25 21.5913C3.25 21.592 3.25 21.5926 3.25 21.5932C3.25 21.5939 3.25 21.5945 3.25 21.5951C3.25 21.5958 3.25 21.5964 3.25 21.597C3.25 21.5976 3.25 21.5983 3.25 21.5989C3.25 21.5995 3.25 21.6001 3.25 21.6008C3.25 21.6014 3.25 21.602 3.25 21.6026C3.25 21.6032 3.25 21.6039 3.25 21.6045C3.25 21.6051 3.25 21.6057 3.25 21.6063C3.25 21.6069 3.25 21.6075 3.25 21.6082C3.25 21.6088 3.25 21.6094 3.25 21.61C3.25 21.6106 3.25 21.6112 3.25 21.6118C3.25 21.6124 3.25 21.613 3.25 21.6136C3.25 21.6142 3.25 21.6148 3.25 21.6154C3.25 21.616 3.25 21.6166 3.25 21.6172C3.25 21.6178 3.25 21.6184 3.25 21.619C3.25 21.6196 3.25 21.6202 3.25 21.6208C3.25 21.6214 3.25 21.622 3.25 21.6226C3.25 21.6232 3.25 21.6238 3.25 21.6243C3.25 21.6249 3.25 21.6255 3.25 21.6261C3.25 21.6267 3.25 21.6273 3.25 21.6279C3.25 21.6284 3.25 21.629 3.25 21.6296C3.25 21.6302 3.25 21.6308 3.25 21.6313C3.25 21.6319 3.25 21.6325 3.25 21.6331C3.25 21.6336 3.25 21.6342 3.25 21.6348C3.25 21.6354 3.25 21.6359 3.25 21.6365C3.25 21.6371 3.25 21.6376 3.25 21.6382C3.25 21.6388 3.25 21.6393 3.25 21.6399C3.25 21.6405 3.25 21.641 3.25 21.6416C3.25 21.6422 3.25 21.6427 3.25 21.6433C3.25 21.6438 3.25 21.6444 3.25 21.645C3.25 21.6455 3.25 21.6461 3.25 21.6466C3.25 21.6472 3.25 21.6477 3.25 21.6483C3.25 21.6488 3.25 21.6494 3.25 21.6499C3.25 21.6505 3.25 21.651 3.25 21.6516C3.25 21.6521 3.25 21.6527 3.25 21.6532C3.25 21.6538 3.25 21.6543 3.25 21.6548C3.25 21.6554 3.25 21.6559 3.25 21.6565C3.25 21.657 3.25 21.6575 3.25 21.6581C3.25 21.6586 3.25 21.6591 3.25 21.6597C3.25 21.6602 3.25 21.6607 3.25 21.6613C3.25 21.6618 3.25 21.6623 3.25 21.6629C3.25 21.6634 3.25 21.6639 3.25 21.6645C3.25 21.665 3.25 21.6655 3.25 21.666C3.25 21.6665 3.25 21.6671 3.25 21.6676C3.25 21.6681 3.25 21.6686 3.25 21.6692C3.25 21.6697 3.25 21.6702 3.25 21.6707C3.25 21.6712 3.25 21.6717 3.25 21.6722C3.25 21.6728 3.25 21.6733 3.25 21.6738C3.25 21.6743 3.25 21.6748 3.25 21.6753C3.25 21.6758 3.25 21.6763 3.25 21.6768C3.25 21.6773 3.25 21.6778 3.25 21.6783C3.25 21.6788 3.25 21.6793 3.25 21.6798C3.25 21.6804 3.25 21.6809 3.25 21.6813C3.25 21.6818 3.25 21.6823 3.25 21.6828C3.25 21.6833 3.25 21.6838 3.25 21.6843C3.25 21.6848 3.25 21.6853 3.25 21.6858C3.25 21.6863 3.25 21.6868 3.25 21.6873C3.25 21.6877 3.25 21.6882 3.25 21.6887C3.25 21.6892 3.25 21.6897 3.25 21.6902C3.25 21.6907 3.25 21.6911 3.25 21.6916C3.25 21.6921 3.25 21.6926 3.25 21.6931C3.25 21.6935 3.25 21.694 3.25 21.6945C3.25 21.695 3.25 21.6954 3.25 21.6959C3.25 21.6964 3.25 21.6968 3.25 21.6973C3.25 21.6978 3.25 21.6983 3.25 21.6987C3.25 21.6992 3.25 21.6997 3.25 21.7001C3.25 21.7006 3.25 21.701 3.25 21.7015C3.25 21.702 3.25 21.7024 3.25 21.7029C3.25 21.7034 3.25 21.7038 3.25 21.7043C3.25 21.7047 3.25 21.7052 3.25 21.7056C3.25 21.7061 3.25 21.7065 3.25 21.707C3.25 21.7075 3.25 21.7079 3.25 21.7084C3.25 21.7088 3.25 21.7092 3.25 21.7097C3.25 21.7101 3.25 21.7106 3.25 21.711C3.25 21.7115 3.25 21.7119 3.25 21.7124C3.25 21.7128 3.25 21.7132 3.25 21.7137C3.25 21.7141 3.25 21.7146 3.25 21.715C3.25 21.7154 3.25 21.7159 3.25 21.7163C3.25 21.7167 3.25 21.7172 3.25 21.7176C3.25 21.718 3.25 21.7185 3.25 21.7189C3.25 21.7193 3.25 21.7198 3.25 21.7202C3.25 21.7206 3.25 21.721 3.25 21.7215C3.25 21.7219 3.25 21.7223 3.25 21.7227C3.25 21.7232 3.25 21.7236 3.25 21.724C3.25 21.7244 3.25 21.7248 3.25 21.7252C3.25 21.7257 3.25 21.7261 3.25 21.7265C3.25 21.7269 3.25 21.7273 3.25 21.7277C3.25 21.7281 3.25 21.7286 3.25 21.729C3.25 21.7294 3.25 21.7298 3.25 21.7302C3.25 21.7306 3.25 21.731 3.25 21.7314C3.25 21.7318 3.25 21.7322 3.25 21.7326C3.25 21.733 3.25 21.7334 3.25 21.7338C3.25 21.7342 3.25 21.7346 3.25 21.735C3.25 21.7354 3.25 21.7358 3.25 21.7362C3.25 21.7366 3.25 21.737 3.25 21.7374C3.25 21.7378 3.25 21.7382 3.25 21.7385C3.25 21.7389 3.25 21.7393 3.25 21.7397C3.25 21.7401 3.25 21.7405 3.25 21.7409C3.25 21.7412 3.25 21.7416 3.25 21.742C3.25 21.7424 3.25 21.7428 3.25 21.7432C3.25 21.7435 3.25 21.7439 3.25 21.7443C3.25 21.7447 3.25 21.745 3.25 21.7454C3.25 21.7458 3.25 21.7462 3.25 21.7465C3.25 21.7469 3.25 21.7473 3.25 21.7476C3.25 21.748 3.25 21.7484 3.25 21.7487C3.25 21.7491 3.25 21.7495 3.25 21.7498C3.25 21.7502 3.25 21.7506 3.25 21.7509C3.25 21.7513 3.25 21.7516 3.25 21.752C3.25 21.7524 3.25 21.7527 3.25 21.7531C3.25 21.7534 3.25 21.7538 3.25 21.7541C3.25 21.7545 3.25 21.7549 3.25 21.7552C3.25 21.7556 3.25 21.7559 3.25 21.7563C3.25 21.7566 3.25 21.757 3.25 21.7573C3.25 21.7576 3.25 21.758 3.25 21.7583C3.25 21.7587 3.25 21.759 3.25 21.7594C3.25 21.7597 3.25 21.76 3.25 21.7604C3.25 21.7607 3.25 21.7611 3.25 21.7614C3.25 21.7617 3.25 21.7621 3.25 21.7624C3.25 21.7627 3.25 21.7631 3.25 21.7634C3.25 21.7637 3.25 21.7641 3.25 21.7644C3.25 21.7647 3.25 21.7651 3.25 21.7654C3.25 21.7657 3.25 21.766 3.25 21.7664C3.25 21.7667 3.25 21.767 3.25 21.7673C3.25 21.7676 3.25 21.768 3.25 21.7683C3.25 21.7686 3.25 21.7689 3.25 21.7692C3.25 21.7696 3.25 21.7699 3.25 21.7702C3.25 21.7705 3.25 21.7708 3.25 21.7711C3.25 21.7714 3.25 21.7717 3.25 21.7721C3.25 21.7724 3.25 21.7727 3.25 21.773C3.25 21.7733 3.25 21.7736 3.25 21.7739C3.25 21.7742 3.25 21.7745 3.25 21.7748C3.25 21.7751 3.25 21.7754 3.25 21.7757C3.25 21.776 3.25 21.7763 3.25 21.7766C3.25 21.7769 3.25 21.7772 3.25 21.7775C3.25 21.7778 3.25 21.7781 3.25 21.7784C3.25 21.7787 3.25 21.779 3.25 21.7792C3.25 21.7795 3.25 21.7798 3.25 21.7801C3.25 21.7804 3.25 21.7807 3.25 21.781C3.25 21.7812 3.25 21.7815 3.25 21.7818C3.25 21.7821 3.25 21.7824 3.25 21.7827C3.25 21.7829 3.25 21.7832 3.25 21.7835C3.25 21.7838 3.25 21.784 3.25 21.7843C3.25 21.7846 3.25 21.7849 3.25 21.7851C3.25 21.7854 3.25 21.7857 3.25 21.786C3.25 21.7862 3.25 21.7865 3.25 21.7868C3.25 21.787 3.25 21.7873 3.25 21.7876C3.25 21.7878 3.25 21.7881 3.25 21.7883C3.25 21.7886 3.25 21.7889 3.25 21.7891C3.25 21.7894 3.25 21.7896 3.25 21.7899C3.25 21.7902 3.25 21.7904 3.25 21.7907C3.25 21.7909 3.25 21.7912 3.25 21.7914C3.25 21.7917 3.25 21.7919 3.25 21.7922C3.25 21.7924 3.25 21.7927 3.25 21.7929C3.25 21.7932 3.25 21.7934 3.25 21.7937C3.25 21.7939 3.25 21.7942 3.25 21.7944C3.25 21.7947 3.25 21.7949 3.25 21.7951C3.25 21.7954 3.25 21.7956 3.25 21.7959C3.25 21.7961 3.25 21.7963 3.25 21.7966C3.25 21.7968 3.25 21.797 3.25 21.7973C3.25 21.7975 3.25 21.7977 3.25 21.798C3.25 21.7982 3.25 21.7984 3.25 21.7986C3.25 21.7989 3.25 21.7991 3.25 21.7993C3.25 21.7996 3.25 21.7998 3.25 21.8H4.75C4.75 21.7998 4.75 21.7996 4.75 21.7993C4.75 21.7991 4.75 21.7989 4.75 21.7986C4.75 21.7984 4.75 21.7982 4.75 21.798C4.75 21.7977 4.75 21.7975 4.75 21.7973C4.75 21.797 4.75 21.7968 4.75 21.7966C4.75 21.7963 4.75 21.7961 4.75 21.7959C4.75 21.7956 4.75 21.7954 4.75 21.7951C4.75 21.7949 4.75 21.7947 4.75 21.7944C4.75 21.7942 4.75 21.7939 4.75 21.7937C4.75 21.7934 4.75 21.7932 4.75 21.7929C4.75 21.7927 4.75 21.7924 4.75 21.7922C4.75 21.7919 4.75 21.7917 4.75 21.7914C4.75 21.7912 4.75 21.7909 4.75 21.7907C4.75 21.7904 4.75 21.7902 4.75 21.7899C4.75 21.7896 4.75 21.7894 4.75 21.7891C4.75 21.7889 4.75 21.7886 4.75 21.7883C4.75 21.7881 4.75 21.7878 4.75 21.7876C4.75 21.7873 4.75 21.787 4.75 21.7868C4.75 21.7865 4.75 21.7862 4.75 21.786C4.75 21.7857 4.75 21.7854 4.75 21.7851C4.75 21.7849 4.75 21.7846 4.75 21.7843C4.75 21.784 4.75 21.7838 4.75 21.7835C4.75 21.7832 4.75 21.7829 4.75 21.7827C4.75 21.7824 4.75 21.7821 4.75 21.7818C4.75 21.7815 4.75 21.7812 4.75 21.781C4.75 21.7807 4.75 21.7804 4.75 21.7801C4.75 21.7798 4.75 21.7795 4.75 21.7792C4.75 21.779 4.75 21.7787 4.75 21.7784C4.75 21.7781 4.75 21.7778 4.75 21.7775C4.75 21.7772 4.75 21.7769 4.75 21.7766C4.75 21.7763 4.75 21.776 4.75 21.7757C4.75 21.7754 4.75 21.7751 4.75 21.7748C4.75 21.7745 4.75 21.7742 4.75 21.7739C4.75 21.7736 4.75 21.7733 4.75 21.773C4.75 21.7727 4.75 21.7724 4.75 21.7721C4.75 21.7717 4.75 21.7714 4.75 21.7711C4.75 21.7708 4.75 21.7705 4.75 21.7702C4.75 21.7699 4.75 21.7696 4.75 21.7692C4.75 21.7689 4.75 21.7686 4.75 21.7683C4.75 21.768 4.75 21.7676 4.75 21.7673C4.75 21.767 4.75 21.7667 4.75 21.7664C4.75 21.766 4.75 21.7657 4.75 21.7654C4.75 21.7651 4.75 21.7647 4.75 21.7644C4.75 21.7641 4.75 21.7637 4.75 21.7634C4.75 21.7631 4.75 21.7627 4.75 21.7624C4.75 21.7621 4.75 21.7617 4.75 21.7614C4.75 21.7611 4.75 21.7607 4.75 21.7604C4.75 21.76 4.75 21.7597 4.75 21.7594C4.75 21.759 4.75 21.7587 4.75 21.7583C4.75 21.758 4.75 21.7576 4.75 21.7573C4.75 21.757 4.75 21.7566 4.75 21.7563C4.75 21.7559 4.75 21.7556 4.75 21.7552C4.75 21.7549 4.75 21.7545 4.75 21.7541C4.75 21.7538 4.75 21.7534 4.75 21.7531C4.75 21.7527 4.75 21.7524 4.75 21.752C4.75 21.7516 4.75 21.7513 4.75 21.7509C4.75 21.7506 4.75 21.7502 4.75 21.7498C4.75 21.7495 4.75 21.7491 4.75 21.7487C4.75 21.7484 4.75 21.748 4.75 21.7476C4.75 21.7473 4.75 21.7469 4.75 21.7465C4.75 21.7462 4.75 21.7458 4.75 21.7454C4.75 21.745 4.75 21.7447 4.75 21.7443C4.75 21.7439 4.75 21.7435 4.75 21.7432C4.75 21.7428 4.75 21.7424 4.75 21.742C4.75 21.7416 4.75 21.7412 4.75 21.7409C4.75 21.7405 4.75 21.7401 4.75 21.7397C4.75 21.7393 4.75 21.7389 4.75 21.7385C4.75 21.7382 4.75 21.7378 4.75 21.7374C4.75 21.737 4.75 21.7366 4.75 21.7362C4.75 21.7358 4.75 21.7354 4.75 21.735C4.75 21.7346 4.75 21.7342 4.75 21.7338C4.75 21.7334 4.75 21.733 4.75 21.7326C4.75 21.7322 4.75 21.7318 4.75 21.7314C4.75 21.731 4.75 21.7306 4.75 21.7302C4.75 21.7298 4.75 21.7294 4.75 21.729C4.75 21.7286 4.75 21.7281 4.75 21.7277C4.75 21.7273 4.75 21.7269 4.75 21.7265C4.75 21.7261 4.75 21.7257 4.75 21.7252C4.75 21.7248 4.75 21.7244 4.75 21.724C4.75 21.7236 4.75 21.7232 4.75 21.7227C4.75 21.7223 4.75 21.7219 4.75 21.7215C4.75 21.721 4.75 21.7206 4.75 21.7202C4.75 21.7198 4.75 21.7193 4.75 21.7189C4.75 21.7185 4.75 21.718 4.75 21.7176C4.75 21.7172 4.75 21.7167 4.75 21.7163C4.75 21.7159 4.75 21.7154 4.75 21.715C4.75 21.7146 4.75 21.7141 4.75 21.7137C4.75 21.7132 4.75 21.7128 4.75 21.7124C4.75 21.7119 4.75 21.7115 4.75 21.711C4.75 21.7106 4.75 21.7101 4.75 21.7097C4.75 21.7092 4.75 21.7088 4.75 21.7084C4.75 21.7079 4.75 21.7075 4.75 21.707C4.75 21.7065 4.75 21.7061 4.75 21.7056C4.75 21.7052 4.75 21.7047 4.75 21.7043C4.75 21.7038 4.75 21.7034 4.75 21.7029C4.75 21.7024 4.75 21.702 4.75 21.7015C4.75 21.701 4.75 21.7006 4.75 21.7001C4.75 21.6997 4.75 21.6992 4.75 21.6987C4.75 21.6983 4.75 21.6978 4.75 21.6973C4.75 21.6968 4.75 21.6964 4.75 21.6959C4.75 21.6954 4.75 21.695 4.75 21.6945C4.75 21.694 4.75 21.6935 4.75 21.6931C4.75 21.6926 4.75 21.6921 4.75 21.6916C4.75 21.6911 4.75 21.6907 4.75 21.6902C4.75 21.6897 4.75 21.6892 4.75 21.6887C4.75 21.6882 4.75 21.6877 4.75 21.6873C4.75 21.6868 4.75 21.6863 4.75 21.6858C4.75 21.6853 4.75 21.6848 4.75 21.6843C4.75 21.6838 4.75 21.6833 4.75 21.6828C4.75 21.6823 4.75 21.6818 4.75 21.6813C4.75 21.6809 4.75 21.6804 4.75 21.6798C4.75 21.6793 4.75 21.6788 4.75 21.6783C4.75 21.6778 4.75 21.6773 4.75 21.6768C4.75 21.6763 4.75 21.6758 4.75 21.6753C4.75 21.6748 4.75 21.6743 4.75 21.6738C4.75 21.6733 4.75 21.6728 4.75 21.6722C4.75 21.6717 4.75 21.6712 4.75 21.6707C4.75 21.6702 4.75 21.6697 4.75 21.6692C4.75 21.6686 4.75 21.6681 4.75 21.6676C4.75 21.6671 4.75 21.6665 4.75 21.666C4.75 21.6655 4.75 21.665 4.75 21.6645C4.75 21.6639 4.75 21.6634 4.75 21.6629C4.75 21.6623 4.75 21.6618 4.75 21.6613C4.75 21.6607 4.75 21.6602 4.75 21.6597C4.75 21.6591 4.75 21.6586 4.75 21.6581C4.75 21.6575 4.75 21.657 4.75 21.6565C4.75 21.6559 4.75 21.6554 4.75 21.6548C4.75 21.6543 4.75 21.6538 4.75 21.6532C4.75 21.6527 4.75 21.6521 4.75 21.6516C4.75 21.651 4.75 21.6505 4.75 21.6499C4.75 21.6494 4.75 21.6488 4.75 21.6483C4.75 21.6477 4.75 21.6472 4.75 21.6466C4.75 21.6461 4.75 21.6455 4.75 21.645C4.75 21.6444 4.75 21.6438 4.75 21.6433C4.75 21.6427 4.75 21.6422 4.75 21.6416C4.75 21.641 4.75 21.6405 4.75 21.6399C4.75 21.6393 4.75 21.6388 4.75 21.6382C4.75 21.6376 4.75 21.6371 4.75 21.6365C4.75 21.6359 4.75 21.6354 4.75 21.6348C4.75 21.6342 4.75 21.6336 4.75 21.6331C4.75 21.6325 4.75 21.6319 4.75 21.6313C4.75 21.6308 4.75 21.6302 4.75 21.6296C4.75 21.629 4.75 21.6284 4.75 21.6279C4.75 21.6273 4.75 21.6267 4.75 21.6261C4.75 21.6255 4.75 21.6249 4.75 21.6243C4.75 21.6238 4.75 21.6232 4.75 21.6226C4.75 21.622 4.75 21.6214 4.75 21.6208C4.75 21.6202 4.75 21.6196 4.75 21.619C4.75 21.6184 4.75 21.6178 4.75 21.6172C4.75 21.6166 4.75 21.616 4.75 21.6154C4.75 21.6148 4.75 21.6142 4.75 21.6136C4.75 21.613 4.75 21.6124 4.75 21.6118C4.75 21.6112 4.75 21.6106 4.75 21.61C4.75 21.6094 4.75 21.6088 4.75 21.6082C4.75 21.6075 4.75 21.6069 4.75 21.6063C4.75 21.6057 4.75 21.6051 4.75 21.6045C4.75 21.6039 4.75 21.6032 4.75 21.6026C4.75 21.602 4.75 21.6014 4.75 21.6008C4.75 21.6001 4.75 21.5995 4.75 21.5989C4.75 21.5983 4.75 21.5976 4.75 21.597C4.75 21.5964 4.75 21.5958 4.75 21.5951C4.75 21.5945 4.75 21.5939 4.75 21.5932C4.75 21.5926 4.75 21.592 4.75 21.5913C4.75 21.5907 4.75 21.5901 4.75 21.5894C4.75 21.5888 4.75 21.5882 4.75 21.5875C4.75 21.5869 4.75 21.5862 4.75 21.5856C4.75 21.5849 4.75 21.5843 4.75 21.5837C4.75 21.583 4.75 21.5824 4.75 21.5817C4.75 21.5811 4.75 21.5804 4.75 21.5798C4.75 21.5791 4.75 21.5785 4.75 21.5778C4.75 21.5772 4.75 21.5765 4.75 21.5759C4.75 21.5752 4.75 21.5745 4.75 21.5739C4.75 21.5732 4.75 21.5726 4.75 21.5719C4.75 21.5712 4.75 21.5706 4.75 21.5699C4.75 21.5693 4.75 21.5686 4.75 21.5679C4.75 21.5673 4.75 21.5666 4.75 21.5659C4.75 21.5653 4.75 21.5646 4.75 21.5639C4.75 21.5632 4.75 21.5626 4.75 21.5619C4.75 21.5612 4.75 21.5605 4.75 21.5599C4.75 21.5592 4.75 21.5585 4.75 21.5578C4.75 21.5572 4.75 21.5565 4.75 21.5558C4.75 21.5551 4.75 21.5544 4.75 21.5537C4.75 21.5531 4.75 21.5524 4.75 21.5517C4.75 21.551 4.75 21.5503 4.75 21.5496C4.75 21.5489 4.75 21.5482 4.75 21.5475C4.75 21.5469 4.75 21.5462 4.75 21.5455C4.75 21.5448 4.75 21.5441 4.75 21.5434C4.75 21.5427 4.75 21.542 4.75 21.5413C4.75 21.5406 4.75 21.5399 4.75 21.5392C4.75 21.5385 4.75 21.5378 4.75 21.5371C4.75 21.5364 4.75 21.5357 4.75 21.5349C4.75 21.5342 4.75 21.5335 4.75 21.5328C4.75 21.5321 4.75 21.5314 4.75 21.5307C4.75 21.53 4.75 21.5292 4.75 21.5285C4.75 21.5278 4.75 21.5271 4.75 21.5264C4.75 21.5257 4.75 21.5249 4.75 21.5242C4.75 21.5235 4.75 21.5228 4.75 21.5221C4.75 21.5213 4.75 21.5206 4.75 21.5199C4.75 21.5191 4.75 21.5184 4.75 21.5177C4.75 21.517 4.75 21.5162 4.75 21.5155C4.75 21.5148 4.75 21.514 4.75 21.5133C4.75 21.5126 4.75 21.5118 4.75 21.5111C4.75 21.5104 4.75 21.5096 4.75 21.5089C4.75 21.5081 4.75 21.5074 4.75 21.5067C4.75 21.5059 4.75 21.5052 4.75 21.5044C4.75 21.5037 4.75 21.5029 4.75 21.5022C4.75 21.5014 4.75 21.5007 4.75 21.4999C4.75 21.4992 4.75 21.4984 4.75 21.4977C4.75 21.4969 4.75 21.4962 4.75 21.4954C4.75 21.4947 4.75 21.4939 4.75 21.4931C4.75 21.4924 4.75 21.4916 4.75 21.4909C4.75 21.4901 4.75 21.4893 4.75 21.4886C4.75 21.4878 4.75 21.487 4.75 21.4863C4.75 21.4855 4.75 21.4847 4.75 21.484C4.75 21.4832 4.75 21.4824 4.75 21.4817C4.75 21.4809 4.75 21.4801 4.75 21.4793C4.75 21.4786 4.75 21.4778 4.75 21.477C4.75 21.4762 4.75 21.4755 4.75 21.4747C4.75 21.4739 4.75 21.4731 4.75 21.4723C4.75 21.4716 4.75 21.4708 4.75 21.47C4.75 21.4692 4.75 21.4684 4.75 21.4676C4.75 21.4668 4.75 21.4661 4.75 21.4653C4.75 21.4645 4.75 21.4637 4.75 21.4629C4.75 21.4621 4.75 21.4613 4.75 21.4605C4.75 21.4597 4.75 21.4589 4.75 21.4581C4.75 21.4573 4.75 21.4565 4.75 21.4557C4.75 21.4549 4.75 21.4541 4.75 21.4533C4.75 21.4525 4.75 21.4517 4.75 21.4509C4.75 21.4501 4.75 21.4493 4.75 21.4485C4.75 21.4477 4.75 21.4469 4.75 21.446C4.75 21.4452 4.75 21.4444 4.75 21.4436C4.75 21.4428 4.75 21.442 4.75 21.4412C4.75 21.4403 4.75 21.4395 4.75 21.4387C4.75 21.4379 4.75 21.4371 4.75 21.4362C4.75 21.4354 4.75 21.4346 4.75 21.4338C4.75 21.4329 4.75 21.4321 4.75 21.4313C4.75 21.4305 4.75 21.4296 4.75 21.4288C4.75 21.428 4.75 21.4271 4.75 21.4263C4.75 21.4255 4.75 21.4246 4.75 21.4238C4.75 21.423 4.75 21.4221 4.75 21.4213C4.75 21.4204 4.75 21.4196 4.75 21.4188C4.75 21.4179 4.75 21.4171 4.75 21.4162C4.75 21.4154 4.75 21.4145 4.75 21.4137C4.75 21.4129 4.75 21.412 4.75 21.4112C4.75 21.4103 4.75 21.4095 4.75 21.4086C4.75 21.4078 4.75 21.4069 4.75 21.406C4.75 21.4052 4.75 21.4043 4.75 21.4035C4.75 21.4026 4.75 21.4018 4.75 21.4009C4.75 21.4 4.75 21.3992 4.75 21.3983C4.75 21.3975 4.75 21.3966 4.75 21.3957C4.75 21.3949 4.75 21.394 4.75 21.3931C4.75 21.3923 4.75 21.3914 4.75 21.3905C4.75 21.3896 4.75 21.3888 4.75 21.3879C4.75 21.387 4.75 21.3862 4.75 21.3853C4.75 21.3844 4.75 21.3835 4.75 21.3826C4.75 21.3818 4.75 21.3809 4.75 21.38C4.75 21.3791 4.75 21.3782 4.75 21.3774C4.75 21.3765 4.75 21.3756 4.75 21.3747C4.75 21.3738 4.75 21.3729 4.75 21.372C4.75 21.3711 4.75 21.3702 4.75 21.3694C4.75 21.3685 4.75 21.3676 4.75 21.3667C4.75 21.3658 4.75 21.3649 4.75 21.364C4.75 21.3631 4.75 21.3622 4.75 21.3613C4.75 21.3604 4.75 21.3595 4.75 21.3586C4.75 21.3577 4.75 21.3568 4.75 21.3559C4.75 21.355 4.75 21.3541 4.75 21.3531C4.75 21.3522 4.75 21.3513 4.75 21.3504C4.75 21.3495 4.75 21.3486 4.75 21.3477C4.75 21.3468 4.75 21.3458 4.75 21.3449C4.75 21.344 4.75 21.3431 4.75 21.3422C4.75 21.3413 4.75 21.3403 4.75 21.3394C4.75 21.3385 4.75 21.3376 4.75 21.3366C4.75 21.3357 4.75 21.3348 4.75 21.3339C4.75 21.3329 4.75 21.332 4.75 21.3311C4.75 21.3301 4.75 21.3292 4.75 21.3283C4.75 21.3273 4.75 21.3264 4.75 21.3255C4.75 21.3245 4.75 21.3236 4.75 21.3227C4.75 21.3217 4.75 21.3208 4.75 21.3198C4.75 21.3189 4.75 21.318 4.75 21.317C4.75 21.3161 4.75 21.3151 4.75 21.3142C4.75 21.3132 4.75 21.3123 4.75 21.3113C4.75 21.3104 4.75 21.3094 4.75 21.3085C4.75 21.3075 4.75 21.3066 4.75 21.3056C4.75 21.3047 4.75 21.3037 4.75 21.3027C4.75 21.3018 4.75 21.3008 4.75 21.2999C4.75 21.2989 4.75 21.2979 4.75 21.297C4.75 21.296 4.75 21.2951 4.75 21.2941C4.75 21.2931 4.75 21.2922 4.75 21.2912C4.75 21.2902 4.75 21.2892 4.75 21.2883C4.75 21.2873 4.75 21.2863 4.75 21.2854C4.75 21.2844 4.75 21.2834 4.75 21.2824C4.75 21.2815 4.75 21.2805 4.75 21.2795C4.75 21.2785 4.75 21.2775 4.75 21.2766C4.75 21.2756 4.75 21.2746 4.75 21.2736C4.75 21.2726 4.75 21.2716 4.75 21.2706C4.75 21.2697 4.75 21.2687 4.75 21.2677C4.75 21.2667 4.75 21.2657 4.75 21.2647C4.75 21.2637 4.75 21.2627 4.75 21.2617C4.75 21.2607 4.75 21.2597 4.75 21.2587C4.75 21.2577 4.75 21.2567 4.75 21.2557C4.75 21.2547 4.75 21.2537 4.75 21.2527C4.75 21.2517 4.75 21.2507 4.75 21.2497C4.75 21.2487 4.75 21.2477 4.75 21.2467C4.75 21.2457 4.75 21.2446 4.75 21.2436C4.75 21.2426 4.75 21.2416 4.75 21.2406C4.75 21.2396 4.75 21.2386 4.75 21.2375C4.75 21.2365 4.75 21.2355 4.75 21.2345C4.75 21.2335 4.75 21.2324 4.75 21.2314C4.75 21.2304 4.75 21.2294 4.75 21.2283C4.75 21.2273 4.75 21.2263 4.75 21.2253C4.75 21.2242 4.75 21.2232 4.75 21.2222C4.75 21.2211 4.75 21.2201 4.75 21.2191C4.75 21.218 4.75 21.217 4.75 21.216C4.75 21.2149 4.75 21.2139 4.75 21.2128C4.75 21.2118 4.75 21.2108 4.75 21.2097C4.75 21.2087 4.75 21.2076 4.75 21.2066C4.75 21.2055 4.75 21.2045 4.75 21.2034C4.75 21.2024 4.75 21.2013 4.75 21.2003C4.75 21.1992 4.75 21.1982 4.75 21.1971C4.75 21.1961 4.75 21.195 4.75 21.194C4.75 21.1929 4.75 21.1919 4.75 21.1908C4.75 21.1897 4.75 21.1887 4.75 21.1876C4.75 21.1866 4.75 21.1855 4.75 21.1844C4.75 21.1834 4.75 21.1823 4.75 21.1812C4.75 21.1802 4.75 21.1791 4.75 21.178C4.75 21.1769 4.75 21.1759 4.75 21.1748C4.75 21.1737 4.75 21.1727 4.75 21.1716C4.75 21.1705 4.75 21.1694 4.75 21.1683C4.75 21.1673 4.75 21.1662 4.75 21.1651C4.75 21.164 4.75 21.1629 4.75 21.1619C4.75 21.1608 4.75 21.1597 4.75 21.1586C4.75 21.1575 4.75 21.1564 4.75 21.1553C4.75 21.1542 4.75 21.1531 4.75 21.1521C4.75 21.151 4.75 21.1499 4.75 21.1488C4.75 21.1477 4.75 21.1466 4.75 21.1455C4.75 21.1444 4.75 21.1433 4.75 21.1422C4.75 21.1411 4.75 21.14 4.75 21.1389C4.75 21.1378 4.75 21.1367 4.75 21.1356C4.75 21.1345 4.75 21.1333 4.75 21.1322C4.75 21.1311 4.75 21.13 4.75 21.1289C4.75 21.1278 4.75 21.1267 4.75 21.1256C4.75 21.1244 4.75 21.1233 4.75 21.1222C4.75 21.1211 4.75 21.12 4.75 21.1189C4.75 21.1177 4.75 21.1166 4.75 21.1155C4.75 21.1144 4.75 21.1132 4.75 21.1121C4.75 21.111 4.75 21.1099 4.75 21.1087C4.75 21.1076 4.75 21.1065 4.75 21.1053C4.75 21.1042 4.75 21.1031 4.75 21.1019C4.75 21.1008 4.75 21.0997 4.75 21.0985C4.75 21.0974 4.75 21.0963 4.75 21.0951C4.75 21.094 4.75 21.0928 4.75 21.0917C4.75 21.0905 4.75 21.0894 4.75 21.0883C4.75 21.0871 4.75 21.086 4.75 21.0848C4.75 21.0837 4.75 21.0825 4.75 21.0814C4.75 21.0802 4.75 21.0791 4.75 21.0779C4.75 21.0767 4.75 21.0756 4.75 21.0744C4.75 21.0733 4.75 21.0721 4.75 21.071C4.75 21.0698 4.75 21.0686 4.75 21.0675C4.75 21.0663 4.75 21.0651 4.75 21.064C4.75 21.0628 4.75 21.0617 4.75 21.0605C4.75 21.0593 4.75 21.0581 4.75 21.057C4.75 21.0558 4.75 21.0546 4.75 21.0535C4.75 21.0523 4.75 21.0511 4.75 21.0499C4.75 21.0488 4.75 21.0476 4.75 21.0464C4.75 21.0452 4.75 21.044 4.75 21.0429C4.75 21.0417 4.75 21.0405 4.75 21.0393C4.75 21.0381 4.75 21.0369 4.75 21.0357C4.75 21.0346 4.75 21.0334 4.75 21.0322C4.75 21.031 4.75 21.0298 4.75 21.0286C4.75 21.0274 4.75 21.0262 4.75 21.025C4.75 21.0238 4.75 21.0226 4.75 21.0214C4.75 21.0202 4.75 21.019 4.75 21.0178C4.75 21.0166 4.75 21.0154 4.75 21.0142C4.75 21.013 4.75 21.0118 4.75 21.0106C4.75 21.0094 4.75 21.0082 4.75 21.007C4.75 21.0057 4.75 21.0045 4.75 21.0033C4.75 21.0021 4.75 21.0009 4.75 20.9997C4.75 20.9985 4.75 20.9972 4.75 20.996C4.75 20.9948 4.75 20.9936 4.75 20.9924C4.75 20.9911 4.75 20.9899 4.75 20.9887C4.75 20.9875 4.75 20.9862 4.75 20.985C4.75 20.9838 4.75 20.9826 4.75 20.9813C4.75 20.9801 4.75 20.9789 4.75 20.9776C4.75 20.9764 4.75 20.9752 4.75 20.9739C4.75 20.9727 4.75 20.9715 4.75 20.9702C4.75 20.969 4.75 20.9677 4.75 20.9665C4.75 20.9653 4.75 20.964 4.75 20.9628C4.75 20.9615 4.75 20.9603 4.75 20.959C4.75 20.9578 4.75 20.9565 4.75 20.9553C4.75 20.954 4.75 20.9528 4.75 20.9515C4.75 20.9503 4.75 20.949 4.75 20.9478C4.75 20.9465 4.75 20.9453 4.75 20.944C4.75 20.9427 4.75 20.9415 4.75 20.9402C4.75 20.9389 4.75 20.9377 4.75 20.9364C4.75 20.9352 4.75 20.9339 4.75 20.9326C4.75 20.9314 4.75 20.9301 4.75 20.9288C4.75 20.9275 4.75 20.9263 4.75 20.925C4.75 20.9237 4.75 20.9225 4.75 20.9212C4.75 20.9199 4.75 20.9186 4.75 20.9173C4.75 20.9161 4.75 20.9148 4.75 20.9135C4.75 20.9122 4.75 20.9109 4.75 20.9097C4.75 20.9084 4.75 20.9071 4.75 20.9058C4.75 20.9045 4.75 20.9032 4.75 20.9019C4.75 20.9006 4.75 20.8994 4.75 20.8981C4.75 20.8968 4.75 20.8955 4.75 20.8942C4.75 20.8929 4.75 20.8916 4.75 20.8903C4.75 20.889 4.75 20.8877 4.75 20.8864C4.75 20.8851 4.75 20.8838 4.75 20.8825C4.75 20.8812 4.75 20.8799 4.75 20.8786C4.75 20.8773 4.75 20.8759 4.75 20.8746C4.75 20.8733 4.75 20.872 4.75 20.8707C4.75 20.8694 4.75 20.8681 4.75 20.8668C4.75 20.8654 4.75 20.8641 4.75 20.8628C4.75 20.8615 4.75 20.8602 4.75 20.8588C4.75 20.8575 4.75 20.8562 4.75 20.8549C4.75 20.8536 4.75 20.8522 4.75 20.8509C4.75 20.8496 4.75 20.8482 4.75 20.8469C4.75 20.8456 4.75 20.8443 4.75 20.8429C4.75 20.8416 4.75 20.8403 4.75 20.8389C4.75 20.8376 4.75 20.8362 4.75 20.8349C4.75 20.8336 4.75 20.8322 4.75 20.8309C4.75 20.8295 4.75 20.8282 4.75 20.8269C4.75 20.8255 4.75 20.8242 4.75 20.8228C4.75 20.8215 4.75 20.8201 4.75 20.8188C4.75 20.8174 4.75 20.8161 4.75 20.8147C4.75 20.8134 4.75 20.812 4.75 20.8107C4.75 20.8093 4.75 20.8079 4.75 20.8066C4.75 20.8052 4.75 20.8039 4.75 20.8025C4.75 20.8011 4.75 20.7998 4.75 20.7984C4.75 20.797 4.75 20.7957 4.75 20.7943C4.75 20.7929 4.75 20.7916 4.75 20.7902C4.75 20.7888 4.75 20.7875 4.75 20.7861C4.75 20.7847 4.75 20.7833 4.75 20.782C4.75 20.7806 4.75 20.7792 4.75 20.7778C4.75 20.7765 4.75 20.7751 4.75 20.7737C4.75 20.7723 4.75 20.7709 4.75 20.7695C4.75 20.7682 4.75 20.7668 4.75 20.7654C4.75 20.764 4.75 20.7626 4.75 20.7612C4.75 20.7598 4.75 20.7584 4.75 20.757C4.75 20.7556 4.75 20.7542 4.75 20.7529C4.75 20.7515 4.75 20.7501 4.75 20.7487C4.75 20.7473 4.75 20.7459 4.75 20.7445C4.75 20.7431 4.75 20.7417 4.75 20.7402C4.75 20.7388 4.75 20.7374 4.75 20.736C4.75 20.7346 4.75 20.7332 4.75 20.7318C4.75 20.7304 4.75 20.729 4.75 20.7276C4.75 20.7261 4.75 20.7247 4.75 20.7233C4.75 20.7219 4.75 20.7205 4.75 20.7191C4.75 20.7176 4.75 20.7162 4.75 20.7148C4.75 20.7134 4.75 20.712 4.75 20.7105C4.75 20.7091 4.75 20.7077 4.75 20.7062C4.75 20.7048 4.75 20.7034 4.75 20.702C4.75 20.7005 4.75 20.6991 4.75 20.6977C4.75 20.6962 4.75 20.6948 4.75 20.6934C4.75 20.6919 4.75 20.6905 4.75 20.689C4.75 20.6876 4.75 20.6862 4.75 20.6847C4.75 20.6833 4.75 20.6818 4.75 20.6804C4.75 20.6789 4.75 20.6775 4.75 20.676C4.75 20.6746 4.75 20.6731 4.75 20.6717C4.75 20.6702 4.75 20.6688 4.75 20.6673C4.75 20.6659 4.75 20.6644 4.75 20.663C4.75 20.6615 4.75 20.6601 4.75 20.6586C4.75 20.6571 4.75 20.6557 4.75 20.6542C4.75 20.6527 4.75 20.6513 4.75 20.6498C4.75 20.6483 4.75 20.6469 4.75 20.6454C4.75 20.6439 4.75 20.6425 4.75 20.641C4.75 20.6395 4.75 20.6381 4.75 20.6366C4.75 20.6351 4.75 20.6336 4.75 20.6321C4.75 20.6307 4.75 20.6292 4.75 20.6277C4.75 20.6262 4.75 20.6247 4.75 20.6233C4.75 20.6218 4.75 20.6203 4.75 20.6188C4.75 20.6173 4.75 20.6158 4.75 20.6143C4.75 20.6129 4.75 20.6114 4.75 20.6099C4.75 20.6084 4.75 20.6069 4.75 20.6054C4.75 20.6039 4.75 20.6024 4.75 20.6009C4.75 20.5994 4.75 20.5979 4.75 20.5964C4.75 20.5949 4.75 20.5934 4.75 20.5919C4.75 20.5904 4.75 20.5889 4.75 20.5874C4.75 20.5859 4.75 20.5844 4.75 20.5829C4.75 20.5813 4.75 20.5798 4.75 20.5783C4.75 20.5768 4.75 20.5753 4.75 20.5738C4.75 20.5723 4.75 20.5707 4.75 20.5692C4.75 20.5677 4.75 20.5662 4.75 20.5647C4.75 20.5631 4.75 20.5616 4.75 20.5601C4.75 20.5586 4.75 20.557 4.75 20.5555C4.75 20.554 4.75 20.5525 4.75 20.5509C4.75 20.5494 4.75 20.5479 4.75 20.5463C4.75 20.5448 4.75 20.5433 4.75 20.5417C4.75 20.5402 4.75 20.5387 4.75 20.5371C4.75 20.5356 4.75 20.534 4.75 20.5325C4.75 20.531 4.75 20.5294 4.75 20.5279C4.75 20.5263 4.75 20.5248 4.75 20.5232C4.75 20.5217 4.75 20.5201 4.75 20.5186C4.75 20.517 4.75 20.5155 4.75 20.5139C4.75 20.5124 4.75 20.5108 4.75 20.5093C4.75 20.5077 4.75 20.5061 4.75 20.5046C4.75 20.503 4.75 20.5015 4.75 20.4999C4.75 20.4983 4.75 20.4968 4.75 20.4952C4.75 20.4936 4.75 20.4921 4.75 20.4905C4.75 20.4889 4.75 20.4874 4.75 20.4858C4.75 20.4842 4.75 20.4826 4.75 20.4811C4.75 20.4795 4.75 20.4779 4.75 20.4763C4.75 20.4748 4.75 20.4732 4.75 20.4716C4.75 20.47 4.75 20.4684 4.75 20.4669C4.75 20.4653 4.75 20.4637 4.75 20.4621C4.75 20.4605 4.75 20.4589 4.75 20.4573C4.75 20.4558 4.75 20.4542 4.75 20.4526C4.75 20.451 4.75 20.4494 4.75 20.4478C4.75 20.4462 4.75 20.4446 4.75 20.443C4.75 20.4414 4.75 20.4398 4.75 20.4382C4.75 20.4366 4.75 20.435 4.75 20.4334C4.75 20.4318 4.75 20.4302 4.75 20.4286H3.25ZM5.1982 23.75H7.59459V22.25H5.1982V23.75ZM5.1982 22.25C5.11874 22.25 4.98269 22.2199 4.88799 22.1517C4.84818 22.123 4.81903 22.0903 4.7978 22.0491C4.77687 22.0084 4.75 21.9331 4.75 21.8H3.25C3.25 22.524 3.56793 23.0491 4.01066 23.3683C4.41521 23.6601 4.87825 23.75 5.1982 23.75V22.25ZM8.38514 21.1143C8.38514 21.2851 8.29796 21.6107 8.1064 21.8892C7.91649 22.1653 7.73158 22.25 7.59459 22.25V23.75C8.41617 23.75 9.00153 23.2347 9.34225 22.7393C9.68131 22.2464 9.88514 21.6292 9.88514 21.1143H8.38514ZM9.88514 21.1143C9.88514 21.0341 9.91532 20.8972 9.98374 20.8021C10.0125 20.7621 10.0451 20.733 10.086 20.7119C10.1262 20.6911 10.2009 20.6643 10.3333 20.6643V19.1643C9.60914 19.1643 9.08439 19.4834 8.76581 19.9265C8.47477 20.3313 8.38514 20.7945 8.38514 21.1143H9.88514ZM10.3333 20.6643C10.3352 20.6643 10.3371 20.6643 10.3389 20.6643C10.3408 20.6643 10.3427 20.6643 10.3445 20.6643C10.3464 20.6643 10.3483 20.6643 10.3501 20.6643C10.352 20.6643 10.3539 20.6643 10.3557 20.6643C10.3576 20.6643 10.3595 20.6643 10.3613 20.6643C10.3632 20.6643 10.365 20.6643 10.3669 20.6643C10.3687 20.6643 10.3706 20.6643 10.3724 20.6643C10.3743 20.6643 10.3761 20.6643 10.378 20.6643C10.3798 20.6643 10.3817 20.6643 10.3835 20.6643C10.3854 20.6643 10.3872 20.6643 10.3891 20.6643C10.3909 20.6643 10.3928 20.6643 10.3946 20.6643C10.3964 20.6643 10.3983 20.6643 10.4001 20.6643C10.4019 20.6643 10.4038 20.6643 10.4056 20.6643C10.4075 20.6643 10.4093 20.6643 10.4111 20.6643C10.413 20.6643 10.4148 20.6643 10.4166 20.6643C10.4184 20.6643 10.4203 20.6643 10.4221 20.6643C10.4239 20.6643 10.4257 20.6643 10.4276 20.6643C10.4294 20.6643 10.4312 20.6643 10.433 20.6643C10.4349 20.6643 10.4367 20.6643 10.4385 20.6643C10.4403 20.6643 10.4421 20.6643 10.4439 20.6643C10.4458 20.6643 10.4476 20.6643 10.4494 20.6643C10.4512 20.6643 10.453 20.6643 10.4548 20.6643C10.4566 20.6643 10.4584 20.6643 10.4602 20.6643C10.462 20.6643 10.4638 20.6643 10.4656 20.6643C10.4674 20.6643 10.4692 20.6643 10.471 20.6643C10.4728 20.6643 10.4746 20.6643 10.4764 20.6643C10.4782 20.6643 10.48 20.6643 10.4818 20.6643C10.4836 20.6643 10.4854 20.6643 10.4872 20.6643C10.489 20.6643 10.4908 20.6643 10.4926 20.6643C10.4944 20.6643 10.4962 20.6643 10.4979 20.6643C10.4997 20.6643 10.5015 20.6643 10.5033 20.6643C10.5051 20.6643 10.5069 20.6643 10.5086 20.6643C10.5104 20.6643 10.5122 20.6643 10.514 20.6643C10.5158 20.6643 10.5175 20.6643 10.5193 20.6643C10.5211 20.6643 10.5229 20.6643 10.5246 20.6643C10.5264 20.6643 10.5282 20.6643 10.5299 20.6643C10.5317 20.6643 10.5335 20.6643 10.5352 20.6643C10.537 20.6643 10.5388 20.6643 10.5405 20.6643C10.5423 20.6643 10.544 20.6643 10.5458 20.6643C10.5476 20.6643 10.5493 20.6643 10.5511 20.6643C10.5528 20.6643 10.5546 20.6643 10.5564 20.6643C10.5581 20.6643 10.5599 20.6643 10.5616 20.6643C10.5634 20.6643 10.5651 20.6643 10.5669 20.6643C10.5686 20.6643 10.5704 20.6643 10.5721 20.6643C10.5738 20.6643 10.5756 20.6643 10.5773 20.6643C10.5791 20.6643 10.5808 20.6643 10.5826 20.6643C10.5843 20.6643 10.586 20.6643 10.5878 20.6643C10.5895 20.6643 10.5912 20.6643 10.593 20.6643C10.5947 20.6643 10.5964 20.6643 10.5982 20.6643C10.5999 20.6643 10.6016 20.6643 10.6034 20.6643C10.6051 20.6643 10.6068 20.6643 10.6085 20.6643C10.6103 20.6643 10.612 20.6643 10.6137 20.6643C10.6154 20.6643 10.6171 20.6643 10.6189 20.6643C10.6206 20.6643 10.6223 20.6643 10.624 20.6643C10.6257 20.6643 10.6275 20.6643 10.6292 20.6643C10.6309 20.6643 10.6326 20.6643 10.6343 20.6643C10.636 20.6643 10.6377 20.6643 10.6394 20.6643C10.6411 20.6643 10.6428 20.6643 10.6445 20.6643C10.6463 20.6643 10.648 20.6643 10.6497 20.6643C10.6514 20.6643 10.6531 20.6643 10.6548 20.6643C10.6565 20.6643 10.6582 20.6643 10.6598 20.6643C10.6615 20.6643 10.6632 20.6643 10.6649 20.6643C10.6666 20.6643 10.6683 20.6643 10.67 20.6643C10.6717 20.6643 10.6734 20.6643 10.6751 20.6643C10.6768 20.6643 10.6784 20.6643 10.6801 20.6643C10.6818 20.6643 10.6835 20.6643 10.6852 20.6643C10.6869 20.6643 10.6885 20.6643 10.6902 20.6643C10.6919 20.6643 10.6936 20.6643 10.6953 20.6643C10.6969 20.6643 10.6986 20.6643 10.7003 20.6643C10.7019 20.6643 10.7036 20.6643 10.7053 20.6643C10.707 20.6643 10.7086 20.6643 10.7103 20.6643C10.712 20.6643 10.7136 20.6643 10.7153 20.6643C10.717 20.6643 10.7186 20.6643 10.7203 20.6643C10.7219 20.6643 10.7236 20.6643 10.7253 20.6643C10.7269 20.6643 10.7286 20.6643 10.7302 20.6643C10.7319 20.6643 10.7335 20.6643 10.7352 20.6643C10.7368 20.6643 10.7385 20.6643 10.7401 20.6643C10.7418 20.6643 10.7434 20.6643 10.7451 20.6643C10.7467 20.6643 10.7484 20.6643 10.75 20.6643C10.7517 20.6643 10.7533 20.6643 10.7549 20.6643C10.7566 20.6643 10.7582 20.6643 10.7599 20.6643C10.7615 20.6643 10.7631 20.6643 10.7648 20.6643C10.7664 20.6643 10.768 20.6643 10.7697 20.6643C10.7713 20.6643 10.7729 20.6643 10.7746 20.6643C10.7762 20.6643 10.7778 20.6643 10.7794 20.6643C10.7811 20.6643 10.7827 20.6643 10.7843 20.6643C10.7859 20.6643 10.7876 20.6643 10.7892 20.6643C10.7908 20.6643 10.7924 20.6643 10.794 20.6643C10.7957 20.6643 10.7973 20.6643 10.7989 20.6643C10.8005 20.6643 10.8021 20.6643 10.8037 20.6643C10.8053 20.6643 10.807 20.6643 10.8086 20.6643C10.8102 20.6643 10.8118 20.6643 10.8134 20.6643C10.815 20.6643 10.8166 20.6643 10.8182 20.6643C10.8198 20.6643 10.8214 20.6643 10.823 20.6643C10.8246 20.6643 10.8262 20.6643 10.8278 20.6643C10.8294 20.6643 10.831 20.6643 10.8326 20.6643C10.8342 20.6643 10.8358 20.6643 10.8374 20.6643C10.8389 20.6643 10.8405 20.6643 10.8421 20.6643C10.8437 20.6643 10.8453 20.6643 10.8469 20.6643C10.8485 20.6643 10.8501 20.6643 10.8516 20.6643C10.8532 20.6643 10.8548 20.6643 10.8564 20.6643C10.858 20.6643 10.8595 20.6643 10.8611 20.6643C10.8627 20.6643 10.8643 20.6643 10.8658 20.6643C10.8674 20.6643 10.869 20.6643 10.8706 20.6643C10.8721 20.6643 10.8737 20.6643 10.8753 20.6643C10.8768 20.6643 10.8784 20.6643 10.88 20.6643C10.8815 20.6643 10.8831 20.6643 10.8847 20.6643C10.8862 20.6643 10.8878 20.6643 10.8893 20.6643C10.8909 20.6643 10.8924 20.6643 10.894 20.6643C10.8956 20.6643 10.8971 20.6643 10.8987 20.6643C10.9002 20.6643 10.9018 20.6643 10.9033 20.6643C10.9049 20.6643 10.9064 20.6643 10.908 20.6643C10.9095 20.6643 10.9111 20.6643 10.9126 20.6643C10.9142 20.6643 10.9157 20.6643 10.9172 20.6643C10.9188 20.6643 10.9203 20.6643 10.9219 20.6643C10.9234 20.6643 10.9249 20.6643 10.9265 20.6643C10.928 20.6643 10.9295 20.6643 10.9311 20.6643C10.9326 20.6643 10.9341 20.6643 10.9357 20.6643C10.9372 20.6643 10.9387 20.6643 10.9402 20.6643C10.9418 20.6643 10.9433 20.6643 10.9448 20.6643C10.9463 20.6643 10.9479 20.6643 10.9494 20.6643C10.9509 20.6643 10.9524 20.6643 10.9539 20.6643C10.9555 20.6643 10.957 20.6643 10.9585 20.6643C10.96 20.6643 10.9615 20.6643 10.963 20.6643C10.9645 20.6643 10.9661 20.6643 10.9676 20.6643C10.9691 20.6643 10.9706 20.6643 10.9721 20.6643C10.9736 20.6643 10.9751 20.6643 10.9766 20.6643C10.9781 20.6643 10.9796 20.6643 10.9811 20.6643C10.9826 20.6643 10.9841 20.6643 10.9856 20.6643C10.9871 20.6643 10.9886 20.6643 10.9901 20.6643C10.9916 20.6643 10.9931 20.6643 10.9946 20.6643C10.9961 20.6643 10.9976 20.6643 10.999 20.6643C11.0005 20.6643 11.002 20.6643 11.0035 20.6643C11.005 20.6643 11.0065 20.6643 11.008 20.6643C11.0094 20.6643 11.0109 20.6643 11.0124 20.6643C11.0139 20.6643 11.0154 20.6643 11.0168 20.6643C11.0183 20.6643 11.0198 20.6643 11.0213 20.6643C11.0227 20.6643 11.0242 20.6643 11.0257 20.6643C11.0271 20.6643 11.0286 20.6643 11.0301 20.6643C11.0316 20.6643 11.033 20.6643 11.0345 20.6643C11.0359 20.6643 11.0374 20.6643 11.0389 20.6643C11.0403 20.6643 11.0418 20.6643 11.0433 20.6643C11.0447 20.6643 11.0462 20.6643 11.0476 20.6643C11.0491 20.6643 11.0505 20.6643 11.052 20.6643C11.0534 20.6643 11.0549 20.6643 11.0563 20.6643C11.0578 20.6643 11.0592 20.6643 11.0607 20.6643C11.0621 20.6643 11.0636 20.6643 11.065 20.6643C11.0665 20.6643 11.0679 20.6643 11.0694 20.6643C11.0708 20.6643 11.0722 20.6643 11.0737 20.6643C11.0751 20.6643 11.0766 20.6643 11.078 20.6643C11.0794 20.6643 11.0809 20.6643 11.0823 20.6643C11.0837 20.6643 11.0852 20.6643 11.0866 20.6643C11.088 20.6643 11.0894 20.6643 11.0909 20.6643C11.0923 20.6643 11.0937 20.6643 11.0951 20.6643C11.0966 20.6643 11.098 20.6643 11.0994 20.6643C11.1008 20.6643 11.1023 20.6643 11.1037 20.6643C11.1051 20.6643 11.1065 20.6643 11.1079 20.6643C11.1093 20.6643 11.1107 20.6643 11.1122 20.6643C11.1136 20.6643 11.115 20.6643 11.1164 20.6643C11.1178 20.6643 11.1192 20.6643 11.1206 20.6643C11.122 20.6643 11.1234 20.6643 11.1248 20.6643C11.1262 20.6643 11.1276 20.6643 11.129 20.6643C11.1304 20.6643 11.1318 20.6643 11.1332 20.6643C11.1346 20.6643 11.136 20.6643 11.1374 20.6643C11.1388 20.6643 11.1402 20.6643 11.1416 20.6643C11.143 20.6643 11.1444 20.6643 11.1458 20.6643C11.1471 20.6643 11.1485 20.6643 11.1499 20.6643C11.1513 20.6643 11.1527 20.6643 11.1541 20.6643C11.1555 20.6643 11.1568 20.6643 11.1582 20.6643C11.1596 20.6643 11.161 20.6643 11.1623 20.6643C11.1637 20.6643 11.1651 20.6643 11.1665 20.6643C11.1678 20.6643 11.1692 20.6643 11.1706 20.6643C11.172 20.6643 11.1733 20.6643 11.1747 20.6643C11.1761 20.6643 11.1774 20.6643 11.1788 20.6643C11.1802 20.6643 11.1815 20.6643 11.1829 20.6643C11.1842 20.6643 11.1856 20.6643 11.187 20.6643C11.1883 20.6643 11.1897 20.6643 11.191 20.6643C11.1924 20.6643 11.1937 20.6643 11.1951 20.6643C11.1964 20.6643 11.1978 20.6643 11.1992 20.6643C11.2005 20.6643 11.2018 20.6643 11.2032 20.6643C11.2045 20.6643 11.2059 20.6643 11.2072 20.6643C11.2086 20.6643 11.2099 20.6643 11.2113 20.6643C11.2126 20.6643 11.2139 20.6643 11.2153 20.6643C11.2166 20.6643 11.218 20.6643 11.2193 20.6643C11.2206 20.6643 11.222 20.6643 11.2233 20.6643C11.2246 20.6643 11.2259 20.6643 11.2273 20.6643C11.2286 20.6643 11.2299 20.6643 11.2313 20.6643C11.2326 20.6643 11.2339 20.6643 11.2352 20.6643C11.2366 20.6643 11.2379 20.6643 11.2392 20.6643C11.2405 20.6643 11.2418 20.6643 11.2432 20.6643C11.2445 20.6643 11.2458 20.6643 11.2471 20.6643C11.2484 20.6643 11.2497 20.6643 11.251 20.6643C11.2523 20.6643 11.2537 20.6643 11.255 20.6643C11.2563 20.6643 11.2576 20.6643 11.2589 20.6643C11.2602 20.6643 11.2615 20.6643 11.2628 20.6643C11.2641 20.6643 11.2654 20.6643 11.2667 20.6643C11.268 20.6643 11.2693 20.6643 11.2706 20.6643C11.2719 20.6643 11.2732 20.6643 11.2745 20.6643C11.2758 20.6643 11.2771 20.6643 11.2784 20.6643C11.2796 20.6643 11.2809 20.6643 11.2822 20.6643C11.2835 20.6643 11.2848 20.6643 11.2861 20.6643C11.2874 20.6643 11.2886 20.6643 11.2899 20.6643C11.2912 20.6643 11.2925 20.6643 11.2938 20.6643C11.295 20.6643 11.2963 20.6643 11.2976 20.6643C11.2989 20.6643 11.3001 20.6643 11.3014 20.6643C11.3027 20.6643 11.304 20.6643 11.3052 20.6643C11.3065 20.6643 11.3078 20.6643 11.309 20.6643C11.3103 20.6643 11.3116 20.6643 11.3128 20.6643C11.3141 20.6643 11.3154 20.6643 11.3166 20.6643C11.3179 20.6643 11.3191 20.6643 11.3204 20.6643C11.3217 20.6643 11.3229 20.6643 11.3242 20.6643C11.3254 20.6643 11.3267 20.6643 11.3279 20.6643C11.3292 20.6643 11.3304 20.6643 11.3317 20.6643C11.3329 20.6643 11.3342 20.6643 11.3354 20.6643C11.3367 20.6643 11.3379 20.6643 11.3391 20.6643C11.3404 20.6643 11.3416 20.6643 11.3429 20.6643C11.3441 20.6643 11.3453 20.6643 11.3466 20.6643C11.3478 20.6643 11.3491 20.6643 11.3503 20.6643C11.3515 20.6643 11.3528 20.6643 11.354 20.6643C11.3552 20.6643 11.3564 20.6643 11.3577 20.6643C11.3589 20.6643 11.3601 20.6643 11.3614 20.6643C11.3626 20.6643 11.3638 20.6643 11.365 20.6643C11.3662 20.6643 11.3675 20.6643 11.3687 20.6643C11.3699 20.6643 11.3711 20.6643 11.3723 20.6643C11.3736 20.6643 11.3748 20.6643 11.376 20.6643C11.3772 20.6643 11.3784 20.6643 11.3796 20.6643C11.3808 20.6643 11.382 20.6643 11.3832 20.6643C11.3844 20.6643 11.3857 20.6643 11.3869 20.6643C11.3881 20.6643 11.3893 20.6643 11.3905 20.6643C11.3917 20.6643 11.3929 20.6643 11.3941 20.6643C11.3953 20.6643 11.3965 20.6643 11.3977 20.6643C11.3988 20.6643 11.4 20.6643 11.4012 20.6643C11.4024 20.6643 11.4036 20.6643 11.4048 20.6643C11.406 20.6643 11.4072 20.6643 11.4084 20.6643C11.4095 20.6643 11.4107 20.6643 11.4119 20.6643C11.4131 20.6643 11.4143 20.6643 11.4155 20.6643C11.4166 20.6643 11.4178 20.6643 11.419 20.6643C11.4202 20.6643 11.4213 20.6643 11.4225 20.6643C11.4237 20.6643 11.4249 20.6643 11.426 20.6643C11.4272 20.6643 11.4284 20.6643 11.4295 20.6643C11.4307 20.6643 11.4319 20.6643 11.433 20.6643C11.4342 20.6643 11.4354 20.6643 11.4365 20.6643C11.4377 20.6643 11.4389 20.6643 11.44 20.6643C11.4412 20.6643 11.4423 20.6643 11.4435 20.6643C11.4446 20.6643 11.4458 20.6643 11.447 20.6643C11.4481 20.6643 11.4493 20.6643 11.4504 20.6643C11.4516 20.6643 11.4527 20.6643 11.4539 20.6643C11.455 20.6643 11.4561 20.6643 11.4573 20.6643C11.4584 20.6643 11.4596 20.6643 11.4607 20.6643C11.4619 20.6643 11.463 20.6643 11.4641 20.6643C11.4653 20.6643 11.4664 20.6643 11.4675 20.6643C11.4687 20.6643 11.4698 20.6643 11.4709 20.6643C11.4721 20.6643 11.4732 20.6643 11.4743 20.6643C11.4755 20.6643 11.4766 20.6643 11.4777 20.6643C11.4788 20.6643 11.48 20.6643 11.4811 20.6643C11.4822 20.6643 11.4833 20.6643 11.4845 20.6643C11.4856 20.6643 11.4867 20.6643 11.4878 20.6643C11.4889 20.6643 11.49 20.6643 11.4912 20.6643C11.4923 20.6643 11.4934 20.6643 11.4945 20.6643C11.4956 20.6643 11.4967 20.6643 11.4978 20.6643C11.4989 20.6643 11.5 20.6643 11.5011 20.6643C11.5023 20.6643 11.5034 20.6643 11.5045 20.6643C11.5056 20.6643 11.5067 20.6643 11.5078 20.6643C11.5089 20.6643 11.51 20.6643 11.5111 20.6643C11.5121 20.6643 11.5132 20.6643 11.5143 20.6643C11.5154 20.6643 11.5165 20.6643 11.5176 20.6643C11.5187 20.6643 11.5198 20.6643 11.5209 20.6643C11.522 20.6643 11.523 20.6643 11.5241 20.6643C11.5252 20.6643 11.5263 20.6643 11.5274 20.6643C11.5285 20.6643 11.5295 20.6643 11.5306 20.6643C11.5317 20.6643 11.5328 20.6643 11.5338 20.6643C11.5349 20.6643 11.536 20.6643 11.5371 20.6643C11.5381 20.6643 11.5392 20.6643 11.5403 20.6643C11.5413 20.6643 11.5424 20.6643 11.5435 20.6643C11.5445 20.6643 11.5456 20.6643 11.5467 20.6643C11.5477 20.6643 11.5488 20.6643 11.5499 20.6643C11.5509 20.6643 11.552 20.6643 11.553 20.6643C11.5541 20.6643 11.5551 20.6643 11.5562 20.6643C11.5572 20.6643 11.5583 20.6643 11.5594 20.6643C11.5604 20.6643 11.5615 20.6643 11.5625 20.6643C11.5635 20.6643 11.5646 20.6643 11.5656 20.6643C11.5667 20.6643 11.5677 20.6643 11.5688 20.6643C11.5698 20.6643 11.5708 20.6643 11.5719 20.6643C11.5729 20.6643 11.574 20.6643 11.575 20.6643C11.576 20.6643 11.5771 20.6643 11.5781 20.6643C11.5791 20.6643 11.5802 20.6643 11.5812 20.6643C11.5822 20.6643 11.5833 20.6643 11.5843 20.6643C11.5853 20.6643 11.5863 20.6643 11.5874 20.6643C11.5884 20.6643 11.5894 20.6643 11.5904 20.6643C11.5914 20.6643 11.5925 20.6643 11.5935 20.6643C11.5945 20.6643 11.5955 20.6643 11.5965 20.6643C11.5975 20.6643 11.5986 20.6643 11.5996 20.6643C11.6006 20.6643 11.6016 20.6643 11.6026 20.6643C11.6036 20.6643 11.6046 20.6643 11.6056 20.6643C11.6066 20.6643 11.6076 20.6643 11.6086 20.6643C11.6096 20.6643 11.6106 20.6643 11.6116 20.6643C11.6126 20.6643 11.6136 20.6643 11.6146 20.6643C11.6156 20.6643 11.6166 20.6643 11.6176 20.6643C11.6186 20.6643 11.6196 20.6643 11.6206 20.6643C11.6216 20.6643 11.6226 20.6643 11.6236 20.6643C11.6245 20.6643 11.6255 20.6643 11.6265 20.6643C11.6275 20.6643 11.6285 20.6643 11.6295 20.6643C11.6304 20.6643 11.6314 20.6643 11.6324 20.6643C11.6334 20.6643 11.6344 20.6643 11.6353 20.6643C11.6363 20.6643 11.6373 20.6643 11.6382 20.6643C11.6392 20.6643 11.6402 20.6643 11.6412 20.6643C11.6421 20.6643 11.6431 20.6643 11.6441 20.6643C11.645 20.6643 11.646 20.6643 11.647 20.6643C11.6479 20.6643 11.6489 20.6643 11.6498 20.6643C11.6508 20.6643 11.6518 20.6643 11.6527 20.6643C11.6537 20.6643 11.6546 20.6643 11.6556 20.6643C11.6565 20.6643 11.6575 20.6643 11.6584 20.6643C11.6594 20.6643 11.6603 20.6643 11.6613 20.6643C11.6622 20.6643 11.6632 20.6643 11.6641 20.6643C11.6651 20.6643 11.666 20.6643 11.667 20.6643C11.6679 20.6643 11.6688 20.6643 11.6698 20.6643C11.6707 20.6643 11.6717 20.6643 11.6726 20.6643C11.6735 20.6643 11.6745 20.6643 11.6754 20.6643C11.6763 20.6643 11.6773 20.6643 11.6782 20.6643C11.6791 20.6643 11.68 20.6643 11.681 20.6643C11.6819 20.6643 11.6828 20.6643 11.6837 20.6643C11.6847 20.6643 11.6856 20.6643 11.6865 20.6643C11.6874 20.6643 11.6884 20.6643 11.6893 20.6643C11.6902 20.6643 11.6911 20.6643 11.692 20.6643C11.6929 20.6643 11.6938 20.6643 11.6948 20.6643C11.6957 20.6643 11.6966 20.6643 11.6975 20.6643C11.6984 20.6643 11.6993 20.6643 11.7002 20.6643C11.7011 20.6643 11.702 20.6643 11.7029 20.6643C11.7038 20.6643 11.7047 20.6643 11.7056 20.6643C11.7065 20.6643 11.7074 20.6643 11.7083 20.6643C11.7092 20.6643 11.7101 20.6643 11.711 20.6643C11.7119 20.6643 11.7128 20.6643 11.7137 20.6643C11.7146 20.6643 11.7155 20.6643 11.7163 20.6643C11.7172 20.6643 11.7181 20.6643 11.719 20.6643C11.7199 20.6643 11.7208 20.6643 11.7216 20.6643C11.7225 20.6643 11.7234 20.6643 11.7243 20.6643C11.7252 20.6643 11.726 20.6643 11.7269 20.6643C11.7278 20.6643 11.7287 20.6643 11.7295 20.6643C11.7304 20.6643 11.7313 20.6643 11.7321 20.6643C11.733 20.6643 11.7339 20.6643 11.7347 20.6643C11.7356 20.6643 11.7365 20.6643 11.7373 20.6643C11.7382 20.6643 11.7391 20.6643 11.7399 20.6643C11.7408 20.6643 11.7416 20.6643 11.7425 20.6643C11.7434 20.6643 11.7442 20.6643 11.7451 20.6643C11.7459 20.6643 11.7468 20.6643 11.7476 20.6643C11.7485 20.6643 11.7493 20.6643 11.7502 20.6643C11.751 20.6643 11.7519 20.6643 11.7527 20.6643C11.7536 20.6643 11.7544 20.6643 11.7552 20.6643C11.7561 20.6643 11.7569 20.6643 11.7578 20.6643C11.7586 20.6643 11.7594 20.6643 11.7603 20.6643C11.7611 20.6643 11.7619 20.6643 11.7628 20.6643C11.7636 20.6643 11.7644 20.6643 11.7653 20.6643C11.7661 20.6643 11.7669 20.6643 11.7677 20.6643C11.7686 20.6643 11.7694 20.6643 11.7702 20.6643C11.771 20.6643 11.7719 20.6643 11.7727 20.6643C11.7735 20.6643 11.7743 20.6643 11.7751 20.6643C11.776 20.6643 11.7768 20.6643 11.7776 20.6643C11.7784 20.6643 11.7792 20.6643 11.78 20.6643C11.7808 20.6643 11.7816 20.6643 11.7825 20.6643C11.7833 20.6643 11.7841 20.6643 11.7849 20.6643C11.7857 20.6643 11.7865 20.6643 11.7873 20.6643C11.7881 20.6643 11.7889 20.6643 11.7897 20.6643C11.7905 20.6643 11.7913 20.6643 11.7921 20.6643C11.7929 20.6643 11.7937 20.6643 11.7945 20.6643C11.7952 20.6643 11.796 20.6643 11.7968 20.6643C11.7976 20.6643 11.7984 20.6643 11.7992 20.6643C11.8 20.6643 11.8008 20.6643 11.8015 20.6643C11.8023 20.6643 11.8031 20.6643 11.8039 20.6643C11.8047 20.6643 11.8055 20.6643 11.8062 20.6643C11.807 20.6643 11.8078 20.6643 11.8086 20.6643C11.8093 20.6643 11.8101 20.6643 11.8109 20.6643C11.8116 20.6643 11.8124 20.6643 11.8132 20.6643C11.814 20.6643 11.8147 20.6643 11.8155 20.6643C11.8162 20.6643 11.817 20.6643 11.8178 20.6643C11.8185 20.6643 11.8193 20.6643 11.8201 20.6643C11.8208 20.6643 11.8216 20.6643 11.8223 20.6643C11.8231 20.6643 11.8238 20.6643 11.8246 20.6643C11.8253 20.6643 11.8261 20.6643 11.8268 20.6643C11.8276 20.6643 11.8283 20.6643 11.8291 20.6643C11.8298 20.6643 11.8306 20.6643 11.8313 20.6643C11.8321 20.6643 11.8328 20.6643 11.8336 20.6643C11.8343 20.6643 11.835 20.6643 11.8358 20.6643C11.8365 20.6643 11.8372 20.6643 11.838 20.6643C11.8387 20.6643 11.8394 20.6643 11.8402 20.6643C11.8409 20.6643 11.8416 20.6643 11.8424 20.6643C11.8431 20.6643 11.8438 20.6643 11.8445 20.6643C11.8453 20.6643 11.846 20.6643 11.8467 20.6643C11.8474 20.6643 11.8482 20.6643 11.8489 20.6643C11.8496 20.6643 11.8503 20.6643 11.851 20.6643C11.8517 20.6643 11.8525 20.6643 11.8532 20.6643C11.8539 20.6643 11.8546 20.6643 11.8553 20.6643C11.856 20.6643 11.8567 20.6643 11.8574 20.6643C11.8581 20.6643 11.8588 20.6643 11.8595 20.6643C11.8603 20.6643 11.861 20.6643 11.8617 20.6643C11.8624 20.6643 11.8631 20.6643 11.8638 20.6643C11.8644 20.6643 11.8651 20.6643 11.8658 20.6643C11.8665 20.6643 11.8672 20.6643 11.8679 20.6643C11.8686 20.6643 11.8693 20.6643 11.87 20.6643C11.8707 20.6643 11.8714 20.6643 11.872 20.6643C11.8727 20.6643 11.8734 20.6643 11.8741 20.6643C11.8748 20.6643 11.8755 20.6643 11.8761 20.6643C11.8768 20.6643 11.8775 20.6643 11.8782 20.6643C11.8788 20.6643 11.8795 20.6643 11.8802 20.6643C11.8809 20.6643 11.8815 20.6643 11.8822 20.6643C11.8829 20.6643 11.8835 20.6643 11.8842 20.6643C11.8849 20.6643 11.8855 20.6643 11.8862 20.6643C11.8869 20.6643 11.8875 20.6643 11.8882 20.6643C11.8889 20.6643 11.8895 20.6643 11.8902 20.6643C11.8908 20.6643 11.8915 20.6643 11.8921 20.6643C11.8928 20.6643 11.8935 20.6643 11.8941 20.6643C11.8948 20.6643 11.8954 20.6643 11.8961 20.6643C11.8967 20.6643 11.8973 20.6643 11.898 20.6643C11.8986 20.6643 11.8993 20.6643 11.8999 20.6643C11.9006 20.6643 11.9012 20.6643 11.9018 20.6643C11.9025 20.6643 11.9031 20.6643 11.9038 20.6643C11.9044 20.6643 11.905 20.6643 11.9057 20.6643C11.9063 20.6643 11.9069 20.6643 11.9076 20.6643C11.9082 20.6643 11.9088 20.6643 11.9094 20.6643C11.9101 20.6643 11.9107 20.6643 11.9113 20.6643C11.9119 20.6643 11.9126 20.6643 11.9132 20.6643C11.9138 20.6643 11.9144 20.6643 11.915 20.6643C11.9157 20.6643 11.9163 20.6643 11.9169 20.6643C11.9175 20.6643 11.9181 20.6643 11.9187 20.6643C11.9193 20.6643 11.9199 20.6643 11.9206 20.6643C11.9212 20.6643 11.9218 20.6643 11.9224 20.6643C11.923 20.6643 11.9236 20.6643 11.9242 20.6643C11.9248 20.6643 11.9254 20.6643 11.926 20.6643C11.9266 20.6643 11.9272 20.6643 11.9278 20.6643C11.9284 20.6643 11.929 20.6643 11.9296 20.6643C11.9302 20.6643 11.9307 20.6643 11.9313 20.6643C11.9319 20.6643 11.9325 20.6643 11.9331 20.6643C11.9337 20.6643 11.9343 20.6643 11.9349 20.6643C11.9354 20.6643 11.936 20.6643 11.9366 20.6643C11.9372 20.6643 11.9378 20.6643 11.9383 20.6643C11.9389 20.6643 11.9395 20.6643 11.9401 20.6643C11.9406 20.6643 11.9412 20.6643 11.9418 20.6643C11.9423 20.6643 11.9429 20.6643 11.9435 20.6643C11.9441 20.6643 11.9446 20.6643 11.9452 20.6643C11.9457 20.6643 11.9463 20.6643 11.9469 20.6643C11.9474 20.6643 11.948 20.6643 11.9486 20.6643C11.9491 20.6643 11.9497 20.6643 11.9502 20.6643C11.9508 20.6643 11.9513 20.6643 11.9519 20.6643C11.9524 20.6643 11.953 20.6643 11.9535 20.6643C11.9541 20.6643 11.9546 20.6643 11.9552 20.6643C11.9557 20.6643 11.9563 20.6643 11.9568 20.6643C11.9574 20.6643 11.9579 20.6643 11.9584 20.6643C11.959 20.6643 11.9595 20.6643 11.9601 20.6643C11.9606 20.6643 11.9611 20.6643 11.9617 20.6643C11.9622 20.6643 11.9627 20.6643 11.9633 20.6643C11.9638 20.6643 11.9643 20.6643 11.9649 20.6643C11.9654 20.6643 11.9659 20.6643 11.9664 20.6643C11.967 20.6643 11.9675 20.6643 11.968 20.6643C11.9685 20.6643 11.969 20.6643 11.9696 20.6643C11.9701 20.6643 11.9706 20.6643 11.9711 20.6643C11.9716 20.6643 11.9721 20.6643 11.9726 20.6643C11.9732 20.6643 11.9737 20.6643 11.9742 20.6643C11.9747 20.6643 11.9752 20.6643 11.9757 20.6643C11.9762 20.6643 11.9767 20.6643 11.9772 20.6643C11.9777 20.6643 11.9782 20.6643 11.9787 20.6643C11.9792 20.6643 11.9797 20.6643 11.9802 20.6643C11.9807 20.6643 11.9812 20.6643 11.9817 20.6643C11.9822 20.6643 11.9827 20.6643 11.9832 20.6643C11.9837 20.6643 11.9842 20.6643 11.9846 20.6643C11.9851 20.6643 11.9856 20.6643 11.9861 20.6643C11.9866 20.6643 11.9871 20.6643 11.9875 20.6643C11.988 20.6643 11.9885 20.6643 11.989 20.6643C11.9895 20.6643 11.9899 20.6643 11.9904 20.6643C11.9909 20.6643 11.9914 20.6643 11.9918 20.6643C11.9923 20.6643 11.9928 20.6643 11.9932 20.6643C11.9937 20.6643 11.9942 20.6643 11.9946 20.6643C11.9951 20.6643 11.9956 20.6643 11.996 20.6643C11.9965 20.6643 11.997 20.6643 11.9974 20.6643C11.9979 20.6643 11.9983 20.6643 11.9988 20.6643C11.9993 20.6643 11.9997 20.6643 12.0002 20.6643C12.0006 20.6643 12.0011 20.6643 12.0015 20.6643C12.002 20.6643 12.0024 20.6643 12.0029 20.6643C12.0033 20.6643 12.0037 20.6643 12.0042 20.6643C12.0046 20.6643 12.0051 20.6643 12.0055 20.6643C12.006 20.6643 12.0064 20.6643 12.0068 20.6643C12.0073 20.6643 12.0077 20.6643 12.0081 20.6643C12.0086 20.6643 12.009 20.6643 12.0094 20.6643C12.0099 20.6643 12.0103 20.6643 12.0107 20.6643C12.0112 20.6643 12.0116 20.6643 12.012 20.6643C12.0124 20.6643 12.0129 20.6643 12.0133 20.6643C12.0137 20.6643 12.0141 20.6643 12.0145 20.6643C12.015 20.6643 12.0154 20.6643 12.0158 20.6643C12.0162 20.6643 12.0166 20.6643 12.017 20.6643C12.0174 20.6643 12.0179 20.6643 12.0183 20.6643C12.0187 20.6643 12.0191 20.6643 12.0195 20.6643C12.0199 20.6643 12.0203 20.6643 12.0207 20.6643C12.0211 20.6643 12.0215 20.6643 12.0219 20.6643C12.0223 20.6643 12.0227 20.6643 12.0231 20.6643C12.0235 20.6643 12.0239 20.6643 12.0243 20.6643C12.0247 20.6643 12.0251 20.6643 12.0255 20.6643C12.0259 20.6643 12.0262 20.6643 12.0266 20.6643C12.027 20.6643 12.0274 20.6643 12.0278 20.6643C12.0282 20.6643 12.0286 20.6643 12.0289 20.6643C12.0293 20.6643 12.0297 20.6643 12.0301 20.6643C12.0305 20.6643 12.0308 20.6643 12.0312 20.6643C12.0316 20.6643 12.032 20.6643 12.0323 20.6643C12.0327 20.6643 12.0331 20.6643 12.0334 20.6643C12.0338 20.6643 12.0342 20.6643 12.0345 20.6643C12.0349 20.6643 12.0353 20.6643 12.0356 20.6643C12.036 20.6643 12.0364 20.6643 12.0367 20.6643C12.0371 20.6643 12.0374 20.6643 12.0378 20.6643C12.0382 20.6643 12.0385 20.6643 12.0389 20.6643C12.0392 20.6643 12.0396 20.6643 12.0399 20.6643C12.0403 20.6643 12.0406 20.6643 12.041 20.6643C12.0413 20.6643 12.0416 20.6643 12.042 20.6643C12.0423 20.6643 12.0427 20.6643 12.043 20.6643C12.0434 20.6643 12.0437 20.6643 12.044 20.6643C12.0444 20.6643 12.0447 20.6643 12.045 20.6643V19.1643C12.0447 19.1643 12.0444 19.1643 12.044 19.1643C12.0437 19.1643 12.0434 19.1643 12.043 19.1643C12.0427 19.1643 12.0423 19.1643 12.042 19.1643C12.0416 19.1643 12.0413 19.1643 12.041 19.1643C12.0406 19.1643 12.0403 19.1643 12.0399 19.1643C12.0396 19.1643 12.0392 19.1643 12.0389 19.1643C12.0385 19.1643 12.0382 19.1643 12.0378 19.1643C12.0374 19.1643 12.0371 19.1643 12.0367 19.1643C12.0364 19.1643 12.036 19.1643 12.0356 19.1643C12.0353 19.1643 12.0349 19.1643 12.0345 19.1643C12.0342 19.1643 12.0338 19.1643 12.0334 19.1643C12.0331 19.1643 12.0327 19.1643 12.0323 19.1643C12.032 19.1643 12.0316 19.1643 12.0312 19.1643C12.0308 19.1643 12.0305 19.1643 12.0301 19.1643C12.0297 19.1643 12.0293 19.1643 12.0289 19.1643C12.0286 19.1643 12.0282 19.1643 12.0278 19.1643C12.0274 19.1643 12.027 19.1643 12.0266 19.1643C12.0262 19.1643 12.0259 19.1643 12.0255 19.1643C12.0251 19.1643 12.0247 19.1643 12.0243 19.1643C12.0239 19.1643 12.0235 19.1643 12.0231 19.1643C12.0227 19.1643 12.0223 19.1643 12.0219 19.1643C12.0215 19.1643 12.0211 19.1643 12.0207 19.1643C12.0203 19.1643 12.0199 19.1643 12.0195 19.1643C12.0191 19.1643 12.0187 19.1643 12.0183 19.1643C12.0179 19.1643 12.0174 19.1643 12.017 19.1643C12.0166 19.1643 12.0162 19.1643 12.0158 19.1643C12.0154 19.1643 12.015 19.1643 12.0145 19.1643C12.0141 19.1643 12.0137 19.1643 12.0133 19.1643C12.0129 19.1643 12.0124 19.1643 12.012 19.1643C12.0116 19.1643 12.0112 19.1643 12.0107 19.1643C12.0103 19.1643 12.0099 19.1643 12.0094 19.1643C12.009 19.1643 12.0086 19.1643 12.0081 19.1643C12.0077 19.1643 12.0073 19.1643 12.0068 19.1643C12.0064 19.1643 12.006 19.1643 12.0055 19.1643C12.0051 19.1643 12.0046 19.1643 12.0042 19.1643C12.0037 19.1643 12.0033 19.1643 12.0029 19.1643C12.0024 19.1643 12.002 19.1643 12.0015 19.1643C12.0011 19.1643 12.0006 19.1643 12.0002 19.1643C11.9997 19.1643 11.9993 19.1643 11.9988 19.1643C11.9983 19.1643 11.9979 19.1643 11.9974 19.1643C11.997 19.1643 11.9965 19.1643 11.996 19.1643C11.9956 19.1643 11.9951 19.1643 11.9946 19.1643C11.9942 19.1643 11.9937 19.1643 11.9932 19.1643C11.9928 19.1643 11.9923 19.1643 11.9918 19.1643C11.9914 19.1643 11.9909 19.1643 11.9904 19.1643C11.9899 19.1643 11.9895 19.1643 11.989 19.1643C11.9885 19.1643 11.988 19.1643 11.9875 19.1643C11.9871 19.1643 11.9866 19.1643 11.9861 19.1643C11.9856 19.1643 11.9851 19.1643 11.9846 19.1643C11.9842 19.1643 11.9837 19.1643 11.9832 19.1643C11.9827 19.1643 11.9822 19.1643 11.9817 19.1643C11.9812 19.1643 11.9807 19.1643 11.9802 19.1643C11.9797 19.1643 11.9792 19.1643 11.9787 19.1643C11.9782 19.1643 11.9777 19.1643 11.9772 19.1643C11.9767 19.1643 11.9762 19.1643 11.9757 19.1643C11.9752 19.1643 11.9747 19.1643 11.9742 19.1643C11.9737 19.1643 11.9732 19.1643 11.9726 19.1643C11.9721 19.1643 11.9716 19.1643 11.9711 19.1643C11.9706 19.1643 11.9701 19.1643 11.9696 19.1643C11.969 19.1643 11.9685 19.1643 11.968 19.1643C11.9675 19.1643 11.967 19.1643 11.9664 19.1643C11.9659 19.1643 11.9654 19.1643 11.9649 19.1643C11.9643 19.1643 11.9638 19.1643 11.9633 19.1643C11.9627 19.1643 11.9622 19.1643 11.9617 19.1643C11.9611 19.1643 11.9606 19.1643 11.9601 19.1643C11.9595 19.1643 11.959 19.1643 11.9584 19.1643C11.9579 19.1643 11.9574 19.1643 11.9568 19.1643C11.9563 19.1643 11.9557 19.1643 11.9552 19.1643C11.9546 19.1643 11.9541 19.1643 11.9535 19.1643C11.953 19.1643 11.9524 19.1643 11.9519 19.1643C11.9513 19.1643 11.9508 19.1643 11.9502 19.1643C11.9497 19.1643 11.9491 19.1643 11.9486 19.1643C11.948 19.1643 11.9474 19.1643 11.9469 19.1643C11.9463 19.1643 11.9457 19.1643 11.9452 19.1643C11.9446 19.1643 11.9441 19.1643 11.9435 19.1643C11.9429 19.1643 11.9423 19.1643 11.9418 19.1643C11.9412 19.1643 11.9406 19.1643 11.9401 19.1643C11.9395 19.1643 11.9389 19.1643 11.9383 19.1643C11.9378 19.1643 11.9372 19.1643 11.9366 19.1643C11.936 19.1643 11.9354 19.1643 11.9349 19.1643C11.9343 19.1643 11.9337 19.1643 11.9331 19.1643C11.9325 19.1643 11.9319 19.1643 11.9313 19.1643C11.9307 19.1643 11.9302 19.1643 11.9296 19.1643C11.929 19.1643 11.9284 19.1643 11.9278 19.1643C11.9272 19.1643 11.9266 19.1643 11.926 19.1643C11.9254 19.1643 11.9248 19.1643 11.9242 19.1643C11.9236 19.1643 11.923 19.1643 11.9224 19.1643C11.9218 19.1643 11.9212 19.1643 11.9206 19.1643C11.9199 19.1643 11.9193 19.1643 11.9187 19.1643C11.9181 19.1643 11.9175 19.1643 11.9169 19.1643C11.9163 19.1643 11.9157 19.1643 11.915 19.1643C11.9144 19.1643 11.9138 19.1643 11.9132 19.1643C11.9126 19.1643 11.9119 19.1643 11.9113 19.1643C11.9107 19.1643 11.9101 19.1643 11.9094 19.1643C11.9088 19.1643 11.9082 19.1643 11.9076 19.1643C11.9069 19.1643 11.9063 19.1643 11.9057 19.1643C11.905 19.1643 11.9044 19.1643 11.9038 19.1643C11.9031 19.1643 11.9025 19.1643 11.9018 19.1643C11.9012 19.1643 11.9006 19.1643 11.8999 19.1643C11.8993 19.1643 11.8986 19.1643 11.898 19.1643C11.8973 19.1643 11.8967 19.1643 11.8961 19.1643C11.8954 19.1643 11.8948 19.1643 11.8941 19.1643C11.8935 19.1643 11.8928 19.1643 11.8921 19.1643C11.8915 19.1643 11.8908 19.1643 11.8902 19.1643C11.8895 19.1643 11.8889 19.1643 11.8882 19.1643C11.8875 19.1643 11.8869 19.1643 11.8862 19.1643C11.8855 19.1643 11.8849 19.1643 11.8842 19.1643C11.8835 19.1643 11.8829 19.1643 11.8822 19.1643C11.8815 19.1643 11.8809 19.1643 11.8802 19.1643C11.8795 19.1643 11.8788 19.1643 11.8782 19.1643C11.8775 19.1643 11.8768 19.1643 11.8761 19.1643C11.8755 19.1643 11.8748 19.1643 11.8741 19.1643C11.8734 19.1643 11.8727 19.1643 11.872 19.1643C11.8714 19.1643 11.8707 19.1643 11.87 19.1643C11.8693 19.1643 11.8686 19.1643 11.8679 19.1643C11.8672 19.1643 11.8665 19.1643 11.8658 19.1643C11.8651 19.1643 11.8644 19.1643 11.8638 19.1643C11.8631 19.1643 11.8624 19.1643 11.8617 19.1643C11.861 19.1643 11.8603 19.1643 11.8595 19.1643C11.8588 19.1643 11.8581 19.1643 11.8574 19.1643C11.8567 19.1643 11.856 19.1643 11.8553 19.1643C11.8546 19.1643 11.8539 19.1643 11.8532 19.1643C11.8525 19.1643 11.8517 19.1643 11.851 19.1643C11.8503 19.1643 11.8496 19.1643 11.8489 19.1643C11.8482 19.1643 11.8474 19.1643 11.8467 19.1643C11.846 19.1643 11.8453 19.1643 11.8445 19.1643C11.8438 19.1643 11.8431 19.1643 11.8424 19.1643C11.8416 19.1643 11.8409 19.1643 11.8402 19.1643C11.8394 19.1643 11.8387 19.1643 11.838 19.1643C11.8372 19.1643 11.8365 19.1643 11.8358 19.1643C11.835 19.1643 11.8343 19.1643 11.8336 19.1643C11.8328 19.1643 11.8321 19.1643 11.8313 19.1643C11.8306 19.1643 11.8298 19.1643 11.8291 19.1643C11.8283 19.1643 11.8276 19.1643 11.8268 19.1643C11.8261 19.1643 11.8253 19.1643 11.8246 19.1643C11.8238 19.1643 11.8231 19.1643 11.8223 19.1643C11.8216 19.1643 11.8208 19.1643 11.8201 19.1643C11.8193 19.1643 11.8185 19.1643 11.8178 19.1643C11.817 19.1643 11.8162 19.1643 11.8155 19.1643C11.8147 19.1643 11.814 19.1643 11.8132 19.1643C11.8124 19.1643 11.8116 19.1643 11.8109 19.1643C11.8101 19.1643 11.8093 19.1643 11.8086 19.1643C11.8078 19.1643 11.807 19.1643 11.8062 19.1643C11.8055 19.1643 11.8047 19.1643 11.8039 19.1643C11.8031 19.1643 11.8023 19.1643 11.8015 19.1643C11.8008 19.1643 11.8 19.1643 11.7992 19.1643C11.7984 19.1643 11.7976 19.1643 11.7968 19.1643C11.796 19.1643 11.7952 19.1643 11.7945 19.1643C11.7937 19.1643 11.7929 19.1643 11.7921 19.1643C11.7913 19.1643 11.7905 19.1643 11.7897 19.1643C11.7889 19.1643 11.7881 19.1643 11.7873 19.1643C11.7865 19.1643 11.7857 19.1643 11.7849 19.1643C11.7841 19.1643 11.7833 19.1643 11.7825 19.1643C11.7816 19.1643 11.7808 19.1643 11.78 19.1643C11.7792 19.1643 11.7784 19.1643 11.7776 19.1643C11.7768 19.1643 11.776 19.1643 11.7751 19.1643C11.7743 19.1643 11.7735 19.1643 11.7727 19.1643C11.7719 19.1643 11.771 19.1643 11.7702 19.1643C11.7694 19.1643 11.7686 19.1643 11.7677 19.1643C11.7669 19.1643 11.7661 19.1643 11.7653 19.1643C11.7644 19.1643 11.7636 19.1643 11.7628 19.1643C11.7619 19.1643 11.7611 19.1643 11.7603 19.1643C11.7594 19.1643 11.7586 19.1643 11.7578 19.1643C11.7569 19.1643 11.7561 19.1643 11.7552 19.1643C11.7544 19.1643 11.7536 19.1643 11.7527 19.1643C11.7519 19.1643 11.751 19.1643 11.7502 19.1643C11.7493 19.1643 11.7485 19.1643 11.7476 19.1643C11.7468 19.1643 11.7459 19.1643 11.7451 19.1643C11.7442 19.1643 11.7434 19.1643 11.7425 19.1643C11.7416 19.1643 11.7408 19.1643 11.7399 19.1643C11.7391 19.1643 11.7382 19.1643 11.7373 19.1643C11.7365 19.1643 11.7356 19.1643 11.7347 19.1643C11.7339 19.1643 11.733 19.1643 11.7321 19.1643C11.7313 19.1643 11.7304 19.1643 11.7295 19.1643C11.7287 19.1643 11.7278 19.1643 11.7269 19.1643C11.726 19.1643 11.7252 19.1643 11.7243 19.1643C11.7234 19.1643 11.7225 19.1643 11.7216 19.1643C11.7208 19.1643 11.7199 19.1643 11.719 19.1643C11.7181 19.1643 11.7172 19.1643 11.7163 19.1643C11.7155 19.1643 11.7146 19.1643 11.7137 19.1643C11.7128 19.1643 11.7119 19.1643 11.711 19.1643C11.7101 19.1643 11.7092 19.1643 11.7083 19.1643C11.7074 19.1643 11.7065 19.1643 11.7056 19.1643C11.7047 19.1643 11.7038 19.1643 11.7029 19.1643C11.702 19.1643 11.7011 19.1643 11.7002 19.1643C11.6993 19.1643 11.6984 19.1643 11.6975 19.1643C11.6966 19.1643 11.6957 19.1643 11.6948 19.1643C11.6938 19.1643 11.6929 19.1643 11.692 19.1643C11.6911 19.1643 11.6902 19.1643 11.6893 19.1643C11.6884 19.1643 11.6874 19.1643 11.6865 19.1643C11.6856 19.1643 11.6847 19.1643 11.6837 19.1643C11.6828 19.1643 11.6819 19.1643 11.681 19.1643C11.68 19.1643 11.6791 19.1643 11.6782 19.1643C11.6773 19.1643 11.6763 19.1643 11.6754 19.1643C11.6745 19.1643 11.6735 19.1643 11.6726 19.1643C11.6717 19.1643 11.6707 19.1643 11.6698 19.1643C11.6688 19.1643 11.6679 19.1643 11.667 19.1643C11.666 19.1643 11.6651 19.1643 11.6641 19.1643C11.6632 19.1643 11.6622 19.1643 11.6613 19.1643C11.6603 19.1643 11.6594 19.1643 11.6584 19.1643C11.6575 19.1643 11.6565 19.1643 11.6556 19.1643C11.6546 19.1643 11.6537 19.1643 11.6527 19.1643C11.6518 19.1643 11.6508 19.1643 11.6498 19.1643C11.6489 19.1643 11.6479 19.1643 11.647 19.1643C11.646 19.1643 11.645 19.1643 11.6441 19.1643C11.6431 19.1643 11.6421 19.1643 11.6412 19.1643C11.6402 19.1643 11.6392 19.1643 11.6382 19.1643C11.6373 19.1643 11.6363 19.1643 11.6353 19.1643C11.6344 19.1643 11.6334 19.1643 11.6324 19.1643C11.6314 19.1643 11.6304 19.1643 11.6295 19.1643C11.6285 19.1643 11.6275 19.1643 11.6265 19.1643C11.6255 19.1643 11.6245 19.1643 11.6236 19.1643C11.6226 19.1643 11.6216 19.1643 11.6206 19.1643C11.6196 19.1643 11.6186 19.1643 11.6176 19.1643C11.6166 19.1643 11.6156 19.1643 11.6146 19.1643C11.6136 19.1643 11.6126 19.1643 11.6116 19.1643C11.6106 19.1643 11.6096 19.1643 11.6086 19.1643C11.6076 19.1643 11.6066 19.1643 11.6056 19.1643C11.6046 19.1643 11.6036 19.1643 11.6026 19.1643C11.6016 19.1643 11.6006 19.1643 11.5996 19.1643C11.5986 19.1643 11.5975 19.1643 11.5965 19.1643C11.5955 19.1643 11.5945 19.1643 11.5935 19.1643C11.5925 19.1643 11.5914 19.1643 11.5904 19.1643C11.5894 19.1643 11.5884 19.1643 11.5874 19.1643C11.5863 19.1643 11.5853 19.1643 11.5843 19.1643C11.5833 19.1643 11.5822 19.1643 11.5812 19.1643C11.5802 19.1643 11.5791 19.1643 11.5781 19.1643C11.5771 19.1643 11.576 19.1643 11.575 19.1643C11.574 19.1643 11.5729 19.1643 11.5719 19.1643C11.5708 19.1643 11.5698 19.1643 11.5688 19.1643C11.5677 19.1643 11.5667 19.1643 11.5656 19.1643C11.5646 19.1643 11.5635 19.1643 11.5625 19.1643C11.5615 19.1643 11.5604 19.1643 11.5594 19.1643C11.5583 19.1643 11.5572 19.1643 11.5562 19.1643C11.5551 19.1643 11.5541 19.1643 11.553 19.1643C11.552 19.1643 11.5509 19.1643 11.5499 19.1643C11.5488 19.1643 11.5477 19.1643 11.5467 19.1643C11.5456 19.1643 11.5445 19.1643 11.5435 19.1643C11.5424 19.1643 11.5413 19.1643 11.5403 19.1643C11.5392 19.1643 11.5381 19.1643 11.5371 19.1643C11.536 19.1643 11.5349 19.1643 11.5338 19.1643C11.5328 19.1643 11.5317 19.1643 11.5306 19.1643C11.5295 19.1643 11.5285 19.1643 11.5274 19.1643C11.5263 19.1643 11.5252 19.1643 11.5241 19.1643C11.523 19.1643 11.522 19.1643 11.5209 19.1643C11.5198 19.1643 11.5187 19.1643 11.5176 19.1643C11.5165 19.1643 11.5154 19.1643 11.5143 19.1643C11.5132 19.1643 11.5121 19.1643 11.5111 19.1643C11.51 19.1643 11.5089 19.1643 11.5078 19.1643C11.5067 19.1643 11.5056 19.1643 11.5045 19.1643C11.5034 19.1643 11.5023 19.1643 11.5011 19.1643C11.5 19.1643 11.4989 19.1643 11.4978 19.1643C11.4967 19.1643 11.4956 19.1643 11.4945 19.1643C11.4934 19.1643 11.4923 19.1643 11.4912 19.1643C11.49 19.1643 11.4889 19.1643 11.4878 19.1643C11.4867 19.1643 11.4856 19.1643 11.4845 19.1643C11.4833 19.1643 11.4822 19.1643 11.4811 19.1643C11.48 19.1643 11.4788 19.1643 11.4777 19.1643C11.4766 19.1643 11.4755 19.1643 11.4743 19.1643C11.4732 19.1643 11.4721 19.1643 11.4709 19.1643C11.4698 19.1643 11.4687 19.1643 11.4675 19.1643C11.4664 19.1643 11.4653 19.1643 11.4641 19.1643C11.463 19.1643 11.4619 19.1643 11.4607 19.1643C11.4596 19.1643 11.4584 19.1643 11.4573 19.1643C11.4561 19.1643 11.455 19.1643 11.4539 19.1643C11.4527 19.1643 11.4516 19.1643 11.4504 19.1643C11.4493 19.1643 11.4481 19.1643 11.447 19.1643C11.4458 19.1643 11.4446 19.1643 11.4435 19.1643C11.4423 19.1643 11.4412 19.1643 11.44 19.1643C11.4389 19.1643 11.4377 19.1643 11.4365 19.1643C11.4354 19.1643 11.4342 19.1643 11.433 19.1643C11.4319 19.1643 11.4307 19.1643 11.4295 19.1643C11.4284 19.1643 11.4272 19.1643 11.426 19.1643C11.4249 19.1643 11.4237 19.1643 11.4225 19.1643C11.4213 19.1643 11.4202 19.1643 11.419 19.1643C11.4178 19.1643 11.4166 19.1643 11.4155 19.1643C11.4143 19.1643 11.4131 19.1643 11.4119 19.1643C11.4107 19.1643 11.4095 19.1643 11.4084 19.1643C11.4072 19.1643 11.406 19.1643 11.4048 19.1643C11.4036 19.1643 11.4024 19.1643 11.4012 19.1643C11.4 19.1643 11.3988 19.1643 11.3977 19.1643C11.3965 19.1643 11.3953 19.1643 11.3941 19.1643C11.3929 19.1643 11.3917 19.1643 11.3905 19.1643C11.3893 19.1643 11.3881 19.1643 11.3869 19.1643C11.3857 19.1643 11.3844 19.1643 11.3832 19.1643C11.382 19.1643 11.3808 19.1643 11.3796 19.1643C11.3784 19.1643 11.3772 19.1643 11.376 19.1643C11.3748 19.1643 11.3736 19.1643 11.3723 19.1643C11.3711 19.1643 11.3699 19.1643 11.3687 19.1643C11.3675 19.1643 11.3662 19.1643 11.365 19.1643C11.3638 19.1643 11.3626 19.1643 11.3614 19.1643C11.3601 19.1643 11.3589 19.1643 11.3577 19.1643C11.3564 19.1643 11.3552 19.1643 11.354 19.1643C11.3528 19.1643 11.3515 19.1643 11.3503 19.1643C11.3491 19.1643 11.3478 19.1643 11.3466 19.1643C11.3453 19.1643 11.3441 19.1643 11.3429 19.1643C11.3416 19.1643 11.3404 19.1643 11.3391 19.1643C11.3379 19.1643 11.3367 19.1643 11.3354 19.1643C11.3342 19.1643 11.3329 19.1643 11.3317 19.1643C11.3304 19.1643 11.3292 19.1643 11.3279 19.1643C11.3267 19.1643 11.3254 19.1643 11.3242 19.1643C11.3229 19.1643 11.3217 19.1643 11.3204 19.1643C11.3191 19.1643 11.3179 19.1643 11.3166 19.1643C11.3154 19.1643 11.3141 19.1643 11.3128 19.1643C11.3116 19.1643 11.3103 19.1643 11.309 19.1643C11.3078 19.1643 11.3065 19.1643 11.3052 19.1643C11.304 19.1643 11.3027 19.1643 11.3014 19.1643C11.3001 19.1643 11.2989 19.1643 11.2976 19.1643C11.2963 19.1643 11.295 19.1643 11.2938 19.1643C11.2925 19.1643 11.2912 19.1643 11.2899 19.1643C11.2886 19.1643 11.2874 19.1643 11.2861 19.1643C11.2848 19.1643 11.2835 19.1643 11.2822 19.1643C11.2809 19.1643 11.2796 19.1643 11.2784 19.1643C11.2771 19.1643 11.2758 19.1643 11.2745 19.1643C11.2732 19.1643 11.2719 19.1643 11.2706 19.1643C11.2693 19.1643 11.268 19.1643 11.2667 19.1643C11.2654 19.1643 11.2641 19.1643 11.2628 19.1643C11.2615 19.1643 11.2602 19.1643 11.2589 19.1643C11.2576 19.1643 11.2563 19.1643 11.255 19.1643C11.2537 19.1643 11.2523 19.1643 11.251 19.1643C11.2497 19.1643 11.2484 19.1643 11.2471 19.1643C11.2458 19.1643 11.2445 19.1643 11.2432 19.1643C11.2418 19.1643 11.2405 19.1643 11.2392 19.1643C11.2379 19.1643 11.2366 19.1643 11.2352 19.1643C11.2339 19.1643 11.2326 19.1643 11.2313 19.1643C11.2299 19.1643 11.2286 19.1643 11.2273 19.1643C11.2259 19.1643 11.2246 19.1643 11.2233 19.1643C11.222 19.1643 11.2206 19.1643 11.2193 19.1643C11.218 19.1643 11.2166 19.1643 11.2153 19.1643C11.2139 19.1643 11.2126 19.1643 11.2113 19.1643C11.2099 19.1643 11.2086 19.1643 11.2072 19.1643C11.2059 19.1643 11.2045 19.1643 11.2032 19.1643C11.2018 19.1643 11.2005 19.1643 11.1992 19.1643C11.1978 19.1643 11.1964 19.1643 11.1951 19.1643C11.1937 19.1643 11.1924 19.1643 11.191 19.1643C11.1897 19.1643 11.1883 19.1643 11.187 19.1643C11.1856 19.1643 11.1842 19.1643 11.1829 19.1643C11.1815 19.1643 11.1802 19.1643 11.1788 19.1643C11.1774 19.1643 11.1761 19.1643 11.1747 19.1643C11.1733 19.1643 11.172 19.1643 11.1706 19.1643C11.1692 19.1643 11.1678 19.1643 11.1665 19.1643C11.1651 19.1643 11.1637 19.1643 11.1623 19.1643C11.161 19.1643 11.1596 19.1643 11.1582 19.1643C11.1568 19.1643 11.1555 19.1643 11.1541 19.1643C11.1527 19.1643 11.1513 19.1643 11.1499 19.1643C11.1485 19.1643 11.1471 19.1643 11.1458 19.1643C11.1444 19.1643 11.143 19.1643 11.1416 19.1643C11.1402 19.1643 11.1388 19.1643 11.1374 19.1643C11.136 19.1643 11.1346 19.1643 11.1332 19.1643C11.1318 19.1643 11.1304 19.1643 11.129 19.1643C11.1276 19.1643 11.1262 19.1643 11.1248 19.1643C11.1234 19.1643 11.122 19.1643 11.1206 19.1643C11.1192 19.1643 11.1178 19.1643 11.1164 19.1643C11.115 19.1643 11.1136 19.1643 11.1122 19.1643C11.1107 19.1643 11.1093 19.1643 11.1079 19.1643C11.1065 19.1643 11.1051 19.1643 11.1037 19.1643C11.1023 19.1643 11.1008 19.1643 11.0994 19.1643C11.098 19.1643 11.0966 19.1643 11.0951 19.1643C11.0937 19.1643 11.0923 19.1643 11.0909 19.1643C11.0894 19.1643 11.088 19.1643 11.0866 19.1643C11.0852 19.1643 11.0837 19.1643 11.0823 19.1643C11.0809 19.1643 11.0794 19.1643 11.078 19.1643C11.0766 19.1643 11.0751 19.1643 11.0737 19.1643C11.0722 19.1643 11.0708 19.1643 11.0694 19.1643C11.0679 19.1643 11.0665 19.1643 11.065 19.1643C11.0636 19.1643 11.0621 19.1643 11.0607 19.1643C11.0592 19.1643 11.0578 19.1643 11.0563 19.1643C11.0549 19.1643 11.0534 19.1643 11.052 19.1643C11.0505 19.1643 11.0491 19.1643 11.0476 19.1643C11.0462 19.1643 11.0447 19.1643 11.0433 19.1643C11.0418 19.1643 11.0403 19.1643 11.0389 19.1643C11.0374 19.1643 11.0359 19.1643 11.0345 19.1643C11.033 19.1643 11.0316 19.1643 11.0301 19.1643C11.0286 19.1643 11.0271 19.1643 11.0257 19.1643C11.0242 19.1643 11.0227 19.1643 11.0213 19.1643C11.0198 19.1643 11.0183 19.1643 11.0168 19.1643C11.0154 19.1643 11.0139 19.1643 11.0124 19.1643C11.0109 19.1643 11.0094 19.1643 11.008 19.1643C11.0065 19.1643 11.005 19.1643 11.0035 19.1643C11.002 19.1643 11.0005 19.1643 10.999 19.1643C10.9976 19.1643 10.9961 19.1643 10.9946 19.1643C10.9931 19.1643 10.9916 19.1643 10.9901 19.1643C10.9886 19.1643 10.9871 19.1643 10.9856 19.1643C10.9841 19.1643 10.9826 19.1643 10.9811 19.1643C10.9796 19.1643 10.9781 19.1643 10.9766 19.1643C10.9751 19.1643 10.9736 19.1643 10.9721 19.1643C10.9706 19.1643 10.9691 19.1643 10.9676 19.1643C10.9661 19.1643 10.9645 19.1643 10.963 19.1643C10.9615 19.1643 10.96 19.1643 10.9585 19.1643C10.957 19.1643 10.9555 19.1643 10.9539 19.1643C10.9524 19.1643 10.9509 19.1643 10.9494 19.1643C10.9479 19.1643 10.9463 19.1643 10.9448 19.1643C10.9433 19.1643 10.9418 19.1643 10.9402 19.1643C10.9387 19.1643 10.9372 19.1643 10.9357 19.1643C10.9341 19.1643 10.9326 19.1643 10.9311 19.1643C10.9295 19.1643 10.928 19.1643 10.9265 19.1643C10.9249 19.1643 10.9234 19.1643 10.9219 19.1643C10.9203 19.1643 10.9188 19.1643 10.9172 19.1643C10.9157 19.1643 10.9142 19.1643 10.9126 19.1643C10.9111 19.1643 10.9095 19.1643 10.908 19.1643C10.9064 19.1643 10.9049 19.1643 10.9033 19.1643C10.9018 19.1643 10.9002 19.1643 10.8987 19.1643C10.8971 19.1643 10.8956 19.1643 10.894 19.1643C10.8924 19.1643 10.8909 19.1643 10.8893 19.1643C10.8878 19.1643 10.8862 19.1643 10.8847 19.1643C10.8831 19.1643 10.8815 19.1643 10.88 19.1643C10.8784 19.1643 10.8768 19.1643 10.8753 19.1643C10.8737 19.1643 10.8721 19.1643 10.8706 19.1643C10.869 19.1643 10.8674 19.1643 10.8658 19.1643C10.8643 19.1643 10.8627 19.1643 10.8611 19.1643C10.8595 19.1643 10.858 19.1643 10.8564 19.1643C10.8548 19.1643 10.8532 19.1643 10.8516 19.1643C10.8501 19.1643 10.8485 19.1643 10.8469 19.1643C10.8453 19.1643 10.8437 19.1643 10.8421 19.1643C10.8405 19.1643 10.8389 19.1643 10.8374 19.1643C10.8358 19.1643 10.8342 19.1643 10.8326 19.1643C10.831 19.1643 10.8294 19.1643 10.8278 19.1643C10.8262 19.1643 10.8246 19.1643 10.823 19.1643C10.8214 19.1643 10.8198 19.1643 10.8182 19.1643C10.8166 19.1643 10.815 19.1643 10.8134 19.1643C10.8118 19.1643 10.8102 19.1643 10.8086 19.1643C10.807 19.1643 10.8053 19.1643 10.8037 19.1643C10.8021 19.1643 10.8005 19.1643 10.7989 19.1643C10.7973 19.1643 10.7957 19.1643 10.794 19.1643C10.7924 19.1643 10.7908 19.1643 10.7892 19.1643C10.7876 19.1643 10.7859 19.1643 10.7843 19.1643C10.7827 19.1643 10.7811 19.1643 10.7794 19.1643C10.7778 19.1643 10.7762 19.1643 10.7746 19.1643C10.7729 19.1643 10.7713 19.1643 10.7697 19.1643C10.768 19.1643 10.7664 19.1643 10.7648 19.1643C10.7631 19.1643 10.7615 19.1643 10.7599 19.1643C10.7582 19.1643 10.7566 19.1643 10.7549 19.1643C10.7533 19.1643 10.7517 19.1643 10.75 19.1643C10.7484 19.1643 10.7467 19.1643 10.7451 19.1643C10.7434 19.1643 10.7418 19.1643 10.7401 19.1643C10.7385 19.1643 10.7368 19.1643 10.7352 19.1643C10.7335 19.1643 10.7319 19.1643 10.7302 19.1643C10.7286 19.1643 10.7269 19.1643 10.7253 19.1643C10.7236 19.1643 10.7219 19.1643 10.7203 19.1643C10.7186 19.1643 10.717 19.1643 10.7153 19.1643C10.7136 19.1643 10.712 19.1643 10.7103 19.1643C10.7086 19.1643 10.707 19.1643 10.7053 19.1643C10.7036 19.1643 10.7019 19.1643 10.7003 19.1643C10.6986 19.1643 10.6969 19.1643 10.6953 19.1643C10.6936 19.1643 10.6919 19.1643 10.6902 19.1643C10.6885 19.1643 10.6869 19.1643 10.6852 19.1643C10.6835 19.1643 10.6818 19.1643 10.6801 19.1643C10.6784 19.1643 10.6768 19.1643 10.6751 19.1643C10.6734 19.1643 10.6717 19.1643 10.67 19.1643C10.6683 19.1643 10.6666 19.1643 10.6649 19.1643C10.6632 19.1643 10.6615 19.1643 10.6598 19.1643C10.6582 19.1643 10.6565 19.1643 10.6548 19.1643C10.6531 19.1643 10.6514 19.1643 10.6497 19.1643C10.648 19.1643 10.6463 19.1643 10.6445 19.1643C10.6428 19.1643 10.6411 19.1643 10.6394 19.1643C10.6377 19.1643 10.636 19.1643 10.6343 19.1643C10.6326 19.1643 10.6309 19.1643 10.6292 19.1643C10.6275 19.1643 10.6257 19.1643 10.624 19.1643C10.6223 19.1643 10.6206 19.1643 10.6189 19.1643C10.6171 19.1643 10.6154 19.1643 10.6137 19.1643C10.612 19.1643 10.6103 19.1643 10.6085 19.1643C10.6068 19.1643 10.6051 19.1643 10.6034 19.1643C10.6016 19.1643 10.5999 19.1643 10.5982 19.1643C10.5964 19.1643 10.5947 19.1643 10.593 19.1643C10.5912 19.1643 10.5895 19.1643 10.5878 19.1643C10.586 19.1643 10.5843 19.1643 10.5826 19.1643C10.5808 19.1643 10.5791 19.1643 10.5773 19.1643C10.5756 19.1643 10.5738 19.1643 10.5721 19.1643C10.5704 19.1643 10.5686 19.1643 10.5669 19.1643C10.5651 19.1643 10.5634 19.1643 10.5616 19.1643C10.5599 19.1643 10.5581 19.1643 10.5564 19.1643C10.5546 19.1643 10.5528 19.1643 10.5511 19.1643C10.5493 19.1643 10.5476 19.1643 10.5458 19.1643C10.544 19.1643 10.5423 19.1643 10.5405 19.1643C10.5388 19.1643 10.537 19.1643 10.5352 19.1643C10.5335 19.1643 10.5317 19.1643 10.5299 19.1643C10.5282 19.1643 10.5264 19.1643 10.5246 19.1643C10.5229 19.1643 10.5211 19.1643 10.5193 19.1643C10.5175 19.1643 10.5158 19.1643 10.514 19.1643C10.5122 19.1643 10.5104 19.1643 10.5086 19.1643C10.5069 19.1643 10.5051 19.1643 10.5033 19.1643C10.5015 19.1643 10.4997 19.1643 10.4979 19.1643C10.4962 19.1643 10.4944 19.1643 10.4926 19.1643C10.4908 19.1643 10.489 19.1643 10.4872 19.1643C10.4854 19.1643 10.4836 19.1643 10.4818 19.1643C10.48 19.1643 10.4782 19.1643 10.4764 19.1643C10.4746 19.1643 10.4728 19.1643 10.471 19.1643C10.4692 19.1643 10.4674 19.1643 10.4656 19.1643C10.4638 19.1643 10.462 19.1643 10.4602 19.1643C10.4584 19.1643 10.4566 19.1643 10.4548 19.1643C10.453 19.1643 10.4512 19.1643 10.4494 19.1643C10.4476 19.1643 10.4458 19.1643 10.4439 19.1643C10.4421 19.1643 10.4403 19.1643 10.4385 19.1643C10.4367 19.1643 10.4349 19.1643 10.433 19.1643C10.4312 19.1643 10.4294 19.1643 10.4276 19.1643C10.4257 19.1643 10.4239 19.1643 10.4221 19.1643C10.4203 19.1643 10.4184 19.1643 10.4166 19.1643C10.4148 19.1643 10.413 19.1643 10.4111 19.1643C10.4093 19.1643 10.4075 19.1643 10.4056 19.1643C10.4038 19.1643 10.4019 19.1643 10.4001 19.1643C10.3983 19.1643 10.3964 19.1643 10.3946 19.1643C10.3928 19.1643 10.3909 19.1643 10.3891 19.1643C10.3872 19.1643 10.3854 19.1643 10.3835 19.1643C10.3817 19.1643 10.3798 19.1643 10.378 19.1643C10.3761 19.1643 10.3743 19.1643 10.3724 19.1643C10.3706 19.1643 10.3687 19.1643 10.3669 19.1643C10.365 19.1643 10.3632 19.1643 10.3613 19.1643C10.3595 19.1643 10.3576 19.1643 10.3557 19.1643C10.3539 19.1643 10.352 19.1643 10.3501 19.1643C10.3483 19.1643 10.3464 19.1643 10.3445 19.1643C10.3427 19.1643 10.3408 19.1643 10.3389 19.1643C10.3371 19.1643 10.3352 19.1643 10.3333 19.1643V20.6643ZM12.045 20.6643C12.3079 20.6643 12.6854 20.5915 13.0186 20.3512C13.39 20.0834 13.6509 19.644 13.6509 19.0571H12.1509C12.1509 19.1217 12.1383 19.1413 12.1405 19.1369C12.1425 19.1331 12.1454 19.1315 12.1413 19.1345C12.1344 19.1395 12.1185 19.1484 12.0928 19.1557C12.0808 19.1592 12.0692 19.1615 12.0594 19.1629C12.0493 19.1643 12.044 19.1643 12.045 19.1643V20.6643ZM16.4955 17.2786C15.6066 17.2786 14.7668 17.0772 14.0171 16.7182L13.3692 18.0711C14.3168 18.5249 15.3776 18.7786 16.4955 18.7786V17.2786ZM13.6509 19.0571C13.6509 18.888 13.7166 18.6728 13.8449 18.4399C13.9705 18.212 14.125 18.0237 14.2239 17.9246L13.1624 16.8647C12.9707 17.0567 12.7291 17.3568 12.5312 17.716C12.3361 18.07 12.1509 18.5406 12.1509 19.0571H13.6509ZM17.1149 10.6571C17.1149 10.528 17.2197 10.4214 17.3514 10.4214V11.9214C18.0502 11.9214 18.6149 11.3543 18.6149 10.6571H17.1149ZM17.3514 10.4214C17.483 10.4214 17.5878 10.528 17.5878 10.6571H16.0878C16.0878 11.3543 16.6525 11.9214 17.3514 11.9214V10.4214ZM17.5878 10.6571C17.5878 10.7863 17.483 10.8929 17.3514 10.8929V9.39286C16.6525 9.39286 16.0878 9.95996 16.0878 10.6571H17.5878ZM17.3514 10.8929C17.2197 10.8929 17.1149 10.7863 17.1149 10.6571H18.6149C18.6149 9.95996 18.0502 9.39286 17.3514 9.39286V10.8929Z" fill="#868686"/>
</svg>
