<svg width="27" height="27" viewBox="0 0 27 27" fill="none" xmlns="http://www.w3.org/2000/svg">
<path d="M10.6744 17.8367H17.155M21.4186 22C22.6124 22 25 21.2714 25 18.3571V8.64286C25 5.72857 22.6124 5 21.4186 5H6.5814C5.3876 5 3 5.72857 3 8.64286V18.3571C3 21.2714 5.3876 22 6.5814 22H21.4186ZM19.8837 13.3265V13.6735H20.2248V13.3265H19.8837ZM19.8837 10.2041V10.551H20.2248V10.2041H19.8837ZM16.814 10.2041V10.551H17.155V10.2041H16.814ZM16.814 13.3265V13.6735H17.155V13.3265H16.814ZM13.7442 13.3265V13.6735H14.0853V13.3265H13.7442ZM10.6744 13.3265V13.6735H11.0155V13.3265H10.6744ZM7.60465 13.3265V13.6735H7.94574V13.3265H7.60465ZM7.60465 10.2041V10.551H7.94574V10.2041H7.60465ZM10.6744 10.2041V10.551H11.0155V10.2041H10.6744ZM13.7442 10.2041V10.551H14.0853V10.2041H13.7442Z" stroke="#868686" stroke-width="1.5" stroke-linecap="round" stroke-linejoin="round"/>
</svg>
