<svg width="27" height="27" viewBox="0 0 27 27" fill="none" xmlns="http://www.w3.org/2000/svg">
<path d="M13.5 24C14.8333 23.3333 17.5 20.3 17.5 13.5C17.5 6.7 14.8333 3.66667 13.5 3M13.5 24C12.1667 23.3333 9.5 20.3 9.5 13.5C9.5 6.7 12.1667 3.66667 13.5 3M13.5 24C17.8827 24 21.6382 21.3149 23.2112 17.5M13.5 24C9.11734 24 5.36182 21.3149 3.78878 17.5M13.5 3C17.8827 3 21.6382 5.68511 23.2112 9.5M13.5 3C9.11734 3 5.36182 5.68511 3.78878 9.5M23.2112 17.5C23.7196 16.2672 24 14.9163 24 13.5C24 12.3801 23.8247 11.3012 23.5 10.2892C23.414 10.0213 23.3176 9.75805 23.2112 9.5M23.2112 17.5H3.78878M3.78878 17.5C3.28042 16.2672 3 14.9163 3 13.5C3 12.3801 3.17532 11.3012 3.5 10.2892C3.58595 10.0213 3.68237 9.75805 3.78878 9.5M23.2112 9.5H3.78878" stroke="#868686" stroke-width="1.5"/>
</svg>
