<svg width="27" height="27" viewBox="0 0 27 27" fill="none" xmlns="http://www.w3.org/2000/svg">
<path d="M14.3721 10.7706C14.3721 11.2267 13.9816 11.5963 13.5 11.5963C13.0184 11.5963 12.6279 11.2267 12.6279 10.7706C12.6279 10.3146 13.0184 9.94495 13.5 9.94495C13.9816 9.94495 14.3721 10.3146 14.3721 10.7706Z" fill="#868686"/>
<path d="M13.5 22L13.1948 22.6851C13.4006 22.7768 13.6369 22.7711 13.8381 22.6695L13.5 22ZM6.75 11.1009C6.75 7.63151 9.73291 4.75 13.5 4.75V3.25C8.98282 3.25 5.25 6.72686 5.25 11.1009H6.75ZM13.5 4.75C17.2671 4.75 20.25 7.63151 20.25 11.1009H21.75C21.75 6.72686 18.0172 3.25 13.5 3.25V4.75ZM20.25 11.1009C20.25 11.9019 19.9888 12.8644 19.5133 13.91C19.0415 14.9474 18.3794 16.0215 17.6289 17.0323C16.108 19.0808 14.3169 20.7473 13.1619 21.3305L13.8381 22.6695C15.2994 21.9316 17.2583 20.0477 18.8333 17.9265C19.6308 16.8523 20.3531 15.6867 20.8788 14.531C21.4007 13.3833 21.75 12.199 21.75 11.1009H20.25ZM5.25 11.1009C5.25 13.2415 6.49907 15.7967 8.02988 17.9182C9.5645 20.045 11.5343 21.9453 13.1948 22.6851L13.8052 21.3149C12.5006 20.7336 10.7204 19.0834 9.24628 17.0405C7.76837 14.9923 6.75 12.7585 6.75 11.1009H5.25ZM13.6221 10.7706C13.6221 10.7779 13.6203 10.7916 13.601 10.8099C13.581 10.8288 13.547 10.8463 13.5 10.8463V12.3463C14.3567 12.3463 15.1221 11.679 15.1221 10.7706H13.6221ZM13.5 10.8463C13.453 10.8463 13.419 10.8288 13.399 10.8099C13.3797 10.7916 13.3779 10.7779 13.3779 10.7706H11.8779C11.8779 11.679 12.6433 12.3463 13.5 12.3463V10.8463ZM13.3779 10.7706C13.3779 10.7634 13.3797 10.7497 13.399 10.7314C13.419 10.7125 13.453 10.695 13.5 10.695V9.19495C12.6433 9.19495 11.8779 9.8623 11.8779 10.7706H13.3779ZM13.5 10.695C13.547 10.695 13.581 10.7125 13.601 10.7314C13.6203 10.7497 13.6221 10.7634 13.6221 10.7706H15.1221C15.1221 9.8623 14.3567 9.19495 13.5 9.19495V10.695Z" fill="#868686"/>
</svg>
