<svg width="27" height="27" viewBox="0 0 27 27" fill="none" xmlns="http://www.w3.org/2000/svg">
<path d="M9.48837 14.2435C9.48837 15.1797 9.48837 17.647 9.48837 20.0261C9.48837 20.3565 9.55814 21.1496 9.83721 21.6783C10.186 22.3391 10.8837 23 12.2791 23H14.7209C16.1163 23 16.814 22.3391 17.1628 21.6783C17.4419 21.1496 17.5116 20.3565 17.5116 20.0261V14.2435M9.48837 14.2435H17.5116M9.48837 14.2435C7.56977 14.629 6 16.7217 6 22.6696M17.5116 14.2435C19.4302 14.629 21 16.7217 21 22.6696M17.1628 7.46957C17.1628 9.38575 15.5229 10.9391 13.5 10.9391C11.4771 10.9391 9.83721 9.38575 9.83721 7.46957C9.83721 5.55338 11.4771 4 13.5 4C15.5229 4 17.1628 5.55338 17.1628 7.46957Z" stroke="#868686" stroke-width="1.5" stroke-linecap="round"/>
</svg>
