<svg width="27" height="27" viewBox="0 0 27 27" fill="none" xmlns="http://www.w3.org/2000/svg">
<path d="M7.4495 15.2897C7.11792 15.0415 6.64788 15.109 6.39963 15.4406C6.15137 15.7722 6.21892 16.2422 6.5505 16.4905L7.4495 15.2897ZM13.825 21L13.3755 21.6004C13.6367 21.7959 13.9943 21.8002 14.2601 21.6109L13.825 21ZM21.4351 16.501C21.7725 16.2607 21.8512 15.7924 21.6109 15.455C21.3706 15.1176 20.9023 15.0389 20.5649 15.2792L21.4351 16.501ZM7 11.1099L6.5505 10.5095C6.36135 10.6511 6.25 10.8736 6.25 11.1099C6.25 11.3462 6.36135 11.5686 6.5505 11.7103L7 11.1099ZM13.825 16.2198L13.3755 16.8202C13.6367 17.0157 13.9943 17.02 14.2601 16.8307L13.825 16.2198ZM21 11.1099L21.4351 11.7208C21.6327 11.5801 21.75 11.3525 21.75 11.1099C21.75 10.8673 21.6327 10.6397 21.4351 10.499L21 11.1099ZM13.825 6L14.2601 5.38909C13.9943 5.19982 13.6367 5.20408 13.3755 5.39963L13.825 6ZM6.5505 16.4905L13.3755 21.6004L14.2745 20.3996L7.4495 15.2897L6.5505 16.4905ZM20.5649 15.2792L13.3899 20.3891L14.2601 21.6109L21.4351 16.501L20.5649 15.2792ZM6.5505 11.7103L13.3755 16.8202L14.2745 15.6194L7.4495 10.5095L6.5505 11.7103ZM20.5649 10.499L13.3899 15.6089L14.2601 16.8307L21.4351 11.7208L20.5649 10.499ZM7.4495 11.7103L14.2745 6.60037L13.3755 5.39963L6.5505 10.5095L7.4495 11.7103ZM21.4351 10.499L14.2601 5.38909L13.3899 6.61091L20.5649 11.7208L21.4351 10.499Z" fill="#868686"/>
</svg>
