<svg width="27" height="27" viewBox="0 0 27 27" fill="none" xmlns="http://www.w3.org/2000/svg">
<path d="M10.6676 6C8.53486 6 6.89083 7.02272 6.3354 7.53408C5.95194 7.84789 6.00216 8.21589 6.00216 8.38635L6.00216 19.9772C6.00216 20.3181 6.33551 21 7.00198 21C7.83483 21 9.16854 19.2963 10.6676 19.2954M10.6676 6C13.3334 6 14.9996 7.70453 16.4992 7.70453L16.5005 7.70453M10.6676 6V19.2954M16.5005 21C18.6332 21 20.1092 19.9772 20.6646 19.4658C21.0481 19.152 20.9978 18.784 20.9978 18.6135V7.70453C20.9978 7.36363 20.6645 6.6817 19.998 6.6817C19.1652 6.6817 17.9994 7.70394 16.5005 7.70453M16.5005 21C13.8346 21 12.1684 19.2954 10.6689 19.2954H10.6676M16.5005 21V7.70453" stroke="#868686" stroke-width="1.5"/>
</svg>
