<svg width="27" height="27" viewBox="0 0 27 27" fill="none" xmlns="http://www.w3.org/2000/svg">
<path d="M14.2564 5.85714C12.3191 5.85714 8 5.85714 6.22222 5.85714C4.44444 5.85714 4 7.31373 4 8.04202C4 12.2437 4 21.0504 4 21.9916C4 22.2376 4.23932 23 5.19658 23C5.88034 23 6.45014 22.2717 6.5641 22.1597L8.61538 20.1429C8.78632 19.9748 9.23077 19.6387 9.64103 19.6387C10.0513 19.6387 16.4217 19.6387 19.5556 19.6387C20.1823 19.6387 21.4359 19.2689 21.4359 17.7899C21.4359 16.3109 21.4359 13.7145 21.4359 12.6011M24 6.36134C24 8.21776 22.4694 9.72269 20.5812 9.72269C18.693 9.72269 17.1624 8.21776 17.1624 6.36134C17.1624 4.50493 18.693 3 20.5812 3C22.4694 3 24 4.50493 24 6.36134Z" stroke="#868686" stroke-width="1.5" stroke-linecap="round"/>
</svg>
