<svg width="27" height="27" viewBox="0 0 27 27" fill="none" xmlns="http://www.w3.org/2000/svg">
<path d="M12.1429 9.76786V12.9911H14.5179C14.5179 11.9054 14.5179 9.42857 14.5179 8.41071C12.9911 9.08929 12.1429 9.25893 12.1429 9.76786Z" fill="#868686"/>
<path d="M9.96724 22.3214L9.68819 23.0176L9.96724 22.3214ZM14.5179 8.41071H15.2679C15.2679 8.15683 15.1394 7.92019 14.9265 7.78184C14.7137 7.6435 14.4453 7.62224 14.2133 7.72536L14.5179 8.41071ZM22.25 13.5C22.25 18.3325 18.3325 22.25 13.5 22.25V23.75C19.1609 23.75 23.75 19.1609 23.75 13.5H22.25ZM4.75 13.5C4.75 8.66751 8.66751 4.75 13.5 4.75V3.25C7.83908 3.25 3.25 7.83908 3.25 13.5H4.75ZM13.5 4.75C18.3325 4.75 22.25 8.66751 22.25 13.5H23.75C23.75 7.83908 19.1609 3.25 13.5 3.25V4.75ZM13.5 22.25C12.3487 22.25 11.2511 22.028 10.2463 21.6253L9.68819 23.0176C10.8675 23.4903 12.1543 23.75 13.5 23.75V22.25ZM10.2463 21.6253C7.02374 20.3335 4.75 17.1814 4.75 13.5H3.25C3.25 17.8151 5.91615 21.5056 9.68819 23.0176L10.2463 21.6253ZM10.7086 22.4348C10.9292 20.9932 11.1964 17.9194 11.1964 16.6514H9.69643C9.69643 17.8263 9.43787 20.8222 9.22587 22.208L10.7086 22.4348ZM17.7741 22.208C17.5621 20.8222 17.3036 17.8263 17.3036 16.6514H15.8036C15.8036 17.9194 16.0708 20.9932 16.2914 22.4348L17.7741 22.208ZM16.5536 15.9014H10.4464V17.4014H16.5536V15.9014ZM17.3036 16.6514C17.3036 16.2316 17.2582 15.6245 17.2163 15.1088C17.1711 14.5522 17.1339 14.1382 17.1339 14.0089H15.6339C15.6339 14.219 15.6816 14.7423 15.7212 15.2302C15.7642 15.759 15.8036 16.3035 15.8036 16.6514H17.3036ZM17.1339 14.0089C17.1339 13.5163 16.8975 13.092 16.6476 12.8109C16.5171 12.6641 16.3616 12.5312 16.1893 12.4307C16.0248 12.3348 15.7977 12.2411 15.5357 12.2411V13.7411C15.4857 13.7411 15.4527 13.732 15.4401 13.728C15.4269 13.7237 15.425 13.7214 15.4335 13.7264C15.452 13.7372 15.4873 13.7634 15.5265 13.8074C15.5649 13.8506 15.595 13.8975 15.6137 13.9398C15.6327 13.9823 15.6339 14.0058 15.6339 14.0089H17.1339ZM11.1964 16.6514C11.1964 16.3035 11.2358 15.759 11.2788 15.2302C11.3184 14.7423 11.3661 14.219 11.3661 14.0089H9.86607C9.86607 14.1382 9.82891 14.5522 9.78371 15.1088C9.74183 15.6245 9.69643 16.2316 9.69643 16.6514H11.1964ZM11.3661 14.0089C11.3661 14.0058 11.3673 13.9823 11.3863 13.9398C11.405 13.8975 11.4351 13.8506 11.4735 13.8074C11.5127 13.7634 11.548 13.7372 11.5665 13.7264C11.575 13.7214 11.5731 13.7237 11.5599 13.728C11.5473 13.732 11.5143 13.7411 11.4643 13.7411V12.2411C11.2023 12.2411 10.9752 12.3348 10.8107 12.4307C10.6384 12.5312 10.4829 12.6641 10.3524 12.8109C10.1025 13.092 9.86607 13.5163 9.86607 14.0089H11.3661ZM11.4643 13.7411H12.1429V12.2411H11.4643V13.7411ZM12.8929 12.9911V9.76786H11.3929V12.9911H12.8929ZM12.8929 9.76786C12.8929 9.8136 12.8822 9.86626 12.8587 9.91514C12.8372 9.9602 12.8148 9.98123 12.8154 9.98062C12.8289 9.96781 12.893 9.91877 13.0789 9.83071C13.2565 9.74657 13.4826 9.65488 13.7844 9.53253C14.0788 9.4132 14.4283 9.27126 14.8225 9.09607L14.2133 7.72536C13.844 7.88946 13.515 8.02318 13.2209 8.14242C12.9342 8.25862 12.662 8.36839 12.4367 8.4751C12.2198 8.57788 11.9763 8.70908 11.7831 8.89243C11.564 9.10021 11.3929 9.3927 11.3929 9.76786H12.8929ZM12.1429 13.7411H14.5179V12.2411H12.1429V13.7411ZM14.5179 13.7411H15.5357V12.2411H14.5179V13.7411ZM13.7679 8.41071C13.7679 8.4127 13.7679 8.4147 13.7679 8.41669C13.7679 8.41869 13.7679 8.4207 13.7679 8.42271C13.7679 8.42472 13.7679 8.42673 13.7679 8.42876C13.7679 8.43078 13.7679 8.4328 13.7679 8.43484C13.7679 8.43687 13.7679 8.43891 13.7679 8.44095C13.7679 8.44299 13.7679 8.44504 13.7679 8.44709C13.7679 8.44915 13.7679 8.45121 13.7679 8.45327C13.7679 8.45534 13.7679 8.45741 13.7679 8.45948C13.7679 8.46156 13.7679 8.46364 13.7679 8.46573C13.7679 8.46781 13.7679 8.46991 13.7679 8.472C13.7679 8.4741 13.7679 8.4762 13.7679 8.47831C13.7679 8.48042 13.7679 8.48253 13.7679 8.48465C13.7679 8.48677 13.7679 8.48889 13.7679 8.49102C13.7679 8.49315 13.7679 8.49528 13.7679 8.49742C13.7679 8.49956 13.7679 8.50171 13.7679 8.50386C13.7679 8.50601 13.7679 8.50816 13.7679 8.51033C13.7679 8.51249 13.7679 8.51465 13.7679 8.51682C13.7679 8.51899 13.7679 8.52117 13.7679 8.52335C13.7679 8.52553 13.7679 8.52772 13.7679 8.52991C13.7679 8.5321 13.7679 8.5343 13.7679 8.5365C13.7679 8.5387 13.7679 8.54091 13.7679 8.54312C13.7679 8.54534 13.7679 8.54755 13.7679 8.54978C13.7679 8.552 13.7679 8.55423 13.7679 8.55646C13.7679 8.55869 13.7679 8.56093 13.7679 8.56317C13.7679 8.56542 13.7679 8.56766 13.7679 8.56992C13.7679 8.57217 13.7679 8.57443 13.7679 8.57669C13.7679 8.57895 13.7679 8.58122 13.7679 8.5835C13.7679 8.58577 13.7679 8.58805 13.7679 8.59033C13.7679 8.59261 13.7679 8.5949 13.7679 8.59719C13.7679 8.59949 13.7679 8.60178 13.7679 8.60409C13.7679 8.60639 13.7679 8.6087 13.7679 8.61101C13.7679 8.61332 13.7679 8.61564 13.7679 8.61796C13.7679 8.62029 13.7679 8.62261 13.7679 8.62495C13.7679 8.62728 13.7679 8.62961 13.7679 8.63196C13.7679 8.6343 13.7679 8.63665 13.7679 8.639C13.7679 8.64135 13.7679 8.6437 13.7679 8.64607C13.7679 8.64843 13.7679 8.65079 13.7679 8.65316C13.7679 8.65553 13.7679 8.65791 13.7679 8.66029C13.7679 8.66267 13.7679 8.66506 13.7679 8.66745C13.7679 8.66984 13.7679 8.67223 13.7679 8.67463C13.7679 8.67703 13.7679 8.67943 13.7679 8.68184C13.7679 8.68425 13.7679 8.68666 13.7679 8.68908C13.7679 8.6915 13.7679 8.69392 13.7679 8.69635C13.7679 8.69878 13.7679 8.70121 13.7679 8.70365C13.7679 8.70608 13.7679 8.70852 13.7679 8.71097C13.7679 8.71342 13.7679 8.71587 13.7679 8.71832C13.7679 8.72078 13.7679 8.72324 13.7679 8.7257C13.7679 8.72816 13.7679 8.73063 13.7679 8.73311C13.7679 8.73558 13.7679 8.73806 13.7679 8.74054C13.7679 8.74302 13.7679 8.74551 13.7679 8.748C13.7679 8.75049 13.7679 8.75299 13.7679 8.75549C13.7679 8.75799 13.7679 8.76049 13.7679 8.763C13.7679 8.76551 13.7679 8.76803 13.7679 8.77054C13.7679 8.77306 13.7679 8.77559 13.7679 8.77811C13.7679 8.78064 13.7679 8.78317 13.7679 8.78571C13.7679 8.78824 13.7679 8.79078 13.7679 8.79333C13.7679 8.79587 13.7679 8.79842 13.7679 8.80098C13.7679 8.80353 13.7679 8.80609 13.7679 8.80865C13.7679 8.81121 13.7679 8.81378 13.7679 8.81635C13.7679 8.81892 13.7679 8.82149 13.7679 8.82407C13.7679 8.82665 13.7679 8.82924 13.7679 8.83182C13.7679 8.83441 13.7679 8.83701 13.7679 8.8396C13.7679 8.8422 13.7679 8.8448 13.7679 8.8474C13.7679 8.85001 13.7679 8.85262 13.7679 8.85523C13.7679 8.85784 13.7679 8.86046 13.7679 8.86308C13.7679 8.86571 13.7679 8.86833 13.7679 8.87096C13.7679 8.87359 13.7679 8.87623 13.7679 8.87886C13.7679 8.8815 13.7679 8.88415 13.7679 8.88679C13.7679 8.88944 13.7679 8.89209 13.7679 8.89475C13.7679 8.8974 13.7679 8.90006 13.7679 8.90272C13.7679 8.90539 13.7679 8.90805 13.7679 8.91072C13.7679 8.91339 13.7679 8.91607 13.7679 8.91875C13.7679 8.92143 13.7679 8.92411 13.7679 8.9268C13.7679 8.92949 13.7679 8.93218 13.7679 8.93487C13.7679 8.93757 13.7679 8.94027 13.7679 8.94297C13.7679 8.94568 13.7679 8.94838 13.7679 8.95109C13.7679 8.95381 13.7679 8.95652 13.7679 8.95924C13.7679 8.96196 13.7679 8.96468 13.7679 8.96741C13.7679 8.97014 13.7679 8.97287 13.7679 8.9756C13.7679 8.97834 13.7679 8.98108 13.7679 8.98382C13.7679 8.98656 13.7679 8.98931 13.7679 8.99206C13.7679 8.99481 13.7679 8.99756 13.7679 9.00032C13.7679 9.00308 13.7679 9.00584 13.7679 9.0086C13.7679 9.01137 13.7679 9.01414 13.7679 9.01691C13.7679 9.01969 13.7679 9.02246 13.7679 9.02524C13.7679 9.02802 13.7679 9.03081 13.7679 9.0336C13.7679 9.03639 13.7679 9.03918 13.7679 9.04197C13.7679 9.04477 13.7679 9.04757 13.7679 9.05037C13.7679 9.05317 13.7679 9.05598 13.7679 9.05879C13.7679 9.0616 13.7679 9.06442 13.7679 9.06723C13.7679 9.07005 13.7679 9.07287 13.7679 9.0757C13.7679 9.07852 13.7679 9.08135 13.7679 9.08418C13.7679 9.08702 13.7679 9.08985 13.7679 9.09269C13.7679 9.09553 13.7679 9.09837 13.7679 9.10122C13.7679 9.10407 13.7679 9.10692 13.7679 9.10977C13.7679 9.11263 13.7679 9.11548 13.7679 9.11834C13.7679 9.1212 13.7679 9.12407 13.7679 9.12694C13.7679 9.1298 13.7679 9.13268 13.7679 9.13555C13.7679 9.13843 13.7679 9.1413 13.7679 9.14419C13.7679 9.14707 13.7679 9.14995 13.7679 9.15284C13.7679 9.15573 13.7679 9.15862 13.7679 9.16152C13.7679 9.16441 13.7679 9.16731 13.7679 9.17022C13.7679 9.17312 13.7679 9.17602 13.7679 9.17893C13.7679 9.18184 13.7679 9.18475 13.7679 9.18767C13.7679 9.19059 13.7679 9.19351 13.7679 9.19643C13.7679 9.19935 13.7679 9.20228 13.7679 9.20521C13.7679 9.20814 13.7679 9.21107 13.7679 9.214C13.7679 9.21694 13.7679 9.21988 13.7679 9.22282C13.7679 9.22576 13.7679 9.22871 13.7679 9.23166C13.7679 9.23461 13.7679 9.23756 13.7679 9.24052C13.7679 9.24347 13.7679 9.24643 13.7679 9.24939C13.7679 9.25235 13.7679 9.25532 13.7679 9.25829C13.7679 9.26125 13.7679 9.26423 13.7679 9.2672C13.7679 9.27018 13.7679 9.27315 13.7679 9.27613C13.7679 9.27912 13.7679 9.2821 13.7679 9.28509C13.7679 9.28807 13.7679 9.29106 13.7679 9.29406C13.7679 9.29705 13.7679 9.30005 13.7679 9.30305C13.7679 9.30605 13.7679 9.30905 13.7679 9.31206C13.7679 9.31506 13.7679 9.31807 13.7679 9.32108C13.7679 9.32409 13.7679 9.32711 13.7679 9.33013C13.7679 9.33314 13.7679 9.33616 13.7679 9.33919C13.7679 9.34221 13.7679 9.34524 13.7679 9.34827C13.7679 9.3513 13.7679 9.35433 13.7679 9.35737C13.7679 9.3604 13.7679 9.36344 13.7679 9.36648C13.7679 9.36953 13.7679 9.37257 13.7679 9.37562C13.7679 9.37867 13.7679 9.38172 13.7679 9.38477C13.7679 9.38782 13.7679 9.39088 13.7679 9.39394C13.7679 9.397 13.7679 9.40006 13.7679 9.40312C13.7679 9.40619 13.7679 9.40926 13.7679 9.41233C13.7679 9.4154 13.7679 9.41847 13.7679 9.42155C13.7679 9.42462 13.7679 9.4277 13.7679 9.43078C13.7679 9.43387 13.7679 9.43695 13.7679 9.44004C13.7679 9.44313 13.7679 9.44622 13.7679 9.44931C13.7679 9.4524 13.7679 9.4555 13.7679 9.45859C13.7679 9.46169 13.7679 9.46479 13.7679 9.4679C13.7679 9.471 13.7679 9.47411 13.7679 9.47722C13.7679 9.48033 13.7679 9.48344 13.7679 9.48655C13.7679 9.48967 13.7679 9.49278 13.7679 9.4959C13.7679 9.49902 13.7679 9.50214 13.7679 9.50527C13.7679 9.50839 13.7679 9.51152 13.7679 9.51465C13.7679 9.51778 13.7679 9.52092 13.7679 9.52405C13.7679 9.52719 13.7679 9.53032 13.7679 9.53346C13.7679 9.5366 13.7679 9.53975 13.7679 9.54289C13.7679 9.54604 13.7679 9.54919 13.7679 9.55234C13.7679 9.55549 13.7679 9.55864 13.7679 9.5618C13.7679 9.56495 13.7679 9.56811 13.7679 9.57127C13.7679 9.57443 13.7679 9.57759 13.7679 9.58076C13.7679 9.58392 13.7679 9.58709 13.7679 9.59026C13.7679 9.59343 13.7679 9.5966 13.7679 9.59978C13.7679 9.60295 13.7679 9.60613 13.7679 9.60931C13.7679 9.61249 13.7679 9.61567 13.7679 9.61886C13.7679 9.62204 13.7679 9.62523 13.7679 9.62842C13.7679 9.63161 13.7679 9.6348 13.7679 9.63799C13.7679 9.64119 13.7679 9.64438 13.7679 9.64758C13.7679 9.65078 13.7679 9.65398 13.7679 9.65719C13.7679 9.66039 13.7679 9.66359 13.7679 9.6668C13.7679 9.67001 13.7679 9.67322 13.7679 9.67643C13.7679 9.67964 13.7679 9.68286 13.7679 9.68607C13.7679 9.68929 13.7679 9.69251 13.7679 9.69573C13.7679 9.69895 13.7679 9.70218 13.7679 9.7054C13.7679 9.70863 13.7679 9.71185 13.7679 9.71508C13.7679 9.71831 13.7679 9.72154 13.7679 9.72478C13.7679 9.72801 13.7679 9.73125 13.7679 9.73449C13.7679 9.73772 13.7679 9.74096 13.7679 9.74421C13.7679 9.74745 13.7679 9.75069 13.7679 9.75394C13.7679 9.75719 13.7679 9.76044 13.7679 9.76369C13.7679 9.76694 13.7679 9.77019 13.7679 9.77344C13.7679 9.7767 13.7679 9.77995 13.7679 9.78321C13.7679 9.78647 13.7679 9.78973 13.7679 9.793C13.7679 9.79626 13.7679 9.79952 13.7679 9.80279C13.7679 9.80606 13.7679 9.80932 13.7679 9.81259C13.7679 9.81587 13.7679 9.81914 13.7679 9.82241C13.7679 9.82569 13.7679 9.82896 13.7679 9.83224C13.7679 9.83552 13.7679 9.8388 13.7679 9.84208C13.7679 9.84536 13.7679 9.84865 13.7679 9.85193C13.7679 9.85522 13.7679 9.8585 13.7679 9.86179C13.7679 9.86508 13.7679 9.86837 13.7679 9.87167C13.7679 9.87496 13.7679 9.87825 13.7679 9.88155C13.7679 9.88485 13.7679 9.88815 13.7679 9.89145C13.7679 9.89475 13.7679 9.89805 13.7679 9.90135C13.7679 9.90466 13.7679 9.90796 13.7679 9.91127C13.7679 9.91457 13.7679 9.91788 13.7679 9.92119C13.7679 9.9245 13.7679 9.92782 13.7679 9.93113C13.7679 9.93444 13.7679 9.93776 13.7679 9.94108C13.7679 9.94439 13.7679 9.94771 13.7679 9.95103C13.7679 9.95435 13.7679 9.95768 13.7679 9.961C13.7679 9.96432 13.7679 9.96765 13.7679 9.97098C13.7679 9.9743 13.7679 9.97763 13.7679 9.98096C13.7679 9.98429 13.7679 9.98762 13.7679 9.99096C13.7679 9.99429 13.7679 9.99762 13.7679 10.001C13.7679 10.0043 13.7679 10.0076 13.7679 10.011C13.7679 10.0143 13.7679 10.0177 13.7679 10.021C13.7679 10.0243 13.7679 10.0277 13.7679 10.031C13.7679 10.0344 13.7679 10.0377 13.7679 10.0411C13.7679 10.0444 13.7679 10.0478 13.7679 10.0511C13.7679 10.0545 13.7679 10.0578 13.7679 10.0612C13.7679 10.0645 13.7679 10.0679 13.7679 10.0712C13.7679 10.0746 13.7679 10.078 13.7679 10.0813C13.7679 10.0847 13.7679 10.088 13.7679 10.0914C13.7679 10.0948 13.7679 10.0981 13.7679 10.1015C13.7679 10.1049 13.7679 10.1082 13.7679 10.1116C13.7679 10.115 13.7679 10.1183 13.7679 10.1217C13.7679 10.1251 13.7679 10.1284 13.7679 10.1318C13.7679 10.1352 13.7679 10.1386 13.7679 10.1419C13.7679 10.1453 13.7679 10.1487 13.7679 10.1521C13.7679 10.1554 13.7679 10.1588 13.7679 10.1622C13.7679 10.1656 13.7679 10.169 13.7679 10.1723C13.7679 10.1757 13.7679 10.1791 13.7679 10.1825C13.7679 10.1859 13.7679 10.1893 13.7679 10.1926C13.7679 10.196 13.7679 10.1994 13.7679 10.2028C13.7679 10.2062 13.7679 10.2096 13.7679 10.213C13.7679 10.2164 13.7679 10.2198 13.7679 10.2232C13.7679 10.2265 13.7679 10.2299 13.7679 10.2333C13.7679 10.2367 13.7679 10.2401 13.7679 10.2435C13.7679 10.2469 13.7679 10.2503 13.7679 10.2537C13.7679 10.2571 13.7679 10.2605 13.7679 10.2639C13.7679 10.2673 13.7679 10.2707 13.7679 10.2741C13.7679 10.2775 13.7679 10.2809 13.7679 10.2843C13.7679 10.2877 13.7679 10.2912 13.7679 10.2946C13.7679 10.298 13.7679 10.3014 13.7679 10.3048C13.7679 10.3082 13.7679 10.3116 13.7679 10.315C13.7679 10.3184 13.7679 10.3218 13.7679 10.3253C13.7679 10.3287 13.7679 10.3321 13.7679 10.3355C13.7679 10.3389 13.7679 10.3423 13.7679 10.3457C13.7679 10.3492 13.7679 10.3526 13.7679 10.356C13.7679 10.3594 13.7679 10.3628 13.7679 10.3662C13.7679 10.3697 13.7679 10.3731 13.7679 10.3765C13.7679 10.3799 13.7679 10.3833 13.7679 10.3868C13.7679 10.3902 13.7679 10.3936 13.7679 10.397C13.7679 10.4005 13.7679 10.4039 13.7679 10.4073C13.7679 10.4107 13.7679 10.4142 13.7679 10.4176C13.7679 10.421 13.7679 10.4244 13.7679 10.4279C13.7679 10.4313 13.7679 10.4347 13.7679 10.4381C13.7679 10.4416 13.7679 10.445 13.7679 10.4484C13.7679 10.4519 13.7679 10.4553 13.7679 10.4587C13.7679 10.4622 13.7679 10.4656 13.7679 10.469C13.7679 10.4725 13.7679 10.4759 13.7679 10.4793C13.7679 10.4828 13.7679 10.4862 13.7679 10.4896C13.7679 10.4931 13.7679 10.4965 13.7679 10.4999C13.7679 10.5034 13.7679 10.5068 13.7679 10.5102C13.7679 10.5137 13.7679 10.5171 13.7679 10.5205C13.7679 10.524 13.7679 10.5274 13.7679 10.5309C13.7679 10.5343 13.7679 10.5377 13.7679 10.5412C13.7679 10.5446 13.7679 10.548 13.7679 10.5515C13.7679 10.5549 13.7679 10.5584 13.7679 10.5618C13.7679 10.5652 13.7679 10.5687 13.7679 10.5721C13.7679 10.5756 13.7679 10.579 13.7679 10.5825C13.7679 10.5859 13.7679 10.5893 13.7679 10.5928C13.7679 10.5962 13.7679 10.5997 13.7679 10.6031C13.7679 10.6066 13.7679 10.61 13.7679 10.6134C13.7679 10.6169 13.7679 10.6203 13.7679 10.6238C13.7679 10.6272 13.7679 10.6307 13.7679 10.6341C13.7679 10.6375 13.7679 10.641 13.7679 10.6444C13.7679 10.6479 13.7679 10.6513 13.7679 10.6548C13.7679 10.6582 13.7679 10.6617 13.7679 10.6651C13.7679 10.6686 13.7679 10.672 13.7679 10.6754C13.7679 10.6789 13.7679 10.6823 13.7679 10.6858C13.7679 10.6892 13.7679 10.6927 13.7679 10.6961C13.7679 10.6996 13.7679 10.703 13.7679 10.7065C13.7679 10.7099 13.7679 10.7134 13.7679 10.7168C13.7679 10.7202 13.7679 10.7237 13.7679 10.7271C13.7679 10.7306 13.7679 10.734 13.7679 10.7375C13.7679 10.7409 13.7679 10.7444 13.7679 10.7478C13.7679 10.7513 13.7679 10.7547 13.7679 10.7582C13.7679 10.7616 13.7679 10.7651 13.7679 10.7685C13.7679 10.7719 13.7679 10.7754 13.7679 10.7788C13.7679 10.7823 13.7679 10.7857 13.7679 10.7892C13.7679 10.7926 13.7679 10.7961 13.7679 10.7995C13.7679 10.803 13.7679 10.8064 13.7679 10.8099C13.7679 10.8133 13.7679 10.8167 13.7679 10.8202C13.7679 10.8236 13.7679 10.8271 13.7679 10.8305C13.7679 10.834 13.7679 10.8374 13.7679 10.8409C13.7679 10.8443 13.7679 10.8477 13.7679 10.8512C13.7679 10.8546 13.7679 10.8581 13.7679 10.8615C13.7679 10.865 13.7679 10.8684 13.7679 10.8719C13.7679 10.8753 13.7679 10.8787 13.7679 10.8822C13.7679 10.8856 13.7679 10.8891 13.7679 10.8925C13.7679 10.896 13.7679 10.8994 13.7679 10.9028C13.7679 10.9063 13.7679 10.9097 13.7679 10.9132C13.7679 10.9166 13.7679 10.92 13.7679 10.9235C13.7679 10.9269 13.7679 10.9304 13.7679 10.9338C13.7679 10.9372 13.7679 10.9407 13.7679 10.9441C13.7679 10.9476 13.7679 10.951 13.7679 10.9544C13.7679 10.9579 13.7679 10.9613 13.7679 10.9647C13.7679 10.9682 13.7679 10.9716 13.7679 10.975C13.7679 10.9785 13.7679 10.9819 13.7679 10.9854C13.7679 10.9888 13.7679 10.9922 13.7679 10.9957C13.7679 10.9991 13.7679 11.0025 13.7679 11.006C13.7679 11.0094 13.7679 11.0128 13.7679 11.0162C13.7679 11.0197 13.7679 11.0231 13.7679 11.0265C13.7679 11.03 13.7679 11.0334 13.7679 11.0368C13.7679 11.0403 13.7679 11.0437 13.7679 11.0471C13.7679 11.0505 13.7679 11.054 13.7679 11.0574C13.7679 11.0608 13.7679 11.0642 13.7679 11.0677C13.7679 11.0711 13.7679 11.0745 13.7679 11.0779C13.7679 11.0814 13.7679 11.0848 13.7679 11.0882C13.7679 11.0916 13.7679 11.0951 13.7679 11.0985C13.7679 11.1019 13.7679 11.1053 13.7679 11.1087C13.7679 11.1122 13.7679 11.1156 13.7679 11.119C13.7679 11.1224 13.7679 11.1258 13.7679 11.1292C13.7679 11.1327 13.7679 11.1361 13.7679 11.1395C13.7679 11.1429 13.7679 11.1463 13.7679 11.1497C13.7679 11.1531 13.7679 11.1566 13.7679 11.16C13.7679 11.1634 13.7679 11.1668 13.7679 11.1702C13.7679 11.1736 13.7679 11.177 13.7679 11.1804C13.7679 11.1838 13.7679 11.1872 13.7679 11.1906C13.7679 11.194 13.7679 11.1975 13.7679 11.2009C13.7679 11.2043 13.7679 11.2077 13.7679 11.2111C13.7679 11.2145 13.7679 11.2179 13.7679 11.2213C13.7679 11.2247 13.7679 11.2281 13.7679 11.2315C13.7679 11.2349 13.7679 11.2383 13.7679 11.2417C13.7679 11.2451 13.7679 11.2484 13.7679 11.2518C13.7679 11.2552 13.7679 11.2586 13.7679 11.262C13.7679 11.2654 13.7679 11.2688 13.7679 11.2722C13.7679 11.2756 13.7679 11.279 13.7679 11.2824C13.7679 11.2857 13.7679 11.2891 13.7679 11.2925C13.7679 11.2959 13.7679 11.2993 13.7679 11.3027C13.7679 11.306 13.7679 11.3094 13.7679 11.3128C13.7679 11.3162 13.7679 11.3196 13.7679 11.3229C13.7679 11.3263 13.7679 11.3297 13.7679 11.3331C13.7679 11.3365 13.7679 11.3398 13.7679 11.3432C13.7679 11.3466 13.7679 11.3499 13.7679 11.3533C13.7679 11.3567 13.7679 11.3601 13.7679 11.3634C13.7679 11.3668 13.7679 11.3702 13.7679 11.3735C13.7679 11.3769 13.7679 11.3803 13.7679 11.3836C13.7679 11.387 13.7679 11.3903 13.7679 11.3937C13.7679 11.3971 13.7679 11.4004 13.7679 11.4038C13.7679 11.4071 13.7679 11.4105 13.7679 11.4138C13.7679 11.4172 13.7679 11.4205 13.7679 11.4239C13.7679 11.4273 13.7679 11.4306 13.7679 11.434C13.7679 11.4373 13.7679 11.4406 13.7679 11.444C13.7679 11.4473 13.7679 11.4507 13.7679 11.454C13.7679 11.4574 13.7679 11.4607 13.7679 11.4641C13.7679 11.4674 13.7679 11.4707 13.7679 11.4741C13.7679 11.4774 13.7679 11.4807 13.7679 11.4841C13.7679 11.4874 13.7679 11.4907 13.7679 11.4941C13.7679 11.4974 13.7679 11.5007 13.7679 11.5041C13.7679 11.5074 13.7679 11.5107 13.7679 11.514C13.7679 11.5174 13.7679 11.5207 13.7679 11.524C13.7679 11.5273 13.7679 11.5306 13.7679 11.534C13.7679 11.5373 13.7679 11.5406 13.7679 11.5439C13.7679 11.5472 13.7679 11.5505 13.7679 11.5538C13.7679 11.5572 13.7679 11.5605 13.7679 11.5638C13.7679 11.5671 13.7679 11.5704 13.7679 11.5737C13.7679 11.577 13.7679 11.5803 13.7679 11.5836C13.7679 11.5869 13.7679 11.5902 13.7679 11.5935C13.7679 11.5968 13.7679 11.6001 13.7679 11.6034C13.7679 11.6067 13.7679 11.61 13.7679 11.6133C13.7679 11.6165 13.7679 11.6198 13.7679 11.6231C13.7679 11.6264 13.7679 11.6297 13.7679 11.633C13.7679 11.6363 13.7679 11.6395 13.7679 11.6428C13.7679 11.6461 13.7679 11.6494 13.7679 11.6526C13.7679 11.6559 13.7679 11.6592 13.7679 11.6625C13.7679 11.6657 13.7679 11.669 13.7679 11.6723C13.7679 11.6755 13.7679 11.6788 13.7679 11.6821C13.7679 11.6853 13.7679 11.6886 13.7679 11.6919C13.7679 11.6951 13.7679 11.6984 13.7679 11.7016C13.7679 11.7049 13.7679 11.7081 13.7679 11.7114C13.7679 11.7146 13.7679 11.7179 13.7679 11.7211C13.7679 11.7244 13.7679 11.7276 13.7679 11.7309C13.7679 11.7341 13.7679 11.7374 13.7679 11.7406C13.7679 11.7438 13.7679 11.7471 13.7679 11.7503C13.7679 11.7535 13.7679 11.7568 13.7679 11.76C13.7679 11.7632 13.7679 11.7665 13.7679 11.7697C13.7679 11.7729 13.7679 11.7761 13.7679 11.7794C13.7679 11.7826 13.7679 11.7858 13.7679 11.789C13.7679 11.7922 13.7679 11.7955 13.7679 11.7987C13.7679 11.8019 13.7679 11.8051 13.7679 11.8083C13.7679 11.8115 13.7679 11.8147 13.7679 11.8179C13.7679 11.8211 13.7679 11.8243 13.7679 11.8275C13.7679 11.8307 13.7679 11.8339 13.7679 11.8371C13.7679 11.8403 13.7679 11.8435 13.7679 11.8467C13.7679 11.8499 13.7679 11.8531 13.7679 11.8563C13.7679 11.8594 13.7679 11.8626 13.7679 11.8658C13.7679 11.869 13.7679 11.8722 13.7679 11.8753C13.7679 11.8785 13.7679 11.8817 13.7679 11.8849C13.7679 11.888 13.7679 11.8912 13.7679 11.8944C13.7679 11.8975 13.7679 11.9007 13.7679 11.9039C13.7679 11.907 13.7679 11.9102 13.7679 11.9133C13.7679 11.9165 13.7679 11.9196 13.7679 11.9228C13.7679 11.9259 13.7679 11.9291 13.7679 11.9322C13.7679 11.9354 13.7679 11.9385 13.7679 11.9417C13.7679 11.9448 13.7679 11.948 13.7679 11.9511C13.7679 11.9542 13.7679 11.9574 13.7679 11.9605C13.7679 11.9636 13.7679 11.9668 13.7679 11.9699C13.7679 11.973 13.7679 11.9761 13.7679 11.9792C13.7679 11.9824 13.7679 11.9855 13.7679 11.9886C13.7679 11.9917 13.7679 11.9948 13.7679 11.9979C13.7679 12.001 13.7679 12.0042 13.7679 12.0073C13.7679 12.0104 13.7679 12.0135 13.7679 12.0166C13.7679 12.0197 13.7679 12.0228 13.7679 12.0259C13.7679 12.0289 13.7679 12.032 13.7679 12.0351C13.7679 12.0382 13.7679 12.0413 13.7679 12.0444C13.7679 12.0475 13.7679 12.0505 13.7679 12.0536C13.7679 12.0567 13.7679 12.0598 13.7679 12.0628C13.7679 12.0659 13.7679 12.069 13.7679 12.0721C13.7679 12.0751 13.7679 12.0782 13.7679 12.0812C13.7679 12.0843 13.7679 12.0874 13.7679 12.0904C13.7679 12.0935 13.7679 12.0965 13.7679 12.0996C13.7679 12.1026 13.7679 12.1057 13.7679 12.1087C13.7679 12.1118 13.7679 12.1148 13.7679 12.1178C13.7679 12.1209 13.7679 12.1239 13.7679 12.1269C13.7679 12.13 13.7679 12.133 13.7679 12.136C13.7679 12.139 13.7679 12.1421 13.7679 12.1451C13.7679 12.1481 13.7679 12.1511 13.7679 12.1541C13.7679 12.1571 13.7679 12.1602 13.7679 12.1632C13.7679 12.1662 13.7679 12.1692 13.7679 12.1722C13.7679 12.1752 13.7679 12.1782 13.7679 12.1812C13.7679 12.1842 13.7679 12.1872 13.7679 12.1901C13.7679 12.1931 13.7679 12.1961 13.7679 12.1991C13.7679 12.2021 13.7679 12.2051 13.7679 12.208C13.7679 12.211 13.7679 12.214 13.7679 12.2169C13.7679 12.2199 13.7679 12.2229 13.7679 12.2258C13.7679 12.2288 13.7679 12.2318 13.7679 12.2347C13.7679 12.2377 13.7679 12.2406 13.7679 12.2436C13.7679 12.2465 13.7679 12.2495 13.7679 12.2524C13.7679 12.2554 13.7679 12.2583 13.7679 12.2613C13.7679 12.2642 13.7679 12.2671 13.7679 12.2701C13.7679 12.273 13.7679 12.2759 13.7679 12.2788C13.7679 12.2818 13.7679 12.2847 13.7679 12.2876C13.7679 12.2905 13.7679 12.2934 13.7679 12.2963C13.7679 12.2992 13.7679 12.3022 13.7679 12.3051C13.7679 12.308 13.7679 12.3109 13.7679 12.3138C13.7679 12.3167 13.7679 12.3195 13.7679 12.3224C13.7679 12.3253 13.7679 12.3282 13.7679 12.3311C13.7679 12.334 13.7679 12.3369 13.7679 12.3397C13.7679 12.3426 13.7679 12.3455 13.7679 12.3484C13.7679 12.3512 13.7679 12.3541 13.7679 12.357C13.7679 12.3598 13.7679 12.3627 13.7679 12.3655C13.7679 12.3684 13.7679 12.3712 13.7679 12.3741C13.7679 12.3769 13.7679 12.3798 13.7679 12.3826C13.7679 12.3855 13.7679 12.3883 13.7679 12.3911C13.7679 12.394 13.7679 12.3968 13.7679 12.3996C13.7679 12.4024 13.7679 12.4053 13.7679 12.4081C13.7679 12.4109 13.7679 12.4137 13.7679 12.4165C13.7679 12.4193 13.7679 12.4222 13.7679 12.425C13.7679 12.4278 13.7679 12.4306 13.7679 12.4334C13.7679 12.4362 13.7679 12.439 13.7679 12.4417C13.7679 12.4445 13.7679 12.4473 13.7679 12.4501C13.7679 12.4529 13.7679 12.4557 13.7679 12.4584C13.7679 12.4612 13.7679 12.464 13.7679 12.4667C13.7679 12.4695 13.7679 12.4723 13.7679 12.475C13.7679 12.4778 13.7679 12.4806 13.7679 12.4833C13.7679 12.4861 13.7679 12.4888 13.7679 12.4915C13.7679 12.4943 13.7679 12.497 13.7679 12.4998C13.7679 12.5025 13.7679 12.5052 13.7679 12.508C13.7679 12.5107 13.7679 12.5134 13.7679 12.5161C13.7679 12.5189 13.7679 12.5216 13.7679 12.5243C13.7679 12.527 13.7679 12.5297 13.7679 12.5324C13.7679 12.5351 13.7679 12.5378 13.7679 12.5405C13.7679 12.5432 13.7679 12.5459 13.7679 12.5486C13.7679 12.5513 13.7679 12.554 13.7679 12.5567C13.7679 12.5593 13.7679 12.562 13.7679 12.5647C13.7679 12.5674 13.7679 12.57 13.7679 12.5727C13.7679 12.5754 13.7679 12.578 13.7679 12.5807C13.7679 12.5833 13.7679 12.586 13.7679 12.5886C13.7679 12.5913 13.7679 12.5939 13.7679 12.5966C13.7679 12.5992 13.7679 12.6018 13.7679 12.6045C13.7679 12.6071 13.7679 12.6097 13.7679 12.6123C13.7679 12.615 13.7679 12.6176 13.7679 12.6202C13.7679 12.6228 13.7679 12.6254 13.7679 12.628C13.7679 12.6306 13.7679 12.6332 13.7679 12.6358C13.7679 12.6384 13.7679 12.641 13.7679 12.6436C13.7679 12.6462 13.7679 12.6488 13.7679 12.6514C13.7679 12.654 13.7679 12.6565 13.7679 12.6591C13.7679 12.6617 13.7679 12.6643 13.7679 12.6668C13.7679 12.6694 13.7679 12.6719 13.7679 12.6745C13.7679 12.6771 13.7679 12.6796 13.7679 12.6821C13.7679 12.6847 13.7679 12.6872 13.7679 12.6898C13.7679 12.6923 13.7679 12.6948 13.7679 12.6974C13.7679 12.6999 13.7679 12.7024 13.7679 12.7049C13.7679 12.7075 13.7679 12.71 13.7679 12.7125C13.7679 12.715 13.7679 12.7175 13.7679 12.72C13.7679 12.7225 13.7679 12.725 13.7679 12.7275C13.7679 12.73 13.7679 12.7325 13.7679 12.735C13.7679 12.7375 13.7679 12.7399 13.7679 12.7424C13.7679 12.7449 13.7679 12.7474 13.7679 12.7498C13.7679 12.7523 13.7679 12.7548 13.7679 12.7572C13.7679 12.7597 13.7679 12.7621 13.7679 12.7646C13.7679 12.767 13.7679 12.7695 13.7679 12.7719C13.7679 12.7743 13.7679 12.7768 13.7679 12.7792C13.7679 12.7816 13.7679 12.784 13.7679 12.7865C13.7679 12.7889 13.7679 12.7913 13.7679 12.7937C13.7679 12.7961 13.7679 12.7985 13.7679 12.8009C13.7679 12.8033 13.7679 12.8057 13.7679 12.8081C13.7679 12.8105 13.7679 12.8129 13.7679 12.8153C13.7679 12.8177 13.7679 12.82 13.7679 12.8224C13.7679 12.8248 13.7679 12.8272 13.7679 12.8295C13.7679 12.8319 13.7679 12.8342 13.7679 12.8366C13.7679 12.8389 13.7679 12.8413 13.7679 12.8436C13.7679 12.846 13.7679 12.8483 13.7679 12.8507C13.7679 12.853 13.7679 12.8553 13.7679 12.8576C13.7679 12.86 13.7679 12.8623 13.7679 12.8646C13.7679 12.8669 13.7679 12.8692 13.7679 12.8715C13.7679 12.8738 13.7679 12.8761 13.7679 12.8784C13.7679 12.8807 13.7679 12.883 13.7679 12.8853C13.7679 12.8876 13.7679 12.8899 13.7679 12.8921C13.7679 12.8944 13.7679 12.8967 13.7679 12.8989C13.7679 12.9012 13.7679 12.9035 13.7679 12.9057C13.7679 12.908 13.7679 12.9102 13.7679 12.9125C13.7679 12.9147 13.7679 12.917 13.7679 12.9192C13.7679 12.9214 13.7679 12.9237 13.7679 12.9259C13.7679 12.9281 13.7679 12.9303 13.7679 12.9325C13.7679 12.9348 13.7679 12.937 13.7679 12.9392C13.7679 12.9414 13.7679 12.9436 13.7679 12.9458C13.7679 12.948 13.7679 12.9501 13.7679 12.9523C13.7679 12.9545 13.7679 12.9567 13.7679 12.9589C13.7679 12.961 13.7679 12.9632 13.7679 12.9654C13.7679 12.9675 13.7679 12.9697 13.7679 12.9718C13.7679 12.974 13.7679 12.9761 13.7679 12.9783C13.7679 12.9804 13.7679 12.9826 13.7679 12.9847C13.7679 12.9868 13.7679 12.989 13.7679 12.9911H15.2679C15.2679 12.989 15.2679 12.9868 15.2679 12.9847C15.2679 12.9826 15.2679 12.9804 15.2679 12.9783C15.2679 12.9761 15.2679 12.974 15.2679 12.9718C15.2679 12.9697 15.2679 12.9675 15.2679 12.9654C15.2679 12.9632 15.2679 12.961 15.2679 12.9589C15.2679 12.9567 15.2679 12.9545 15.2679 12.9523C15.2679 12.9501 15.2679 12.948 15.2679 12.9458C15.2679 12.9436 15.2679 12.9414 15.2679 12.9392C15.2679 12.937 15.2679 12.9348 15.2679 12.9325C15.2679 12.9303 15.2679 12.9281 15.2679 12.9259C15.2679 12.9237 15.2679 12.9214 15.2679 12.9192C15.2679 12.917 15.2679 12.9147 15.2679 12.9125C15.2679 12.9102 15.2679 12.908 15.2679 12.9057C15.2679 12.9035 15.2679 12.9012 15.2679 12.8989C15.2679 12.8967 15.2679 12.8944 15.2679 12.8921C15.2679 12.8899 15.2679 12.8876 15.2679 12.8853C15.2679 12.883 15.2679 12.8807 15.2679 12.8784C15.2679 12.8761 15.2679 12.8738 15.2679 12.8715C15.2679 12.8692 15.2679 12.8669 15.2679 12.8646C15.2679 12.8623 15.2679 12.86 15.2679 12.8576C15.2679 12.8553 15.2679 12.853 15.2679 12.8507C15.2679 12.8483 15.2679 12.846 15.2679 12.8436C15.2679 12.8413 15.2679 12.8389 15.2679 12.8366C15.2679 12.8342 15.2679 12.8319 15.2679 12.8295C15.2679 12.8272 15.2679 12.8248 15.2679 12.8224C15.2679 12.82 15.2679 12.8177 15.2679 12.8153C15.2679 12.8129 15.2679 12.8105 15.2679 12.8081C15.2679 12.8057 15.2679 12.8033 15.2679 12.8009C15.2679 12.7985 15.2679 12.7961 15.2679 12.7937C15.2679 12.7913 15.2679 12.7889 15.2679 12.7865C15.2679 12.784 15.2679 12.7816 15.2679 12.7792C15.2679 12.7768 15.2679 12.7743 15.2679 12.7719C15.2679 12.7695 15.2679 12.767 15.2679 12.7646C15.2679 12.7621 15.2679 12.7597 15.2679 12.7572C15.2679 12.7548 15.2679 12.7523 15.2679 12.7498C15.2679 12.7474 15.2679 12.7449 15.2679 12.7424C15.2679 12.7399 15.2679 12.7375 15.2679 12.735C15.2679 12.7325 15.2679 12.73 15.2679 12.7275C15.2679 12.725 15.2679 12.7225 15.2679 12.72C15.2679 12.7175 15.2679 12.715 15.2679 12.7125C15.2679 12.71 15.2679 12.7075 15.2679 12.7049C15.2679 12.7024 15.2679 12.6999 15.2679 12.6974C15.2679 12.6948 15.2679 12.6923 15.2679 12.6898C15.2679 12.6872 15.2679 12.6847 15.2679 12.6821C15.2679 12.6796 15.2679 12.6771 15.2679 12.6745C15.2679 12.6719 15.2679 12.6694 15.2679 12.6668C15.2679 12.6643 15.2679 12.6617 15.2679 12.6591C15.2679 12.6565 15.2679 12.654 15.2679 12.6514C15.2679 12.6488 15.2679 12.6462 15.2679 12.6436C15.2679 12.641 15.2679 12.6384 15.2679 12.6358C15.2679 12.6332 15.2679 12.6306 15.2679 12.628C15.2679 12.6254 15.2679 12.6228 15.2679 12.6202C15.2679 12.6176 15.2679 12.615 15.2679 12.6123C15.2679 12.6097 15.2679 12.6071 15.2679 12.6045C15.2679 12.6018 15.2679 12.5992 15.2679 12.5966C15.2679 12.5939 15.2679 12.5913 15.2679 12.5886C15.2679 12.586 15.2679 12.5833 15.2679 12.5807C15.2679 12.578 15.2679 12.5754 15.2679 12.5727C15.2679 12.57 15.2679 12.5674 15.2679 12.5647C15.2679 12.562 15.2679 12.5593 15.2679 12.5567C15.2679 12.554 15.2679 12.5513 15.2679 12.5486C15.2679 12.5459 15.2679 12.5432 15.2679 12.5405C15.2679 12.5378 15.2679 12.5351 15.2679 12.5324C15.2679 12.5297 15.2679 12.527 15.2679 12.5243C15.2679 12.5216 15.2679 12.5189 15.2679 12.5161C15.2679 12.5134 15.2679 12.5107 15.2679 12.508C15.2679 12.5052 15.2679 12.5025 15.2679 12.4998C15.2679 12.497 15.2679 12.4943 15.2679 12.4915C15.2679 12.4888 15.2679 12.4861 15.2679 12.4833C15.2679 12.4806 15.2679 12.4778 15.2679 12.475C15.2679 12.4723 15.2679 12.4695 15.2679 12.4667C15.2679 12.464 15.2679 12.4612 15.2679 12.4584C15.2679 12.4557 15.2679 12.4529 15.2679 12.4501C15.2679 12.4473 15.2679 12.4445 15.2679 12.4417C15.2679 12.439 15.2679 12.4362 15.2679 12.4334C15.2679 12.4306 15.2679 12.4278 15.2679 12.425C15.2679 12.4222 15.2679 12.4193 15.2679 12.4165C15.2679 12.4137 15.2679 12.4109 15.2679 12.4081C15.2679 12.4053 15.2679 12.4024 15.2679 12.3996C15.2679 12.3968 15.2679 12.394 15.2679 12.3911C15.2679 12.3883 15.2679 12.3855 15.2679 12.3826C15.2679 12.3798 15.2679 12.3769 15.2679 12.3741C15.2679 12.3712 15.2679 12.3684 15.2679 12.3655C15.2679 12.3627 15.2679 12.3598 15.2679 12.357C15.2679 12.3541 15.2679 12.3512 15.2679 12.3484C15.2679 12.3455 15.2679 12.3426 15.2679 12.3397C15.2679 12.3369 15.2679 12.334 15.2679 12.3311C15.2679 12.3282 15.2679 12.3253 15.2679 12.3224C15.2679 12.3195 15.2679 12.3167 15.2679 12.3138C15.2679 12.3109 15.2679 12.308 15.2679 12.3051C15.2679 12.3022 15.2679 12.2992 15.2679 12.2963C15.2679 12.2934 15.2679 12.2905 15.2679 12.2876C15.2679 12.2847 15.2679 12.2818 15.2679 12.2788C15.2679 12.2759 15.2679 12.273 15.2679 12.2701C15.2679 12.2671 15.2679 12.2642 15.2679 12.2613C15.2679 12.2583 15.2679 12.2554 15.2679 12.2524C15.2679 12.2495 15.2679 12.2465 15.2679 12.2436C15.2679 12.2406 15.2679 12.2377 15.2679 12.2347C15.2679 12.2318 15.2679 12.2288 15.2679 12.2258C15.2679 12.2229 15.2679 12.2199 15.2679 12.2169C15.2679 12.214 15.2679 12.211 15.2679 12.208C15.2679 12.2051 15.2679 12.2021 15.2679 12.1991C15.2679 12.1961 15.2679 12.1931 15.2679 12.1901C15.2679 12.1872 15.2679 12.1842 15.2679 12.1812C15.2679 12.1782 15.2679 12.1752 15.2679 12.1722C15.2679 12.1692 15.2679 12.1662 15.2679 12.1632C15.2679 12.1602 15.2679 12.1571 15.2679 12.1541C15.2679 12.1511 15.2679 12.1481 15.2679 12.1451C15.2679 12.1421 15.2679 12.139 15.2679 12.136C15.2679 12.133 15.2679 12.13 15.2679 12.1269C15.2679 12.1239 15.2679 12.1209 15.2679 12.1178C15.2679 12.1148 15.2679 12.1118 15.2679 12.1087C15.2679 12.1057 15.2679 12.1026 15.2679 12.0996C15.2679 12.0965 15.2679 12.0935 15.2679 12.0904C15.2679 12.0874 15.2679 12.0843 15.2679 12.0812C15.2679 12.0782 15.2679 12.0751 15.2679 12.0721C15.2679 12.069 15.2679 12.0659 15.2679 12.0628C15.2679 12.0598 15.2679 12.0567 15.2679 12.0536C15.2679 12.0505 15.2679 12.0475 15.2679 12.0444C15.2679 12.0413 15.2679 12.0382 15.2679 12.0351C15.2679 12.032 15.2679 12.0289 15.2679 12.0259C15.2679 12.0228 15.2679 12.0197 15.2679 12.0166C15.2679 12.0135 15.2679 12.0104 15.2679 12.0073C15.2679 12.0042 15.2679 12.001 15.2679 11.9979C15.2679 11.9948 15.2679 11.9917 15.2679 11.9886C15.2679 11.9855 15.2679 11.9824 15.2679 11.9792C15.2679 11.9761 15.2679 11.973 15.2679 11.9699C15.2679 11.9668 15.2679 11.9636 15.2679 11.9605C15.2679 11.9574 15.2679 11.9542 15.2679 11.9511C15.2679 11.948 15.2679 11.9448 15.2679 11.9417C15.2679 11.9385 15.2679 11.9354 15.2679 11.9322C15.2679 11.9291 15.2679 11.9259 15.2679 11.9228C15.2679 11.9196 15.2679 11.9165 15.2679 11.9133C15.2679 11.9102 15.2679 11.907 15.2679 11.9039C15.2679 11.9007 15.2679 11.8975 15.2679 11.8944C15.2679 11.8912 15.2679 11.888 15.2679 11.8849C15.2679 11.8817 15.2679 11.8785 15.2679 11.8753C15.2679 11.8722 15.2679 11.869 15.2679 11.8658C15.2679 11.8626 15.2679 11.8594 15.2679 11.8563C15.2679 11.8531 15.2679 11.8499 15.2679 11.8467C15.2679 11.8435 15.2679 11.8403 15.2679 11.8371C15.2679 11.8339 15.2679 11.8307 15.2679 11.8275C15.2679 11.8243 15.2679 11.8211 15.2679 11.8179C15.2679 11.8147 15.2679 11.8115 15.2679 11.8083C15.2679 11.8051 15.2679 11.8019 15.2679 11.7987C15.2679 11.7955 15.2679 11.7922 15.2679 11.789C15.2679 11.7858 15.2679 11.7826 15.2679 11.7794C15.2679 11.7761 15.2679 11.7729 15.2679 11.7697C15.2679 11.7665 15.2679 11.7632 15.2679 11.76C15.2679 11.7568 15.2679 11.7535 15.2679 11.7503C15.2679 11.7471 15.2679 11.7438 15.2679 11.7406C15.2679 11.7374 15.2679 11.7341 15.2679 11.7309C15.2679 11.7276 15.2679 11.7244 15.2679 11.7211C15.2679 11.7179 15.2679 11.7146 15.2679 11.7114C15.2679 11.7081 15.2679 11.7049 15.2679 11.7016C15.2679 11.6984 15.2679 11.6951 15.2679 11.6919C15.2679 11.6886 15.2679 11.6853 15.2679 11.6821C15.2679 11.6788 15.2679 11.6755 15.2679 11.6723C15.2679 11.669 15.2679 11.6657 15.2679 11.6625C15.2679 11.6592 15.2679 11.6559 15.2679 11.6526C15.2679 11.6494 15.2679 11.6461 15.2679 11.6428C15.2679 11.6395 15.2679 11.6363 15.2679 11.633C15.2679 11.6297 15.2679 11.6264 15.2679 11.6231C15.2679 11.6198 15.2679 11.6165 15.2679 11.6133C15.2679 11.61 15.2679 11.6067 15.2679 11.6034C15.2679 11.6001 15.2679 11.5968 15.2679 11.5935C15.2679 11.5902 15.2679 11.5869 15.2679 11.5836C15.2679 11.5803 15.2679 11.577 15.2679 11.5737C15.2679 11.5704 15.2679 11.5671 15.2679 11.5638C15.2679 11.5605 15.2679 11.5572 15.2679 11.5538C15.2679 11.5505 15.2679 11.5472 15.2679 11.5439C15.2679 11.5406 15.2679 11.5373 15.2679 11.534C15.2679 11.5306 15.2679 11.5273 15.2679 11.524C15.2679 11.5207 15.2679 11.5174 15.2679 11.514C15.2679 11.5107 15.2679 11.5074 15.2679 11.5041C15.2679 11.5007 15.2679 11.4974 15.2679 11.4941C15.2679 11.4907 15.2679 11.4874 15.2679 11.4841C15.2679 11.4807 15.2679 11.4774 15.2679 11.4741C15.2679 11.4707 15.2679 11.4674 15.2679 11.4641C15.2679 11.4607 15.2679 11.4574 15.2679 11.454C15.2679 11.4507 15.2679 11.4473 15.2679 11.444C15.2679 11.4406 15.2679 11.4373 15.2679 11.434C15.2679 11.4306 15.2679 11.4273 15.2679 11.4239C15.2679 11.4205 15.2679 11.4172 15.2679 11.4138C15.2679 11.4105 15.2679 11.4071 15.2679 11.4038C15.2679 11.4004 15.2679 11.3971 15.2679 11.3937C15.2679 11.3903 15.2679 11.387 15.2679 11.3836C15.2679 11.3803 15.2679 11.3769 15.2679 11.3735C15.2679 11.3702 15.2679 11.3668 15.2679 11.3634C15.2679 11.3601 15.2679 11.3567 15.2679 11.3533C15.2679 11.3499 15.2679 11.3466 15.2679 11.3432C15.2679 11.3398 15.2679 11.3365 15.2679 11.3331C15.2679 11.3297 15.2679 11.3263 15.2679 11.3229C15.2679 11.3196 15.2679 11.3162 15.2679 11.3128C15.2679 11.3094 15.2679 11.306 15.2679 11.3027C15.2679 11.2993 15.2679 11.2959 15.2679 11.2925C15.2679 11.2891 15.2679 11.2857 15.2679 11.2824C15.2679 11.279 15.2679 11.2756 15.2679 11.2722C15.2679 11.2688 15.2679 11.2654 15.2679 11.262C15.2679 11.2586 15.2679 11.2552 15.2679 11.2518C15.2679 11.2484 15.2679 11.2451 15.2679 11.2417C15.2679 11.2383 15.2679 11.2349 15.2679 11.2315C15.2679 11.2281 15.2679 11.2247 15.2679 11.2213C15.2679 11.2179 15.2679 11.2145 15.2679 11.2111C15.2679 11.2077 15.2679 11.2043 15.2679 11.2009C15.2679 11.1975 15.2679 11.194 15.2679 11.1906C15.2679 11.1872 15.2679 11.1838 15.2679 11.1804C15.2679 11.177 15.2679 11.1736 15.2679 11.1702C15.2679 11.1668 15.2679 11.1634 15.2679 11.16C15.2679 11.1566 15.2679 11.1531 15.2679 11.1497C15.2679 11.1463 15.2679 11.1429 15.2679 11.1395C15.2679 11.1361 15.2679 11.1327 15.2679 11.1292C15.2679 11.1258 15.2679 11.1224 15.2679 11.119C15.2679 11.1156 15.2679 11.1122 15.2679 11.1087C15.2679 11.1053 15.2679 11.1019 15.2679 11.0985C15.2679 11.0951 15.2679 11.0916 15.2679 11.0882C15.2679 11.0848 15.2679 11.0814 15.2679 11.0779C15.2679 11.0745 15.2679 11.0711 15.2679 11.0677C15.2679 11.0642 15.2679 11.0608 15.2679 11.0574C15.2679 11.054 15.2679 11.0505 15.2679 11.0471C15.2679 11.0437 15.2679 11.0403 15.2679 11.0368C15.2679 11.0334 15.2679 11.03 15.2679 11.0265C15.2679 11.0231 15.2679 11.0197 15.2679 11.0162C15.2679 11.0128 15.2679 11.0094 15.2679 11.006C15.2679 11.0025 15.2679 10.9991 15.2679 10.9957C15.2679 10.9922 15.2679 10.9888 15.2679 10.9854C15.2679 10.9819 15.2679 10.9785 15.2679 10.975C15.2679 10.9716 15.2679 10.9682 15.2679 10.9647C15.2679 10.9613 15.2679 10.9579 15.2679 10.9544C15.2679 10.951 15.2679 10.9476 15.2679 10.9441C15.2679 10.9407 15.2679 10.9372 15.2679 10.9338C15.2679 10.9304 15.2679 10.9269 15.2679 10.9235C15.2679 10.92 15.2679 10.9166 15.2679 10.9132C15.2679 10.9097 15.2679 10.9063 15.2679 10.9028C15.2679 10.8994 15.2679 10.896 15.2679 10.8925C15.2679 10.8891 15.2679 10.8856 15.2679 10.8822C15.2679 10.8787 15.2679 10.8753 15.2679 10.8719C15.2679 10.8684 15.2679 10.865 15.2679 10.8615C15.2679 10.8581 15.2679 10.8546 15.2679 10.8512C15.2679 10.8477 15.2679 10.8443 15.2679 10.8409C15.2679 10.8374 15.2679 10.834 15.2679 10.8305C15.2679 10.8271 15.2679 10.8236 15.2679 10.8202C15.2679 10.8167 15.2679 10.8133 15.2679 10.8099C15.2679 10.8064 15.2679 10.803 15.2679 10.7995C15.2679 10.7961 15.2679 10.7926 15.2679 10.7892C15.2679 10.7857 15.2679 10.7823 15.2679 10.7788C15.2679 10.7754 15.2679 10.7719 15.2679 10.7685C15.2679 10.7651 15.2679 10.7616 15.2679 10.7582C15.2679 10.7547 15.2679 10.7513 15.2679 10.7478C15.2679 10.7444 15.2679 10.7409 15.2679 10.7375C15.2679 10.734 15.2679 10.7306 15.2679 10.7271C15.2679 10.7237 15.2679 10.7202 15.2679 10.7168C15.2679 10.7134 15.2679 10.7099 15.2679 10.7065C15.2679 10.703 15.2679 10.6996 15.2679 10.6961C15.2679 10.6927 15.2679 10.6892 15.2679 10.6858C15.2679 10.6823 15.2679 10.6789 15.2679 10.6754C15.2679 10.672 15.2679 10.6686 15.2679 10.6651C15.2679 10.6617 15.2679 10.6582 15.2679 10.6548C15.2679 10.6513 15.2679 10.6479 15.2679 10.6444C15.2679 10.641 15.2679 10.6375 15.2679 10.6341C15.2679 10.6307 15.2679 10.6272 15.2679 10.6238C15.2679 10.6203 15.2679 10.6169 15.2679 10.6134C15.2679 10.61 15.2679 10.6066 15.2679 10.6031C15.2679 10.5997 15.2679 10.5962 15.2679 10.5928C15.2679 10.5893 15.2679 10.5859 15.2679 10.5825C15.2679 10.579 15.2679 10.5756 15.2679 10.5721C15.2679 10.5687 15.2679 10.5652 15.2679 10.5618C15.2679 10.5584 15.2679 10.5549 15.2679 10.5515C15.2679 10.548 15.2679 10.5446 15.2679 10.5412C15.2679 10.5377 15.2679 10.5343 15.2679 10.5309C15.2679 10.5274 15.2679 10.524 15.2679 10.5205C15.2679 10.5171 15.2679 10.5137 15.2679 10.5102C15.2679 10.5068 15.2679 10.5034 15.2679 10.4999C15.2679 10.4965 15.2679 10.4931 15.2679 10.4896C15.2679 10.4862 15.2679 10.4828 15.2679 10.4793C15.2679 10.4759 15.2679 10.4725 15.2679 10.469C15.2679 10.4656 15.2679 10.4622 15.2679 10.4587C15.2679 10.4553 15.2679 10.4519 15.2679 10.4484C15.2679 10.445 15.2679 10.4416 15.2679 10.4381C15.2679 10.4347 15.2679 10.4313 15.2679 10.4279C15.2679 10.4244 15.2679 10.421 15.2679 10.4176C15.2679 10.4142 15.2679 10.4107 15.2679 10.4073C15.2679 10.4039 15.2679 10.4005 15.2679 10.397C15.2679 10.3936 15.2679 10.3902 15.2679 10.3868C15.2679 10.3833 15.2679 10.3799 15.2679 10.3765C15.2679 10.3731 15.2679 10.3697 15.2679 10.3662C15.2679 10.3628 15.2679 10.3594 15.2679 10.356C15.2679 10.3526 15.2679 10.3492 15.2679 10.3457C15.2679 10.3423 15.2679 10.3389 15.2679 10.3355C15.2679 10.3321 15.2679 10.3287 15.2679 10.3253C15.2679 10.3218 15.2679 10.3184 15.2679 10.315C15.2679 10.3116 15.2679 10.3082 15.2679 10.3048C15.2679 10.3014 15.2679 10.298 15.2679 10.2946C15.2679 10.2912 15.2679 10.2877 15.2679 10.2843C15.2679 10.2809 15.2679 10.2775 15.2679 10.2741C15.2679 10.2707 15.2679 10.2673 15.2679 10.2639C15.2679 10.2605 15.2679 10.2571 15.2679 10.2537C15.2679 10.2503 15.2679 10.2469 15.2679 10.2435C15.2679 10.2401 15.2679 10.2367 15.2679 10.2333C15.2679 10.2299 15.2679 10.2265 15.2679 10.2232C15.2679 10.2198 15.2679 10.2164 15.2679 10.213C15.2679 10.2096 15.2679 10.2062 15.2679 10.2028C15.2679 10.1994 15.2679 10.196 15.2679 10.1926C15.2679 10.1893 15.2679 10.1859 15.2679 10.1825C15.2679 10.1791 15.2679 10.1757 15.2679 10.1723C15.2679 10.169 15.2679 10.1656 15.2679 10.1622C15.2679 10.1588 15.2679 10.1554 15.2679 10.1521C15.2679 10.1487 15.2679 10.1453 15.2679 10.1419C15.2679 10.1386 15.2679 10.1352 15.2679 10.1318C15.2679 10.1284 15.2679 10.1251 15.2679 10.1217C15.2679 10.1183 15.2679 10.115 15.2679 10.1116C15.2679 10.1082 15.2679 10.1049 15.2679 10.1015C15.2679 10.0981 15.2679 10.0948 15.2679 10.0914C15.2679 10.088 15.2679 10.0847 15.2679 10.0813C15.2679 10.078 15.2679 10.0746 15.2679 10.0712C15.2679 10.0679 15.2679 10.0645 15.2679 10.0612C15.2679 10.0578 15.2679 10.0545 15.2679 10.0511C15.2679 10.0478 15.2679 10.0444 15.2679 10.0411C15.2679 10.0377 15.2679 10.0344 15.2679 10.031C15.2679 10.0277 15.2679 10.0243 15.2679 10.021C15.2679 10.0177 15.2679 10.0143 15.2679 10.011C15.2679 10.0076 15.2679 10.0043 15.2679 10.001C15.2679 9.99762 15.2679 9.99429 15.2679 9.99096C15.2679 9.98762 15.2679 9.98429 15.2679 9.98096C15.2679 9.97763 15.2679 9.9743 15.2679 9.97098C15.2679 9.96765 15.2679 9.96432 15.2679 9.961C15.2679 9.95768 15.2679 9.95435 15.2679 9.95103C15.2679 9.94771 15.2679 9.94439 15.2679 9.94108C15.2679 9.93776 15.2679 9.93444 15.2679 9.93113C15.2679 9.92782 15.2679 9.9245 15.2679 9.92119C15.2679 9.91788 15.2679 9.91457 15.2679 9.91127C15.2679 9.90796 15.2679 9.90466 15.2679 9.90135C15.2679 9.89805 15.2679 9.89475 15.2679 9.89145C15.2679 9.88815 15.2679 9.88485 15.2679 9.88155C15.2679 9.87825 15.2679 9.87496 15.2679 9.87167C15.2679 9.86837 15.2679 9.86508 15.2679 9.86179C15.2679 9.8585 15.2679 9.85522 15.2679 9.85193C15.2679 9.84865 15.2679 9.84536 15.2679 9.84208C15.2679 9.8388 15.2679 9.83552 15.2679 9.83224C15.2679 9.82896 15.2679 9.82569 15.2679 9.82241C15.2679 9.81914 15.2679 9.81587 15.2679 9.81259C15.2679 9.80932 15.2679 9.80606 15.2679 9.80279C15.2679 9.79952 15.2679 9.79626 15.2679 9.793C15.2679 9.78973 15.2679 9.78647 15.2679 9.78321C15.2679 9.77995 15.2679 9.7767 15.2679 9.77344C15.2679 9.77019 15.2679 9.76694 15.2679 9.76369C15.2679 9.76044 15.2679 9.75719 15.2679 9.75394C15.2679 9.75069 15.2679 9.74745 15.2679 9.74421C15.2679 9.74096 15.2679 9.73772 15.2679 9.73449C15.2679 9.73125 15.2679 9.72801 15.2679 9.72478C15.2679 9.72154 15.2679 9.71831 15.2679 9.71508C15.2679 9.71185 15.2679 9.70863 15.2679 9.7054C15.2679 9.70218 15.2679 9.69895 15.2679 9.69573C15.2679 9.69251 15.2679 9.68929 15.2679 9.68607C15.2679 9.68286 15.2679 9.67964 15.2679 9.67643C15.2679 9.67322 15.2679 9.67001 15.2679 9.6668C15.2679 9.66359 15.2679 9.66039 15.2679 9.65719C15.2679 9.65398 15.2679 9.65078 15.2679 9.64758C15.2679 9.64438 15.2679 9.64119 15.2679 9.63799C15.2679 9.6348 15.2679 9.63161 15.2679 9.62842C15.2679 9.62523 15.2679 9.62204 15.2679 9.61886C15.2679 9.61567 15.2679 9.61249 15.2679 9.60931C15.2679 9.60613 15.2679 9.60295 15.2679 9.59978C15.2679 9.5966 15.2679 9.59343 15.2679 9.59026C15.2679 9.58709 15.2679 9.58392 15.2679 9.58076C15.2679 9.57759 15.2679 9.57443 15.2679 9.57127C15.2679 9.56811 15.2679 9.56495 15.2679 9.5618C15.2679 9.55864 15.2679 9.55549 15.2679 9.55234C15.2679 9.54919 15.2679 9.54604 15.2679 9.54289C15.2679 9.53975 15.2679 9.5366 15.2679 9.53346C15.2679 9.53032 15.2679 9.52719 15.2679 9.52405C15.2679 9.52092 15.2679 9.51778 15.2679 9.51465C15.2679 9.51152 15.2679 9.50839 15.2679 9.50527C15.2679 9.50214 15.2679 9.49902 15.2679 9.4959C15.2679 9.49278 15.2679 9.48967 15.2679 9.48655C15.2679 9.48344 15.2679 9.48033 15.2679 9.47722C15.2679 9.47411 15.2679 9.471 15.2679 9.4679C15.2679 9.46479 15.2679 9.46169 15.2679 9.45859C15.2679 9.4555 15.2679 9.4524 15.2679 9.44931C15.2679 9.44622 15.2679 9.44313 15.2679 9.44004C15.2679 9.43695 15.2679 9.43387 15.2679 9.43078C15.2679 9.4277 15.2679 9.42462 15.2679 9.42155C15.2679 9.41847 15.2679 9.4154 15.2679 9.41233C15.2679 9.40926 15.2679 9.40619 15.2679 9.40312C15.2679 9.40006 15.2679 9.397 15.2679 9.39394C15.2679 9.39088 15.2679 9.38782 15.2679 9.38477C15.2679 9.38172 15.2679 9.37867 15.2679 9.37562C15.2679 9.37257 15.2679 9.36953 15.2679 9.36648C15.2679 9.36344 15.2679 9.3604 15.2679 9.35737C15.2679 9.35433 15.2679 9.3513 15.2679 9.34827C15.2679 9.34524 15.2679 9.34221 15.2679 9.33919C15.2679 9.33616 15.2679 9.33314 15.2679 9.33013C15.2679 9.32711 15.2679 9.32409 15.2679 9.32108C15.2679 9.31807 15.2679 9.31506 15.2679 9.31206C15.2679 9.30905 15.2679 9.30605 15.2679 9.30305C15.2679 9.30005 15.2679 9.29705 15.2679 9.29406C15.2679 9.29106 15.2679 9.28807 15.2679 9.28509C15.2679 9.2821 15.2679 9.27912 15.2679 9.27613C15.2679 9.27315 15.2679 9.27018 15.2679 9.2672C15.2679 9.26423 15.2679 9.26125 15.2679 9.25829C15.2679 9.25532 15.2679 9.25235 15.2679 9.24939C15.2679 9.24643 15.2679 9.24347 15.2679 9.24052C15.2679 9.23756 15.2679 9.23461 15.2679 9.23166C15.2679 9.22871 15.2679 9.22576 15.2679 9.22282C15.2679 9.21988 15.2679 9.21694 15.2679 9.214C15.2679 9.21107 15.2679 9.20814 15.2679 9.20521C15.2679 9.20228 15.2679 9.19935 15.2679 9.19643C15.2679 9.19351 15.2679 9.19059 15.2679 9.18767C15.2679 9.18475 15.2679 9.18184 15.2679 9.17893C15.2679 9.17602 15.2679 9.17312 15.2679 9.17022C15.2679 9.16731 15.2679 9.16441 15.2679 9.16152C15.2679 9.15862 15.2679 9.15573 15.2679 9.15284C15.2679 9.14995 15.2679 9.14707 15.2679 9.14419C15.2679 9.1413 15.2679 9.13843 15.2679 9.13555C15.2679 9.13268 15.2679 9.1298 15.2679 9.12694C15.2679 9.12407 15.2679 9.1212 15.2679 9.11834C15.2679 9.11548 15.2679 9.11263 15.2679 9.10977C15.2679 9.10692 15.2679 9.10407 15.2679 9.10122C15.2679 9.09837 15.2679 9.09553 15.2679 9.09269C15.2679 9.08985 15.2679 9.08702 15.2679 9.08418C15.2679 9.08135 15.2679 9.07852 15.2679 9.0757C15.2679 9.07287 15.2679 9.07005 15.2679 9.06723C15.2679 9.06442 15.2679 9.0616 15.2679 9.05879C15.2679 9.05598 15.2679 9.05317 15.2679 9.05037C15.2679 9.04757 15.2679 9.04477 15.2679 9.04197C15.2679 9.03918 15.2679 9.03639 15.2679 9.0336C15.2679 9.03081 15.2679 9.02802 15.2679 9.02524C15.2679 9.02246 15.2679 9.01969 15.2679 9.01691C15.2679 9.01414 15.2679 9.01137 15.2679 9.0086C15.2679 9.00584 15.2679 9.00308 15.2679 9.00032C15.2679 8.99756 15.2679 8.99481 15.2679 8.99206C15.2679 8.98931 15.2679 8.98656 15.2679 8.98382C15.2679 8.98108 15.2679 8.97834 15.2679 8.9756C15.2679 8.97287 15.2679 8.97014 15.2679 8.96741C15.2679 8.96468 15.2679 8.96196 15.2679 8.95924C15.2679 8.95652 15.2679 8.95381 15.2679 8.95109C15.2679 8.94838 15.2679 8.94568 15.2679 8.94297C15.2679 8.94027 15.2679 8.93757 15.2679 8.93487C15.2679 8.93218 15.2679 8.92949 15.2679 8.9268C15.2679 8.92411 15.2679 8.92143 15.2679 8.91875C15.2679 8.91607 15.2679 8.91339 15.2679 8.91072C15.2679 8.90805 15.2679 8.90539 15.2679 8.90272C15.2679 8.90006 15.2679 8.8974 15.2679 8.89475C15.2679 8.89209 15.2679 8.88944 15.2679 8.88679C15.2679 8.88415 15.2679 8.8815 15.2679 8.87886C15.2679 8.87623 15.2679 8.87359 15.2679 8.87096C15.2679 8.86833 15.2679 8.86571 15.2679 8.86308C15.2679 8.86046 15.2679 8.85784 15.2679 8.85523C15.2679 8.85262 15.2679 8.85001 15.2679 8.8474C15.2679 8.8448 15.2679 8.8422 15.2679 8.8396C15.2679 8.83701 15.2679 8.83441 15.2679 8.83182C15.2679 8.82924 15.2679 8.82665 15.2679 8.82407C15.2679 8.82149 15.2679 8.81892 15.2679 8.81635C15.2679 8.81378 15.2679 8.81121 15.2679 8.80865C15.2679 8.80609 15.2679 8.80353 15.2679 8.80098C15.2679 8.79842 15.2679 8.79587 15.2679 8.79333C15.2679 8.79078 15.2679 8.78824 15.2679 8.78571C15.2679 8.78317 15.2679 8.78064 15.2679 8.77811C15.2679 8.77559 15.2679 8.77306 15.2679 8.77054C15.2679 8.76803 15.2679 8.76551 15.2679 8.763C15.2679 8.76049 15.2679 8.75799 15.2679 8.75549C15.2679 8.75299 15.2679 8.75049 15.2679 8.748C15.2679 8.74551 15.2679 8.74302 15.2679 8.74054C15.2679 8.73806 15.2679 8.73558 15.2679 8.73311C15.2679 8.73063 15.2679 8.72816 15.2679 8.7257C15.2679 8.72324 15.2679 8.72078 15.2679 8.71832C15.2679 8.71587 15.2679 8.71342 15.2679 8.71097C15.2679 8.70852 15.2679 8.70608 15.2679 8.70365C15.2679 8.70121 15.2679 8.69878 15.2679 8.69635C15.2679 8.69392 15.2679 8.6915 15.2679 8.68908C15.2679 8.68666 15.2679 8.68425 15.2679 8.68184C15.2679 8.67943 15.2679 8.67703 15.2679 8.67463C15.2679 8.67223 15.2679 8.66984 15.2679 8.66745C15.2679 8.66506 15.2679 8.66267 15.2679 8.66029C15.2679 8.65791 15.2679 8.65553 15.2679 8.65316C15.2679 8.65079 15.2679 8.64843 15.2679 8.64607C15.2679 8.6437 15.2679 8.64135 15.2679 8.639C15.2679 8.63665 15.2679 8.6343 15.2679 8.63196C15.2679 8.62961 15.2679 8.62728 15.2679 8.62495C15.2679 8.62261 15.2679 8.62029 15.2679 8.61796C15.2679 8.61564 15.2679 8.61332 15.2679 8.61101C15.2679 8.6087 15.2679 8.60639 15.2679 8.60409C15.2679 8.60178 15.2679 8.59949 15.2679 8.59719C15.2679 8.5949 15.2679 8.59261 15.2679 8.59033C15.2679 8.58805 15.2679 8.58577 15.2679 8.5835C15.2679 8.58122 15.2679 8.57895 15.2679 8.57669C15.2679 8.57443 15.2679 8.57217 15.2679 8.56992C15.2679 8.56766 15.2679 8.56542 15.2679 8.56317C15.2679 8.56093 15.2679 8.55869 15.2679 8.55646C15.2679 8.55423 15.2679 8.552 15.2679 8.54978C15.2679 8.54755 15.2679 8.54534 15.2679 8.54312C15.2679 8.54091 15.2679 8.5387 15.2679 8.5365C15.2679 8.5343 15.2679 8.5321 15.2679 8.52991C15.2679 8.52772 15.2679 8.52553 15.2679 8.52335C15.2679 8.52117 15.2679 8.51899 15.2679 8.51682C15.2679 8.51465 15.2679 8.51249 15.2679 8.51033C15.2679 8.50816 15.2679 8.50601 15.2679 8.50386C15.2679 8.50171 15.2679 8.49956 15.2679 8.49742C15.2679 8.49528 15.2679 8.49315 15.2679 8.49102C15.2679 8.48889 15.2679 8.48677 15.2679 8.48465C15.2679 8.48253 15.2679 8.48042 15.2679 8.47831C15.2679 8.4762 15.2679 8.4741 15.2679 8.472C15.2679 8.46991 15.2679 8.46781 15.2679 8.46573C15.2679 8.46364 15.2679 8.46156 15.2679 8.45948C15.2679 8.45741 15.2679 8.45534 15.2679 8.45327C15.2679 8.45121 15.2679 8.44915 15.2679 8.44709C15.2679 8.44504 15.2679 8.44299 15.2679 8.44095C15.2679 8.43891 15.2679 8.43687 15.2679 8.43484C15.2679 8.4328 15.2679 8.43078 15.2679 8.42876C15.2679 8.42673 15.2679 8.42472 15.2679 8.42271C15.2679 8.4207 15.2679 8.41869 15.2679 8.41669C15.2679 8.4147 15.2679 8.4127 15.2679 8.41071H13.7679Z" fill="#868686"/>
</svg>
