<svg width="27" height="27" viewBox="0 0 27 27" fill="none" xmlns="http://www.w3.org/2000/svg">
<path d="M10.1111 15.3421C10.6049 16.0789 12.0741 17.5526 14 17.5526C15.9259 17.5526 17.2716 16.0789 17.7037 15.3421M11.4074 10.9211C11.0988 10.4298 10.5945 9.81579 9.92593 9.81579C9.25738 9.81579 8.87654 10.1842 8.62963 10.5526M16.5926 10.9211C16.9012 10.4298 17.4055 9.81579 18.0741 9.81579C18.7426 9.81579 19.1235 10.1842 19.3704 10.5526M14 24C17.3333 24 24 21.2368 24 10.1842V7.23684C24 5.82456 23.1481 3 19.7407 3C16.3333 3 14.4938 3 14 3C13.5062 3 11.6667 3 8.25926 3C4.85185 3 4 5.82456 4 7.23684V10.1842C4 21.2368 10.6667 24 14 24Z" stroke="#868686" stroke-width="1.5" stroke-linecap="round"/>
</svg>
