<svg width="27" height="27" viewBox="0 0 27 27" fill="none" xmlns="http://www.w3.org/2000/svg">
<path d="M5 6.00536C5 5.45012 5.45234 5 6.01032 5H10.0516C10.6096 5 11.0619 5.45012 11.0619 6.00536V10.0268C11.0619 10.5821 10.6096 11.0322 10.0516 11.0322H6.01032C5.45234 11.0322 5 10.5821 5 10.0268V6.00536Z" stroke="#868686" stroke-width="1.5"/>
<path d="M5 15.9732C5 15.4179 5.45234 14.9678 6.01032 14.9678H10.0516C10.6096 14.9678 11.0619 15.4179 11.0619 15.9732V19.9946C11.0619 20.5499 10.6096 21 10.0516 21H6.01032C5.45234 21 5 20.5499 5 19.9946V15.9732Z" stroke="#868686" stroke-width="1.5"/>
<path d="M14.9381 6.00536C14.9381 5.45012 15.3904 5 15.9484 5H19.9897C20.5477 5 21 5.45012 21 6.00536V10.0268C21 10.5821 20.5477 11.0322 19.9897 11.0322H15.9484C15.3904 11.0322 14.9381 10.5821 14.9381 10.0268V6.00536Z" stroke="#868686" stroke-width="1.5"/>
<path d="M14.9381 15.9732C14.9381 15.4179 15.3904 14.9678 15.9484 14.9678H19.9897C20.5477 14.9678 21 15.4179 21 15.9732V19.9946C21 20.5499 20.5477 21 19.9897 21H15.9484C15.3904 21 14.9381 20.5499 14.9381 19.9946V15.9732Z" stroke="#868686" stroke-width="1.5"/>
</svg>
