<svg width="27" height="27" viewBox="0 0 27 27" fill="none" xmlns="http://www.w3.org/2000/svg">
<path d="M17.9057 13C17.9057 15.157 16.157 16.9057 14 16.9057C11.843 16.9057 10.0943 15.157 10.0943 13C10.0943 10.843 11.843 9.09434 14 9.09434C16.157 9.09434 17.9057 10.843 17.9057 13ZM17.9057 13C17.9057 15.157 18.4151 17.0755 20.4528 17.0755C22.4906 17.0755 23 14.3585 23 13C23 8.02944 18.9706 4 14 4C9.02944 4 5 8.02944 5 13C5 17.9706 9.02944 22 14 22H17.3962" stroke="#868686" stroke-width="1.5" stroke-linecap="round"/>
</svg>
