<svg width="27" height="27" viewBox="0 0 27 27" fill="none" xmlns="http://www.w3.org/2000/svg">
<path d="M22 10.3333V16.6667C22 17.7778 21.3394 20 18.6972 20H9.2844M5.3211 6C4.88073 6 4 6.26667 4 7.33333V15.5C4 16.5667 4.88073 16.8333 5.3211 16.8333H17.5413C17.9817 16.8333 18.8624 16.5667 18.8624 15.5V7.33333C18.8624 6.26667 17.9817 6 17.5413 6H5.3211ZM13.7431 11.3333C13.7431 12.622 12.708 13.6667 11.4312 13.6667C10.1544 13.6667 9.11927 12.622 9.11927 11.3333C9.11927 10.0447 10.1544 9 11.4312 9C12.708 9 13.7431 10.0447 13.7431 11.3333Z" stroke="#868686" stroke-width="1.5" stroke-linecap="round"/>
</svg>
