<svg width="27" height="27" viewBox="0 0 27 27" fill="none" xmlns="http://www.w3.org/2000/svg">
<path d="M23 22.4775L16.4454 15.8736M3.84034 3.17366L9.38655 8.76161M9.38655 8.76161H4.84874C4.23249 8.76161 3 9.13414 3 10.6243C3 12.1144 3 14.406 3 15.3656C3 16.0429 3.33613 17.2282 4.84874 17.2282C6.32773 17.2282 7.48179 17.2282 7.87395 17.2282C8.09804 17.2282 8.7479 17.4314 9.55462 18.2442C10.3613 19.057 13.084 21.4615 14.4286 22.6468C15.1008 23.3242 16.4454 23.0194 16.4454 21.8002V20.4455C16.4454 18.549 16.4454 16.6073 16.4454 15.8736M9.38655 8.76161L16.4454 15.8736M11.9076 5.88517L14.4286 3.34519C15.1008 2.66786 16.4454 3.00664 16.4454 4.19185V5.5465V10.6243" stroke="#868686" stroke-width="1.5" stroke-linecap="round"/>
</svg>
