<svg width="27" height="27" viewBox="0 0 27 27" fill="none" xmlns="http://www.w3.org/2000/svg">
<path d="M17.2759 13.9999C17.2759 15.8091 15.8092 17.2758 14 17.2758C12.1908 17.2758 10.7241 15.8091 10.7241 13.9999C10.7241 12.1906 12.1908 10.724 14 10.724C15.8092 10.724 17.2759 12.1906 17.2759 13.9999Z" fill="#868686"/>
<path d="M21.7586 13.9999C21.7586 18.2849 18.285 21.7586 14 21.7586M21.7586 13.9999C21.7586 9.71485 18.285 6.24115 14 6.24115M21.7586 13.9999H24M14 21.7586C9.71503 21.7586 6.24138 18.2849 6.24138 13.9999M14 21.7586V24M6.24138 13.9999C6.24138 9.71485 9.71503 6.24115 14 6.24115M6.24138 13.9999H4M14 6.24115V4M17.2759 13.9999C17.2759 15.8091 15.8092 17.2758 14 17.2758C12.1908 17.2758 10.7241 15.8091 10.7241 13.9999C10.7241 12.1906 12.1908 10.724 14 10.724C15.8092 10.724 17.2759 12.1906 17.2759 13.9999Z" stroke="#868686" stroke-width="1.5" stroke-linecap="round"/>
</svg>
