<svg width="27" height="27" viewBox="0 0 27 27" fill="none" xmlns="http://www.w3.org/2000/svg">
<path d="M2 15.75C1.58579 15.75 1.25 16.0858 1.25 16.5C1.25 16.9142 1.58579 17.25 2 17.25V15.75ZM5.05279 15.3944L4.38197 15.059L5.05279 15.3944ZM6.5 12.5L7.22531 12.3091C7.14586 12.0072 6.88774 11.7861 6.57723 11.754C6.26673 11.7218 5.96878 11.8854 5.82918 12.1646L6.5 12.5ZM9 22L8.27469 22.1909C8.36333 22.5277 8.67219 22.7592 9.02035 22.7497C9.36852 22.7403 9.66436 22.4924 9.73459 22.1512L9 22ZM12.5 5L13.2247 4.80675C13.1351 4.47066 12.8261 4.2403 12.4784 4.25031C12.1307 4.26032 11.8355 4.50807 11.7654 4.84876L12.5 5ZM16.5 20L15.7753 20.1932C15.8638 20.5252 16.1666 20.7545 16.5101 20.7499C16.8536 20.7453 17.15 20.5079 17.2296 20.1737L16.5 20ZM19 9.5L19.6708 9.16459C19.5298 8.88249 19.2273 8.71877 18.914 8.75495C18.6007 8.79113 18.3434 9.01946 18.2704 9.32628L19 9.5ZM21.9472 15.3944L21.2764 15.7298V15.7298L21.9472 15.3944ZM25 17.25C25.4142 17.25 25.75 16.9142 25.75 16.5C25.75 16.0858 25.4142 15.75 25 15.75V17.25ZM2 17.25H3.26393V15.75H2V17.25ZM5.72361 15.7298L7.17082 12.8354L5.82918 12.1646L4.38197 15.059L5.72361 15.7298ZM5.77469 12.6909L8.27469 22.1909L9.72531 21.8091L7.22531 12.3091L5.77469 12.6909ZM9.73459 22.1512L13.2346 5.15124L11.7654 4.84876L8.26541 21.8488L9.73459 22.1512ZM11.7753 5.19325L15.7753 20.1932L17.2247 19.8068L13.2247 4.80675L11.7753 5.19325ZM17.2296 20.1737L19.7296 9.67372L18.2704 9.32628L15.7704 19.8263L17.2296 20.1737ZM18.3292 9.83541L21.2764 15.7298L22.618 15.059L19.6708 9.16459L18.3292 9.83541ZM23.7361 17.25H25V15.75H23.7361V17.25ZM21.2764 15.7298C21.7422 16.6615 22.6944 17.25 23.7361 17.25V15.75C23.2626 15.75 22.8298 15.4825 22.618 15.059L21.2764 15.7298ZM3.26393 17.25C4.30556 17.25 5.25778 16.6615 5.72361 15.7298L4.38197 15.059C4.17023 15.4825 3.7374 15.75 3.26393 15.75V17.25Z" fill="#868686"/>
</svg>
