<svg width="27" height="27" viewBox="0 0 27 27" fill="none" xmlns="http://www.w3.org/2000/svg">
<path d="M15.8947 19C15.8947 19.2778 15.8947 19.7333 15.8947 20.6667C15.8947 21.6 14.9825 21.9444 14.5263 22C14.2982 22 13.5684 22 12.4737 22C11.3789 22 11.1053 21.1111 11.1053 20.6667V19M15.8947 19C15.8947 18.5556 15.8363 17.6315 16.5789 16.6667C17.3216 15.7018 20 13.8333 20 11.1667C20 9.16667 18.5289 5 13.3289 5C8.67632 5 7 9 7 11.1667C7 14 9.73684 15.6667 10.4211 16.6667C11.2763 17.8333 11.1053 18.5556 11.1053 19M15.8947 19H11.1053M15.7237 11.8333C15.4956 12.2222 14.7316 13 13.5 13M13.5 13C12.2684 13 11.5044 12.2222 11.2763 11.8333M13.5 13V16.3333" stroke="#868686" stroke-width="1.3" stroke-linecap="round"/>
</svg>
