<svg width="27" height="27" viewBox="0 0 27 27" fill="none" xmlns="http://www.w3.org/2000/svg">
<path d="M19.4054 18.3939C19.1218 18.3939 18.8919 18.1633 18.8919 17.8788C18.8919 17.5943 19.1218 17.3636 19.4054 17.3636C19.689 17.3636 19.9189 17.5943 19.9189 17.8788C19.9189 18.1633 19.689 18.3939 19.4054 18.3939Z" fill="#868686"/>
<path d="M14.2703 18.3939C13.9867 18.3939 13.7568 18.1633 13.7568 17.8788C13.7568 17.5943 13.9867 17.3636 14.2703 17.3636C14.5539 17.3636 14.7838 17.5943 14.7838 17.8788C14.7838 18.1633 14.5539 18.3939 14.2703 18.3939Z" fill="#868686"/>
<path d="M14.2703 13.7576C13.9867 13.7576 13.7568 13.5269 13.7568 13.2424C13.7568 12.9579 13.9867 12.7273 14.2703 12.7273C14.5539 12.7273 14.7838 12.9579 14.7838 13.2424C14.7838 13.5269 14.5539 13.7576 14.2703 13.7576Z" fill="#868686"/>
<path d="M19.4054 12.7273C19.689 12.7273 19.9189 12.9579 19.9189 13.2424C19.9189 13.5269 19.689 13.7576 19.4054 13.7576C19.1218 13.7576 18.8919 13.5269 18.8919 13.2424C18.8919 12.9579 19.1218 12.7273 19.4054 12.7273Z" fill="#868686"/>
<path d="M19.4054 9.12121C19.1218 9.12121 18.8919 8.89057 18.8919 8.60606C18.8919 8.32155 19.1218 8.09091 19.4054 8.09091C19.689 8.09091 19.9189 8.32155 19.9189 8.60606C19.9189 8.89057 19.689 9.12121 19.4054 9.12121Z" fill="#868686"/>
<path d="M14.2703 8.09091C13.9867 8.09091 13.7568 8.32155 13.7568 8.60606C13.7568 8.89057 13.9867 9.12121 14.2703 9.12121C14.5539 9.12121 14.7838 8.89057 14.7838 8.60606C14.7838 8.32155 14.5539 8.09091 14.2703 8.09091Z" fill="#868686"/>
<path d="M10.6757 22H21.973C22.5402 22 23 21.5387 23 20.9697V6.0303C23 5.46128 22.5402 5 21.973 5H11.7027C11.1355 5 10.6757 5.46128 10.6757 6.0303V10.6667M10.6757 22H5.54054C5.02703 22 4 21.6909 4 20.4545C4 19.2182 4 15.4747 4 13.7576C4 12.9463 5.54054 10.6667 7.59459 10.6667C9.64865 10.6667 10.5045 10.6667 10.6757 10.6667M10.6757 22V10.6667M19.4054 18.3939C19.1218 18.3939 18.8919 18.1633 18.8919 17.8788C18.8919 17.5943 19.1218 17.3636 19.4054 17.3636C19.689 17.3636 19.9189 17.5943 19.9189 17.8788C19.9189 18.1633 19.689 18.3939 19.4054 18.3939ZM14.2703 18.3939C13.9867 18.3939 13.7568 18.1633 13.7568 17.8788C13.7568 17.5943 13.9867 17.3636 14.2703 17.3636C14.5539 17.3636 14.7838 17.5943 14.7838 17.8788C14.7838 18.1633 14.5539 18.3939 14.2703 18.3939ZM19.4054 12.7273C19.689 12.7273 19.9189 12.9579 19.9189 13.2424C19.9189 13.5269 19.689 13.7576 19.4054 13.7576C19.1218 13.7576 18.8919 13.5269 18.8919 13.2424C18.8919 12.9579 19.1218 12.7273 19.4054 12.7273ZM14.2703 13.7576C13.9867 13.7576 13.7568 13.5269 13.7568 13.2424C13.7568 12.9579 13.9867 12.7273 14.2703 12.7273C14.5539 12.7273 14.7838 12.9579 14.7838 13.2424C14.7838 13.5269 14.5539 13.7576 14.2703 13.7576ZM19.4054 9.12121C19.1218 9.12121 18.8919 8.89057 18.8919 8.60606C18.8919 8.32155 19.1218 8.09091 19.4054 8.09091C19.689 8.09091 19.9189 8.32155 19.9189 8.60606C19.9189 8.89057 19.689 9.12121 19.4054 9.12121ZM14.2703 8.09091C13.9867 8.09091 13.7568 8.32155 13.7568 8.60606C13.7568 8.89057 13.9867 9.12121 14.2703 9.12121C14.5539 9.12121 14.7838 8.89057 14.7838 8.60606C14.7838 8.32155 14.5539 8.09091 14.2703 8.09091Z" stroke="#868686" stroke-width="1.5"/>
</svg>
