<svg width="27" height="27" viewBox="0 0 27 27" fill="none" xmlns="http://www.w3.org/2000/svg">
<path d="M22 19.0435C22 20.6763 20.7315 22 19.1667 22C17.6019 22 16.3333 20.6763 16.3333 19.0435C16.3333 17.4106 17.6019 16.087 19.1667 16.087C20.7315 16.087 22 17.4106 22 19.0435Z" fill="#868686"/>
<path d="M19.6667 12.4348V7.73913C19.6667 7.15942 19.3333 6 18 6H5.66667C4.33333 6 4 7.15942 4 7.73913V18.1739C4 18.7536 4.33333 19.913 5.66667 19.913H12.8333M22 19.0435C22 20.6763 20.7315 22 19.1667 22C17.6019 22 16.3333 20.6763 16.3333 19.0435C16.3333 17.4106 17.6019 16.087 19.1667 16.087C20.7315 16.087 22 17.4106 22 19.0435Z" stroke="#868686" stroke-width="1.5" stroke-linecap="round"/>
</svg>
