<svg width="27" height="27" viewBox="0 0 27 27" fill="none" xmlns="http://www.w3.org/2000/svg">
<path d="M8.83333 12.3333C8.83333 12.6095 8.60948 12.8333 8.33333 12.8333C8.05719 12.8333 7.83333 12.6095 7.83333 12.3333C7.83333 12.0572 8.05719 11.8333 8.33333 11.8333C8.60948 11.8333 8.83333 12.0572 8.83333 12.3333Z" fill="#868686"/>
<path d="M11.8333 8.66667C11.8333 8.94281 11.6095 9.16667 11.3333 9.16667C11.0572 9.16667 10.8333 8.94281 10.8333 8.66667C10.8333 8.39052 11.0572 8.16667 11.3333 8.16667C11.6095 8.16667 11.8333 8.39052 11.8333 8.66667Z" fill="#868686"/>
<path d="M16.1667 8.66667C16.1667 8.94281 15.9428 9.16667 15.6667 9.16667C15.3905 9.16667 15.1667 8.94281 15.1667 8.66667C15.1667 8.39052 15.3905 8.16667 15.6667 8.16667C15.9428 8.16667 16.1667 8.39052 16.1667 8.66667Z" fill="#868686"/>
<path d="M19.1667 12C19.1667 12.2761 18.9428 12.5 18.6667 12.5C18.3905 12.5 18.1667 12.2761 18.1667 12C18.1667 11.7239 18.3905 11.5 18.6667 11.5C18.9428 11.5 19.1667 11.7239 19.1667 12Z" fill="#868686"/>
<path d="M8.83333 12.3333C8.83333 12.6095 8.60948 12.8333 8.33333 12.8333C8.05719 12.8333 7.83333 12.6095 7.83333 12.3333C7.83333 12.0572 8.05719 11.8333 8.33333 11.8333C8.60948 11.8333 8.83333 12.0572 8.83333 12.3333Z" stroke="#868686" stroke-width="1.5"/>
<path d="M11.8333 8.66667C11.8333 8.94281 11.6095 9.16667 11.3333 9.16667C11.0572 9.16667 10.8333 8.94281 10.8333 8.66667C10.8333 8.39052 11.0572 8.16667 11.3333 8.16667C11.6095 8.16667 11.8333 8.39052 11.8333 8.66667Z" stroke="#868686" stroke-width="1.5"/>
<path d="M16.1667 8.66667C16.1667 8.94281 15.9428 9.16667 15.6667 9.16667C15.3905 9.16667 15.1667 8.94281 15.1667 8.66667C15.1667 8.39052 15.3905 8.16667 15.6667 8.16667C15.9428 8.16667 16.1667 8.39052 16.1667 8.66667Z" stroke="#868686" stroke-width="1.5"/>
<path d="M19.1667 12C19.1667 12.2761 18.9428 12.5 18.6667 12.5C18.3905 12.5 18.1667 12.2761 18.1667 12C18.1667 11.7239 18.3905 11.5 18.6667 11.5C18.9428 11.5 19.1667 11.7239 19.1667 12Z" stroke="#868686" stroke-width="1.5"/>
</svg>
