<svg width="27" height="27" viewBox="0 0 27 27" fill="none" xmlns="http://www.w3.org/2000/svg">
<path d="M11.4643 14.5179H15.5357L13.5 8.41071C12.843 10.0819 11.6339 14.0089 11.4643 14.5179Z" fill="#868686"/>
<path d="M11.4643 14.5179L10.7528 14.2807L11.4643 14.5179ZM13.5 8.41071L14.2115 8.17354C14.1117 7.87419 13.8352 7.66931 13.5198 7.66098C13.2044 7.65264 12.9175 7.84263 12.802 8.13629L13.5 8.41071ZM13.5 22.25C8.66751 22.25 4.75 18.3325 4.75 13.5H3.25C3.25 19.1609 7.83908 23.75 13.5 23.75V22.25ZM4.75 13.5C4.75 8.66751 8.66751 4.75 13.5 4.75V3.25C7.83908 3.25 3.25 7.83908 3.25 13.5H4.75ZM13.5 4.75C18.3325 4.75 22.25 8.66751 22.25 13.5H23.75C23.75 7.83908 19.1609 3.25 13.5 3.25V4.75ZM22.25 13.5C22.25 17.0406 20.1471 20.0916 17.1189 21.4691L17.74 22.8345C21.2837 21.2224 23.75 17.65 23.75 13.5H22.25ZM17.1189 21.4691C16.017 21.9704 14.7921 22.25 13.5 22.25V23.75C15.0107 23.75 16.4469 23.4227 17.74 22.8345L17.1189 21.4691ZM18.1583 21.9749C17.8369 20.6504 17.4191 18.8811 17.0384 17.31C16.8516 16.5389 16.6783 15.8347 16.5407 15.3008C16.472 15.0344 16.4111 14.8058 16.3611 14.6307C16.321 14.4904 16.2661 14.3015 16.2065 14.1824L14.8649 14.8533C14.8478 14.819 14.8641 14.851 14.9187 15.0425C14.9634 15.1991 15.0206 15.4132 15.0881 15.6752C15.2229 16.198 15.3941 16.8934 15.5806 17.6632C15.9466 19.1739 16.3908 21.0519 16.7006 22.3287L18.1583 21.9749ZM10.2994 22.3287C10.6149 21.0283 11.0549 19.2205 11.4325 17.6884C11.6213 16.9221 11.7943 16.226 11.9282 15.6971C11.9951 15.4325 12.0519 15.2114 12.0958 15.045C12.1178 14.9617 12.1361 14.8938 12.1506 14.8419C12.1578 14.816 12.1637 14.7953 12.1684 14.7795C12.1707 14.7716 12.1725 14.7656 12.1739 14.7611C12.1753 14.7565 12.1759 14.7547 12.1758 14.755L10.7528 14.2807C10.6738 14.5176 10.3473 15.8231 9.97607 17.3294C9.59783 18.8642 9.15736 20.6741 8.84168 21.9749L10.2994 22.3287ZM11.4643 15.2679H15.5357V13.7679H11.4643V15.2679ZM16.2472 14.2807L14.2115 8.17354L12.7885 8.64788L14.8242 14.755L16.2472 14.2807ZM12.802 8.13629C12.1358 9.83066 10.9079 13.8153 10.7528 14.2807L12.1758 14.755C12.36 14.2025 13.5501 10.3332 14.198 8.68514L12.802 8.13629Z" fill="#868686"/>
</svg>
