<svg width="27" height="27" viewBox="0 0 27 27" fill="none" xmlns="http://www.w3.org/2000/svg">
<path d="M4.47078 21.4686C4.17727 21.7608 4.17628 22.2357 4.46856 22.5292C4.76084 22.8227 5.23572 22.8237 5.52922 22.5314L4.47078 21.4686ZM15.052 20.1337L14.5228 20.6652L14.5228 20.6652L15.052 20.1337ZM16.7558 19.4551L17.285 19.9865L16.7558 19.4551ZM17.4373 14.3651L16.9699 13.7785C16.7913 13.9208 16.6873 14.1368 16.6873 14.3651H17.4373ZM22.5485 10.2932L23.0158 10.8798L23.0483 10.8539L23.0777 10.8246L22.5485 10.2932ZM18.8002 4.52461L18.2318 5.01388L18.2506 5.03571L18.271 5.05605L18.8002 4.52461ZM16.5854 4.52461L16.0562 3.99318L16.0302 4.01907L16.0068 4.04737L16.5854 4.52461ZM6.53336 11.6505L6.0041 12.1819L6.00414 12.1819L6.53336 11.6505ZM6.53336 10.6325L7.06258 11.1639L6.53336 10.6325ZM9.94083 8.93584V8.18584V8.93584ZM12.6668 9.27517V10.0252C12.8907 10.0252 13.1029 9.92514 13.2454 9.75241L12.6668 9.27517ZM7.21485 9.95383L7.74408 10.4853L7.21485 9.95383ZM5.52922 22.5314L11.4923 16.5932L10.4338 15.5304L4.47078 21.4686L5.52922 22.5314ZM10.4338 16.5932L14.5228 20.6652L15.5813 19.6023L11.4923 15.5304L10.4338 16.5932ZM14.5228 20.6652C14.7183 20.8598 15.0435 21.1388 15.4983 21.1626C15.9776 21.1878 16.3453 20.9223 16.6035 20.6652L15.545 19.6023C15.512 19.6352 15.4867 19.657 15.4688 19.6707C15.451 19.6845 15.4435 19.688 15.4461 19.6867C15.4492 19.6851 15.4635 19.6782 15.488 19.6724C15.5133 19.6664 15.5438 19.663 15.5769 19.6647C15.6097 19.6664 15.6369 19.6727 15.6565 19.6793C15.6753 19.6857 15.6843 19.6912 15.6827 19.6903C15.6808 19.6892 15.6711 19.6831 15.6528 19.6681C15.6346 19.6531 15.611 19.6319 15.5812 19.6023L14.5228 20.6652ZM16.6035 20.6652C17.0124 20.258 17.2282 20.0431 17.285 19.9865L16.2265 18.9236C16.1698 18.9802 15.9539 19.1951 15.545 19.6023L16.6035 20.6652ZM17.285 19.9865C17.7395 19.5339 18.528 18.333 18.528 16.7404H17.028C17.028 17.8625 16.4535 18.6976 16.2265 18.9236L17.285 19.9865ZM18.528 16.7404C18.528 15.9949 18.4339 15.43 18.3396 15.0077C18.2959 14.8118 18.2453 14.6193 18.2196 14.5128C18.186 14.3735 18.1873 14.349 18.1873 14.3651H16.6873C16.6873 14.5509 16.7311 14.7385 16.7614 14.8643C16.7996 15.0229 16.8342 15.1485 16.8756 15.3344C16.9518 15.6755 17.028 16.1287 17.028 16.7404H18.528ZM17.9046 14.9517L23.0158 10.8798L22.0811 9.7066L16.9699 13.7785L17.9046 14.9517ZM23.0777 10.8246C23.333 10.5704 23.6325 10.1282 23.7231 9.57436C23.8213 8.97345 23.6599 8.30559 23.0777 7.72579L22.0192 8.78866C22.2548 9.02325 22.2638 9.20371 22.2427 9.33236C22.214 9.50805 22.1046 9.67672 22.0192 9.76177L23.0777 10.8246ZM23.0777 7.72579C22.2599 6.91141 20.2381 4.89805 19.3295 3.99318L18.271 5.05605C19.1797 5.96092 21.2014 7.97427 22.0192 8.78866L23.0777 7.72579ZM19.3687 4.03534C19.1141 3.73955 18.6543 3.38755 18.0534 3.28131C17.4009 3.16595 16.6913 3.36069 16.0562 3.99318L17.1146 5.05605C17.4336 4.73841 17.661 4.73521 17.7922 4.75841C17.9751 4.79073 18.1457 4.91379 18.2318 5.01388L19.3687 4.03534ZM11.4923 15.5304L7.06258 11.1191L6.00414 12.1819L10.4338 16.5932L11.4923 15.5304ZM7.06262 11.1191C7.03285 11.0895 7.01157 11.066 6.99659 11.0479C6.98156 11.0297 6.97551 11.0201 6.97453 11.0185C6.97371 11.0171 6.97953 11.0265 6.98606 11.0457C6.99289 11.0659 6.99942 11.0938 7.0012 11.1274C7.00299 11.1612 6.99948 11.1925 6.99327 11.2185C6.98726 11.2436 6.98005 11.2584 6.97829 11.2618C6.97678 11.2647 6.98022 11.2574 6.99397 11.2397C7.00771 11.222 7.02949 11.1969 7.06258 11.1639L6.00414 10.1011C5.74658 10.3575 5.47785 10.7252 5.50329 11.2065C5.5274 11.6628 5.80929 11.9879 6.0041 12.1819L7.06262 11.1191ZM9.94083 9.68584C10.5607 9.68584 11.1088 9.76298 11.5535 9.84351C11.7843 9.8853 11.9645 9.92345 12.1468 9.9586C12.2957 9.98729 12.4967 10.0252 12.6668 10.0252V8.52517C12.6783 8.52517 12.667 8.52593 12.6166 8.51854C12.5704 8.51175 12.5103 8.50104 12.4307 8.4857C12.283 8.45723 12.0585 8.41055 11.8208 8.36751C11.3285 8.27837 10.6839 8.18584 9.94083 8.18584V9.68584ZM13.2454 9.75241L17.164 5.00185L16.0068 4.04737L12.0882 8.79793L13.2454 9.75241ZM7.06258 11.1639L7.74408 10.4853L6.68563 9.42239L6.00414 10.1011L7.06258 11.1639ZM7.74408 10.4853C7.9709 10.2594 8.81088 9.68584 9.94083 9.68584V8.18584C8.3448 8.18584 7.1403 8.96961 6.68563 9.42239L7.74408 10.4853Z" fill="#868686"/>
</svg>
