<svg width="27" height="27" viewBox="0 0 27 27" fill="none" xmlns="http://www.w3.org/2000/svg">
<path d="M18.8511 9.50675H26M5.78319 16.1563L2.40533 12.7244C2.13511 12.4041 1.75679 11.5987 2.40533 10.9398C3.21602 10.1162 6.39456 10.456 6.45877 10.3907L9.01568 7.78829C9.60117 7.19343 11.1235 6.36062 12.5287 7.78829L13.7447 9.02377C15.1499 10.4514 14.3302 11.9981 13.7447 12.5929L11.1878 15.1954C11.0527 15.47 11.458 18.3527 10.6473 19.3136C9.99878 20.0824 9.2061 19.634 8.89083 19.3136L5.78319 16.1563ZM5.78319 16.1563L2 20M17.1489 14.665H26M14.766 19.8256H26" stroke="#868686" stroke-width="1.5" stroke-linecap="round"/>
</svg>
