<svg width="27" height="27" viewBox="0 0 27 27" fill="none" xmlns="http://www.w3.org/2000/svg">
<path d="M15.6667 6H20.3333C20.7015 6 21 6.30576 21 6.68293V9.41463C21 9.7918 20.7015 10.0976 20.3333 10.0976H15.6667C15.2985 10.0976 15 9.7918 15 9.41463V6.68293C15 6.30576 15.2985 6 15.6667 6Z" fill="#868686"/>
<path d="M19 14.3659V18.6341C19 19.3885 18.403 20 17.6667 20H6.33333C5.59695 20 5 19.3885 5 18.6341V9.41463C5 8.66029 5.59695 8.04878 6.33333 8.04878H11.1667M15.6667 10.0976H20.3333C20.7015 10.0976 21 9.7918 21 9.41463V6.68293C21 6.30576 20.7015 6 20.3333 6H15.6667C15.2985 6 15 6.30576 15 6.68293V9.41463C15 9.7918 15.2985 10.0976 15.6667 10.0976Z" stroke="#868686" stroke-width="1.5" stroke-linecap="round"/>
</svg>
