<svg width="27" height="27" viewBox="0 0 27 27" fill="none" xmlns="http://www.w3.org/2000/svg">
<path d="M12.2759 9.15385V14.6923H19.8621V9.15385H12.2759Z" fill="#868686"/>
<path fill-rule="evenodd" clip-rule="evenodd" d="M6.41379 5C5.08069 5 4 6.08485 4 7.42308V20.5769C4 21.9152 5.08069 23 6.41379 23H21.5862C22.9193 23 24 21.9152 24 20.5769V7.42308C24 6.08485 22.9193 5 21.5862 5H6.41379ZM21.5862 6.73077H6.41379C6.03291 6.73077 5.72414 7.04073 5.72414 7.42308V20.5769C5.72414 20.9593 6.03291 21.2692 6.41379 21.2692H21.5862C21.9671 21.2692 22.2759 20.9593 22.2759 20.5769V7.42308C22.2759 7.04073 21.9671 6.73077 21.5862 6.73077ZM12.2759 9.15385V14.6923H19.8621V9.15385H12.2759Z" fill="#868686"/>
</svg>
