<svg width="27" height="27" viewBox="0 0 27 27" fill="none" xmlns="http://www.w3.org/2000/svg">
<path d="M10.4016 14.2435C10.4016 15.1797 10.4016 17.647 10.4016 20.0261C10.4016 20.3565 10.4705 21.1496 10.7459 21.6783C11.0902 22.3391 11.7787 23 13.1557 23H15.5656C16.9426 23 17.6311 22.3391 17.9754 21.6783C18.2508 21.1496 18.3197 20.3565 18.3197 20.0261V14.2435M10.4016 14.2435H18.3197M10.4016 14.2435C8.10656 13.5826 3.41311 10.5426 3 4.33043M18.3197 14.2435C20.2131 14.629 24 16.887 24 22.8348M17.9754 7.46957C17.9754 9.38575 16.357 10.9391 14.3607 10.9391C12.3643 10.9391 10.7459 9.38575 10.7459 7.46957C10.7459 5.55338 12.3643 4 14.3607 4C16.357 4 17.9754 5.55338 17.9754 7.46957Z" stroke="#868686" stroke-width="1.5" stroke-linecap="round"/>
</svg>
