<svg width="27" height="27" viewBox="0 0 27 27" fill="none" xmlns="http://www.w3.org/2000/svg">
<path d="M10.6667 18.8361H16M9 15.0492H18M18 11.2623H9M11.6667 6.09836H6.83333C5.36667 6.09836 5 7.36066 5 7.9918C5 12.0656 5 20.5918 5 22.1066C5 23.6213 6.22222 24 6.83333 24H20.1667C20.7778 24 22 23.6213 22 22.1066C22 20.5918 22 12.0656 22 7.9918C22 7.36066 21.6333 6.09836 20.1667 6.09836H15.3333M11.6667 6.09836V4.89344C11.6667 4.2623 12.0333 3 13.5 3C14.9667 3 15.3333 4.2623 15.3333 4.89344V6.09836M11.6667 6.09836H15.3333" stroke="#868686" stroke-width="1.5" stroke-linecap="round"/>
</svg>
