<svg width="27" height="27" viewBox="0 0 27 27" fill="none" xmlns="http://www.w3.org/2000/svg">
<path d="M21.75 20C21.75 20.4142 21.4142 20.75 21 20.75C20.5858 20.75 20.25 20.4142 20.25 20H21.75ZM21 15.8333L21.7492 15.7977L21.75 15.8155V15.8333H21ZM5 12.3333L4.46967 12.8637C4.17678 12.5708 4.17678 12.0959 4.46967 11.803L5 12.3333ZM9.803 6.46967C10.0959 6.17678 10.5708 6.17678 10.8637 6.46967C11.1566 6.76256 11.1566 7.23744 10.8637 7.53033L9.803 6.46967ZM10.8637 17.1363C11.1566 17.4292 11.1566 17.9041 10.8637 18.197C10.5708 18.4899 10.0959 18.4899 9.803 18.197L10.8637 17.1363ZM20.25 20V15.8333H21.75V20H20.25ZM20.2508 15.869C20.2285 15.3992 20.054 14.6752 19.6244 14.0894C19.2196 13.5374 18.5759 13.0833 17.5 13.0833V11.5833C19.0908 11.5833 20.1693 12.2959 20.834 13.2023C21.4738 14.0748 21.716 15.1008 21.7492 15.7977L20.2508 15.869ZM17.5 13.0833C17.4948 13.0833 17.4896 13.0833 17.4843 13.0833C17.4791 13.0833 17.4738 13.0833 17.4686 13.0833C17.4633 13.0833 17.458 13.0833 17.4527 13.0833C17.4474 13.0833 17.4421 13.0833 17.4368 13.0833C17.4314 13.0833 17.4261 13.0833 17.4207 13.0833C17.4153 13.0833 17.41 13.0833 17.4046 13.0833C17.3992 13.0833 17.3938 13.0833 17.3883 13.0833C17.3829 13.0833 17.3775 13.0833 17.372 13.0833C17.3666 13.0833 17.3611 13.0833 17.3556 13.0833C17.3501 13.0833 17.3446 13.0833 17.3391 13.0833C17.3336 13.0833 17.3281 13.0833 17.3225 13.0833C17.317 13.0833 17.3114 13.0833 17.3058 13.0833C17.3002 13.0833 17.2947 13.0833 17.2891 13.0833C17.2834 13.0833 17.2778 13.0833 17.2722 13.0833C17.2666 13.0833 17.2609 13.0833 17.2552 13.0833C17.2496 13.0833 17.2439 13.0833 17.2382 13.0833C17.2325 13.0833 17.2268 13.0833 17.2211 13.0833C17.2153 13.0833 17.2096 13.0833 17.2038 13.0833C17.1981 13.0833 17.1923 13.0833 17.1865 13.0833C17.1808 13.0833 17.175 13.0833 17.1691 13.0833C17.1633 13.0833 17.1575 13.0833 17.1517 13.0833C17.1458 13.0833 17.14 13.0833 17.1341 13.0833C17.1282 13.0833 17.1223 13.0833 17.1164 13.0833C17.1105 13.0833 17.1046 13.0833 17.0987 13.0833C17.0928 13.0833 17.0868 13.0833 17.0809 13.0833C17.0749 13.0833 17.069 13.0833 17.063 13.0833C17.057 13.0833 17.051 13.0833 17.045 13.0833C17.039 13.0833 17.0329 13.0833 17.0269 13.0833C17.0209 13.0833 17.0148 13.0833 17.0087 13.0833C17.0027 13.0833 16.9966 13.0833 16.9905 13.0833C16.9844 13.0833 16.9783 13.0833 16.9722 13.0833C16.966 13.0833 16.9599 13.0833 16.9537 13.0833C16.9476 13.0833 16.9414 13.0833 16.9352 13.0833C16.9291 13.0833 16.9229 13.0833 16.9167 13.0833C16.9104 13.0833 16.9042 13.0833 16.898 13.0833C16.8918 13.0833 16.8855 13.0833 16.8792 13.0833C16.873 13.0833 16.8667 13.0833 16.8604 13.0833C16.8541 13.0833 16.8478 13.0833 16.8415 13.0833C16.8352 13.0833 16.8289 13.0833 16.8225 13.0833C16.8162 13.0833 16.8098 13.0833 16.8035 13.0833C16.7971 13.0833 16.7907 13.0833 16.7843 13.0833C16.7779 13.0833 16.7715 13.0833 16.7651 13.0833C16.7587 13.0833 16.7522 13.0833 16.7458 13.0833C16.7393 13.0833 16.7329 13.0833 16.7264 13.0833C16.7199 13.0833 16.7134 13.0833 16.7069 13.0833C16.7004 13.0833 16.6939 13.0833 16.6874 13.0833C16.6808 13.0833 16.6743 13.0833 16.6678 13.0833C16.6612 13.0833 16.6546 13.0833 16.6481 13.0833C16.6415 13.0833 16.6349 13.0833 16.6283 13.0833C16.6217 13.0833 16.6151 13.0833 16.6084 13.0833C16.6018 13.0833 16.5952 13.0833 16.5885 13.0833C16.5818 13.0833 16.5752 13.0833 16.5685 13.0833C16.5618 13.0833 16.5551 13.0833 16.5484 13.0833C16.5417 13.0833 16.535 13.0833 16.5282 13.0833C16.5215 13.0833 16.5148 13.0833 16.508 13.0833C16.5013 13.0833 16.4945 13.0833 16.4877 13.0833C16.4809 13.0833 16.4741 13.0833 16.4673 13.0833C16.4605 13.0833 16.4537 13.0833 16.4469 13.0833C16.44 13.0833 16.4332 13.0833 16.4263 13.0833C16.4195 13.0833 16.4126 13.0833 16.4057 13.0833C16.3989 13.0833 16.392 13.0833 16.3851 13.0833C16.3782 13.0833 16.3712 13.0833 16.3643 13.0833C16.3574 13.0833 16.3504 13.0833 16.3435 13.0833C16.3365 13.0833 16.3296 13.0833 16.3226 13.0833C16.3156 13.0833 16.3086 13.0833 16.3016 13.0833C16.2946 13.0833 16.2876 13.0833 16.2806 13.0833C16.2736 13.0833 16.2665 13.0833 16.2595 13.0833C16.2524 13.0833 16.2454 13.0833 16.2383 13.0833C16.2312 13.0833 16.2241 13.0833 16.2171 13.0833C16.21 13.0833 16.2029 13.0833 16.1957 13.0833C16.1886 13.0833 16.1815 13.0833 16.1743 13.0833C16.1672 13.0833 16.1601 13.0833 16.1529 13.0833C16.1457 13.0833 16.1385 13.0833 16.1314 13.0833C16.1242 13.0833 16.117 13.0833 16.1098 13.0833C16.1026 13.0833 16.0953 13.0833 16.0881 13.0833C16.0809 13.0833 16.0736 13.0833 16.0664 13.0833C16.0591 13.0833 16.0518 13.0833 16.0446 13.0833C16.0373 13.0833 16.03 13.0833 16.0227 13.0833C16.0154 13.0833 16.0081 13.0833 16.0008 13.0833C15.9935 13.0833 15.9861 13.0833 15.9788 13.0833C15.9714 13.0833 15.9641 13.0833 15.9567 13.0833C15.9493 13.0833 15.942 13.0833 15.9346 13.0833C15.9272 13.0833 15.9198 13.0833 15.9124 13.0833C15.905 13.0833 15.8976 13.0833 15.8901 13.0833C15.8827 13.0833 15.8752 13.0833 15.8678 13.0833C15.8603 13.0833 15.8529 13.0833 15.8454 13.0833C15.8379 13.0833 15.8304 13.0833 15.823 13.0833C15.8155 13.0833 15.808 13.0833 15.8004 13.0833C15.7929 13.0833 15.7854 13.0833 15.7779 13.0833C15.7703 13.0833 15.7628 13.0833 15.7552 13.0833C15.7476 13.0833 15.7401 13.0833 15.7325 13.0833C15.7249 13.0833 15.7173 13.0833 15.7097 13.0833C15.7021 13.0833 15.6945 13.0833 15.6869 13.0833C15.6793 13.0833 15.6717 13.0833 15.664 13.0833C15.6564 13.0833 15.6487 13.0833 15.6411 13.0833C15.6334 13.0833 15.6257 13.0833 15.618 13.0833C15.6104 13.0833 15.6027 13.0833 15.595 13.0833C15.5873 13.0833 15.5796 13.0833 15.5718 13.0833C15.5641 13.0833 15.5564 13.0833 15.5486 13.0833C15.5409 13.0833 15.5331 13.0833 15.5254 13.0833C15.5176 13.0833 15.5099 13.0833 15.5021 13.0833C15.4943 13.0833 15.4865 13.0833 15.4787 13.0833C15.4709 13.0833 15.4631 13.0833 15.4553 13.0833C15.4474 13.0833 15.4396 13.0833 15.4318 13.0833C15.4239 13.0833 15.4161 13.0833 15.4082 13.0833C15.4004 13.0833 15.3925 13.0833 15.3846 13.0833C15.3768 13.0833 15.3689 13.0833 15.361 13.0833C15.3531 13.0833 15.3452 13.0833 15.3373 13.0833C15.3293 13.0833 15.3214 13.0833 15.3135 13.0833C15.3055 13.0833 15.2976 13.0833 15.2897 13.0833C15.2817 13.0833 15.2737 13.0833 15.2658 13.0833C15.2578 13.0833 15.2498 13.0833 15.2418 13.0833C15.2338 13.0833 15.2258 13.0833 15.2178 13.0833C15.2098 13.0833 15.2018 13.0833 15.1938 13.0833C15.1858 13.0833 15.1777 13.0833 15.1697 13.0833C15.1616 13.0833 15.1536 13.0833 15.1455 13.0833C15.1375 13.0833 15.1294 13.0833 15.1213 13.0833C15.1132 13.0833 15.1051 13.0833 15.097 13.0833C15.0889 13.0833 15.0808 13.0833 15.0727 13.0833C15.0646 13.0833 15.0565 13.0833 15.0484 13.0833C15.0402 13.0833 15.0321 13.0833 15.0239 13.0833C15.0158 13.0833 15.0076 13.0833 14.9995 13.0833C14.9913 13.0833 14.9831 13.0833 14.9749 13.0833C14.9668 13.0833 14.9586 13.0833 14.9504 13.0833C14.9422 13.0833 14.934 13.0833 14.9257 13.0833C14.9175 13.0833 14.9093 13.0833 14.9011 13.0833C14.8928 13.0833 14.8846 13.0833 14.8763 13.0833C14.8681 13.0833 14.8598 13.0833 14.8516 13.0833C14.8433 13.0833 14.835 13.0833 14.8267 13.0833C14.8185 13.0833 14.8102 13.0833 14.8019 13.0833C14.7936 13.0833 14.7853 13.0833 14.7769 13.0833C14.7686 13.0833 14.7603 13.0833 14.752 13.0833C14.7436 13.0833 14.7353 13.0833 14.727 13.0833C14.7186 13.0833 14.7102 13.0833 14.7019 13.0833C14.6935 13.0833 14.6851 13.0833 14.6768 13.0833C14.6684 13.0833 14.66 13.0833 14.6516 13.0833C14.6432 13.0833 14.6348 13.0833 14.6264 13.0833C14.618 13.0833 14.6096 13.0833 14.6012 13.0833C14.5927 13.0833 14.5843 13.0833 14.5759 13.0833C14.5674 13.0833 14.559 13.0833 14.5505 13.0833C14.5421 13.0833 14.5336 13.0833 14.5251 13.0833C14.5166 13.0833 14.5082 13.0833 14.4997 13.0833C14.4912 13.0833 14.4827 13.0833 14.4742 13.0833C14.4657 13.0833 14.4572 13.0833 14.4487 13.0833C14.4402 13.0833 14.4316 13.0833 14.4231 13.0833C14.4146 13.0833 14.4061 13.0833 14.3975 13.0833C14.389 13.0833 14.3804 13.0833 14.3719 13.0833C14.3633 13.0833 14.3547 13.0833 14.3462 13.0833C14.3376 13.0833 14.329 13.0833 14.3204 13.0833C14.3118 13.0833 14.3032 13.0833 14.2946 13.0833C14.286 13.0833 14.2774 13.0833 14.2688 13.0833C14.2602 13.0833 14.2516 13.0833 14.243 13.0833C14.2343 13.0833 14.2257 13.0833 14.2171 13.0833C14.2084 13.0833 14.1998 13.0833 14.1911 13.0833C14.1825 13.0833 14.1738 13.0833 14.1651 13.0833C14.1565 13.0833 14.1478 13.0833 14.1391 13.0833C14.1304 13.0833 14.1217 13.0833 14.113 13.0833C14.1044 13.0833 14.0957 13.0833 14.0869 13.0833C14.0782 13.0833 14.0695 13.0833 14.0608 13.0833C14.0521 13.0833 14.0434 13.0833 14.0346 13.0833C14.0259 13.0833 14.0172 13.0833 14.0084 13.0833C13.9997 13.0833 13.9909 13.0833 13.9822 13.0833C13.9734 13.0833 13.9646 13.0833 13.9559 13.0833C13.9471 13.0833 13.9383 13.0833 13.9295 13.0833C13.9208 13.0833 13.912 13.0833 13.9032 13.0833C13.8944 13.0833 13.8856 13.0833 13.8768 13.0833C13.868 13.0833 13.8591 13.0833 13.8503 13.0833C13.8415 13.0833 13.8327 13.0833 13.8239 13.0833C13.815 13.0833 13.8062 13.0833 13.7973 13.0833C13.7885 13.0833 13.7797 13.0833 13.7708 13.0833C13.7619 13.0833 13.7531 13.0833 13.7442 13.0833C13.7354 13.0833 13.7265 13.0833 13.7176 13.0833C13.7087 13.0833 13.6999 13.0833 13.691 13.0833C13.6821 13.0833 13.6732 13.0833 13.6643 13.0833C13.6554 13.0833 13.6465 13.0833 13.6376 13.0833C13.6287 13.0833 13.6197 13.0833 13.6108 13.0833C13.6019 13.0833 13.593 13.0833 13.584 13.0833C13.5751 13.0833 13.5662 13.0833 13.5572 13.0833C13.5483 13.0833 13.5393 13.0833 13.5304 13.0833C13.5214 13.0833 13.5125 13.0833 13.5035 13.0833C13.4946 13.0833 13.4856 13.0833 13.4766 13.0833C13.4676 13.0833 13.4587 13.0833 13.4497 13.0833C13.4407 13.0833 13.4317 13.0833 13.4227 13.0833C13.4137 13.0833 13.4047 13.0833 13.3957 13.0833C13.3867 13.0833 13.3777 13.0833 13.3687 13.0833C13.3597 13.0833 13.3507 13.0833 13.3416 13.0833C13.3326 13.0833 13.3236 13.0833 13.3146 13.0833C13.3055 13.0833 13.2965 13.0833 13.2874 13.0833C13.2784 13.0833 13.2694 13.0833 13.2603 13.0833C13.2512 13.0833 13.2422 13.0833 13.2331 13.0833C13.2241 13.0833 13.215 13.0833 13.2059 13.0833C13.1969 13.0833 13.1878 13.0833 13.1787 13.0833C13.1696 13.0833 13.1605 13.0833 13.1515 13.0833C13.1424 13.0833 13.1333 13.0833 13.1242 13.0833C13.1151 13.0833 13.106 13.0833 13.0969 13.0833C13.0878 13.0833 13.0787 13.0833 13.0696 13.0833C13.0604 13.0833 13.0513 13.0833 13.0422 13.0833C13.0331 13.0833 13.0239 13.0833 13.0148 13.0833C13.0057 13.0833 12.9966 13.0833 12.9874 13.0833C12.9783 13.0833 12.9691 13.0833 12.96 13.0833C12.9508 13.0833 12.9417 13.0833 12.9325 13.0833C12.9234 13.0833 12.9142 13.0833 12.9051 13.0833C12.8959 13.0833 12.8867 13.0833 12.8776 13.0833C12.8684 13.0833 12.8592 13.0833 12.85 13.0833C12.8409 13.0833 12.8317 13.0833 12.8225 13.0833C12.8133 13.0833 12.8041 13.0833 12.7949 13.0833C12.7857 13.0833 12.7765 13.0833 12.7673 13.0833C12.7581 13.0833 12.7489 13.0833 12.7397 13.0833C12.7305 13.0833 12.7213 13.0833 12.7121 13.0833C12.7029 13.0833 12.6937 13.0833 12.6844 13.0833C12.6752 13.0833 12.666 13.0833 12.6568 13.0833C12.6475 13.0833 12.6383 13.0833 12.6291 13.0833C12.6198 13.0833 12.6106 13.0833 12.6014 13.0833C12.5921 13.0833 12.5829 13.0833 12.5736 13.0833C12.5644 13.0833 12.5551 13.0833 12.5459 13.0833C12.5366 13.0833 12.5274 13.0833 12.5181 13.0833C12.5088 13.0833 12.4996 13.0833 12.4903 13.0833C12.481 13.0833 12.4718 13.0833 12.4625 13.0833C12.4532 13.0833 12.4439 13.0833 12.4347 13.0833C12.4254 13.0833 12.4161 13.0833 12.4068 13.0833C12.3975 13.0833 12.3883 13.0833 12.379 13.0833C12.3697 13.0833 12.3604 13.0833 12.3511 13.0833C12.3418 13.0833 12.3325 13.0833 12.3232 13.0833C12.3139 13.0833 12.3046 13.0833 12.2953 13.0833C12.286 13.0833 12.2767 13.0833 12.2674 13.0833C12.2581 13.0833 12.2487 13.0833 12.2394 13.0833C12.2301 13.0833 12.2208 13.0833 12.2115 13.0833C12.2021 13.0833 12.1928 13.0833 12.1835 13.0833C12.1742 13.0833 12.1648 13.0833 12.1555 13.0833C12.1462 13.0833 12.1369 13.0833 12.1275 13.0833C12.1182 13.0833 12.1088 13.0833 12.0995 13.0833C12.0902 13.0833 12.0808 13.0833 12.0715 13.0833C12.0621 13.0833 12.0528 13.0833 12.0434 13.0833C12.0341 13.0833 12.0247 13.0833 12.0154 13.0833C12.006 13.0833 11.9967 13.0833 11.9873 13.0833C11.978 13.0833 11.9686 13.0833 11.9593 13.0833C11.9499 13.0833 11.9405 13.0833 11.9312 13.0833C11.9218 13.0833 11.9124 13.0833 11.9031 13.0833C11.8937 13.0833 11.8843 13.0833 11.875 13.0833C11.8656 13.0833 11.8562 13.0833 11.8468 13.0833C11.8375 13.0833 11.8281 13.0833 11.8187 13.0833C11.8093 13.0833 11.8 13.0833 11.7906 13.0833C11.7812 13.0833 11.7718 13.0833 11.7624 13.0833C11.7531 13.0833 11.7437 13.0833 11.7343 13.0833C11.7249 13.0833 11.7155 13.0833 11.7061 13.0833C11.6967 13.0833 11.6873 13.0833 11.6779 13.0833C11.6685 13.0833 11.6592 13.0833 11.6498 13.0833C11.6404 13.0833 11.631 13.0833 11.6216 13.0833C11.6122 13.0833 11.6028 13.0833 11.5934 13.0833C11.584 13.0833 11.5746 13.0833 11.5652 13.0833C11.5558 13.0833 11.5464 13.0833 11.537 13.0833C11.5276 13.0833 11.5182 13.0833 11.5087 13.0833C11.4993 13.0833 11.4899 13.0833 11.4805 13.0833C11.4711 13.0833 11.4617 13.0833 11.4523 13.0833C11.4429 13.0833 11.4335 13.0833 11.4241 13.0833C11.4147 13.0833 11.4052 13.0833 11.3958 13.0833C11.3864 13.0833 11.377 13.0833 11.3676 13.0833C11.3582 13.0833 11.3488 13.0833 11.3393 13.0833C11.3299 13.0833 11.3205 13.0833 11.3111 13.0833C11.3017 13.0833 11.2923 13.0833 11.2828 13.0833C11.2734 13.0833 11.264 13.0833 11.2546 13.0833C11.2452 13.0833 11.2358 13.0833 11.2263 13.0833C11.2169 13.0833 11.2075 13.0833 11.1981 13.0833C11.1887 13.0833 11.1792 13.0833 11.1698 13.0833C11.1604 13.0833 11.151 13.0833 11.1415 13.0833C11.1321 13.0833 11.1227 13.0833 11.1133 13.0833C11.1039 13.0833 11.0944 13.0833 11.085 13.0833C11.0756 13.0833 11.0662 13.0833 11.0567 13.0833C11.0473 13.0833 11.0379 13.0833 11.0285 13.0833C11.0191 13.0833 11.0096 13.0833 11.0002 13.0833C10.9908 13.0833 10.9814 13.0833 10.9719 13.0833C10.9625 13.0833 10.9531 13.0833 10.9437 13.0833C10.9343 13.0833 10.9248 13.0833 10.9154 13.0833C10.906 13.0833 10.8966 13.0833 10.8872 13.0833C10.8777 13.0833 10.8683 13.0833 10.8589 13.0833C10.8495 13.0833 10.8401 13.0833 10.8306 13.0833C10.8212 13.0833 10.8118 13.0833 10.8024 13.0833C10.793 13.0833 10.7835 13.0833 10.7741 13.0833C10.7647 13.0833 10.7553 13.0833 10.7459 13.0833C10.7365 13.0833 10.727 13.0833 10.7176 13.0833C10.7082 13.0833 10.6988 13.0833 10.6894 13.0833C10.68 13.0833 10.6706 13.0833 10.6611 13.0833C10.6517 13.0833 10.6423 13.0833 10.6329 13.0833C10.6235 13.0833 10.6141 13.0833 10.6047 13.0833C10.5953 13.0833 10.5859 13.0833 10.5765 13.0833C10.567 13.0833 10.5576 13.0833 10.5482 13.0833C10.5388 13.0833 10.5294 13.0833 10.52 13.0833C10.5106 13.0833 10.5012 13.0833 10.4918 13.0833C10.4824 13.0833 10.473 13.0833 10.4636 13.0833C10.4542 13.0833 10.4448 13.0833 10.4354 13.0833C10.426 13.0833 10.4166 13.0833 10.4072 13.0833C10.3979 13.0833 10.3885 13.0833 10.3791 13.0833C10.3697 13.0833 10.3603 13.0833 10.3509 13.0833C10.3415 13.0833 10.3321 13.0833 10.3227 13.0833C10.3134 13.0833 10.304 13.0833 10.2946 13.0833C10.2852 13.0833 10.2758 13.0833 10.2665 13.0833C10.2571 13.0833 10.2477 13.0833 10.2383 13.0833C10.2289 13.0833 10.2196 13.0833 10.2102 13.0833C10.2008 13.0833 10.1915 13.0833 10.1821 13.0833C10.1727 13.0833 10.1633 13.0833 10.154 13.0833C10.1446 13.0833 10.1353 13.0833 10.1259 13.0833C10.1165 13.0833 10.1072 13.0833 10.0978 13.0833C10.0885 13.0833 10.0791 13.0833 10.0697 13.0833C10.0604 13.0833 10.051 13.0833 10.0417 13.0833C10.0323 13.0833 10.023 13.0833 10.0136 13.0833C10.0043 13.0833 9.99496 13.0833 9.98562 13.0833C9.97628 13.0833 9.96694 13.0833 9.9576 13.0833C9.94827 13.0833 9.93893 13.0833 9.9296 13.0833C9.92027 13.0833 9.91094 13.0833 9.90161 13.0833C9.89228 13.0833 9.88295 13.0833 9.87363 13.0833C9.86431 13.0833 9.85499 13.0833 9.84567 13.0833C9.83635 13.0833 9.82704 13.0833 9.81772 13.0833C9.80841 13.0833 9.7991 13.0833 9.78979 13.0833C9.78048 13.0833 9.77118 13.0833 9.76188 13.0833C9.75257 13.0833 9.74327 13.0833 9.73398 13.0833C9.72468 13.0833 9.71538 13.0833 9.70609 13.0833C9.6968 13.0833 9.68751 13.0833 9.67823 13.0833C9.66894 13.0833 9.65966 13.0833 9.65038 13.0833C9.64109 13.0833 9.63182 13.0833 9.62254 13.0833C9.61327 13.0833 9.604 13.0833 9.59473 13.0833C9.58546 13.0833 9.57619 13.0833 9.56693 13.0833C9.55767 13.0833 9.54841 13.0833 9.53915 13.0833C9.52989 13.0833 9.52064 13.0833 9.51139 13.0833C9.50214 13.0833 9.49289 13.0833 9.48365 13.0833C9.4744 13.0833 9.46516 13.0833 9.45592 13.0833C9.44669 13.0833 9.43745 13.0833 9.42822 13.0833C9.41899 13.0833 9.40976 13.0833 9.40054 13.0833C9.39132 13.0833 9.3821 13.0833 9.37288 13.0833C9.36366 13.0833 9.35445 13.0833 9.34524 13.0833C9.33603 13.0833 9.32682 13.0833 9.31762 13.0833C9.30841 13.0833 9.29921 13.0833 9.29002 13.0833C9.28082 13.0833 9.27163 13.0833 9.26244 13.0833C9.25325 13.0833 9.24407 13.0833 9.23489 13.0833C9.22571 13.0833 9.21653 13.0833 9.20735 13.0833C9.19818 13.0833 9.18901 13.0833 9.17984 13.0833C9.17068 13.0833 9.16152 13.0833 9.15236 13.0833C9.1432 13.0833 9.13405 13.0833 9.1249 13.0833C9.11575 13.0833 9.1066 13.0833 9.09746 13.0833C9.08832 13.0833 9.07918 13.0833 9.07004 13.0833C9.06091 13.0833 9.05178 13.0833 9.04265 13.0833C9.03353 13.0833 9.02441 13.0833 9.01529 13.0833C9.00617 13.0833 8.99706 13.0833 8.98795 13.0833C8.97884 13.0833 8.96974 13.0833 8.96064 13.0833C8.95154 13.0833 8.94244 13.0833 8.93335 13.0833C8.92426 13.0833 8.91517 13.0833 8.90609 13.0833C8.897 13.0833 8.88793 13.0833 8.87885 13.0833C8.86978 13.0833 8.86071 13.0833 8.85164 13.0833C8.84258 13.0833 8.83352 13.0833 8.82446 13.0833C8.81541 13.0833 8.80636 13.0833 8.79731 13.0833C8.78826 13.0833 8.77922 13.0833 8.77019 13.0833C8.76115 13.0833 8.75212 13.0833 8.74309 13.0833C8.73406 13.0833 8.72504 13.0833 8.71602 13.0833C8.70701 13.0833 8.69799 13.0833 8.68899 13.0833C8.67998 13.0833 8.67097 13.0833 8.66198 13.0833C8.65298 13.0833 8.64399 13.0833 8.635 13.0833C8.62601 13.0833 8.61703 13.0833 8.60805 13.0833C8.59907 13.0833 8.5901 13.0833 8.58113 13.0833C8.57217 13.0833 8.5632 13.0833 8.55425 13.0833C8.54529 13.0833 8.53634 13.0833 8.52739 13.0833C8.51844 13.0833 8.5095 13.0833 8.50057 13.0833C8.49163 13.0833 8.4827 13.0833 8.47377 13.0833C8.46485 13.0833 8.45593 13.0833 8.44701 13.0833C8.4381 13.0833 8.42919 13.0833 8.42029 13.0833C8.41138 13.0833 8.40249 13.0833 8.39359 13.0833C8.3847 13.0833 8.37581 13.0833 8.36693 13.0833C8.35805 13.0833 8.34918 13.0833 8.34031 13.0833C8.33144 13.0833 8.32257 13.0833 8.31371 13.0833C8.30485 13.0833 8.296 13.0833 8.28716 13.0833C8.27831 13.0833 8.26947 13.0833 8.26063 13.0833C8.2518 13.0833 8.24297 13.0833 8.23414 13.0833C8.22532 13.0833 8.2165 13.0833 8.20769 13.0833C8.19888 13.0833 8.19007 13.0833 8.18127 13.0833C8.17247 13.0833 8.16368 13.0833 8.15489 13.0833C8.1461 13.0833 8.13732 13.0833 8.12855 13.0833C8.11977 13.0833 8.111 13.0833 8.10224 13.0833C8.09348 13.0833 8.08472 13.0833 8.07597 13.0833C8.06722 13.0833 8.05847 13.0833 8.04974 13.0833C8.041 13.0833 8.03227 13.0833 8.02354 13.0833C8.01482 13.0833 8.0061 13.0833 7.99738 13.0833C7.98867 13.0833 7.97997 13.0833 7.97127 13.0833C7.96257 13.0833 7.95387 13.0833 7.94519 13.0833C7.9365 13.0833 7.92782 13.0833 7.91915 13.0833C7.91047 13.0833 7.90181 13.0833 7.89315 13.0833C7.88449 13.0833 7.87583 13.0833 7.86719 13.0833C7.85854 13.0833 7.8499 13.0833 7.84127 13.0833C7.83263 13.0833 7.82401 13.0833 7.81539 13.0833C7.80677 13.0833 7.79816 13.0833 7.78955 13.0833C7.78094 13.0833 7.77235 13.0833 7.76375 13.0833C7.75516 13.0833 7.74658 13.0833 7.738 13.0833C7.72942 13.0833 7.72085 13.0833 7.71229 13.0833C7.70372 13.0833 7.69517 13.0833 7.68662 13.0833C7.67807 13.0833 7.66952 13.0833 7.66099 13.0833C7.65245 13.0833 7.64393 13.0833 7.63541 13.0833C7.62688 13.0833 7.61837 13.0833 7.60986 13.0833C7.60136 13.0833 7.59286 13.0833 7.58437 13.0833C7.57588 13.0833 7.56739 13.0833 7.55892 13.0833C7.55044 13.0833 7.54197 13.0833 7.53351 13.0833C7.52505 13.0833 7.51659 13.0833 7.50814 13.0833C7.4997 13.0833 7.49126 13.0833 7.48283 13.0833C7.47439 13.0833 7.46597 13.0833 7.45755 13.0833C7.44914 13.0833 7.44073 13.0833 7.43233 13.0833C7.42393 13.0833 7.41553 13.0833 7.40715 13.0833C7.39876 13.0833 7.39039 13.0833 7.38202 13.0833C7.37365 13.0833 7.36528 13.0833 7.35693 13.0833C7.34858 13.0833 7.34023 13.0833 7.33189 13.0833C7.32355 13.0833 7.31522 13.0833 7.3069 13.0833C7.29858 13.0833 7.29026 13.0833 7.28196 13.0833C7.27365 13.0833 7.26535 13.0833 7.25706 13.0833C7.24877 13.0833 7.24049 13.0833 7.23222 13.0833C7.22394 13.0833 7.21568 13.0833 7.20742 13.0833C7.19916 13.0833 7.19091 13.0833 7.18267 13.0833C7.17443 13.0833 7.1662 13.0833 7.15798 13.0833C7.14975 13.0833 7.14154 13.0833 7.13333 13.0833C7.12512 13.0833 7.11692 13.0833 7.10873 13.0833C7.10054 13.0833 7.09236 13.0833 7.08419 13.0833C7.07601 13.0833 7.06785 13.0833 7.05969 13.0833C7.05154 13.0833 7.04339 13.0833 7.03525 13.0833C7.02711 13.0833 7.01898 13.0833 7.01086 13.0833C7.00274 13.0833 6.99462 13.0833 6.98652 13.0833C6.97842 13.0833 6.97032 13.0833 6.96223 13.0833C6.95415 13.0833 6.94607 13.0833 6.938 13.0833C6.92993 13.0833 6.92187 13.0833 6.91382 13.0833C6.90577 13.0833 6.89773 13.0833 6.88969 13.0833C6.88166 13.0833 6.87364 13.0833 6.86562 13.0833C6.85761 13.0833 6.8496 13.0833 6.84161 13.0833C6.83361 13.0833 6.82562 13.0833 6.81764 13.0833C6.80966 13.0833 6.80169 13.0833 6.79373 13.0833C6.78577 13.0833 6.77782 13.0833 6.76988 13.0833C6.76194 13.0833 6.75401 13.0833 6.74609 13.0833C6.73816 13.0833 6.73025 13.0833 6.72234 13.0833C6.71444 13.0833 6.70655 13.0833 6.69866 13.0833C6.69077 13.0833 6.6829 13.0833 6.67503 13.0833C6.66717 13.0833 6.65931 13.0833 6.65146 13.0833C6.64362 13.0833 6.63578 13.0833 6.62795 13.0833C6.62012 13.0833 6.6123 13.0833 6.6045 13.0833C6.59669 13.0833 6.58889 13.0833 6.5811 13.0833C6.57331 13.0833 6.56553 13.0833 6.55776 13.0833C6.54999 13.0833 6.54223 13.0833 6.53448 13.0833C6.52673 13.0833 6.51899 13.0833 6.51126 13.0833C6.50353 13.0833 6.49581 13.0833 6.4881 13.0833C6.48039 13.0833 6.47269 13.0833 6.465 13.0833C6.45731 13.0833 6.44963 13.0833 6.44196 13.0833C6.43429 13.0833 6.42663 13.0833 6.41899 13.0833C6.41133 13.0833 6.4037 13.0833 6.39607 13.0833C6.38844 13.0833 6.38082 13.0833 6.37321 13.0833C6.3656 13.0833 6.358 13.0833 6.35042 13.0833C6.34283 13.0833 6.33525 13.0833 6.32768 13.0833C6.32012 13.0833 6.31256 13.0833 6.30501 13.0833C6.29747 13.0833 6.28993 13.0833 6.2824 13.0833C6.27488 13.0833 6.26736 13.0833 6.25986 13.0833C6.25236 13.0833 6.24486 13.0833 6.23738 13.0833C6.2299 13.0833 6.22242 13.0833 6.21496 13.0833C6.2075 13.0833 6.20005 13.0833 6.19261 13.0833C6.18517 13.0833 6.17774 13.0833 6.17032 13.0833C6.1629 13.0833 6.15549 13.0833 6.1481 13.0833C6.1407 13.0833 6.13332 13.0833 6.12594 13.0833C6.11856 13.0833 6.1112 13.0833 6.10385 13.0833C6.09649 13.0833 6.08915 13.0833 6.08182 13.0833C6.07449 13.0833 6.06717 13.0833 6.05986 13.0833C6.05255 13.0833 6.04525 13.0833 6.03797 13.0833C6.03068 13.0833 6.0234 13.0833 6.01614 13.0833C6.00887 13.0833 6.00162 13.0833 5.99438 13.0833C5.98714 13.0833 5.97991 13.0833 5.97269 13.0833C5.96547 13.0833 5.95826 13.0833 5.95107 13.0833C5.94387 13.0833 5.93668 13.0833 5.92951 13.0833C5.92234 13.0833 5.91517 13.0833 5.90802 13.0833C5.90087 13.0833 5.89373 13.0833 5.88661 13.0833C5.87948 13.0833 5.87236 13.0833 5.86526 13.0833C5.85815 13.0833 5.85106 13.0833 5.84398 13.0833C5.8369 13.0833 5.82983 13.0833 5.82277 13.0833C5.81571 13.0833 5.80867 13.0833 5.80163 13.0833C5.7946 13.0833 5.78758 13.0833 5.78057 13.0833C5.77356 13.0833 5.76656 13.0833 5.75957 13.0833C5.75258 13.0833 5.74561 13.0833 5.73865 13.0833C5.73168 13.0833 5.72473 13.0833 5.71779 13.0833C5.71086 13.0833 5.70393 13.0833 5.69701 13.0833C5.6901 13.0833 5.6832 13.0833 5.67631 13.0833C5.66942 13.0833 5.66254 13.0833 5.65567 13.0833C5.64881 13.0833 5.64195 13.0833 5.63511 13.0833C5.62827 13.0833 5.62144 13.0833 5.61462 13.0833C5.60781 13.0833 5.601 13.0833 5.59421 13.0833C5.58742 13.0833 5.58064 13.0833 5.57387 13.0833C5.5671 13.0833 5.56035 13.0833 5.55361 13.0833C5.54686 13.0833 5.54013 13.0833 5.53342 13.0833C5.5267 13.0833 5.51999 13.0833 5.5133 13.0833C5.50661 13.0833 5.49993 13.0833 5.49326 13.0833C5.4866 13.0833 5.47994 13.0833 5.4733 13.0833C5.46666 13.0833 5.46003 13.0833 5.45342 13.0833C5.4468 13.0833 5.4402 13.0833 5.43361 13.0833C5.42702 13.0833 5.42044 13.0833 5.41388 13.0833C5.40731 13.0833 5.40076 13.0833 5.39422 13.0833C5.38768 13.0833 5.38116 13.0833 5.37464 13.0833C5.36813 13.0833 5.36163 13.0833 5.35515 13.0833C5.34866 13.0833 5.34219 13.0833 5.33573 13.0833C5.32927 13.0833 5.32282 13.0833 5.31639 13.0833C5.30995 13.0833 5.30353 13.0833 5.29712 13.0833C5.29072 13.0833 5.28432 13.0833 5.27794 13.0833C5.27156 13.0833 5.26519 13.0833 5.25884 13.0833C5.25249 13.0833 5.24615 13.0833 5.23982 13.0833C5.23349 13.0833 5.22718 13.0833 5.22088 13.0833C5.21458 13.0833 5.20829 13.0833 5.20202 13.0833C5.19574 13.0833 5.18948 13.0833 5.18324 13.0833C5.17699 13.0833 5.17076 13.0833 5.16454 13.0833C5.15832 13.0833 5.15212 13.0833 5.14593 13.0833C5.13973 13.0833 5.13356 13.0833 5.12739 13.0833C5.12123 13.0833 5.11508 13.0833 5.10894 13.0833C5.10281 13.0833 5.09668 13.0833 5.09058 13.0833C5.08447 13.0833 5.07837 13.0833 5.07229 13.0833C5.06621 13.0833 5.06014 13.0833 5.05409 13.0833C5.04804 13.0833 5.042 13.0833 5.03598 13.0833C5.02995 13.0833 5.02394 13.0833 5.01795 13.0833C5.01195 13.0833 5.00597 13.0833 5 13.0833V11.5833C5.00597 11.5833 5.01195 11.5833 5.01795 11.5833C5.02394 11.5833 5.02995 11.5833 5.03598 11.5833C5.042 11.5833 5.04804 11.5833 5.05409 11.5833C5.06014 11.5833 5.06621 11.5833 5.07229 11.5833C5.07837 11.5833 5.08447 11.5833 5.09058 11.5833C5.09668 11.5833 5.10281 11.5833 5.10894 11.5833C5.11508 11.5833 5.12123 11.5833 5.12739 11.5833C5.13356 11.5833 5.13973 11.5833 5.14593 11.5833C5.15212 11.5833 5.15832 11.5833 5.16454 11.5833C5.17076 11.5833 5.17699 11.5833 5.18324 11.5833C5.18948 11.5833 5.19574 11.5833 5.20202 11.5833C5.20829 11.5833 5.21458 11.5833 5.22088 11.5833C5.22718 11.5833 5.23349 11.5833 5.23982 11.5833C5.24615 11.5833 5.25249 11.5833 5.25884 11.5833C5.26519 11.5833 5.27156 11.5833 5.27794 11.5833C5.28432 11.5833 5.29072 11.5833 5.29712 11.5833C5.30353 11.5833 5.30995 11.5833 5.31639 11.5833C5.32282 11.5833 5.32927 11.5833 5.33573 11.5833C5.34219 11.5833 5.34866 11.5833 5.35515 11.5833C5.36163 11.5833 5.36813 11.5833 5.37464 11.5833C5.38116 11.5833 5.38768 11.5833 5.39422 11.5833C5.40076 11.5833 5.40731 11.5833 5.41388 11.5833C5.42044 11.5833 5.42702 11.5833 5.43361 11.5833C5.4402 11.5833 5.4468 11.5833 5.45342 11.5833C5.46003 11.5833 5.46666 11.5833 5.4733 11.5833C5.47994 11.5833 5.4866 11.5833 5.49326 11.5833C5.49993 11.5833 5.50661 11.5833 5.5133 11.5833C5.51999 11.5833 5.5267 11.5833 5.53342 11.5833C5.54013 11.5833 5.54686 11.5833 5.55361 11.5833C5.56035 11.5833 5.5671 11.5833 5.57387 11.5833C5.58064 11.5833 5.58742 11.5833 5.59421 11.5833C5.601 11.5833 5.60781 11.5833 5.61462 11.5833C5.62144 11.5833 5.62827 11.5833 5.63511 11.5833C5.64195 11.5833 5.64881 11.5833 5.65567 11.5833C5.66254 11.5833 5.66942 11.5833 5.67631 11.5833C5.6832 11.5833 5.6901 11.5833 5.69701 11.5833C5.70393 11.5833 5.71086 11.5833 5.71779 11.5833C5.72473 11.5833 5.73168 11.5833 5.73865 11.5833C5.74561 11.5833 5.75258 11.5833 5.75957 11.5833C5.76656 11.5833 5.77356 11.5833 5.78057 11.5833C5.78758 11.5833 5.7946 11.5833 5.80163 11.5833C5.80867 11.5833 5.81571 11.5833 5.82277 11.5833C5.82983 11.5833 5.8369 11.5833 5.84398 11.5833C5.85106 11.5833 5.85815 11.5833 5.86526 11.5833C5.87236 11.5833 5.87948 11.5833 5.88661 11.5833C5.89373 11.5833 5.90087 11.5833 5.90802 11.5833C5.91517 11.5833 5.92234 11.5833 5.92951 11.5833C5.93668 11.5833 5.94387 11.5833 5.95107 11.5833C5.95826 11.5833 5.96547 11.5833 5.97269 11.5833C5.97991 11.5833 5.98714 11.5833 5.99438 11.5833C6.00162 11.5833 6.00887 11.5833 6.01614 11.5833C6.0234 11.5833 6.03068 11.5833 6.03797 11.5833C6.04525 11.5833 6.05255 11.5833 6.05986 11.5833C6.06717 11.5833 6.07449 11.5833 6.08182 11.5833C6.08915 11.5833 6.09649 11.5833 6.10385 11.5833C6.1112 11.5833 6.11856 11.5833 6.12594 11.5833C6.13332 11.5833 6.1407 11.5833 6.1481 11.5833C6.15549 11.5833 6.1629 11.5833 6.17032 11.5833C6.17774 11.5833 6.18517 11.5833 6.19261 11.5833C6.20005 11.5833 6.2075 11.5833 6.21496 11.5833C6.22242 11.5833 6.2299 11.5833 6.23738 11.5833C6.24486 11.5833 6.25236 11.5833 6.25986 11.5833C6.26736 11.5833 6.27488 11.5833 6.2824 11.5833C6.28993 11.5833 6.29747 11.5833 6.30501 11.5833C6.31256 11.5833 6.32012 11.5833 6.32768 11.5833C6.33525 11.5833 6.34283 11.5833 6.35042 11.5833C6.358 11.5833 6.3656 11.5833 6.37321 11.5833C6.38082 11.5833 6.38844 11.5833 6.39607 11.5833C6.4037 11.5833 6.41133 11.5833 6.41899 11.5833C6.42663 11.5833 6.43429 11.5833 6.44196 11.5833C6.44963 11.5833 6.45731 11.5833 6.465 11.5833C6.47269 11.5833 6.48039 11.5833 6.4881 11.5833C6.49581 11.5833 6.50353 11.5833 6.51126 11.5833C6.51899 11.5833 6.52673 11.5833 6.53448 11.5833C6.54223 11.5833 6.54999 11.5833 6.55776 11.5833C6.56553 11.5833 6.57331 11.5833 6.5811 11.5833C6.58889 11.5833 6.59669 11.5833 6.6045 11.5833C6.6123 11.5833 6.62012 11.5833 6.62795 11.5833C6.63578 11.5833 6.64362 11.5833 6.65146 11.5833C6.65931 11.5833 6.66717 11.5833 6.67503 11.5833C6.6829 11.5833 6.69077 11.5833 6.69866 11.5833C6.70655 11.5833 6.71444 11.5833 6.72234 11.5833C6.73025 11.5833 6.73816 11.5833 6.74609 11.5833C6.75401 11.5833 6.76194 11.5833 6.76988 11.5833C6.77782 11.5833 6.78577 11.5833 6.79373 11.5833C6.80169 11.5833 6.80966 11.5833 6.81764 11.5833C6.82562 11.5833 6.83361 11.5833 6.84161 11.5833C6.8496 11.5833 6.85761 11.5833 6.86562 11.5833C6.87364 11.5833 6.88166 11.5833 6.88969 11.5833C6.89773 11.5833 6.90577 11.5833 6.91382 11.5833C6.92187 11.5833 6.92993 11.5833 6.938 11.5833C6.94607 11.5833 6.95415 11.5833 6.96223 11.5833C6.97032 11.5833 6.97842 11.5833 6.98652 11.5833C6.99462 11.5833 7.00274 11.5833 7.01086 11.5833C7.01898 11.5833 7.02711 11.5833 7.03525 11.5833C7.04339 11.5833 7.05154 11.5833 7.05969 11.5833C7.06785 11.5833 7.07601 11.5833 7.08419 11.5833C7.09236 11.5833 7.10054 11.5833 7.10873 11.5833C7.11692 11.5833 7.12512 11.5833 7.13333 11.5833C7.14154 11.5833 7.14975 11.5833 7.15798 11.5833C7.1662 11.5833 7.17443 11.5833 7.18267 11.5833C7.19091 11.5833 7.19916 11.5833 7.20742 11.5833C7.21568 11.5833 7.22394 11.5833 7.23222 11.5833C7.24049 11.5833 7.24877 11.5833 7.25706 11.5833C7.26535 11.5833 7.27365 11.5833 7.28196 11.5833C7.29026 11.5833 7.29858 11.5833 7.3069 11.5833C7.31522 11.5833 7.32355 11.5833 7.33189 11.5833C7.34023 11.5833 7.34858 11.5833 7.35693 11.5833C7.36528 11.5833 7.37365 11.5833 7.38202 11.5833C7.39039 11.5833 7.39876 11.5833 7.40715 11.5833C7.41553 11.5833 7.42393 11.5833 7.43233 11.5833C7.44073 11.5833 7.44914 11.5833 7.45755 11.5833C7.46597 11.5833 7.47439 11.5833 7.48283 11.5833C7.49126 11.5833 7.4997 11.5833 7.50814 11.5833C7.51659 11.5833 7.52505 11.5833 7.53351 11.5833C7.54197 11.5833 7.55044 11.5833 7.55892 11.5833C7.56739 11.5833 7.57588 11.5833 7.58437 11.5833C7.59286 11.5833 7.60136 11.5833 7.60986 11.5833C7.61837 11.5833 7.62688 11.5833 7.63541 11.5833C7.64393 11.5833 7.65245 11.5833 7.66099 11.5833C7.66952 11.5833 7.67807 11.5833 7.68662 11.5833C7.69517 11.5833 7.70372 11.5833 7.71229 11.5833C7.72085 11.5833 7.72942 11.5833 7.738 11.5833C7.74658 11.5833 7.75516 11.5833 7.76375 11.5833C7.77235 11.5833 7.78094 11.5833 7.78955 11.5833C7.79816 11.5833 7.80677 11.5833 7.81539 11.5833C7.82401 11.5833 7.83263 11.5833 7.84127 11.5833C7.8499 11.5833 7.85854 11.5833 7.86719 11.5833C7.87583 11.5833 7.88449 11.5833 7.89315 11.5833C7.90181 11.5833 7.91047 11.5833 7.91915 11.5833C7.92782 11.5833 7.9365 11.5833 7.94519 11.5833C7.95387 11.5833 7.96257 11.5833 7.97127 11.5833C7.97997 11.5833 7.98867 11.5833 7.99738 11.5833C8.0061 11.5833 8.01482 11.5833 8.02354 11.5833C8.03227 11.5833 8.041 11.5833 8.04974 11.5833C8.05847 11.5833 8.06722 11.5833 8.07597 11.5833C8.08472 11.5833 8.09348 11.5833 8.10224 11.5833C8.111 11.5833 8.11977 11.5833 8.12855 11.5833C8.13732 11.5833 8.1461 11.5833 8.15489 11.5833C8.16368 11.5833 8.17247 11.5833 8.18127 11.5833C8.19007 11.5833 8.19888 11.5833 8.20769 11.5833C8.2165 11.5833 8.22532 11.5833 8.23414 11.5833C8.24297 11.5833 8.2518 11.5833 8.26063 11.5833C8.26947 11.5833 8.27831 11.5833 8.28716 11.5833C8.296 11.5833 8.30485 11.5833 8.31371 11.5833C8.32257 11.5833 8.33144 11.5833 8.34031 11.5833C8.34918 11.5833 8.35805 11.5833 8.36693 11.5833C8.37581 11.5833 8.3847 11.5833 8.39359 11.5833C8.40249 11.5833 8.41138 11.5833 8.42029 11.5833C8.42919 11.5833 8.4381 11.5833 8.44701 11.5833C8.45593 11.5833 8.46485 11.5833 8.47377 11.5833C8.4827 11.5833 8.49163 11.5833 8.50057 11.5833C8.5095 11.5833 8.51844 11.5833 8.52739 11.5833C8.53634 11.5833 8.54529 11.5833 8.55425 11.5833C8.5632 11.5833 8.57217 11.5833 8.58113 11.5833C8.5901 11.5833 8.59907 11.5833 8.60805 11.5833C8.61703 11.5833 8.62601 11.5833 8.635 11.5833C8.64399 11.5833 8.65298 11.5833 8.66198 11.5833C8.67097 11.5833 8.67998 11.5833 8.68899 11.5833C8.69799 11.5833 8.70701 11.5833 8.71602 11.5833C8.72504 11.5833 8.73406 11.5833 8.74309 11.5833C8.75212 11.5833 8.76115 11.5833 8.77019 11.5833C8.77922 11.5833 8.78826 11.5833 8.79731 11.5833C8.80636 11.5833 8.81541 11.5833 8.82446 11.5833C8.83352 11.5833 8.84258 11.5833 8.85164 11.5833C8.86071 11.5833 8.86978 11.5833 8.87885 11.5833C8.88793 11.5833 8.897 11.5833 8.90609 11.5833C8.91517 11.5833 8.92426 11.5833 8.93335 11.5833C8.94244 11.5833 8.95154 11.5833 8.96064 11.5833C8.96974 11.5833 8.97884 11.5833 8.98795 11.5833C8.99706 11.5833 9.00617 11.5833 9.01529 11.5833C9.02441 11.5833 9.03353 11.5833 9.04265 11.5833C9.05178 11.5833 9.06091 11.5833 9.07004 11.5833C9.07918 11.5833 9.08832 11.5833 9.09746 11.5833C9.1066 11.5833 9.11575 11.5833 9.1249 11.5833C9.13405 11.5833 9.1432 11.5833 9.15236 11.5833C9.16152 11.5833 9.17068 11.5833 9.17984 11.5833C9.18901 11.5833 9.19818 11.5833 9.20735 11.5833C9.21653 11.5833 9.22571 11.5833 9.23489 11.5833C9.24407 11.5833 9.25325 11.5833 9.26244 11.5833C9.27163 11.5833 9.28082 11.5833 9.29002 11.5833C9.29921 11.5833 9.30841 11.5833 9.31762 11.5833C9.32682 11.5833 9.33603 11.5833 9.34524 11.5833C9.35445 11.5833 9.36366 11.5833 9.37288 11.5833C9.3821 11.5833 9.39132 11.5833 9.40054 11.5833C9.40976 11.5833 9.41899 11.5833 9.42822 11.5833C9.43745 11.5833 9.44669 11.5833 9.45592 11.5833C9.46516 11.5833 9.4744 11.5833 9.48365 11.5833C9.49289 11.5833 9.50214 11.5833 9.51139 11.5833C9.52064 11.5833 9.52989 11.5833 9.53915 11.5833C9.54841 11.5833 9.55767 11.5833 9.56693 11.5833C9.57619 11.5833 9.58546 11.5833 9.59473 11.5833C9.604 11.5833 9.61327 11.5833 9.62254 11.5833C9.63182 11.5833 9.64109 11.5833 9.65038 11.5833C9.65966 11.5833 9.66894 11.5833 9.67823 11.5833C9.68751 11.5833 9.6968 11.5833 9.70609 11.5833C9.71538 11.5833 9.72468 11.5833 9.73398 11.5833C9.74327 11.5833 9.75257 11.5833 9.76188 11.5833C9.77118 11.5833 9.78048 11.5833 9.78979 11.5833C9.7991 11.5833 9.80841 11.5833 9.81772 11.5833C9.82704 11.5833 9.83635 11.5833 9.84567 11.5833C9.85499 11.5833 9.86431 11.5833 9.87363 11.5833C9.88295 11.5833 9.89228 11.5833 9.90161 11.5833C9.91094 11.5833 9.92027 11.5833 9.9296 11.5833C9.93893 11.5833 9.94827 11.5833 9.9576 11.5833C9.96694 11.5833 9.97628 11.5833 9.98562 11.5833C9.99496 11.5833 10.0043 11.5833 10.0136 11.5833C10.023 11.5833 10.0323 11.5833 10.0417 11.5833C10.051 11.5833 10.0604 11.5833 10.0697 11.5833C10.0791 11.5833 10.0885 11.5833 10.0978 11.5833C10.1072 11.5833 10.1165 11.5833 10.1259 11.5833C10.1353 11.5833 10.1446 11.5833 10.154 11.5833C10.1633 11.5833 10.1727 11.5833 10.1821 11.5833C10.1915 11.5833 10.2008 11.5833 10.2102 11.5833C10.2196 11.5833 10.2289 11.5833 10.2383 11.5833C10.2477 11.5833 10.2571 11.5833 10.2665 11.5833C10.2758 11.5833 10.2852 11.5833 10.2946 11.5833C10.304 11.5833 10.3134 11.5833 10.3227 11.5833C10.3321 11.5833 10.3415 11.5833 10.3509 11.5833C10.3603 11.5833 10.3697 11.5833 10.3791 11.5833C10.3885 11.5833 10.3979 11.5833 10.4072 11.5833C10.4166 11.5833 10.426 11.5833 10.4354 11.5833C10.4448 11.5833 10.4542 11.5833 10.4636 11.5833C10.473 11.5833 10.4824 11.5833 10.4918 11.5833C10.5012 11.5833 10.5106 11.5833 10.52 11.5833C10.5294 11.5833 10.5388 11.5833 10.5482 11.5833C10.5576 11.5833 10.567 11.5833 10.5765 11.5833C10.5859 11.5833 10.5953 11.5833 10.6047 11.5833C10.6141 11.5833 10.6235 11.5833 10.6329 11.5833C10.6423 11.5833 10.6517 11.5833 10.6611 11.5833C10.6706 11.5833 10.68 11.5833 10.6894 11.5833C10.6988 11.5833 10.7082 11.5833 10.7176 11.5833C10.727 11.5833 10.7365 11.5833 10.7459 11.5833C10.7553 11.5833 10.7647 11.5833 10.7741 11.5833C10.7835 11.5833 10.793 11.5833 10.8024 11.5833C10.8118 11.5833 10.8212 11.5833 10.8306 11.5833C10.8401 11.5833 10.8495 11.5833 10.8589 11.5833C10.8683 11.5833 10.8777 11.5833 10.8872 11.5833C10.8966 11.5833 10.906 11.5833 10.9154 11.5833C10.9248 11.5833 10.9343 11.5833 10.9437 11.5833C10.9531 11.5833 10.9625 11.5833 10.9719 11.5833C10.9814 11.5833 10.9908 11.5833 11.0002 11.5833C11.0096 11.5833 11.0191 11.5833 11.0285 11.5833C11.0379 11.5833 11.0473 11.5833 11.0567 11.5833C11.0662 11.5833 11.0756 11.5833 11.085 11.5833C11.0944 11.5833 11.1039 11.5833 11.1133 11.5833C11.1227 11.5833 11.1321 11.5833 11.1415 11.5833C11.151 11.5833 11.1604 11.5833 11.1698 11.5833C11.1792 11.5833 11.1887 11.5833 11.1981 11.5833C11.2075 11.5833 11.2169 11.5833 11.2263 11.5833C11.2358 11.5833 11.2452 11.5833 11.2546 11.5833C11.264 11.5833 11.2734 11.5833 11.2828 11.5833C11.2923 11.5833 11.3017 11.5833 11.3111 11.5833C11.3205 11.5833 11.3299 11.5833 11.3393 11.5833C11.3488 11.5833 11.3582 11.5833 11.3676 11.5833C11.377 11.5833 11.3864 11.5833 11.3958 11.5833C11.4052 11.5833 11.4147 11.5833 11.4241 11.5833C11.4335 11.5833 11.4429 11.5833 11.4523 11.5833C11.4617 11.5833 11.4711 11.5833 11.4805 11.5833C11.4899 11.5833 11.4993 11.5833 11.5087 11.5833C11.5182 11.5833 11.5276 11.5833 11.537 11.5833C11.5464 11.5833 11.5558 11.5833 11.5652 11.5833C11.5746 11.5833 11.584 11.5833 11.5934 11.5833C11.6028 11.5833 11.6122 11.5833 11.6216 11.5833C11.631 11.5833 11.6404 11.5833 11.6498 11.5833C11.6592 11.5833 11.6685 11.5833 11.6779 11.5833C11.6873 11.5833 11.6967 11.5833 11.7061 11.5833C11.7155 11.5833 11.7249 11.5833 11.7343 11.5833C11.7437 11.5833 11.7531 11.5833 11.7624 11.5833C11.7718 11.5833 11.7812 11.5833 11.7906 11.5833C11.8 11.5833 11.8093 11.5833 11.8187 11.5833C11.8281 11.5833 11.8375 11.5833 11.8468 11.5833C11.8562 11.5833 11.8656 11.5833 11.875 11.5833C11.8843 11.5833 11.8937 11.5833 11.9031 11.5833C11.9124 11.5833 11.9218 11.5833 11.9312 11.5833C11.9405 11.5833 11.9499 11.5833 11.9593 11.5833C11.9686 11.5833 11.978 11.5833 11.9873 11.5833C11.9967 11.5833 12.006 11.5833 12.0154 11.5833C12.0247 11.5833 12.0341 11.5833 12.0434 11.5833C12.0528 11.5833 12.0621 11.5833 12.0715 11.5833C12.0808 11.5833 12.0902 11.5833 12.0995 11.5833C12.1088 11.5833 12.1182 11.5833 12.1275 11.5833C12.1369 11.5833 12.1462 11.5833 12.1555 11.5833C12.1648 11.5833 12.1742 11.5833 12.1835 11.5833C12.1928 11.5833 12.2021 11.5833 12.2115 11.5833C12.2208 11.5833 12.2301 11.5833 12.2394 11.5833C12.2487 11.5833 12.2581 11.5833 12.2674 11.5833C12.2767 11.5833 12.286 11.5833 12.2953 11.5833C12.3046 11.5833 12.3139 11.5833 12.3232 11.5833C12.3325 11.5833 12.3418 11.5833 12.3511 11.5833C12.3604 11.5833 12.3697 11.5833 12.379 11.5833C12.3883 11.5833 12.3975 11.5833 12.4068 11.5833C12.4161 11.5833 12.4254 11.5833 12.4347 11.5833C12.4439 11.5833 12.4532 11.5833 12.4625 11.5833C12.4718 11.5833 12.481 11.5833 12.4903 11.5833C12.4996 11.5833 12.5088 11.5833 12.5181 11.5833C12.5274 11.5833 12.5366 11.5833 12.5459 11.5833C12.5551 11.5833 12.5644 11.5833 12.5736 11.5833C12.5829 11.5833 12.5921 11.5833 12.6014 11.5833C12.6106 11.5833 12.6198 11.5833 12.6291 11.5833C12.6383 11.5833 12.6475 11.5833 12.6568 11.5833C12.666 11.5833 12.6752 11.5833 12.6844 11.5833C12.6937 11.5833 12.7029 11.5833 12.7121 11.5833C12.7213 11.5833 12.7305 11.5833 12.7397 11.5833C12.7489 11.5833 12.7581 11.5833 12.7673 11.5833C12.7765 11.5833 12.7857 11.5833 12.7949 11.5833C12.8041 11.5833 12.8133 11.5833 12.8225 11.5833C12.8317 11.5833 12.8409 11.5833 12.85 11.5833C12.8592 11.5833 12.8684 11.5833 12.8776 11.5833C12.8867 11.5833 12.8959 11.5833 12.9051 11.5833C12.9142 11.5833 12.9234 11.5833 12.9325 11.5833C12.9417 11.5833 12.9508 11.5833 12.96 11.5833C12.9691 11.5833 12.9783 11.5833 12.9874 11.5833C12.9966 11.5833 13.0057 11.5833 13.0148 11.5833C13.0239 11.5833 13.0331 11.5833 13.0422 11.5833C13.0513 11.5833 13.0604 11.5833 13.0696 11.5833C13.0787 11.5833 13.0878 11.5833 13.0969 11.5833C13.106 11.5833 13.1151 11.5833 13.1242 11.5833C13.1333 11.5833 13.1424 11.5833 13.1515 11.5833C13.1605 11.5833 13.1696 11.5833 13.1787 11.5833C13.1878 11.5833 13.1969 11.5833 13.2059 11.5833C13.215 11.5833 13.2241 11.5833 13.2331 11.5833C13.2422 11.5833 13.2512 11.5833 13.2603 11.5833C13.2694 11.5833 13.2784 11.5833 13.2874 11.5833C13.2965 11.5833 13.3055 11.5833 13.3146 11.5833C13.3236 11.5833 13.3326 11.5833 13.3416 11.5833C13.3507 11.5833 13.3597 11.5833 13.3687 11.5833C13.3777 11.5833 13.3867 11.5833 13.3957 11.5833C13.4047 11.5833 13.4137 11.5833 13.4227 11.5833C13.4317 11.5833 13.4407 11.5833 13.4497 11.5833C13.4587 11.5833 13.4676 11.5833 13.4766 11.5833C13.4856 11.5833 13.4946 11.5833 13.5035 11.5833C13.5125 11.5833 13.5214 11.5833 13.5304 11.5833C13.5393 11.5833 13.5483 11.5833 13.5572 11.5833C13.5662 11.5833 13.5751 11.5833 13.584 11.5833C13.593 11.5833 13.6019 11.5833 13.6108 11.5833C13.6197 11.5833 13.6287 11.5833 13.6376 11.5833C13.6465 11.5833 13.6554 11.5833 13.6643 11.5833C13.6732 11.5833 13.6821 11.5833 13.691 11.5833C13.6999 11.5833 13.7087 11.5833 13.7176 11.5833C13.7265 11.5833 13.7354 11.5833 13.7442 11.5833C13.7531 11.5833 13.7619 11.5833 13.7708 11.5833C13.7797 11.5833 13.7885 11.5833 13.7973 11.5833C13.8062 11.5833 13.815 11.5833 13.8239 11.5833C13.8327 11.5833 13.8415 11.5833 13.8503 11.5833C13.8591 11.5833 13.868 11.5833 13.8768 11.5833C13.8856 11.5833 13.8944 11.5833 13.9032 11.5833C13.912 11.5833 13.9208 11.5833 13.9295 11.5833C13.9383 11.5833 13.9471 11.5833 13.9559 11.5833C13.9646 11.5833 13.9734 11.5833 13.9822 11.5833C13.9909 11.5833 13.9997 11.5833 14.0084 11.5833C14.0172 11.5833 14.0259 11.5833 14.0346 11.5833C14.0434 11.5833 14.0521 11.5833 14.0608 11.5833C14.0695 11.5833 14.0782 11.5833 14.0869 11.5833C14.0957 11.5833 14.1044 11.5833 14.113 11.5833C14.1217 11.5833 14.1304 11.5833 14.1391 11.5833C14.1478 11.5833 14.1565 11.5833 14.1651 11.5833C14.1738 11.5833 14.1825 11.5833 14.1911 11.5833C14.1998 11.5833 14.2084 11.5833 14.2171 11.5833C14.2257 11.5833 14.2343 11.5833 14.243 11.5833C14.2516 11.5833 14.2602 11.5833 14.2688 11.5833C14.2774 11.5833 14.286 11.5833 14.2946 11.5833C14.3032 11.5833 14.3118 11.5833 14.3204 11.5833C14.329 11.5833 14.3376 11.5833 14.3462 11.5833C14.3547 11.5833 14.3633 11.5833 14.3719 11.5833C14.3804 11.5833 14.389 11.5833 14.3975 11.5833C14.4061 11.5833 14.4146 11.5833 14.4231 11.5833C14.4316 11.5833 14.4402 11.5833 14.4487 11.5833C14.4572 11.5833 14.4657 11.5833 14.4742 11.5833C14.4827 11.5833 14.4912 11.5833 14.4997 11.5833C14.5082 11.5833 14.5166 11.5833 14.5251 11.5833C14.5336 11.5833 14.5421 11.5833 14.5505 11.5833C14.559 11.5833 14.5674 11.5833 14.5759 11.5833C14.5843 11.5833 14.5927 11.5833 14.6012 11.5833C14.6096 11.5833 14.618 11.5833 14.6264 11.5833C14.6348 11.5833 14.6432 11.5833 14.6516 11.5833C14.66 11.5833 14.6684 11.5833 14.6768 11.5833C14.6851 11.5833 14.6935 11.5833 14.7019 11.5833C14.7102 11.5833 14.7186 11.5833 14.727 11.5833C14.7353 11.5833 14.7436 11.5833 14.752 11.5833C14.7603 11.5833 14.7686 11.5833 14.7769 11.5833C14.7853 11.5833 14.7936 11.5833 14.8019 11.5833C14.8102 11.5833 14.8185 11.5833 14.8267 11.5833C14.835 11.5833 14.8433 11.5833 14.8516 11.5833C14.8598 11.5833 14.8681 11.5833 14.8763 11.5833C14.8846 11.5833 14.8928 11.5833 14.9011 11.5833C14.9093 11.5833 14.9175 11.5833 14.9257 11.5833C14.934 11.5833 14.9422 11.5833 14.9504 11.5833C14.9586 11.5833 14.9668 11.5833 14.9749 11.5833C14.9831 11.5833 14.9913 11.5833 14.9995 11.5833C15.0076 11.5833 15.0158 11.5833 15.0239 11.5833C15.0321 11.5833 15.0402 11.5833 15.0484 11.5833C15.0565 11.5833 15.0646 11.5833 15.0727 11.5833C15.0808 11.5833 15.0889 11.5833 15.097 11.5833C15.1051 11.5833 15.1132 11.5833 15.1213 11.5833C15.1294 11.5833 15.1375 11.5833 15.1455 11.5833C15.1536 11.5833 15.1616 11.5833 15.1697 11.5833C15.1777 11.5833 15.1858 11.5833 15.1938 11.5833C15.2018 11.5833 15.2098 11.5833 15.2178 11.5833C15.2258 11.5833 15.2338 11.5833 15.2418 11.5833C15.2498 11.5833 15.2578 11.5833 15.2658 11.5833C15.2737 11.5833 15.2817 11.5833 15.2897 11.5833C15.2976 11.5833 15.3055 11.5833 15.3135 11.5833C15.3214 11.5833 15.3293 11.5833 15.3373 11.5833C15.3452 11.5833 15.3531 11.5833 15.361 11.5833C15.3689 11.5833 15.3768 11.5833 15.3846 11.5833C15.3925 11.5833 15.4004 11.5833 15.4082 11.5833C15.4161 11.5833 15.4239 11.5833 15.4318 11.5833C15.4396 11.5833 15.4474 11.5833 15.4553 11.5833C15.4631 11.5833 15.4709 11.5833 15.4787 11.5833C15.4865 11.5833 15.4943 11.5833 15.5021 11.5833C15.5099 11.5833 15.5176 11.5833 15.5254 11.5833C15.5331 11.5833 15.5409 11.5833 15.5486 11.5833C15.5564 11.5833 15.5641 11.5833 15.5718 11.5833C15.5796 11.5833 15.5873 11.5833 15.595 11.5833C15.6027 11.5833 15.6104 11.5833 15.618 11.5833C15.6257 11.5833 15.6334 11.5833 15.6411 11.5833C15.6487 11.5833 15.6564 11.5833 15.664 11.5833C15.6717 11.5833 15.6793 11.5833 15.6869 11.5833C15.6945 11.5833 15.7021 11.5833 15.7097 11.5833C15.7173 11.5833 15.7249 11.5833 15.7325 11.5833C15.7401 11.5833 15.7476 11.5833 15.7552 11.5833C15.7628 11.5833 15.7703 11.5833 15.7779 11.5833C15.7854 11.5833 15.7929 11.5833 15.8004 11.5833C15.808 11.5833 15.8155 11.5833 15.823 11.5833C15.8304 11.5833 15.8379 11.5833 15.8454 11.5833C15.8529 11.5833 15.8603 11.5833 15.8678 11.5833C15.8752 11.5833 15.8827 11.5833 15.8901 11.5833C15.8976 11.5833 15.905 11.5833 15.9124 11.5833C15.9198 11.5833 15.9272 11.5833 15.9346 11.5833C15.942 11.5833 15.9493 11.5833 15.9567 11.5833C15.9641 11.5833 15.9714 11.5833 15.9788 11.5833C15.9861 11.5833 15.9935 11.5833 16.0008 11.5833C16.0081 11.5833 16.0154 11.5833 16.0227 11.5833C16.03 11.5833 16.0373 11.5833 16.0446 11.5833C16.0518 11.5833 16.0591 11.5833 16.0664 11.5833C16.0736 11.5833 16.0809 11.5833 16.0881 11.5833C16.0953 11.5833 16.1026 11.5833 16.1098 11.5833C16.117 11.5833 16.1242 11.5833 16.1314 11.5833C16.1385 11.5833 16.1457 11.5833 16.1529 11.5833C16.1601 11.5833 16.1672 11.5833 16.1743 11.5833C16.1815 11.5833 16.1886 11.5833 16.1957 11.5833C16.2029 11.5833 16.21 11.5833 16.2171 11.5833C16.2241 11.5833 16.2312 11.5833 16.2383 11.5833C16.2454 11.5833 16.2524 11.5833 16.2595 11.5833C16.2665 11.5833 16.2736 11.5833 16.2806 11.5833C16.2876 11.5833 16.2946 11.5833 16.3016 11.5833C16.3086 11.5833 16.3156 11.5833 16.3226 11.5833C16.3296 11.5833 16.3365 11.5833 16.3435 11.5833C16.3504 11.5833 16.3574 11.5833 16.3643 11.5833C16.3712 11.5833 16.3782 11.5833 16.3851 11.5833C16.392 11.5833 16.3989 11.5833 16.4057 11.5833C16.4126 11.5833 16.4195 11.5833 16.4263 11.5833C16.4332 11.5833 16.44 11.5833 16.4469 11.5833C16.4537 11.5833 16.4605 11.5833 16.4673 11.5833C16.4741 11.5833 16.4809 11.5833 16.4877 11.5833C16.4945 11.5833 16.5013 11.5833 16.508 11.5833C16.5148 11.5833 16.5215 11.5833 16.5282 11.5833C16.535 11.5833 16.5417 11.5833 16.5484 11.5833C16.5551 11.5833 16.5618 11.5833 16.5685 11.5833C16.5752 11.5833 16.5818 11.5833 16.5885 11.5833C16.5952 11.5833 16.6018 11.5833 16.6084 11.5833C16.6151 11.5833 16.6217 11.5833 16.6283 11.5833C16.6349 11.5833 16.6415 11.5833 16.6481 11.5833C16.6546 11.5833 16.6612 11.5833 16.6678 11.5833C16.6743 11.5833 16.6808 11.5833 16.6874 11.5833C16.6939 11.5833 16.7004 11.5833 16.7069 11.5833C16.7134 11.5833 16.7199 11.5833 16.7264 11.5833C16.7329 11.5833 16.7393 11.5833 16.7458 11.5833C16.7522 11.5833 16.7587 11.5833 16.7651 11.5833C16.7715 11.5833 16.7779 11.5833 16.7843 11.5833C16.7907 11.5833 16.7971 11.5833 16.8035 11.5833C16.8098 11.5833 16.8162 11.5833 16.8225 11.5833C16.8289 11.5833 16.8352 11.5833 16.8415 11.5833C16.8478 11.5833 16.8541 11.5833 16.8604 11.5833C16.8667 11.5833 16.873 11.5833 16.8792 11.5833C16.8855 11.5833 16.8918 11.5833 16.898 11.5833C16.9042 11.5833 16.9104 11.5833 16.9167 11.5833C16.9229 11.5833 16.9291 11.5833 16.9352 11.5833C16.9414 11.5833 16.9476 11.5833 16.9537 11.5833C16.9599 11.5833 16.966 11.5833 16.9722 11.5833C16.9783 11.5833 16.9844 11.5833 16.9905 11.5833C16.9966 11.5833 17.0027 11.5833 17.0087 11.5833C17.0148 11.5833 17.0209 11.5833 17.0269 11.5833C17.0329 11.5833 17.039 11.5833 17.045 11.5833C17.051 11.5833 17.057 11.5833 17.063 11.5833C17.069 11.5833 17.0749 11.5833 17.0809 11.5833C17.0868 11.5833 17.0928 11.5833 17.0987 11.5833C17.1046 11.5833 17.1105 11.5833 17.1164 11.5833C17.1223 11.5833 17.1282 11.5833 17.1341 11.5833C17.14 11.5833 17.1458 11.5833 17.1517 11.5833C17.1575 11.5833 17.1633 11.5833 17.1691 11.5833C17.175 11.5833 17.1808 11.5833 17.1865 11.5833C17.1923 11.5833 17.1981 11.5833 17.2038 11.5833C17.2096 11.5833 17.2153 11.5833 17.2211 11.5833C17.2268 11.5833 17.2325 11.5833 17.2382 11.5833C17.2439 11.5833 17.2496 11.5833 17.2552 11.5833C17.2609 11.5833 17.2666 11.5833 17.2722 11.5833C17.2778 11.5833 17.2834 11.5833 17.2891 11.5833C17.2947 11.5833 17.3002 11.5833 17.3058 11.5833C17.3114 11.5833 17.317 11.5833 17.3225 11.5833C17.3281 11.5833 17.3336 11.5833 17.3391 11.5833C17.3446 11.5833 17.3501 11.5833 17.3556 11.5833C17.3611 11.5833 17.3666 11.5833 17.372 11.5833C17.3775 11.5833 17.3829 11.5833 17.3883 11.5833C17.3938 11.5833 17.3992 11.5833 17.4046 11.5833C17.41 11.5833 17.4153 11.5833 17.4207 11.5833C17.4261 11.5833 17.4314 11.5833 17.4368 11.5833C17.4421 11.5833 17.4474 11.5833 17.4527 11.5833C17.458 11.5833 17.4633 11.5833 17.4686 11.5833C17.4738 11.5833 17.4791 11.5833 17.4843 11.5833C17.4896 11.5833 17.4948 11.5833 17.5 11.5833V13.0833ZM4.46967 11.803L9.803 6.46967L10.8637 7.53033L5.53033 12.8637L4.46967 11.803ZM5.53033 11.803L10.8637 17.1363L9.803 18.197L4.46967 12.8637L5.53033 11.803Z" fill="#868686"/>
</svg>
