<svg width="27" height="27" viewBox="0 0 27 27" fill="none" xmlns="http://www.w3.org/2000/svg">
<path d="M12.5833 14.8333C12.5833 15.2475 12.9191 15.5833 13.3333 15.5833C13.7475 15.5833 14.0833 15.2475 14.0833 14.8333H12.5833ZM14.0833 8.83333C14.0833 8.41912 13.7475 8.08333 13.3333 8.08333C12.9191 8.08333 12.5833 8.41912 12.5833 8.83333H14.0833ZM13.1667 17.6667V16.9167C12.7525 16.9167 12.4167 17.2525 12.4167 17.6667H13.1667ZM13.1667 18H12.4167C12.4167 18.4142 12.7525 18.75 13.1667 18.75V18ZM13.5 18V18.75C13.9142 18.75 14.25 18.4142 14.25 18H13.5ZM13.5 17.6667H14.25C14.25 17.2525 13.9142 16.9167 13.5 16.9167V17.6667ZM23.25 13.5C23.25 18.8848 18.8848 23.25 13.5 23.25V24.75C19.7132 24.75 24.75 19.7132 24.75 13.5H23.25ZM13.5 23.25C8.11522 23.25 3.75 18.8848 3.75 13.5H2.25C2.25 19.7132 7.2868 24.75 13.5 24.75V23.25ZM3.75 13.5C3.75 8.11522 8.11522 3.75 13.5 3.75V2.25C7.2868 2.25 2.25 7.2868 2.25 13.5H3.75ZM13.5 3.75C18.8848 3.75 23.25 8.11522 23.25 13.5H24.75C24.75 7.2868 19.7132 2.25 13.5 2.25V3.75ZM14.0833 14.8333V8.83333H12.5833V14.8333H14.0833ZM12.4167 17.6667V18H13.9167V17.6667H12.4167ZM13.1667 18.75H13.5V17.25H13.1667V18.75ZM14.25 18V17.6667H12.75V18H14.25ZM13.5 16.9167H13.1667V18.4167H13.5V16.9167Z" fill="#868686"/>
</svg>
