<svg width="27" height="27" viewBox="0 0 27 27" fill="none" xmlns="http://www.w3.org/2000/svg">
<path d="M7.35095 13.1665C7.35095 13.5807 7.68674 13.9165 8.10095 13.9165C8.51517 13.9165 8.85095 13.5807 8.85095 13.1665H7.35095ZM11.202 5.49997L11.952 5.50003V5.49997H11.202ZM10.4519 12.4998C10.4519 12.9141 10.7877 13.2498 11.2019 13.2498C11.6161 13.2498 11.9519 12.9141 11.9519 12.4998H10.4519ZM13.5529 12.4998C13.5529 12.9141 13.8887 13.2498 14.3029 13.2498C14.7171 13.2498 15.0529 12.9141 15.0529 12.4998H13.5529ZM15.8534 23V23.75H15.8536L15.8534 23ZM18.093 21.9997L17.6524 21.3927L17.5817 21.444L17.5247 21.5102L18.093 21.9997ZM20.3326 12.6665L19.7398 12.207L19.7138 12.2406L19.6917 12.2769L20.3326 12.6665ZM22.7444 14.6665L22.0781 14.3221L22.7444 14.6665ZM9.8237 22.25C9.20009 22.25 8.14949 21.9962 7.27047 21.3593C6.4227 20.7451 5.75 19.7911 5.75 18.3334H4.25C4.25 20.3423 5.21391 21.7216 6.39038 22.574C7.53559 23.4038 8.89684 23.75 9.8237 23.75V22.25ZM5.75 18.3334V8.83324H4.25V18.3334H5.75ZM5.75 8.83324C5.75 8.44226 6.08478 8.08327 6.55048 8.08327V6.58327C5.30356 6.58327 4.25 7.5674 4.25 8.83324H5.75ZM6.55048 8.08327C7.01617 8.08327 7.35095 8.44226 7.35095 8.83324H8.85095C8.85095 7.5674 7.79739 6.58327 6.55048 6.58327V8.08327ZM7.35095 8.83324V13.1665H8.85095V8.83324H7.35095ZM8.85095 6.33329C8.85095 5.94231 9.18573 5.58332 9.65143 5.58332V4.08332C8.40452 4.08332 7.35095 5.06745 7.35095 6.33329H8.85095ZM9.65143 5.58332C10.1171 5.58332 10.4519 5.94231 10.4519 6.33329H11.9519C11.9519 5.06745 10.8983 4.08332 9.65143 4.08332V5.58332ZM8.85095 8.83324V6.33329H7.35095V8.83324H8.85095ZM11.952 5.49997C11.952 5.10899 12.2867 4.75 12.7524 4.75V3.25C11.5055 3.25 10.452 4.23413 10.452 5.49997H11.952ZM12.7524 4.75C13.2181 4.75 13.5529 5.10899 13.5529 5.49997H15.0529C15.0529 4.23413 13.9994 3.25 12.7524 3.25V4.75ZM10.4519 6.33329V12.4998H11.9519V6.33329H10.4519ZM13.5529 5.49997V12.4998H15.0529V5.49997H13.5529ZM15.0529 7.83326C15.0529 7.44228 15.3877 7.08329 15.8534 7.08329V5.58329C14.6065 5.58329 13.5529 6.56742 13.5529 7.83326H15.0529ZM15.8534 7.08329C16.3191 7.08329 16.6539 7.44228 16.6539 7.83326H18.1539C18.1539 6.56742 17.1003 5.58329 15.8534 5.58329V7.08329ZM16.6539 7.83326V13.6665H18.1539V7.83326H16.6539ZM9.8237 23.75H15.8534V22.25H9.8237V23.75ZM15.8536 23.75C16.4304 23.7499 17.775 23.518 18.6612 22.4891L17.5247 21.5102C17.0328 22.0813 16.1952 22.2499 15.8532 22.25L15.8536 23.75ZM20.9253 13.126C21.0649 12.946 21.2807 12.8218 21.4968 12.7883C21.7021 12.7565 21.8748 12.808 22.0038 12.9329L23.0468 11.8548C21.998 10.8402 20.4518 11.2886 19.7398 12.207L20.9253 13.126ZM22.0038 12.9329C22.2849 13.2048 22.3482 13.7995 22.0781 14.3221L23.4107 15.0108C23.8578 14.1458 23.9767 12.7544 23.0468 11.8548L22.0038 12.9329ZM22.0781 14.3221C21.538 15.367 20.659 16.985 19.7812 18.4365C19.3419 19.1628 18.9087 19.8379 18.5224 20.3754C18.1175 20.9388 17.819 21.2718 17.6524 21.3927L18.5335 22.6066C18.9183 22.3274 19.3404 21.8075 19.7405 21.2508C20.1593 20.6681 20.6154 19.9557 21.0648 19.2127C21.9643 17.7254 22.8597 16.0769 23.4107 15.0108L22.0781 14.3221ZM20.3326 12.6665C19.6917 12.2769 19.6917 12.2768 19.6918 12.2768C19.6917 12.2768 19.6918 12.2768 19.6917 12.2768C19.6917 12.2768 19.6917 12.2769 19.6916 12.277C19.6915 12.2773 19.6912 12.2777 19.6909 12.2782C19.6902 12.2794 19.6891 12.2812 19.6876 12.2836C19.6846 12.2885 19.68 12.296 19.674 12.3058C19.6618 12.3256 19.6438 12.355 19.6204 12.3926C19.5737 12.4678 19.506 12.5758 19.4231 12.7056C19.2569 12.966 19.0315 13.3107 18.7919 13.6534C18.5495 14 18.3047 14.3271 18.0984 14.5611C17.9936 14.6799 17.9165 14.7544 17.8683 14.793C17.8444 14.8122 17.8439 14.8093 17.8647 14.7988C17.8791 14.7915 17.9624 14.7498 18.093 14.7498V16.2498C18.2881 16.2498 18.4455 16.186 18.5419 16.1372C18.6447 16.0852 18.7343 16.0213 18.8069 15.9631C18.9519 15.8468 19.0941 15.6999 19.2235 15.5531C19.4856 15.2558 19.7683 14.8746 20.0212 14.5129C20.2769 14.1473 20.5145 13.7837 20.6874 13.5128C20.7741 13.377 20.8451 13.2637 20.8946 13.1839C20.9194 13.1441 20.9388 13.1126 20.9522 13.0908C20.9589 13.0799 20.964 13.0715 20.9676 13.0657C20.9694 13.0627 20.9708 13.0605 20.9717 13.0589C20.9722 13.0581 20.9726 13.0575 20.9729 13.057C20.973 13.0568 20.9731 13.0566 20.9732 13.0565C20.9733 13.0564 20.9733 13.0563 20.9733 13.0563C20.9734 13.0562 20.9734 13.0562 20.3326 12.6665ZM18.093 14.7498C18.048 14.7498 18.0993 14.7413 18.1738 14.7893C18.2532 14.8406 18.2673 14.8962 18.253 14.8597C18.2349 14.8135 18.2063 14.7071 18.1851 14.4965C18.1645 14.2915 18.1539 14.0217 18.1539 13.6665H16.6539C16.6539 14.3857 16.6898 14.9815 16.8562 15.4066C16.9496 15.6451 17.1036 15.884 17.3608 16.0499C17.6129 16.2125 17.8795 16.2498 18.093 16.2498V14.7498ZM10.452 5.49992L10.4519 6.33323L11.9519 6.33335L11.952 5.50003L10.452 5.49992Z" fill="#868686"/>
</svg>
