<svg width="27" height="27" viewBox="0 0 27 27" fill="none" xmlns="http://www.w3.org/2000/svg">
<path d="M21.25 21.1509C21.25 21.5652 21.5858 21.9009 22 21.9009C22.4142 21.9009 22.75 21.5652 22.75 21.1509H21.25ZM22 15.717H22.75C22.75 15.3028 22.4142 14.967 22 14.967V15.717ZM16.8807 14.967C16.4665 14.967 16.1307 15.3028 16.1307 15.717C16.1307 16.1312 16.4665 16.467 16.8807 16.467V14.967ZM20.3302 9.75251C20.5061 10.1275 20.9527 10.2889 21.3277 10.113C21.7027 9.93702 21.8641 9.49041 21.6882 9.11541L20.3302 9.75251ZM4.75 4.84906C4.75 4.43484 4.41421 4.09906 4 4.09906C3.58579 4.09906 3.25 4.43484 3.25 4.84906H4.75ZM4 10.283H3.25C3.25 10.6972 3.58579 11.033 4 11.033V10.283ZM9.11927 11.033C9.53348 11.033 9.86927 10.6972 9.86927 10.283C9.86927 9.86881 9.53348 9.53302 9.11927 9.53302V11.033ZM5.52155 16.1564C5.36704 15.7721 4.93023 15.5858 4.54592 15.7403C4.1616 15.8948 3.97531 16.3317 4.12982 16.716L5.52155 16.1564ZM22.75 21.1509V15.717H21.25V21.1509H22.75ZM22 14.967H16.8807V16.467H22V14.967ZM20.6224 15.4973C19.5977 18.8417 16.4917 21.25 12.9174 21.25V22.75C17.1757 22.75 20.8462 19.8873 22.0565 15.9367L20.6224 15.4973ZM12.9174 4.75C16.0519 4.75 19.0179 6.95546 20.3302 9.75251L21.6882 9.11541C20.1719 5.88353 16.7286 3.25 12.9174 3.25V4.75ZM3.25 4.84906V10.283H4.75V4.84906H3.25ZM12.9174 21.25C9.59346 21.25 6.72807 19.1574 5.52155 16.1564L4.12982 16.716C5.54935 20.2467 8.94074 22.75 12.9174 22.75V21.25ZM4 11.033H4.57102V9.53302H4V11.033ZM4.57102 11.033H9.11927V9.53302H4.57102V11.033ZM5.28788 10.5035C6.31774 7.15514 9.35476 4.75 12.9174 4.75V3.25C8.65433 3.25 5.06503 6.12565 3.85417 10.0625L5.28788 10.5035Z" fill="#868686"/>
</svg>
