<svg width="27" height="27" viewBox="0 0 27 27" fill="none" xmlns="http://www.w3.org/2000/svg">
<path d="M5.75 13.1695C5.75 12.7553 5.41421 12.4195 5 12.4195C4.58579 12.4195 4.25 12.7553 4.25 13.1695H5.75ZM5 6.38983L4.47586 5.85339C4.33142 5.9945 4.25 6.1879 4.25 6.38983C4.25 6.59176 4.33142 6.78516 4.47586 6.92628L5 6.38983ZM8.99353 3.53645C9.2898 3.24697 9.29531 2.77213 9.00583 2.47586C8.71636 2.17959 8.24151 2.17408 7.94524 2.46355L8.99353 3.53645ZM7.94524 10.3161C8.24151 10.6056 8.71636 10.6001 9.00583 10.3038C9.29531 10.0075 9.2898 9.53269 8.99353 9.24322L7.94524 10.3161ZM9.86088 15.5144C9.56461 15.2249 9.08977 15.2304 8.80029 15.5267C8.51081 15.823 8.51632 16.2978 8.81259 16.5873L9.86088 15.5144ZM18.3609 12.689C18.6571 12.3995 18.6627 11.9247 18.3732 11.6284C18.0837 11.3321 17.6089 11.3266 17.3126 11.6161L18.3609 12.689ZM11.3595 18.0272L11.8836 17.4908L11.3595 18.0272ZM11.8242 18.0272L11.3001 17.4908L11.8242 18.0272ZM4.25 13.1695V20.7966H5.75V13.1695H4.25ZM4.25 20.7966C4.25 21.2874 4.3944 22.0041 4.84724 22.6187C5.32753 23.2704 6.11587 23.75 7.2551 23.75V22.25C6.59025 22.25 6.25104 21.9951 6.0548 21.7288C5.83111 21.4253 5.75 21.0403 5.75 20.7966H4.25ZM21.25 8.59316V20.7966H22.75V8.59316H21.25ZM21.25 20.7966C21.25 21.0403 21.1689 21.4253 20.9452 21.7288C20.749 21.9951 20.4098 22.25 19.7449 22.25V23.75C20.8841 23.75 21.6725 23.2704 22.1528 22.6187C22.6056 22.0041 22.75 21.2874 22.75 20.7966H21.25ZM19.7449 22.25H7.2551V23.75H19.7449V22.25ZM22.75 8.59316C22.75 8.10233 22.6056 7.38565 22.1527 6.77114C21.6725 6.11939 20.8841 5.63983 19.7449 5.63983V7.13983C20.4098 7.13983 20.749 7.39471 20.9452 7.661C21.1689 7.96454 21.25 8.34952 21.25 8.59316H22.75ZM19.7449 5.63983H5V7.13983H19.7449V5.63983ZM5.52414 6.92628L8.99353 3.53645L7.94524 2.46355L4.47586 5.85339L5.52414 6.92628ZM8.99353 9.24322L5.52414 5.85339L4.47586 6.92628L7.94524 10.3161L8.99353 9.24322ZM8.81259 16.5873L10.8353 18.5636L11.8836 17.4908L9.86088 15.5144L8.81259 16.5873ZM12.3484 18.5636L18.3609 12.689L17.3126 11.6161L11.3001 17.4908L12.3484 18.5636ZM10.8353 18.5636C11.2559 18.9746 11.9277 18.9746 12.3484 18.5636L11.3001 17.4908C11.4623 17.3322 11.7214 17.3322 11.8836 17.4908L10.8353 18.5636Z" fill="#868686"/>
</svg>
