<svg width="27" height="27" viewBox="0 0 27 27" fill="none" xmlns="http://www.w3.org/2000/svg">
<path d="M11.3333 2.25C10.9191 2.25 10.5833 2.58579 10.5833 3C10.5833 3.41421 10.9191 3.75 11.3333 3.75V2.25ZM15.6667 3.75C16.0809 3.75 16.4167 3.41421 16.4167 3C16.4167 2.58579 16.0809 2.25 15.6667 2.25V3.75ZM14.4167 10.377C14.4167 9.96284 14.0809 9.62705 13.6667 9.62705C13.2525 9.62705 12.9167 9.96284 12.9167 10.377H14.4167ZM17.1667 15.5533C17.5809 15.5533 17.9167 15.2175 17.9167 14.8033C17.9167 14.3891 17.5809 14.0533 17.1667 14.0533V15.5533ZM18.6174 8.92299C18.8169 9.08193 18.9754 9.25121 19.215 9.49864L20.2925 8.45509C20.081 8.23675 19.8451 7.98331 19.5522 7.74992L18.6174 8.92299ZM11.3333 3.75H15.6667V2.25H11.3333V3.75ZM21.25 14.6393C21.25 18.831 17.7919 22.25 13.5 22.25V23.75C18.5969 23.75 22.75 19.6827 22.75 14.6393H21.25ZM13.5 22.25C9.20806 22.25 5.75 18.831 5.75 14.6393H4.25C4.25 19.6827 8.4031 23.75 13.5 23.75V22.25ZM5.75 14.6393C5.75 10.4477 9.20806 7.02869 13.5 7.02869V5.52869C8.4031 5.52869 4.25 9.59603 4.25 14.6393H5.75ZM13.5 7.02869C17.7919 7.02869 21.25 10.4477 21.25 14.6393H22.75C22.75 9.59603 18.5969 5.52869 13.5 5.52869V7.02869ZM12.9167 10.377V14.1475H14.4167V10.377H12.9167ZM12.9167 14.1475C12.9167 14.2383 12.8964 14.6366 13.1189 14.9831C13.3938 15.4112 13.8629 15.5533 14.3333 15.5533V14.0533C14.2334 14.0533 14.2162 14.0382 14.2431 14.0498C14.2583 14.0563 14.2829 14.0694 14.3105 14.0924C14.3384 14.1158 14.3624 14.1434 14.3811 14.1726C14.4173 14.229 14.4211 14.2704 14.4198 14.2611C14.4193 14.2575 14.4182 14.2476 14.4175 14.2275C14.4167 14.2063 14.4167 14.1835 14.4167 14.1475H12.9167ZM14.3333 15.5533C14.3346 15.5533 14.3359 15.5533 14.3372 15.5533C14.3386 15.5533 14.3399 15.5533 14.3412 15.5533C14.3425 15.5533 14.3438 15.5533 14.3451 15.5533C14.3465 15.5533 14.3478 15.5533 14.3491 15.5533C14.3504 15.5533 14.3518 15.5533 14.3531 15.5533C14.3545 15.5533 14.3558 15.5533 14.3571 15.5533C14.3585 15.5533 14.3598 15.5533 14.3612 15.5533C14.3625 15.5533 14.3639 15.5533 14.3652 15.5533C14.3666 15.5533 14.3679 15.5533 14.3693 15.5533C14.3707 15.5533 14.372 15.5533 14.3734 15.5533C14.3748 15.5533 14.3761 15.5533 14.3775 15.5533C14.3789 15.5533 14.3803 15.5533 14.3816 15.5533C14.383 15.5533 14.3844 15.5533 14.3858 15.5533C14.3872 15.5533 14.3886 15.5533 14.39 15.5533C14.3914 15.5533 14.3928 15.5533 14.3942 15.5533C14.3956 15.5533 14.397 15.5533 14.3984 15.5533C14.3998 15.5533 14.4012 15.5533 14.4026 15.5533C14.404 15.5533 14.4054 15.5533 14.4069 15.5533C14.4083 15.5533 14.4097 15.5533 14.4111 15.5533C14.4126 15.5533 14.414 15.5533 14.4154 15.5533C14.4169 15.5533 14.4183 15.5533 14.4197 15.5533C14.4212 15.5533 14.4226 15.5533 14.424 15.5533C14.4255 15.5533 14.4269 15.5533 14.4284 15.5533C14.4298 15.5533 14.4313 15.5533 14.4328 15.5533C14.4342 15.5533 14.4357 15.5533 14.4371 15.5533C14.4386 15.5533 14.4401 15.5533 14.4415 15.5533C14.443 15.5533 14.4445 15.5533 14.4459 15.5533C14.4474 15.5533 14.4489 15.5533 14.4504 15.5533C14.4519 15.5533 14.4533 15.5533 14.4548 15.5533C14.4563 15.5533 14.4578 15.5533 14.4593 15.5533C14.4608 15.5533 14.4623 15.5533 14.4638 15.5533C14.4653 15.5533 14.4668 15.5533 14.4683 15.5533C14.4698 15.5533 14.4713 15.5533 14.4728 15.5533C14.4743 15.5533 14.4759 15.5533 14.4774 15.5533C14.4789 15.5533 14.4804 15.5533 14.4819 15.5533C14.4835 15.5533 14.485 15.5533 14.4865 15.5533C14.488 15.5533 14.4896 15.5533 14.4911 15.5533C14.4926 15.5533 14.4942 15.5533 14.4957 15.5533C14.4973 15.5533 14.4988 15.5533 14.5003 15.5533C14.5019 15.5533 14.5034 15.5533 14.505 15.5533C14.5065 15.5533 14.5081 15.5533 14.5096 15.5533C14.5112 15.5533 14.5128 15.5533 14.5143 15.5533C14.5159 15.5533 14.5175 15.5533 14.519 15.5533C14.5206 15.5533 14.5222 15.5533 14.5237 15.5533C14.5253 15.5533 14.5269 15.5533 14.5285 15.5533C14.53 15.5533 14.5316 15.5533 14.5332 15.5533C14.5348 15.5533 14.5364 15.5533 14.538 15.5533C14.5396 15.5533 14.5412 15.5533 14.5428 15.5533C14.5444 15.5533 14.546 15.5533 14.5476 15.5533C14.5492 15.5533 14.5508 15.5533 14.5524 15.5533C14.554 15.5533 14.5556 15.5533 14.5572 15.5533C14.5588 15.5533 14.5604 15.5533 14.562 15.5533C14.5637 15.5533 14.5653 15.5533 14.5669 15.5533C14.5685 15.5533 14.5702 15.5533 14.5718 15.5533C14.5734 15.5533 14.575 15.5533 14.5767 15.5533C14.5783 15.5533 14.5799 15.5533 14.5816 15.5533C14.5832 15.5533 14.5849 15.5533 14.5865 15.5533C14.5882 15.5533 14.5898 15.5533 14.5915 15.5533C14.5931 15.5533 14.5948 15.5533 14.5964 15.5533C14.5981 15.5533 14.5997 15.5533 14.6014 15.5533C14.603 15.5533 14.6047 15.5533 14.6064 15.5533C14.608 15.5533 14.6097 15.5533 14.6114 15.5533C14.613 15.5533 14.6147 15.5533 14.6164 15.5533C14.6181 15.5533 14.6197 15.5533 14.6214 15.5533C14.6231 15.5533 14.6248 15.5533 14.6265 15.5533C14.6282 15.5533 14.6298 15.5533 14.6315 15.5533C14.6332 15.5533 14.6349 15.5533 14.6366 15.5533C14.6383 15.5533 14.64 15.5533 14.6417 15.5533C14.6434 15.5533 14.6451 15.5533 14.6468 15.5533C14.6485 15.5533 14.6502 15.5533 14.6519 15.5533C14.6536 15.5533 14.6554 15.5533 14.6571 15.5533C14.6588 15.5533 14.6605 15.5533 14.6622 15.5533C14.6639 15.5533 14.6657 15.5533 14.6674 15.5533C14.6691 15.5533 14.6708 15.5533 14.6726 15.5533C14.6743 15.5533 14.676 15.5533 14.6778 15.5533C14.6795 15.5533 14.6812 15.5533 14.683 15.5533C14.6847 15.5533 14.6864 15.5533 14.6882 15.5533C14.6899 15.5533 14.6917 15.5533 14.6934 15.5533C14.6952 15.5533 14.6969 15.5533 14.6987 15.5533C14.7004 15.5533 14.7022 15.5533 14.7039 15.5533C14.7057 15.5533 14.7075 15.5533 14.7092 15.5533C14.711 15.5533 14.7127 15.5533 14.7145 15.5533C14.7163 15.5533 14.7181 15.5533 14.7198 15.5533C14.7216 15.5533 14.7234 15.5533 14.7251 15.5533C14.7269 15.5533 14.7287 15.5533 14.7305 15.5533C14.7323 15.5533 14.734 15.5533 14.7358 15.5533C14.7376 15.5533 14.7394 15.5533 14.7412 15.5533C14.743 15.5533 14.7448 15.5533 14.7466 15.5533C14.7483 15.5533 14.7501 15.5533 14.7519 15.5533C14.7537 15.5533 14.7555 15.5533 14.7573 15.5533C14.7591 15.5533 14.7609 15.5533 14.7627 15.5533C14.7646 15.5533 14.7664 15.5533 14.7682 15.5533C14.77 15.5533 14.7718 15.5533 14.7736 15.5533C14.7754 15.5533 14.7772 15.5533 14.7791 15.5533C14.7809 15.5533 14.7827 15.5533 14.7845 15.5533C14.7863 15.5533 14.7882 15.5533 14.79 15.5533C14.7918 15.5533 14.7937 15.5533 14.7955 15.5533C14.7973 15.5533 14.7992 15.5533 14.801 15.5533C14.8028 15.5533 14.8047 15.5533 14.8065 15.5533C14.8083 15.5533 14.8102 15.5533 14.812 15.5533C14.8139 15.5533 14.8157 15.5533 14.8176 15.5533C14.8194 15.5533 14.8213 15.5533 14.8231 15.5533C14.825 15.5533 14.8268 15.5533 14.8287 15.5533C14.8305 15.5533 14.8324 15.5533 14.8342 15.5533C14.8361 15.5533 14.838 15.5533 14.8398 15.5533C14.8417 15.5533 14.8436 15.5533 14.8454 15.5533C14.8473 15.5533 14.8492 15.5533 14.851 15.5533C14.8529 15.5533 14.8548 15.5533 14.8567 15.5533C14.8585 15.5533 14.8604 15.5533 14.8623 15.5533C14.8642 15.5533 14.866 15.5533 14.8679 15.5533C14.8698 15.5533 14.8717 15.5533 14.8736 15.5533C14.8755 15.5533 14.8774 15.5533 14.8792 15.5533C14.8811 15.5533 14.883 15.5533 14.8849 15.5533C14.8868 15.5533 14.8887 15.5533 14.8906 15.5533C14.8925 15.5533 14.8944 15.5533 14.8963 15.5533C14.8982 15.5533 14.9001 15.5533 14.902 15.5533C14.9039 15.5533 14.9058 15.5533 14.9077 15.5533C14.9096 15.5533 14.9116 15.5533 14.9135 15.5533C14.9154 15.5533 14.9173 15.5533 14.9192 15.5533C14.9211 15.5533 14.923 15.5533 14.925 15.5533C14.9269 15.5533 14.9288 15.5533 14.9307 15.5533C14.9326 15.5533 14.9346 15.5533 14.9365 15.5533C14.9384 15.5533 14.9404 15.5533 14.9423 15.5533C14.9442 15.5533 14.9461 15.5533 14.9481 15.5533C14.95 15.5533 14.9519 15.5533 14.9539 15.5533C14.9558 15.5533 14.9578 15.5533 14.9597 15.5533C14.9616 15.5533 14.9636 15.5533 14.9655 15.5533C14.9675 15.5533 14.9694 15.5533 14.9714 15.5533C14.9733 15.5533 14.9752 15.5533 14.9772 15.5533C14.9791 15.5533 14.9811 15.5533 14.9831 15.5533C14.985 15.5533 14.987 15.5533 14.9889 15.5533C14.9909 15.5533 14.9928 15.5533 14.9948 15.5533C14.9967 15.5533 14.9987 15.5533 15.0007 15.5533C15.0026 15.5533 15.0046 15.5533 15.0066 15.5533C15.0085 15.5533 15.0105 15.5533 15.0125 15.5533C15.0144 15.5533 15.0164 15.5533 15.0184 15.5533C15.0203 15.5533 15.0223 15.5533 15.0243 15.5533C15.0263 15.5533 15.0282 15.5533 15.0302 15.5533C15.0322 15.5533 15.0342 15.5533 15.0362 15.5533C15.0381 15.5533 15.0401 15.5533 15.0421 15.5533C15.0441 15.5533 15.0461 15.5533 15.0481 15.5533C15.0501 15.5533 15.052 15.5533 15.054 15.5533C15.056 15.5533 15.058 15.5533 15.06 15.5533C15.062 15.5533 15.064 15.5533 15.066 15.5533C15.068 15.5533 15.07 15.5533 15.072 15.5533C15.074 15.5533 15.076 15.5533 15.078 15.5533C15.08 15.5533 15.082 15.5533 15.084 15.5533C15.086 15.5533 15.088 15.5533 15.09 15.5533C15.092 15.5533 15.094 15.5533 15.096 15.5533C15.098 15.5533 15.1 15.5533 15.1021 15.5533C15.1041 15.5533 15.1061 15.5533 15.1081 15.5533C15.1101 15.5533 15.1121 15.5533 15.1141 15.5533C15.1162 15.5533 15.1182 15.5533 15.1202 15.5533C15.1222 15.5533 15.1242 15.5533 15.1263 15.5533C15.1283 15.5533 15.1303 15.5533 15.1323 15.5533C15.1344 15.5533 15.1364 15.5533 15.1384 15.5533C15.1404 15.5533 15.1425 15.5533 15.1445 15.5533C15.1465 15.5533 15.1486 15.5533 15.1506 15.5533C15.1526 15.5533 15.1547 15.5533 15.1567 15.5533C15.1587 15.5533 15.1608 15.5533 15.1628 15.5533C15.1648 15.5533 15.1669 15.5533 15.1689 15.5533C15.171 15.5533 15.173 15.5533 15.175 15.5533C15.1771 15.5533 15.1791 15.5533 15.1812 15.5533C15.1832 15.5533 15.1853 15.5533 15.1873 15.5533C15.1894 15.5533 15.1914 15.5533 15.1935 15.5533C15.1955 15.5533 15.1976 15.5533 15.1996 15.5533C15.2017 15.5533 15.2037 15.5533 15.2058 15.5533C15.2078 15.5533 15.2099 15.5533 15.2119 15.5533C15.214 15.5533 15.216 15.5533 15.2181 15.5533C15.2202 15.5533 15.2222 15.5533 15.2243 15.5533C15.2263 15.5533 15.2284 15.5533 15.2305 15.5533C15.2325 15.5533 15.2346 15.5533 15.2366 15.5533C15.2387 15.5533 15.2408 15.5533 15.2428 15.5533C15.2449 15.5533 15.247 15.5533 15.249 15.5533C15.2511 15.5533 15.2532 15.5533 15.2553 15.5533C15.2573 15.5533 15.2594 15.5533 15.2615 15.5533C15.2635 15.5533 15.2656 15.5533 15.2677 15.5533C15.2698 15.5533 15.2718 15.5533 15.2739 15.5533C15.276 15.5533 15.2781 15.5533 15.2801 15.5533C15.2822 15.5533 15.2843 15.5533 15.2864 15.5533C15.2885 15.5533 15.2905 15.5533 15.2926 15.5533C15.2947 15.5533 15.2968 15.5533 15.2989 15.5533C15.301 15.5533 15.303 15.5533 15.3051 15.5533C15.3072 15.5533 15.3093 15.5533 15.3114 15.5533C15.3135 15.5533 15.3156 15.5533 15.3177 15.5533C15.3197 15.5533 15.3218 15.5533 15.3239 15.5533C15.326 15.5533 15.3281 15.5533 15.3302 15.5533C15.3323 15.5533 15.3344 15.5533 15.3365 15.5533C15.3386 15.5533 15.3407 15.5533 15.3428 15.5533C15.3449 15.5533 15.347 15.5533 15.3491 15.5533C15.3512 15.5533 15.3533 15.5533 15.3554 15.5533C15.3575 15.5533 15.3596 15.5533 15.3617 15.5533C15.3638 15.5533 15.3659 15.5533 15.368 15.5533C15.3701 15.5533 15.3722 15.5533 15.3743 15.5533C15.3764 15.5533 15.3785 15.5533 15.3806 15.5533C15.3827 15.5533 15.3848 15.5533 15.3869 15.5533C15.389 15.5533 15.3911 15.5533 15.3932 15.5533C15.3953 15.5533 15.3974 15.5533 15.3995 15.5533C15.4017 15.5533 15.4038 15.5533 15.4059 15.5533C15.408 15.5533 15.4101 15.5533 15.4122 15.5533C15.4143 15.5533 15.4164 15.5533 15.4185 15.5533C15.4207 15.5533 15.4228 15.5533 15.4249 15.5533C15.427 15.5533 15.4291 15.5533 15.4312 15.5533C15.4334 15.5533 15.4355 15.5533 15.4376 15.5533C15.4397 15.5533 15.4418 15.5533 15.4439 15.5533C15.4461 15.5533 15.4482 15.5533 15.4503 15.5533C15.4524 15.5533 15.4545 15.5533 15.4567 15.5533C15.4588 15.5533 15.4609 15.5533 15.463 15.5533C15.4651 15.5533 15.4673 15.5533 15.4694 15.5533C15.4715 15.5533 15.4736 15.5533 15.4758 15.5533C15.4779 15.5533 15.48 15.5533 15.4821 15.5533C15.4843 15.5533 15.4864 15.5533 15.4885 15.5533C15.4906 15.5533 15.4928 15.5533 15.4949 15.5533C15.497 15.5533 15.4991 15.5533 15.5013 15.5533C15.5034 15.5533 15.5055 15.5533 15.5077 15.5533C15.5098 15.5533 15.5119 15.5533 15.514 15.5533C15.5162 15.5533 15.5183 15.5533 15.5204 15.5533C15.5226 15.5533 15.5247 15.5533 15.5268 15.5533C15.529 15.5533 15.5311 15.5533 15.5332 15.5533C15.5353 15.5533 15.5375 15.5533 15.5396 15.5533C15.5417 15.5533 15.5439 15.5533 15.546 15.5533C15.5481 15.5533 15.5503 15.5533 15.5524 15.5533C15.5546 15.5533 15.5567 15.5533 15.5588 15.5533C15.561 15.5533 15.5631 15.5533 15.5652 15.5533C15.5674 15.5533 15.5695 15.5533 15.5716 15.5533C15.5738 15.5533 15.5759 15.5533 15.578 15.5533C15.5802 15.5533 15.5823 15.5533 15.5845 15.5533C15.5866 15.5533 15.5887 15.5533 15.5909 15.5533C15.593 15.5533 15.5951 15.5533 15.5973 15.5533C15.5994 15.5533 15.6016 15.5533 15.6037 15.5533C15.6058 15.5533 15.608 15.5533 15.6101 15.5533C15.6123 15.5533 15.6144 15.5533 15.6165 15.5533C15.6187 15.5533 15.6208 15.5533 15.623 15.5533C15.6251 15.5533 15.6272 15.5533 15.6294 15.5533C15.6315 15.5533 15.6337 15.5533 15.6358 15.5533C15.638 15.5533 15.6401 15.5533 15.6422 15.5533C15.6444 15.5533 15.6465 15.5533 15.6487 15.5533C15.6508 15.5533 15.6529 15.5533 15.6551 15.5533C15.6572 15.5533 15.6594 15.5533 15.6615 15.5533C15.6637 15.5533 15.6658 15.5533 15.6679 15.5533C15.6701 15.5533 15.6722 15.5533 15.6744 15.5533C15.6765 15.5533 15.6787 15.5533 15.6808 15.5533C15.6829 15.5533 15.6851 15.5533 15.6872 15.5533C15.6894 15.5533 15.6915 15.5533 15.6937 15.5533C15.6958 15.5533 15.698 15.5533 15.7001 15.5533C15.7022 15.5533 15.7044 15.5533 15.7065 15.5533C15.7087 15.5533 15.7108 15.5533 15.713 15.5533C15.7151 15.5533 15.7172 15.5533 15.7194 15.5533C15.7215 15.5533 15.7237 15.5533 15.7258 15.5533C15.728 15.5533 15.7301 15.5533 15.7323 15.5533C15.7344 15.5533 15.7365 15.5533 15.7387 15.5533C15.7408 15.5533 15.743 15.5533 15.7451 15.5533C15.7473 15.5533 15.7494 15.5533 15.7515 15.5533C15.7537 15.5533 15.7558 15.5533 15.758 15.5533C15.7601 15.5533 15.7623 15.5533 15.7644 15.5533C15.7665 15.5533 15.7687 15.5533 15.7708 15.5533C15.773 15.5533 15.7751 15.5533 15.7773 15.5533C15.7794 15.5533 15.7815 15.5533 15.7837 15.5533C15.7858 15.5533 15.788 15.5533 15.7901 15.5533C15.7923 15.5533 15.7944 15.5533 15.7965 15.5533C15.7987 15.5533 15.8008 15.5533 15.803 15.5533C15.8051 15.5533 15.8073 15.5533 15.8094 15.5533C15.8115 15.5533 15.8137 15.5533 15.8158 15.5533C15.818 15.5533 15.8201 15.5533 15.8222 15.5533C15.8244 15.5533 15.8265 15.5533 15.8287 15.5533C15.8308 15.5533 15.8329 15.5533 15.8351 15.5533C15.8372 15.5533 15.8394 15.5533 15.8415 15.5533C15.8436 15.5533 15.8458 15.5533 15.8479 15.5533C15.8501 15.5533 15.8522 15.5533 15.8543 15.5533C15.8565 15.5533 15.8586 15.5533 15.8607 15.5533C15.8629 15.5533 15.865 15.5533 15.8672 15.5533C15.8693 15.5533 15.8714 15.5533 15.8736 15.5533C15.8757 15.5533 15.8778 15.5533 15.88 15.5533C15.8821 15.5533 15.8842 15.5533 15.8864 15.5533C15.8885 15.5533 15.8906 15.5533 15.8928 15.5533C15.8949 15.5533 15.897 15.5533 15.8992 15.5533C15.9013 15.5533 15.9034 15.5533 15.9056 15.5533C15.9077 15.5533 15.9098 15.5533 15.912 15.5533C15.9141 15.5533 15.9162 15.5533 15.9184 15.5533C15.9205 15.5533 15.9226 15.5533 15.9248 15.5533C15.9269 15.5533 15.929 15.5533 15.9311 15.5533C15.9333 15.5533 15.9354 15.5533 15.9375 15.5533C15.9397 15.5533 15.9418 15.5533 15.9439 15.5533C15.946 15.5533 15.9482 15.5533 15.9503 15.5533C15.9524 15.5533 15.9545 15.5533 15.9567 15.5533C15.9588 15.5533 15.9609 15.5533 15.963 15.5533C15.9652 15.5533 15.9673 15.5533 15.9694 15.5533C15.9715 15.5533 15.9737 15.5533 15.9758 15.5533C15.9779 15.5533 15.98 15.5533 15.9822 15.5533C15.9843 15.5533 15.9864 15.5533 15.9885 15.5533C15.9906 15.5533 15.9928 15.5533 15.9949 15.5533C15.997 15.5533 15.9991 15.5533 16.0012 15.5533C16.0033 15.5533 16.0055 15.5533 16.0076 15.5533C16.0097 15.5533 16.0118 15.5533 16.0139 15.5533C16.016 15.5533 16.0182 15.5533 16.0203 15.5533C16.0224 15.5533 16.0245 15.5533 16.0266 15.5533C16.0287 15.5533 16.0308 15.5533 16.0329 15.5533C16.0351 15.5533 16.0372 15.5533 16.0393 15.5533C16.0414 15.5533 16.0435 15.5533 16.0456 15.5533C16.0477 15.5533 16.0498 15.5533 16.0519 15.5533C16.054 15.5533 16.0561 15.5533 16.0583 15.5533C16.0604 15.5533 16.0625 15.5533 16.0646 15.5533C16.0667 15.5533 16.0688 15.5533 16.0709 15.5533C16.073 15.5533 16.0751 15.5533 16.0772 15.5533C16.0793 15.5533 16.0814 15.5533 16.0835 15.5533C16.0856 15.5533 16.0877 15.5533 16.0898 15.5533C16.0919 15.5533 16.094 15.5533 16.0961 15.5533C16.0982 15.5533 16.1003 15.5533 16.1024 15.5533C16.1045 15.5533 16.1066 15.5533 16.1086 15.5533C16.1107 15.5533 16.1128 15.5533 16.1149 15.5533C16.117 15.5533 16.1191 15.5533 16.1212 15.5533C16.1233 15.5533 16.1254 15.5533 16.1275 15.5533C16.1296 15.5533 16.1316 15.5533 16.1337 15.5533C16.1358 15.5533 16.1379 15.5533 16.14 15.5533C16.1421 15.5533 16.1442 15.5533 16.1462 15.5533C16.1483 15.5533 16.1504 15.5533 16.1525 15.5533C16.1546 15.5533 16.1566 15.5533 16.1587 15.5533C16.1608 15.5533 16.1629 15.5533 16.165 15.5533C16.167 15.5533 16.1691 15.5533 16.1712 15.5533C16.1733 15.5533 16.1753 15.5533 16.1774 15.5533C16.1795 15.5533 16.1816 15.5533 16.1836 15.5533C16.1857 15.5533 16.1878 15.5533 16.1898 15.5533C16.1919 15.5533 16.194 15.5533 16.196 15.5533C16.1981 15.5533 16.2002 15.5533 16.2022 15.5533C16.2043 15.5533 16.2064 15.5533 16.2084 15.5533C16.2105 15.5533 16.2126 15.5533 16.2146 15.5533C16.2167 15.5533 16.2187 15.5533 16.2208 15.5533C16.2229 15.5533 16.2249 15.5533 16.227 15.5533C16.229 15.5533 16.2311 15.5533 16.2331 15.5533C16.2352 15.5533 16.2373 15.5533 16.2393 15.5533C16.2414 15.5533 16.2434 15.5533 16.2455 15.5533C16.2475 15.5533 16.2496 15.5533 16.2516 15.5533C16.2537 15.5533 16.2557 15.5533 16.2577 15.5533C16.2598 15.5533 16.2618 15.5533 16.2639 15.5533C16.2659 15.5533 16.268 15.5533 16.27 15.5533C16.272 15.5533 16.2741 15.5533 16.2761 15.5533C16.2782 15.5533 16.2802 15.5533 16.2822 15.5533C16.2843 15.5533 16.2863 15.5533 16.2883 15.5533C16.2904 15.5533 16.2924 15.5533 16.2944 15.5533C16.2965 15.5533 16.2985 15.5533 16.3005 15.5533C16.3026 15.5533 16.3046 15.5533 16.3066 15.5533C16.3086 15.5533 16.3107 15.5533 16.3127 15.5533C16.3147 15.5533 16.3167 15.5533 16.3188 15.5533C16.3208 15.5533 16.3228 15.5533 16.3248 15.5533C16.3268 15.5533 16.3289 15.5533 16.3309 15.5533C16.3329 15.5533 16.3349 15.5533 16.3369 15.5533C16.3389 15.5533 16.3409 15.5533 16.3429 15.5533C16.345 15.5533 16.347 15.5533 16.349 15.5533C16.351 15.5533 16.353 15.5533 16.355 15.5533C16.357 15.5533 16.359 15.5533 16.361 15.5533C16.363 15.5533 16.365 15.5533 16.367 15.5533C16.369 15.5533 16.371 15.5533 16.373 15.5533C16.375 15.5533 16.377 15.5533 16.379 15.5533C16.381 15.5533 16.383 15.5533 16.385 15.5533C16.387 15.5533 16.389 15.5533 16.3909 15.5533C16.3929 15.5533 16.3949 15.5533 16.3969 15.5533C16.3989 15.5533 16.4009 15.5533 16.4029 15.5533C16.4048 15.5533 16.4068 15.5533 16.4088 15.5533C16.4108 15.5533 16.4127 15.5533 16.4147 15.5533C16.4167 15.5533 16.4187 15.5533 16.4207 15.5533C16.4226 15.5533 16.4246 15.5533 16.4266 15.5533C16.4285 15.5533 16.4305 15.5533 16.4325 15.5533C16.4344 15.5533 16.4364 15.5533 16.4384 15.5533C16.4403 15.5533 16.4423 15.5533 16.4443 15.5533C16.4462 15.5533 16.4482 15.5533 16.4501 15.5533C16.4521 15.5533 16.454 15.5533 16.456 15.5533C16.458 15.5533 16.4599 15.5533 16.4619 15.5533C16.4638 15.5533 16.4658 15.5533 16.4677 15.5533C16.4697 15.5533 16.4716 15.5533 16.4735 15.5533C16.4755 15.5533 16.4774 15.5533 16.4794 15.5533C16.4813 15.5533 16.4833 15.5533 16.4852 15.5533C16.4871 15.5533 16.4891 15.5533 16.491 15.5533C16.4929 15.5533 16.4949 15.5533 16.4968 15.5533C16.4987 15.5533 16.5007 15.5533 16.5026 15.5533C16.5045 15.5533 16.5064 15.5533 16.5084 15.5533C16.5103 15.5533 16.5122 15.5533 16.5141 15.5533C16.5161 15.5533 16.518 15.5533 16.5199 15.5533C16.5218 15.5533 16.5237 15.5533 16.5256 15.5533C16.5276 15.5533 16.5295 15.5533 16.5314 15.5533C16.5333 15.5533 16.5352 15.5533 16.5371 15.5533C16.539 15.5533 16.5409 15.5533 16.5428 15.5533C16.5447 15.5533 16.5466 15.5533 16.5485 15.5533C16.5504 15.5533 16.5523 15.5533 16.5542 15.5533C16.5561 15.5533 16.558 15.5533 16.5599 15.5533C16.5618 15.5533 16.5637 15.5533 16.5656 15.5533C16.5675 15.5533 16.5693 15.5533 16.5712 15.5533C16.5731 15.5533 16.575 15.5533 16.5769 15.5533C16.5788 15.5533 16.5806 15.5533 16.5825 15.5533C16.5844 15.5533 16.5863 15.5533 16.5881 15.5533C16.59 15.5533 16.5919 15.5533 16.5938 15.5533C16.5956 15.5533 16.5975 15.5533 16.5994 15.5533C16.6012 15.5533 16.6031 15.5533 16.6049 15.5533C16.6068 15.5533 16.6087 15.5533 16.6105 15.5533C16.6124 15.5533 16.6142 15.5533 16.6161 15.5533C16.6179 15.5533 16.6198 15.5533 16.6216 15.5533C16.6235 15.5533 16.6253 15.5533 16.6272 15.5533C16.629 15.5533 16.6309 15.5533 16.6327 15.5533C16.6346 15.5533 16.6364 15.5533 16.6382 15.5533C16.6401 15.5533 16.6419 15.5533 16.6437 15.5533C16.6456 15.5533 16.6474 15.5533 16.6492 15.5533C16.6511 15.5533 16.6529 15.5533 16.6547 15.5533C16.6565 15.5533 16.6584 15.5533 16.6602 15.5533C16.662 15.5533 16.6638 15.5533 16.6656 15.5533C16.6675 15.5533 16.6693 15.5533 16.6711 15.5533C16.6729 15.5533 16.6747 15.5533 16.6765 15.5533C16.6783 15.5533 16.6801 15.5533 16.6819 15.5533C16.6837 15.5533 16.6855 15.5533 16.6873 15.5533C16.6891 15.5533 16.6909 15.5533 16.6927 15.5533C16.6945 15.5533 16.6963 15.5533 16.6981 15.5533C16.6999 15.5533 16.7017 15.5533 16.7035 15.5533C16.7053 15.5533 16.707 15.5533 16.7088 15.5533C16.7106 15.5533 16.7124 15.5533 16.7142 15.5533C16.7159 15.5533 16.7177 15.5533 16.7195 15.5533C16.7213 15.5533 16.723 15.5533 16.7248 15.5533C16.7266 15.5533 16.7283 15.5533 16.7301 15.5533C16.7319 15.5533 16.7336 15.5533 16.7354 15.5533C16.7372 15.5533 16.7389 15.5533 16.7407 15.5533C16.7424 15.5533 16.7442 15.5533 16.7459 15.5533C16.7477 15.5533 16.7494 15.5533 16.7512 15.5533C16.7529 15.5533 16.7547 15.5533 16.7564 15.5533C16.7581 15.5533 16.7599 15.5533 16.7616 15.5533C16.7633 15.5533 16.7651 15.5533 16.7668 15.5533C16.7685 15.5533 16.7703 15.5533 16.772 15.5533C16.7737 15.5533 16.7754 15.5533 16.7772 15.5533C16.7789 15.5533 16.7806 15.5533 16.7823 15.5533C16.784 15.5533 16.7858 15.5533 16.7875 15.5533C16.7892 15.5533 16.7909 15.5533 16.7926 15.5533C16.7943 15.5533 16.796 15.5533 16.7977 15.5533C16.7994 15.5533 16.8011 15.5533 16.8028 15.5533C16.8045 15.5533 16.8062 15.5533 16.8079 15.5533C16.8096 15.5533 16.8113 15.5533 16.813 15.5533C16.8147 15.5533 16.8163 15.5533 16.818 15.5533C16.8197 15.5533 16.8214 15.5533 16.8231 15.5533C16.8247 15.5533 16.8264 15.5533 16.8281 15.5533C16.8298 15.5533 16.8314 15.5533 16.8331 15.5533C16.8348 15.5533 16.8364 15.5533 16.8381 15.5533C16.8398 15.5533 16.8414 15.5533 16.8431 15.5533C16.8447 15.5533 16.8464 15.5533 16.848 15.5533C16.8497 15.5533 16.8513 15.5533 16.853 15.5533C16.8546 15.5533 16.8563 15.5533 16.8579 15.5533C16.8596 15.5533 16.8612 15.5533 16.8628 15.5533C16.8645 15.5533 16.8661 15.5533 16.8677 15.5533C16.8694 15.5533 16.871 15.5533 16.8726 15.5533C16.8743 15.5533 16.8759 15.5533 16.8775 15.5533C16.8791 15.5533 16.8807 15.5533 16.8823 15.5533C16.884 15.5533 16.8856 15.5533 16.8872 15.5533C16.8888 15.5533 16.8904 15.5533 16.892 15.5533C16.8936 15.5533 16.8952 15.5533 16.8968 15.5533C16.8984 15.5533 16.9 15.5533 16.9016 15.5533C16.9032 15.5533 16.9048 15.5533 16.9064 15.5533C16.908 15.5533 16.9095 15.5533 16.9111 15.5533C16.9127 15.5533 16.9143 15.5533 16.9159 15.5533C16.9174 15.5533 16.919 15.5533 16.9206 15.5533C16.9222 15.5533 16.9237 15.5533 16.9253 15.5533C16.9269 15.5533 16.9284 15.5533 16.93 15.5533C16.9315 15.5533 16.9331 15.5533 16.9347 15.5533C16.9362 15.5533 16.9378 15.5533 16.9393 15.5533C16.9409 15.5533 16.9424 15.5533 16.9439 15.5533C16.9455 15.5533 16.947 15.5533 16.9486 15.5533C16.9501 15.5533 16.9516 15.5533 16.9532 15.5533C16.9547 15.5533 16.9562 15.5533 16.9577 15.5533C16.9593 15.5533 16.9608 15.5533 16.9623 15.5533C16.9638 15.5533 16.9654 15.5533 16.9669 15.5533C16.9684 15.5533 16.9699 15.5533 16.9714 15.5533C16.9729 15.5533 16.9744 15.5533 16.9759 15.5533C16.9774 15.5533 16.9789 15.5533 16.9804 15.5533C16.9819 15.5533 16.9834 15.5533 16.9849 15.5533C16.9864 15.5533 16.9879 15.5533 16.9894 15.5533C16.9908 15.5533 16.9923 15.5533 16.9938 15.5533C16.9953 15.5533 16.9968 15.5533 16.9982 15.5533C16.9997 15.5533 17.0012 15.5533 17.0026 15.5533C17.0041 15.5533 17.0056 15.5533 17.007 15.5533C17.0085 15.5533 17.0099 15.5533 17.0114 15.5533C17.0128 15.5533 17.0143 15.5533 17.0157 15.5533C17.0172 15.5533 17.0186 15.5533 17.0201 15.5533C17.0215 15.5533 17.023 15.5533 17.0244 15.5533C17.0258 15.5533 17.0273 15.5533 17.0287 15.5533C17.0301 15.5533 17.0315 15.5533 17.033 15.5533C17.0344 15.5533 17.0358 15.5533 17.0372 15.5533C17.0386 15.5533 17.0401 15.5533 17.0415 15.5533C17.0429 15.5533 17.0443 15.5533 17.0457 15.5533C17.0471 15.5533 17.0485 15.5533 17.0499 15.5533C17.0513 15.5533 17.0527 15.5533 17.0541 15.5533C17.0555 15.5533 17.0568 15.5533 17.0582 15.5533C17.0596 15.5533 17.061 15.5533 17.0624 15.5533C17.0638 15.5533 17.0651 15.5533 17.0665 15.5533C17.0679 15.5533 17.0692 15.5533 17.0706 15.5533C17.072 15.5533 17.0733 15.5533 17.0747 15.5533C17.0761 15.5533 17.0774 15.5533 17.0788 15.5533C17.0801 15.5533 17.0815 15.5533 17.0828 15.5533C17.0842 15.5533 17.0855 15.5533 17.0868 15.5533C17.0882 15.5533 17.0895 15.5533 17.0908 15.5533C17.0922 15.5533 17.0935 15.5533 17.0948 15.5533C17.0962 15.5533 17.0975 15.5533 17.0988 15.5533C17.1001 15.5533 17.1014 15.5533 17.1027 15.5533C17.1041 15.5533 17.1054 15.5533 17.1067 15.5533C17.108 15.5533 17.1093 15.5533 17.1106 15.5533C17.1119 15.5533 17.1132 15.5533 17.1145 15.5533C17.1157 15.5533 17.117 15.5533 17.1183 15.5533C17.1196 15.5533 17.1209 15.5533 17.1222 15.5533C17.1234 15.5533 17.1247 15.5533 17.126 15.5533C17.1273 15.5533 17.1285 15.5533 17.1298 15.5533C17.1311 15.5533 17.1323 15.5533 17.1336 15.5533C17.1348 15.5533 17.1361 15.5533 17.1373 15.5533C17.1386 15.5533 17.1398 15.5533 17.1411 15.5533C17.1423 15.5533 17.1436 15.5533 17.1448 15.5533C17.146 15.5533 17.1473 15.5533 17.1485 15.5533C17.1497 15.5533 17.1509 15.5533 17.1522 15.5533C17.1534 15.5533 17.1546 15.5533 17.1558 15.5533C17.157 15.5533 17.1583 15.5533 17.1595 15.5533C17.1607 15.5533 17.1619 15.5533 17.1631 15.5533C17.1643 15.5533 17.1655 15.5533 17.1667 15.5533V14.0533C17.1655 14.0533 17.1643 14.0533 17.1631 14.0533C17.1619 14.0533 17.1607 14.0533 17.1595 14.0533C17.1583 14.0533 17.157 14.0533 17.1558 14.0533C17.1546 14.0533 17.1534 14.0533 17.1522 14.0533C17.1509 14.0533 17.1497 14.0533 17.1485 14.0533C17.1473 14.0533 17.146 14.0533 17.1448 14.0533C17.1436 14.0533 17.1423 14.0533 17.1411 14.0533C17.1398 14.0533 17.1386 14.0533 17.1373 14.0533C17.1361 14.0533 17.1348 14.0533 17.1336 14.0533C17.1323 14.0533 17.1311 14.0533 17.1298 14.0533C17.1285 14.0533 17.1273 14.0533 17.126 14.0533C17.1247 14.0533 17.1234 14.0533 17.1222 14.0533C17.1209 14.0533 17.1196 14.0533 17.1183 14.0533C17.117 14.0533 17.1157 14.0533 17.1145 14.0533C17.1132 14.0533 17.1119 14.0533 17.1106 14.0533C17.1093 14.0533 17.108 14.0533 17.1067 14.0533C17.1054 14.0533 17.1041 14.0533 17.1027 14.0533C17.1014 14.0533 17.1001 14.0533 17.0988 14.0533C17.0975 14.0533 17.0962 14.0533 17.0948 14.0533C17.0935 14.0533 17.0922 14.0533 17.0908 14.0533C17.0895 14.0533 17.0882 14.0533 17.0868 14.0533C17.0855 14.0533 17.0842 14.0533 17.0828 14.0533C17.0815 14.0533 17.0801 14.0533 17.0788 14.0533C17.0774 14.0533 17.0761 14.0533 17.0747 14.0533C17.0733 14.0533 17.072 14.0533 17.0706 14.0533C17.0692 14.0533 17.0679 14.0533 17.0665 14.0533C17.0651 14.0533 17.0638 14.0533 17.0624 14.0533C17.061 14.0533 17.0596 14.0533 17.0582 14.0533C17.0568 14.0533 17.0555 14.0533 17.0541 14.0533C17.0527 14.0533 17.0513 14.0533 17.0499 14.0533C17.0485 14.0533 17.0471 14.0533 17.0457 14.0533C17.0443 14.0533 17.0429 14.0533 17.0415 14.0533C17.0401 14.0533 17.0386 14.0533 17.0372 14.0533C17.0358 14.0533 17.0344 14.0533 17.033 14.0533C17.0315 14.0533 17.0301 14.0533 17.0287 14.0533C17.0273 14.0533 17.0258 14.0533 17.0244 14.0533C17.023 14.0533 17.0215 14.0533 17.0201 14.0533C17.0186 14.0533 17.0172 14.0533 17.0157 14.0533C17.0143 14.0533 17.0128 14.0533 17.0114 14.0533C17.0099 14.0533 17.0085 14.0533 17.007 14.0533C17.0056 14.0533 17.0041 14.0533 17.0026 14.0533C17.0012 14.0533 16.9997 14.0533 16.9982 14.0533C16.9968 14.0533 16.9953 14.0533 16.9938 14.0533C16.9923 14.0533 16.9908 14.0533 16.9894 14.0533C16.9879 14.0533 16.9864 14.0533 16.9849 14.0533C16.9834 14.0533 16.9819 14.0533 16.9804 14.0533C16.9789 14.0533 16.9774 14.0533 16.9759 14.0533C16.9744 14.0533 16.9729 14.0533 16.9714 14.0533C16.9699 14.0533 16.9684 14.0533 16.9669 14.0533C16.9654 14.0533 16.9638 14.0533 16.9623 14.0533C16.9608 14.0533 16.9593 14.0533 16.9577 14.0533C16.9562 14.0533 16.9547 14.0533 16.9532 14.0533C16.9516 14.0533 16.9501 14.0533 16.9486 14.0533C16.947 14.0533 16.9455 14.0533 16.9439 14.0533C16.9424 14.0533 16.9409 14.0533 16.9393 14.0533C16.9378 14.0533 16.9362 14.0533 16.9347 14.0533C16.9331 14.0533 16.9315 14.0533 16.93 14.0533C16.9284 14.0533 16.9269 14.0533 16.9253 14.0533C16.9237 14.0533 16.9222 14.0533 16.9206 14.0533C16.919 14.0533 16.9174 14.0533 16.9159 14.0533C16.9143 14.0533 16.9127 14.0533 16.9111 14.0533C16.9095 14.0533 16.908 14.0533 16.9064 14.0533C16.9048 14.0533 16.9032 14.0533 16.9016 14.0533C16.9 14.0533 16.8984 14.0533 16.8968 14.0533C16.8952 14.0533 16.8936 14.0533 16.892 14.0533C16.8904 14.0533 16.8888 14.0533 16.8872 14.0533C16.8856 14.0533 16.884 14.0533 16.8823 14.0533C16.8807 14.0533 16.8791 14.0533 16.8775 14.0533C16.8759 14.0533 16.8743 14.0533 16.8726 14.0533C16.871 14.0533 16.8694 14.0533 16.8677 14.0533C16.8661 14.0533 16.8645 14.0533 16.8628 14.0533C16.8612 14.0533 16.8596 14.0533 16.8579 14.0533C16.8563 14.0533 16.8546 14.0533 16.853 14.0533C16.8513 14.0533 16.8497 14.0533 16.848 14.0533C16.8464 14.0533 16.8447 14.0533 16.8431 14.0533C16.8414 14.0533 16.8398 14.0533 16.8381 14.0533C16.8364 14.0533 16.8348 14.0533 16.8331 14.0533C16.8314 14.0533 16.8298 14.0533 16.8281 14.0533C16.8264 14.0533 16.8247 14.0533 16.8231 14.0533C16.8214 14.0533 16.8197 14.0533 16.818 14.0533C16.8163 14.0533 16.8147 14.0533 16.813 14.0533C16.8113 14.0533 16.8096 14.0533 16.8079 14.0533C16.8062 14.0533 16.8045 14.0533 16.8028 14.0533C16.8011 14.0533 16.7994 14.0533 16.7977 14.0533C16.796 14.0533 16.7943 14.0533 16.7926 14.0533C16.7909 14.0533 16.7892 14.0533 16.7875 14.0533C16.7858 14.0533 16.784 14.0533 16.7823 14.0533C16.7806 14.0533 16.7789 14.0533 16.7772 14.0533C16.7754 14.0533 16.7737 14.0533 16.772 14.0533C16.7703 14.0533 16.7685 14.0533 16.7668 14.0533C16.7651 14.0533 16.7633 14.0533 16.7616 14.0533C16.7599 14.0533 16.7581 14.0533 16.7564 14.0533C16.7547 14.0533 16.7529 14.0533 16.7512 14.0533C16.7494 14.0533 16.7477 14.0533 16.7459 14.0533C16.7442 14.0533 16.7424 14.0533 16.7407 14.0533C16.7389 14.0533 16.7372 14.0533 16.7354 14.0533C16.7336 14.0533 16.7319 14.0533 16.7301 14.0533C16.7283 14.0533 16.7266 14.0533 16.7248 14.0533C16.723 14.0533 16.7213 14.0533 16.7195 14.0533C16.7177 14.0533 16.7159 14.0533 16.7142 14.0533C16.7124 14.0533 16.7106 14.0533 16.7088 14.0533C16.707 14.0533 16.7053 14.0533 16.7035 14.0533C16.7017 14.0533 16.6999 14.0533 16.6981 14.0533C16.6963 14.0533 16.6945 14.0533 16.6927 14.0533C16.6909 14.0533 16.6891 14.0533 16.6873 14.0533C16.6855 14.0533 16.6837 14.0533 16.6819 14.0533C16.6801 14.0533 16.6783 14.0533 16.6765 14.0533C16.6747 14.0533 16.6729 14.0533 16.6711 14.0533C16.6693 14.0533 16.6675 14.0533 16.6656 14.0533C16.6638 14.0533 16.662 14.0533 16.6602 14.0533C16.6584 14.0533 16.6565 14.0533 16.6547 14.0533C16.6529 14.0533 16.6511 14.0533 16.6492 14.0533C16.6474 14.0533 16.6456 14.0533 16.6437 14.0533C16.6419 14.0533 16.6401 14.0533 16.6382 14.0533C16.6364 14.0533 16.6346 14.0533 16.6327 14.0533C16.6309 14.0533 16.629 14.0533 16.6272 14.0533C16.6253 14.0533 16.6235 14.0533 16.6216 14.0533C16.6198 14.0533 16.6179 14.0533 16.6161 14.0533C16.6142 14.0533 16.6124 14.0533 16.6105 14.0533C16.6087 14.0533 16.6068 14.0533 16.6049 14.0533C16.6031 14.0533 16.6012 14.0533 16.5994 14.0533C16.5975 14.0533 16.5956 14.0533 16.5938 14.0533C16.5919 14.0533 16.59 14.0533 16.5881 14.0533C16.5863 14.0533 16.5844 14.0533 16.5825 14.0533C16.5806 14.0533 16.5788 14.0533 16.5769 14.0533C16.575 14.0533 16.5731 14.0533 16.5712 14.0533C16.5693 14.0533 16.5675 14.0533 16.5656 14.0533C16.5637 14.0533 16.5618 14.0533 16.5599 14.0533C16.558 14.0533 16.5561 14.0533 16.5542 14.0533C16.5523 14.0533 16.5504 14.0533 16.5485 14.0533C16.5466 14.0533 16.5447 14.0533 16.5428 14.0533C16.5409 14.0533 16.539 14.0533 16.5371 14.0533C16.5352 14.0533 16.5333 14.0533 16.5314 14.0533C16.5295 14.0533 16.5276 14.0533 16.5256 14.0533C16.5237 14.0533 16.5218 14.0533 16.5199 14.0533C16.518 14.0533 16.5161 14.0533 16.5141 14.0533C16.5122 14.0533 16.5103 14.0533 16.5084 14.0533C16.5064 14.0533 16.5045 14.0533 16.5026 14.0533C16.5007 14.0533 16.4987 14.0533 16.4968 14.0533C16.4949 14.0533 16.4929 14.0533 16.491 14.0533C16.4891 14.0533 16.4871 14.0533 16.4852 14.0533C16.4833 14.0533 16.4813 14.0533 16.4794 14.0533C16.4774 14.0533 16.4755 14.0533 16.4735 14.0533C16.4716 14.0533 16.4697 14.0533 16.4677 14.0533C16.4658 14.0533 16.4638 14.0533 16.4619 14.0533C16.4599 14.0533 16.458 14.0533 16.456 14.0533C16.454 14.0533 16.4521 14.0533 16.4501 14.0533C16.4482 14.0533 16.4462 14.0533 16.4443 14.0533C16.4423 14.0533 16.4403 14.0533 16.4384 14.0533C16.4364 14.0533 16.4344 14.0533 16.4325 14.0533C16.4305 14.0533 16.4285 14.0533 16.4266 14.0533C16.4246 14.0533 16.4226 14.0533 16.4207 14.0533C16.4187 14.0533 16.4167 14.0533 16.4147 14.0533C16.4127 14.0533 16.4108 14.0533 16.4088 14.0533C16.4068 14.0533 16.4048 14.0533 16.4029 14.0533C16.4009 14.0533 16.3989 14.0533 16.3969 14.0533C16.3949 14.0533 16.3929 14.0533 16.3909 14.0533C16.389 14.0533 16.387 14.0533 16.385 14.0533C16.383 14.0533 16.381 14.0533 16.379 14.0533C16.377 14.0533 16.375 14.0533 16.373 14.0533C16.371 14.0533 16.369 14.0533 16.367 14.0533C16.365 14.0533 16.363 14.0533 16.361 14.0533C16.359 14.0533 16.357 14.0533 16.355 14.0533C16.353 14.0533 16.351 14.0533 16.349 14.0533C16.347 14.0533 16.345 14.0533 16.3429 14.0533C16.3409 14.0533 16.3389 14.0533 16.3369 14.0533C16.3349 14.0533 16.3329 14.0533 16.3309 14.0533C16.3289 14.0533 16.3268 14.0533 16.3248 14.0533C16.3228 14.0533 16.3208 14.0533 16.3188 14.0533C16.3167 14.0533 16.3147 14.0533 16.3127 14.0533C16.3107 14.0533 16.3086 14.0533 16.3066 14.0533C16.3046 14.0533 16.3026 14.0533 16.3005 14.0533C16.2985 14.0533 16.2965 14.0533 16.2944 14.0533C16.2924 14.0533 16.2904 14.0533 16.2883 14.0533C16.2863 14.0533 16.2843 14.0533 16.2822 14.0533C16.2802 14.0533 16.2782 14.0533 16.2761 14.0533C16.2741 14.0533 16.272 14.0533 16.27 14.0533C16.268 14.0533 16.2659 14.0533 16.2639 14.0533C16.2618 14.0533 16.2598 14.0533 16.2577 14.0533C16.2557 14.0533 16.2537 14.0533 16.2516 14.0533C16.2496 14.0533 16.2475 14.0533 16.2455 14.0533C16.2434 14.0533 16.2414 14.0533 16.2393 14.0533C16.2373 14.0533 16.2352 14.0533 16.2331 14.0533C16.2311 14.0533 16.229 14.0533 16.227 14.0533C16.2249 14.0533 16.2229 14.0533 16.2208 14.0533C16.2187 14.0533 16.2167 14.0533 16.2146 14.0533C16.2126 14.0533 16.2105 14.0533 16.2084 14.0533C16.2064 14.0533 16.2043 14.0533 16.2022 14.0533C16.2002 14.0533 16.1981 14.0533 16.196 14.0533C16.194 14.0533 16.1919 14.0533 16.1898 14.0533C16.1878 14.0533 16.1857 14.0533 16.1836 14.0533C16.1816 14.0533 16.1795 14.0533 16.1774 14.0533C16.1753 14.0533 16.1733 14.0533 16.1712 14.0533C16.1691 14.0533 16.167 14.0533 16.165 14.0533C16.1629 14.0533 16.1608 14.0533 16.1587 14.0533C16.1566 14.0533 16.1546 14.0533 16.1525 14.0533C16.1504 14.0533 16.1483 14.0533 16.1462 14.0533C16.1442 14.0533 16.1421 14.0533 16.14 14.0533C16.1379 14.0533 16.1358 14.0533 16.1337 14.0533C16.1316 14.0533 16.1296 14.0533 16.1275 14.0533C16.1254 14.0533 16.1233 14.0533 16.1212 14.0533C16.1191 14.0533 16.117 14.0533 16.1149 14.0533C16.1128 14.0533 16.1107 14.0533 16.1086 14.0533C16.1066 14.0533 16.1045 14.0533 16.1024 14.0533C16.1003 14.0533 16.0982 14.0533 16.0961 14.0533C16.094 14.0533 16.0919 14.0533 16.0898 14.0533C16.0877 14.0533 16.0856 14.0533 16.0835 14.0533C16.0814 14.0533 16.0793 14.0533 16.0772 14.0533C16.0751 14.0533 16.073 14.0533 16.0709 14.0533C16.0688 14.0533 16.0667 14.0533 16.0646 14.0533C16.0625 14.0533 16.0604 14.0533 16.0583 14.0533C16.0561 14.0533 16.054 14.0533 16.0519 14.0533C16.0498 14.0533 16.0477 14.0533 16.0456 14.0533C16.0435 14.0533 16.0414 14.0533 16.0393 14.0533C16.0372 14.0533 16.0351 14.0533 16.0329 14.0533C16.0308 14.0533 16.0287 14.0533 16.0266 14.0533C16.0245 14.0533 16.0224 14.0533 16.0203 14.0533C16.0182 14.0533 16.016 14.0533 16.0139 14.0533C16.0118 14.0533 16.0097 14.0533 16.0076 14.0533C16.0055 14.0533 16.0033 14.0533 16.0012 14.0533C15.9991 14.0533 15.997 14.0533 15.9949 14.0533C15.9928 14.0533 15.9906 14.0533 15.9885 14.0533C15.9864 14.0533 15.9843 14.0533 15.9822 14.0533C15.98 14.0533 15.9779 14.0533 15.9758 14.0533C15.9737 14.0533 15.9715 14.0533 15.9694 14.0533C15.9673 14.0533 15.9652 14.0533 15.963 14.0533C15.9609 14.0533 15.9588 14.0533 15.9567 14.0533C15.9545 14.0533 15.9524 14.0533 15.9503 14.0533C15.9482 14.0533 15.946 14.0533 15.9439 14.0533C15.9418 14.0533 15.9397 14.0533 15.9375 14.0533C15.9354 14.0533 15.9333 14.0533 15.9311 14.0533C15.929 14.0533 15.9269 14.0533 15.9248 14.0533C15.9226 14.0533 15.9205 14.0533 15.9184 14.0533C15.9162 14.0533 15.9141 14.0533 15.912 14.0533C15.9098 14.0533 15.9077 14.0533 15.9056 14.0533C15.9034 14.0533 15.9013 14.0533 15.8992 14.0533C15.897 14.0533 15.8949 14.0533 15.8928 14.0533C15.8906 14.0533 15.8885 14.0533 15.8864 14.0533C15.8842 14.0533 15.8821 14.0533 15.88 14.0533C15.8778 14.0533 15.8757 14.0533 15.8736 14.0533C15.8714 14.0533 15.8693 14.0533 15.8672 14.0533C15.865 14.0533 15.8629 14.0533 15.8607 14.0533C15.8586 14.0533 15.8565 14.0533 15.8543 14.0533C15.8522 14.0533 15.8501 14.0533 15.8479 14.0533C15.8458 14.0533 15.8436 14.0533 15.8415 14.0533C15.8394 14.0533 15.8372 14.0533 15.8351 14.0533C15.8329 14.0533 15.8308 14.0533 15.8287 14.0533C15.8265 14.0533 15.8244 14.0533 15.8222 14.0533C15.8201 14.0533 15.818 14.0533 15.8158 14.0533C15.8137 14.0533 15.8115 14.0533 15.8094 14.0533C15.8073 14.0533 15.8051 14.0533 15.803 14.0533C15.8008 14.0533 15.7987 14.0533 15.7965 14.0533C15.7944 14.0533 15.7923 14.0533 15.7901 14.0533C15.788 14.0533 15.7858 14.0533 15.7837 14.0533C15.7815 14.0533 15.7794 14.0533 15.7773 14.0533C15.7751 14.0533 15.773 14.0533 15.7708 14.0533C15.7687 14.0533 15.7665 14.0533 15.7644 14.0533C15.7623 14.0533 15.7601 14.0533 15.758 14.0533C15.7558 14.0533 15.7537 14.0533 15.7515 14.0533C15.7494 14.0533 15.7473 14.0533 15.7451 14.0533C15.743 14.0533 15.7408 14.0533 15.7387 14.0533C15.7365 14.0533 15.7344 14.0533 15.7323 14.0533C15.7301 14.0533 15.728 14.0533 15.7258 14.0533C15.7237 14.0533 15.7215 14.0533 15.7194 14.0533C15.7172 14.0533 15.7151 14.0533 15.713 14.0533C15.7108 14.0533 15.7087 14.0533 15.7065 14.0533C15.7044 14.0533 15.7022 14.0533 15.7001 14.0533C15.698 14.0533 15.6958 14.0533 15.6937 14.0533C15.6915 14.0533 15.6894 14.0533 15.6872 14.0533C15.6851 14.0533 15.6829 14.0533 15.6808 14.0533C15.6787 14.0533 15.6765 14.0533 15.6744 14.0533C15.6722 14.0533 15.6701 14.0533 15.6679 14.0533C15.6658 14.0533 15.6637 14.0533 15.6615 14.0533C15.6594 14.0533 15.6572 14.0533 15.6551 14.0533C15.6529 14.0533 15.6508 14.0533 15.6487 14.0533C15.6465 14.0533 15.6444 14.0533 15.6422 14.0533C15.6401 14.0533 15.638 14.0533 15.6358 14.0533C15.6337 14.0533 15.6315 14.0533 15.6294 14.0533C15.6272 14.0533 15.6251 14.0533 15.623 14.0533C15.6208 14.0533 15.6187 14.0533 15.6165 14.0533C15.6144 14.0533 15.6123 14.0533 15.6101 14.0533C15.608 14.0533 15.6058 14.0533 15.6037 14.0533C15.6016 14.0533 15.5994 14.0533 15.5973 14.0533C15.5951 14.0533 15.593 14.0533 15.5909 14.0533C15.5887 14.0533 15.5866 14.0533 15.5845 14.0533C15.5823 14.0533 15.5802 14.0533 15.578 14.0533C15.5759 14.0533 15.5738 14.0533 15.5716 14.0533C15.5695 14.0533 15.5674 14.0533 15.5652 14.0533C15.5631 14.0533 15.561 14.0533 15.5588 14.0533C15.5567 14.0533 15.5546 14.0533 15.5524 14.0533C15.5503 14.0533 15.5481 14.0533 15.546 14.0533C15.5439 14.0533 15.5417 14.0533 15.5396 14.0533C15.5375 14.0533 15.5353 14.0533 15.5332 14.0533C15.5311 14.0533 15.529 14.0533 15.5268 14.0533C15.5247 14.0533 15.5226 14.0533 15.5204 14.0533C15.5183 14.0533 15.5162 14.0533 15.514 14.0533C15.5119 14.0533 15.5098 14.0533 15.5077 14.0533C15.5055 14.0533 15.5034 14.0533 15.5013 14.0533C15.4991 14.0533 15.497 14.0533 15.4949 14.0533C15.4928 14.0533 15.4906 14.0533 15.4885 14.0533C15.4864 14.0533 15.4843 14.0533 15.4821 14.0533C15.48 14.0533 15.4779 14.0533 15.4758 14.0533C15.4736 14.0533 15.4715 14.0533 15.4694 14.0533C15.4673 14.0533 15.4651 14.0533 15.463 14.0533C15.4609 14.0533 15.4588 14.0533 15.4567 14.0533C15.4545 14.0533 15.4524 14.0533 15.4503 14.0533C15.4482 14.0533 15.4461 14.0533 15.4439 14.0533C15.4418 14.0533 15.4397 14.0533 15.4376 14.0533C15.4355 14.0533 15.4334 14.0533 15.4312 14.0533C15.4291 14.0533 15.427 14.0533 15.4249 14.0533C15.4228 14.0533 15.4207 14.0533 15.4185 14.0533C15.4164 14.0533 15.4143 14.0533 15.4122 14.0533C15.4101 14.0533 15.408 14.0533 15.4059 14.0533C15.4038 14.0533 15.4017 14.0533 15.3995 14.0533C15.3974 14.0533 15.3953 14.0533 15.3932 14.0533C15.3911 14.0533 15.389 14.0533 15.3869 14.0533C15.3848 14.0533 15.3827 14.0533 15.3806 14.0533C15.3785 14.0533 15.3764 14.0533 15.3743 14.0533C15.3722 14.0533 15.3701 14.0533 15.368 14.0533C15.3659 14.0533 15.3638 14.0533 15.3617 14.0533C15.3596 14.0533 15.3575 14.0533 15.3554 14.0533C15.3533 14.0533 15.3512 14.0533 15.3491 14.0533C15.347 14.0533 15.3449 14.0533 15.3428 14.0533C15.3407 14.0533 15.3386 14.0533 15.3365 14.0533C15.3344 14.0533 15.3323 14.0533 15.3302 14.0533C15.3281 14.0533 15.326 14.0533 15.3239 14.0533C15.3218 14.0533 15.3197 14.0533 15.3177 14.0533C15.3156 14.0533 15.3135 14.0533 15.3114 14.0533C15.3093 14.0533 15.3072 14.0533 15.3051 14.0533C15.303 14.0533 15.301 14.0533 15.2989 14.0533C15.2968 14.0533 15.2947 14.0533 15.2926 14.0533C15.2905 14.0533 15.2885 14.0533 15.2864 14.0533C15.2843 14.0533 15.2822 14.0533 15.2801 14.0533C15.2781 14.0533 15.276 14.0533 15.2739 14.0533C15.2718 14.0533 15.2698 14.0533 15.2677 14.0533C15.2656 14.0533 15.2635 14.0533 15.2615 14.0533C15.2594 14.0533 15.2573 14.0533 15.2553 14.0533C15.2532 14.0533 15.2511 14.0533 15.249 14.0533C15.247 14.0533 15.2449 14.0533 15.2428 14.0533C15.2408 14.0533 15.2387 14.0533 15.2366 14.0533C15.2346 14.0533 15.2325 14.0533 15.2305 14.0533C15.2284 14.0533 15.2263 14.0533 15.2243 14.0533C15.2222 14.0533 15.2202 14.0533 15.2181 14.0533C15.216 14.0533 15.214 14.0533 15.2119 14.0533C15.2099 14.0533 15.2078 14.0533 15.2058 14.0533C15.2037 14.0533 15.2017 14.0533 15.1996 14.0533C15.1976 14.0533 15.1955 14.0533 15.1935 14.0533C15.1914 14.0533 15.1894 14.0533 15.1873 14.0533C15.1853 14.0533 15.1832 14.0533 15.1812 14.0533C15.1791 14.0533 15.1771 14.0533 15.175 14.0533C15.173 14.0533 15.171 14.0533 15.1689 14.0533C15.1669 14.0533 15.1648 14.0533 15.1628 14.0533C15.1608 14.0533 15.1587 14.0533 15.1567 14.0533C15.1547 14.0533 15.1526 14.0533 15.1506 14.0533C15.1486 14.0533 15.1465 14.0533 15.1445 14.0533C15.1425 14.0533 15.1404 14.0533 15.1384 14.0533C15.1364 14.0533 15.1344 14.0533 15.1323 14.0533C15.1303 14.0533 15.1283 14.0533 15.1263 14.0533C15.1242 14.0533 15.1222 14.0533 15.1202 14.0533C15.1182 14.0533 15.1162 14.0533 15.1141 14.0533C15.1121 14.0533 15.1101 14.0533 15.1081 14.0533C15.1061 14.0533 15.1041 14.0533 15.1021 14.0533C15.1 14.0533 15.098 14.0533 15.096 14.0533C15.094 14.0533 15.092 14.0533 15.09 14.0533C15.088 14.0533 15.086 14.0533 15.084 14.0533C15.082 14.0533 15.08 14.0533 15.078 14.0533C15.076 14.0533 15.074 14.0533 15.072 14.0533C15.07 14.0533 15.068 14.0533 15.066 14.0533C15.064 14.0533 15.062 14.0533 15.06 14.0533C15.058 14.0533 15.056 14.0533 15.054 14.0533C15.052 14.0533 15.0501 14.0533 15.0481 14.0533C15.0461 14.0533 15.0441 14.0533 15.0421 14.0533C15.0401 14.0533 15.0381 14.0533 15.0362 14.0533C15.0342 14.0533 15.0322 14.0533 15.0302 14.0533C15.0282 14.0533 15.0263 14.0533 15.0243 14.0533C15.0223 14.0533 15.0203 14.0533 15.0184 14.0533C15.0164 14.0533 15.0144 14.0533 15.0125 14.0533C15.0105 14.0533 15.0085 14.0533 15.0066 14.0533C15.0046 14.0533 15.0026 14.0533 15.0007 14.0533C14.9987 14.0533 14.9967 14.0533 14.9948 14.0533C14.9928 14.0533 14.9909 14.0533 14.9889 14.0533C14.987 14.0533 14.985 14.0533 14.9831 14.0533C14.9811 14.0533 14.9791 14.0533 14.9772 14.0533C14.9752 14.0533 14.9733 14.0533 14.9714 14.0533C14.9694 14.0533 14.9675 14.0533 14.9655 14.0533C14.9636 14.0533 14.9616 14.0533 14.9597 14.0533C14.9578 14.0533 14.9558 14.0533 14.9539 14.0533C14.9519 14.0533 14.95 14.0533 14.9481 14.0533C14.9461 14.0533 14.9442 14.0533 14.9423 14.0533C14.9404 14.0533 14.9384 14.0533 14.9365 14.0533C14.9346 14.0533 14.9326 14.0533 14.9307 14.0533C14.9288 14.0533 14.9269 14.0533 14.925 14.0533C14.923 14.0533 14.9211 14.0533 14.9192 14.0533C14.9173 14.0533 14.9154 14.0533 14.9135 14.0533C14.9116 14.0533 14.9096 14.0533 14.9077 14.0533C14.9058 14.0533 14.9039 14.0533 14.902 14.0533C14.9001 14.0533 14.8982 14.0533 14.8963 14.0533C14.8944 14.0533 14.8925 14.0533 14.8906 14.0533C14.8887 14.0533 14.8868 14.0533 14.8849 14.0533C14.883 14.0533 14.8811 14.0533 14.8792 14.0533C14.8774 14.0533 14.8755 14.0533 14.8736 14.0533C14.8717 14.0533 14.8698 14.0533 14.8679 14.0533C14.866 14.0533 14.8642 14.0533 14.8623 14.0533C14.8604 14.0533 14.8585 14.0533 14.8567 14.0533C14.8548 14.0533 14.8529 14.0533 14.851 14.0533C14.8492 14.0533 14.8473 14.0533 14.8454 14.0533C14.8436 14.0533 14.8417 14.0533 14.8398 14.0533C14.838 14.0533 14.8361 14.0533 14.8342 14.0533C14.8324 14.0533 14.8305 14.0533 14.8287 14.0533C14.8268 14.0533 14.825 14.0533 14.8231 14.0533C14.8213 14.0533 14.8194 14.0533 14.8176 14.0533C14.8157 14.0533 14.8139 14.0533 14.812 14.0533C14.8102 14.0533 14.8083 14.0533 14.8065 14.0533C14.8047 14.0533 14.8028 14.0533 14.801 14.0533C14.7992 14.0533 14.7973 14.0533 14.7955 14.0533C14.7937 14.0533 14.7918 14.0533 14.79 14.0533C14.7882 14.0533 14.7863 14.0533 14.7845 14.0533C14.7827 14.0533 14.7809 14.0533 14.7791 14.0533C14.7772 14.0533 14.7754 14.0533 14.7736 14.0533C14.7718 14.0533 14.77 14.0533 14.7682 14.0533C14.7664 14.0533 14.7646 14.0533 14.7627 14.0533C14.7609 14.0533 14.7591 14.0533 14.7573 14.0533C14.7555 14.0533 14.7537 14.0533 14.7519 14.0533C14.7501 14.0533 14.7483 14.0533 14.7466 14.0533C14.7448 14.0533 14.743 14.0533 14.7412 14.0533C14.7394 14.0533 14.7376 14.0533 14.7358 14.0533C14.734 14.0533 14.7323 14.0533 14.7305 14.0533C14.7287 14.0533 14.7269 14.0533 14.7251 14.0533C14.7234 14.0533 14.7216 14.0533 14.7198 14.0533C14.7181 14.0533 14.7163 14.0533 14.7145 14.0533C14.7127 14.0533 14.711 14.0533 14.7092 14.0533C14.7075 14.0533 14.7057 14.0533 14.7039 14.0533C14.7022 14.0533 14.7004 14.0533 14.6987 14.0533C14.6969 14.0533 14.6952 14.0533 14.6934 14.0533C14.6917 14.0533 14.6899 14.0533 14.6882 14.0533C14.6864 14.0533 14.6847 14.0533 14.683 14.0533C14.6812 14.0533 14.6795 14.0533 14.6778 14.0533C14.676 14.0533 14.6743 14.0533 14.6726 14.0533C14.6708 14.0533 14.6691 14.0533 14.6674 14.0533C14.6657 14.0533 14.6639 14.0533 14.6622 14.0533C14.6605 14.0533 14.6588 14.0533 14.6571 14.0533C14.6554 14.0533 14.6536 14.0533 14.6519 14.0533C14.6502 14.0533 14.6485 14.0533 14.6468 14.0533C14.6451 14.0533 14.6434 14.0533 14.6417 14.0533C14.64 14.0533 14.6383 14.0533 14.6366 14.0533C14.6349 14.0533 14.6332 14.0533 14.6315 14.0533C14.6298 14.0533 14.6282 14.0533 14.6265 14.0533C14.6248 14.0533 14.6231 14.0533 14.6214 14.0533C14.6197 14.0533 14.6181 14.0533 14.6164 14.0533C14.6147 14.0533 14.613 14.0533 14.6114 14.0533C14.6097 14.0533 14.608 14.0533 14.6064 14.0533C14.6047 14.0533 14.603 14.0533 14.6014 14.0533C14.5997 14.0533 14.5981 14.0533 14.5964 14.0533C14.5948 14.0533 14.5931 14.0533 14.5915 14.0533C14.5898 14.0533 14.5882 14.0533 14.5865 14.0533C14.5849 14.0533 14.5832 14.0533 14.5816 14.0533C14.5799 14.0533 14.5783 14.0533 14.5767 14.0533C14.575 14.0533 14.5734 14.0533 14.5718 14.0533C14.5702 14.0533 14.5685 14.0533 14.5669 14.0533C14.5653 14.0533 14.5637 14.0533 14.562 14.0533C14.5604 14.0533 14.5588 14.0533 14.5572 14.0533C14.5556 14.0533 14.554 14.0533 14.5524 14.0533C14.5508 14.0533 14.5492 14.0533 14.5476 14.0533C14.546 14.0533 14.5444 14.0533 14.5428 14.0533C14.5412 14.0533 14.5396 14.0533 14.538 14.0533C14.5364 14.0533 14.5348 14.0533 14.5332 14.0533C14.5316 14.0533 14.53 14.0533 14.5285 14.0533C14.5269 14.0533 14.5253 14.0533 14.5237 14.0533C14.5222 14.0533 14.5206 14.0533 14.519 14.0533C14.5175 14.0533 14.5159 14.0533 14.5143 14.0533C14.5128 14.0533 14.5112 14.0533 14.5096 14.0533C14.5081 14.0533 14.5065 14.0533 14.505 14.0533C14.5034 14.0533 14.5019 14.0533 14.5003 14.0533C14.4988 14.0533 14.4973 14.0533 14.4957 14.0533C14.4942 14.0533 14.4926 14.0533 14.4911 14.0533C14.4896 14.0533 14.488 14.0533 14.4865 14.0533C14.485 14.0533 14.4835 14.0533 14.4819 14.0533C14.4804 14.0533 14.4789 14.0533 14.4774 14.0533C14.4759 14.0533 14.4743 14.0533 14.4728 14.0533C14.4713 14.0533 14.4698 14.0533 14.4683 14.0533C14.4668 14.0533 14.4653 14.0533 14.4638 14.0533C14.4623 14.0533 14.4608 14.0533 14.4593 14.0533C14.4578 14.0533 14.4563 14.0533 14.4548 14.0533C14.4533 14.0533 14.4519 14.0533 14.4504 14.0533C14.4489 14.0533 14.4474 14.0533 14.4459 14.0533C14.4445 14.0533 14.443 14.0533 14.4415 14.0533C14.4401 14.0533 14.4386 14.0533 14.4371 14.0533C14.4357 14.0533 14.4342 14.0533 14.4328 14.0533C14.4313 14.0533 14.4298 14.0533 14.4284 14.0533C14.4269 14.0533 14.4255 14.0533 14.424 14.0533C14.4226 14.0533 14.4212 14.0533 14.4197 14.0533C14.4183 14.0533 14.4169 14.0533 14.4154 14.0533C14.414 14.0533 14.4126 14.0533 14.4111 14.0533C14.4097 14.0533 14.4083 14.0533 14.4069 14.0533C14.4054 14.0533 14.404 14.0533 14.4026 14.0533C14.4012 14.0533 14.3998 14.0533 14.3984 14.0533C14.397 14.0533 14.3956 14.0533 14.3942 14.0533C14.3928 14.0533 14.3914 14.0533 14.39 14.0533C14.3886 14.0533 14.3872 14.0533 14.3858 14.0533C14.3844 14.0533 14.383 14.0533 14.3816 14.0533C14.3803 14.0533 14.3789 14.0533 14.3775 14.0533C14.3761 14.0533 14.3748 14.0533 14.3734 14.0533C14.372 14.0533 14.3707 14.0533 14.3693 14.0533C14.3679 14.0533 14.3666 14.0533 14.3652 14.0533C14.3639 14.0533 14.3625 14.0533 14.3612 14.0533C14.3598 14.0533 14.3585 14.0533 14.3571 14.0533C14.3558 14.0533 14.3545 14.0533 14.3531 14.0533C14.3518 14.0533 14.3504 14.0533 14.3491 14.0533C14.3478 14.0533 14.3465 14.0533 14.3451 14.0533C14.3438 14.0533 14.3425 14.0533 14.3412 14.0533C14.3399 14.0533 14.3386 14.0533 14.3372 14.0533C14.3359 14.0533 14.3346 14.0533 14.3333 14.0533V15.5533Z" fill="#868686"/>
</svg>
