<svg width="27" height="27" viewBox="0 0 27 27" fill="none" xmlns="http://www.w3.org/2000/svg">
<path d="M6 22.75C6.41421 22.75 6.75 22.4142 6.75 22C6.75 21.5858 6.41421 21.25 6 21.25V22.75ZM6 6.75C6.41421 6.75 6.75 6.41421 6.75 6C6.75 5.58579 6.41421 5.25 6 5.25V6.75ZM15.25 17.5C15.25 17.9142 15.5858 18.25 16 18.25C16.4142 18.25 16.75 17.9142 16.75 17.5H15.25ZM16 10L16.5303 9.46967C16.2374 9.17678 15.7626 9.17678 15.4697 9.46967L16 10ZM12.4697 12.4697C12.1768 12.7626 12.1768 13.2374 12.4697 13.5303C12.7626 13.8232 13.2374 13.8232 13.5303 13.5303L12.4697 12.4697ZM18.4697 13.5303C18.7626 13.8232 19.2374 13.8232 19.5303 13.5303C19.8232 13.2374 19.8232 12.7626 19.5303 12.4697L18.4697 13.5303ZM11 4.75H21V3.25H11V4.75ZM22.25 6V21H23.75V6H22.25ZM21 22.25H11V23.75H21V22.25ZM9.75 21V6H8.25V21H9.75ZM11 22.25C10.3096 22.25 9.75 21.6904 9.75 21H8.25C8.25 22.5188 9.48122 23.75 11 23.75V22.25ZM22.25 21C22.25 21.6904 21.6904 22.25 21 22.25V23.75C22.5188 23.75 23.75 22.5188 23.75 21H22.25ZM21 4.75C21.6904 4.75 22.25 5.30964 22.25 6H23.75C23.75 4.48122 22.5188 3.25 21 3.25V4.75ZM11 3.25C9.48122 3.25 8.25 4.48122 8.25 6H9.75C9.75 5.30964 10.3096 4.75 11 4.75V3.25ZM4.75 20V8H3.25V20H4.75ZM6 21.25C5.30964 21.25 4.75 20.6904 4.75 20H3.25C3.25 21.5188 4.48122 22.75 6 22.75V21.25ZM6 5.25C4.48122 5.25 3.25 6.48122 3.25 8H4.75C4.75 7.30964 5.30964 6.75 6 6.75V5.25ZM16.75 17.5V10H15.25V17.5H16.75ZM15.4697 9.46967L12.4697 12.4697L13.5303 13.5303L16.5303 10.5303L15.4697 9.46967ZM15.4697 10.5303L18.4697 13.5303L19.5303 12.4697L16.5303 9.46967L15.4697 10.5303Z" fill="#868686"/>
</svg>
