<svg width="27" height="27" viewBox="0 0 27 27" fill="none" xmlns="http://www.w3.org/2000/svg">
<path d="M9.225 13.8318L12.075 16.7452L18.25 10.4328M4 7.03374C4 6.54817 4.285 5.4799 5.425 5.09144C6.565 4.70298 10.65 2.98729 12.55 2.178C13.31 1.85563 14.1333 2.04368 14.45 2.178C16.35 2.98729 20.435 4.70298 21.575 5.09144C22.715 5.4799 23 6.54817 23 7.03374V11.8895C23 13.0225 22.905 15.5799 22.525 16.7452C22.05 18.202 19.675 22.5721 13.5 25C7.325 22.5721 4.95 18.202 4.475 16.7452C4.095 15.5799 4 13.0225 4 11.8895V7.03374Z" stroke="#868686" stroke-width="1.5" stroke-linecap="round" stroke-linejoin="round"/>
</svg>
