<svg width="27" height="27" viewBox="0 0 27 27" fill="none" xmlns="http://www.w3.org/2000/svg">
<path d="M10.3793 18.8571C10.3793 17.6737 9.37581 16.7143 8.13793 16.7143C6.90005 16.7143 5.89655 17.6737 5.89655 18.8571M10.3793 18.8571C10.3793 18.9126 10.3771 18.9676 10.3728 19.022M10.3793 18.8571C10.3793 20.0406 9.37581 21 8.13793 21M8.13793 21C6.90005 21 5.89655 20.0406 5.89655 18.8571M8.13793 21C9.3178 21 10.2847 20.1284 10.3728 19.022M5.89655 18.8571C5.26437 18.6374 4 17.967 4 17.044C4 16.1209 4 11.1648 4 8.8022C4 7.86813 4.58621 6 6.93103 6C9.27586 6 15.2644 6 17.9655 6C18.5977 6 20 6.42857 20.5517 8.14286C21.2414 10.2857 20.7241 9.95434 22.2759 11.7692C23.1034 12.5604 24 13.2527 24 14.0769C24 14.1319 24 14.7033 24 16.5495C24 18.3956 22.3908 18.8571 21.5862 18.8571M21.5862 18.8571C21.5862 20.0406 20.5827 21 19.3448 21C18.165 21 17.198 20.1284 17.11 19.022M21.5862 18.8571C21.5862 17.6737 20.5827 16.7143 19.3448 16.7143C18.1069 16.7143 17.1034 17.6737 17.1034 18.8571C17.1034 18.9126 17.1057 18.9676 17.11 19.022M10.3728 19.022H17.11" stroke="#868686" stroke-width="1.5"/>
</svg>
