<svg width="27" height="27" viewBox="0 0 27 27" fill="none" xmlns="http://www.w3.org/2000/svg">
<path d="M10.3333 20V16.5C10.3333 16.2222 10.1667 15.6667 9.5 15.6667C8.83333 15.6667 6.88889 15.6667 6 15.6667M15.6667 20V16.5C15.6667 16.2222 15.8333 15.6667 16.5 15.6667C17.1667 15.6667 19.1111 15.6667 20 15.6667M10.3333 6V9.5C10.3333 9.77778 10.1667 10.3333 9.5 10.3333C8.83333 10.3333 6.88889 10.3333 6 10.3333M15.6667 6V9.5C15.6667 9.77778 15.8333 10.3333 16.5 10.3333C17.1667 10.3333 19.1111 10.3333 20 10.3333" stroke="#868686" stroke-width="1.5" stroke-linecap="round"/>
</svg>
