<svg width="27" height="27" viewBox="0 0 27 27" fill="none" xmlns="http://www.w3.org/2000/svg">
<path d="M10.9423 12.0385C10.9423 12.4421 10.6969 12.7692 10.3942 12.7692C10.0915 12.7692 9.84615 12.4421 9.84615 12.0385C9.84615 11.6349 10.0915 11.3077 10.3942 11.3077C10.6969 11.3077 10.9423 11.6349 10.9423 12.0385Z" fill="#868686"/>
<path d="M17.1538 12.0385C17.1538 12.4421 16.9085 12.7692 16.6058 12.7692C16.3031 12.7692 16.0577 12.4421 16.0577 12.0385C16.0577 11.6349 16.3031 11.3077 16.6058 11.3077C16.9085 11.3077 17.1538 11.6349 17.1538 12.0385Z" fill="#868686"/>
<path d="M10.0288 16.4231C10.2115 16.7885 11.3077 18.25 13.6827 18.25C16.0577 18.25 17.1538 16.7885 17.3365 16.4231M23 13.5C23 18.7467 18.7467 23 13.5 23C8.25329 23 4 18.7467 4 13.5C4 8.25329 8.25329 4 13.5 4C18.7467 4 23 8.25329 23 13.5ZM10.9423 12.0385C10.9423 12.4421 10.6969 12.7692 10.3942 12.7692C10.0915 12.7692 9.84615 12.4421 9.84615 12.0385C9.84615 11.6349 10.0915 11.3077 10.3942 11.3077C10.6969 11.3077 10.9423 11.6349 10.9423 12.0385ZM17.1538 12.0385C17.1538 12.4421 16.9085 12.7692 16.6058 12.7692C16.3031 12.7692 16.0577 12.4421 16.0577 12.0385C16.0577 11.6349 16.3031 11.3077 16.6058 11.3077C16.9085 11.3077 17.1538 11.6349 17.1538 12.0385Z" stroke="#868686" stroke-width="1.3" stroke-linecap="round"/>
</svg>
