<svg width="27" height="27" viewBox="0 0 27 27" fill="none" xmlns="http://www.w3.org/2000/svg">
<path d="M4.75 5C4.75 4.58579 4.41421 4.25 4 4.25C3.58579 4.25 3.25 4.58579 3.25 5H4.75ZM21.3036 22.75C21.7178 22.75 22.0536 22.4142 22.0536 22C22.0536 21.5858 21.7178 21.25 21.3036 21.25V22.75ZM7.73324 15.7221C7.44131 16.016 7.44287 16.4909 7.73672 16.7828C8.03057 17.0747 8.50544 17.0732 8.79737 16.7793L7.73324 15.7221ZM11.3673 13.1283L11.8994 13.6569L11.9036 13.6527L11.3673 13.1283ZM15.1964 14.3673L14.6602 13.843L15.1964 14.3673ZM23 6.38776H23.75C23.75 5.97354 23.4142 5.63776 23 5.63776V6.38776ZM22.25 11.5918C22.25 12.0061 22.5858 12.3418 23 12.3418C23.4142 12.3418 23.75 12.0061 23.75 11.5918H22.25ZM17.9107 5.63776C17.4965 5.63776 17.1607 5.97354 17.1607 6.38776C17.1607 6.80197 17.4965 7.13775 17.9107 7.13775V5.63776ZM3.25 5V21.3061H4.75V5H3.25ZM3.25 21.3061C3.25 21.5385 3.31212 21.8728 3.52248 22.1716C3.76033 22.5094 4.15558 22.75 4.67857 22.75V21.25C4.66421 21.25 4.66064 21.2485 4.66537 21.2496C4.67038 21.2508 4.68053 21.2539 4.69346 21.2607C4.72157 21.2756 4.74012 21.2955 4.74895 21.308C4.75589 21.3179 4.75464 21.3197 4.75202 21.3103C4.75096 21.3065 4.75027 21.3029 4.74993 21.3004C4.74956 21.2977 4.75 21.2992 4.75 21.3061H3.25ZM4.67857 22.75C4.67963 22.75 4.68073 22.75 4.68187 22.75C4.68301 22.75 4.68418 22.75 4.6854 22.75C4.68662 22.75 4.68787 22.75 4.68916 22.75C4.69046 22.75 4.69179 22.75 4.69316 22.75C4.69453 22.75 4.69594 22.75 4.69739 22.75C4.69883 22.75 4.70032 22.75 4.70184 22.75C4.70337 22.75 4.70493 22.75 4.70653 22.75C4.70813 22.75 4.70977 22.75 4.71145 22.75C4.71312 22.75 4.71484 22.75 4.71659 22.75C4.71834 22.75 4.72013 22.75 4.72196 22.75C4.72379 22.75 4.72566 22.75 4.72756 22.75C4.72947 22.75 4.73141 22.75 4.73339 22.75C4.73537 22.75 4.73738 22.75 4.73944 22.75C4.74149 22.75 4.74359 22.75 4.74571 22.75C4.74784 22.75 4.75001 22.75 4.75221 22.75C4.75442 22.75 4.75666 22.75 4.75894 22.75C4.76122 22.75 4.76353 22.75 4.76588 22.75C4.76824 22.75 4.77063 22.75 4.77305 22.75C4.77548 22.75 4.77794 22.75 4.78044 22.75C4.78294 22.75 4.78548 22.75 4.78805 22.75C4.79063 22.75 4.79324 22.75 4.79588 22.75C4.79853 22.75 4.80121 22.75 4.80393 22.75C4.80665 22.75 4.80941 22.75 4.8122 22.75C4.815 22.75 4.81782 22.75 4.82069 22.75C4.82355 22.75 4.82646 22.75 4.82939 22.75C4.83233 22.75 4.8353 22.75 4.83831 22.75C4.84132 22.75 4.84437 22.75 4.84745 22.75C4.85053 22.75 4.85365 22.75 4.8568 22.75C4.85995 22.75 4.86314 22.75 4.86637 22.75C4.86959 22.75 4.87285 22.75 4.87614 22.75C4.87944 22.75 4.88277 22.75 4.88614 22.75C4.8895 22.75 4.8929 22.75 4.89634 22.75C4.89978 22.75 4.90325 22.75 4.90676 22.75C4.91026 22.75 4.91381 22.75 4.91738 22.75C4.92096 22.75 4.92457 22.75 4.92822 22.75C4.93187 22.75 4.93555 22.75 4.93927 22.75C4.94298 22.75 4.94674 22.75 4.95052 22.75C4.95431 22.75 4.95813 22.75 4.96198 22.75C4.96584 22.75 4.96973 22.75 4.97366 22.75C4.97758 22.75 4.98154 22.75 4.98553 22.75C4.98953 22.75 4.99355 22.75 4.99762 22.75C5.00168 22.75 5.00577 22.75 5.0099 22.75C5.01403 22.75 5.0182 22.75 5.0224 22.75C5.0266 22.75 5.03083 22.75 5.03509 22.75C5.03936 22.75 5.04366 22.75 5.04799 22.75C5.05233 22.75 5.0567 22.75 5.0611 22.75C5.0655 22.75 5.06993 22.75 5.0744 22.75C5.07887 22.75 5.08337 22.75 5.08791 22.75C5.09244 22.75 5.09701 22.75 5.10161 22.75C5.10622 22.75 5.11085 22.75 5.11552 22.75C5.12019 22.75 5.12489 22.75 5.12962 22.75C5.13436 22.75 5.13913 22.75 5.14393 22.75C5.14873 22.75 5.15356 22.75 5.15843 22.75C5.16329 22.75 5.16819 22.75 5.17312 22.75C5.17806 22.75 5.18302 22.75 5.18802 22.75C5.19301 22.75 5.19804 22.75 5.20311 22.75C5.20817 22.75 5.21326 22.75 5.21839 22.75C5.22352 22.75 5.22868 22.75 5.23387 22.75C5.23906 22.75 5.24428 22.75 5.24954 22.75C5.25479 22.75 5.26008 22.75 5.2654 22.75C5.27072 22.75 5.27607 22.75 5.28146 22.75C5.28684 22.75 5.29226 22.75 5.2977 22.75C5.30315 22.75 5.30863 22.75 5.31414 22.75C5.31965 22.75 5.32519 22.75 5.33077 22.75C5.33634 22.75 5.34195 22.75 5.34759 22.75C5.35322 22.75 5.35889 22.75 5.36459 22.75C5.37029 22.75 5.37602 22.75 5.38178 22.75C5.38754 22.75 5.39334 22.75 5.39916 22.75C5.40499 22.75 5.41084 22.75 5.41673 22.75C5.42261 22.75 5.42853 22.75 5.43448 22.75C5.44043 22.75 5.44641 22.75 5.45242 22.75C5.45843 22.75 5.46447 22.75 5.47054 22.75C5.47661 22.75 5.48271 22.75 5.48884 22.75C5.49497 22.75 5.50114 22.75 5.50733 22.75C5.51352 22.75 5.51975 22.75 5.526 22.75C5.53225 22.75 5.53854 22.75 5.54485 22.75C5.55116 22.75 5.55751 22.75 5.56388 22.75C5.57026 22.75 5.57666 22.75 5.58309 22.75C5.58953 22.75 5.59599 22.75 5.60248 22.75C5.60898 22.75 5.6155 22.75 5.62205 22.75C5.62861 22.75 5.63519 22.75 5.6418 22.75C5.64841 22.75 5.65506 22.75 5.66173 22.75C5.6684 22.75 5.6751 22.75 5.68183 22.75C5.68856 22.75 5.69532 22.75 5.70211 22.75C5.70889 22.75 5.71571 22.75 5.72256 22.75C5.72941 22.75 5.73628 22.75 5.74319 22.75C5.75009 22.75 5.75702 22.75 5.76399 22.75C5.77095 22.75 5.77794 22.75 5.78496 22.75C5.79198 22.75 5.79903 22.75 5.80611 22.75C5.81318 22.75 5.82029 22.75 5.82742 22.75C5.83456 22.75 5.84172 22.75 5.84891 22.75C5.8561 22.75 5.86332 22.75 5.87057 22.75C5.87782 22.75 5.88509 22.75 5.8924 22.75C5.8997 22.75 5.90704 22.75 5.9144 22.75C5.92176 22.75 5.92915 22.75 5.93656 22.75C5.94398 22.75 5.95142 22.75 5.95889 22.75C5.96637 22.75 5.97387 22.75 5.98139 22.75C5.98892 22.75 5.99648 22.75 6.00406 22.75C6.01164 22.75 6.01925 22.75 6.02689 22.75C6.03453 22.75 6.04219 22.75 6.04989 22.75C6.05758 22.75 6.0653 22.75 6.07305 22.75C6.08079 22.75 6.08857 22.75 6.09637 22.75C6.10417 22.75 6.112 22.75 6.11985 22.75C6.12771 22.75 6.13559 22.75 6.1435 22.75C6.15141 22.75 6.15935 22.75 6.16731 22.75C6.17527 22.75 6.18326 22.75 6.19128 22.75C6.19929 22.75 6.20734 22.75 6.21541 22.75C6.22347 22.75 6.23157 22.75 6.23969 22.75C6.24782 22.75 6.25596 22.75 6.26414 22.75C6.27231 22.75 6.28051 22.75 6.28874 22.75C6.29697 22.75 6.30522 22.75 6.3135 22.75C6.32178 22.75 6.33009 22.75 6.33842 22.75C6.34675 22.75 6.35511 22.75 6.36349 22.75C6.37187 22.75 6.38028 22.75 6.38872 22.75C6.39715 22.75 6.40561 22.75 6.4141 22.75C6.42258 22.75 6.4311 22.75 6.43963 22.75C6.44817 22.75 6.45673 22.75 6.46532 22.75C6.47391 22.75 6.48252 22.75 6.49116 22.75C6.4998 22.75 6.50846 22.75 6.51715 22.75C6.52584 22.75 6.53455 22.75 6.54329 22.75C6.55203 22.75 6.56079 22.75 6.56958 22.75C6.57837 22.75 6.58718 22.75 6.59602 22.75C6.60486 22.75 6.61372 22.75 6.62261 22.75C6.6315 22.75 6.64041 22.75 6.64935 22.75C6.65828 22.75 6.66724 22.75 6.67623 22.75C6.68522 22.75 6.69423 22.75 6.70326 22.75C6.71229 22.75 6.72135 22.75 6.73044 22.75C6.73952 22.75 6.74863 22.75 6.75776 22.75C6.76689 22.75 6.77604 22.75 6.78522 22.75C6.7944 22.75 6.8036 22.75 6.81283 22.75C6.82206 22.75 6.83131 22.75 6.84058 22.75C6.84986 22.75 6.85915 22.75 6.86848 22.75C6.8778 22.75 6.88714 22.75 6.89651 22.75C6.90588 22.75 6.91527 22.75 6.92469 22.75C6.9341 22.75 6.94354 22.75 6.953 22.75C6.96247 22.75 6.97195 22.75 6.98146 22.75C6.99097 22.75 7.0005 22.75 7.01005 22.75C7.01961 22.75 7.02919 22.75 7.03879 22.75C7.04839 22.75 7.05801 22.75 7.06766 22.75C7.0773 22.75 7.08697 22.75 7.09666 22.75C7.10635 22.75 7.11607 22.75 7.1258 22.75C7.13554 22.75 7.1453 22.75 7.15508 22.75C7.16486 22.75 7.17467 22.75 7.18449 22.75C7.19432 22.75 7.20417 22.75 7.21404 22.75C7.22391 22.75 7.2338 22.75 7.24372 22.75C7.25363 22.75 7.26357 22.75 7.27353 22.75C7.28349 22.75 7.29347 22.75 7.30347 22.75C7.31347 22.75 7.3235 22.75 7.33354 22.75C7.34359 22.75 7.35366 22.75 7.36375 22.75C7.37384 22.75 7.38395 22.75 7.39408 22.75C7.40422 22.75 7.41437 22.75 7.42455 22.75C7.43472 22.75 7.44492 22.75 7.45514 22.75C7.46535 22.75 7.47559 22.75 7.48585 22.75C7.49612 22.75 7.5064 22.75 7.5167 22.75C7.527 22.75 7.53733 22.75 7.54767 22.75C7.55802 22.75 7.56838 22.75 7.57877 22.75C7.58915 22.75 7.59956 22.75 7.60999 22.75C7.62042 22.75 7.63087 22.75 7.64133 22.75C7.6518 22.75 7.66229 22.75 7.6728 22.75C7.68331 22.75 7.69384 22.75 7.70439 22.75C7.71494 22.75 7.72552 22.75 7.73611 22.75C7.7467 22.75 7.75731 22.75 7.76794 22.75C7.77857 22.75 7.78922 22.75 7.7999 22.75C7.81057 22.75 7.82126 22.75 7.83197 22.75C7.84268 22.75 7.85341 22.75 7.86416 22.75C7.87491 22.75 7.88569 22.75 7.89648 22.75C7.90727 22.75 7.91808 22.75 7.92891 22.75C7.93973 22.75 7.95058 22.75 7.96145 22.75C7.97232 22.75 7.98321 22.75 7.99411 22.75C8.00502 22.75 8.01595 22.75 8.02689 22.75C8.03784 22.75 8.0488 22.75 8.05979 22.75C8.07077 22.75 8.08177 22.75 8.09279 22.75C8.10382 22.75 8.11486 22.75 8.12592 22.75C8.13697 22.75 8.14805 22.75 8.15915 22.75C8.17025 22.75 8.18136 22.75 8.19249 22.75C8.20363 22.75 8.21478 22.75 8.22595 22.75C8.23712 22.75 8.24831 22.75 8.25952 22.75C8.27073 22.75 8.28195 22.75 8.2932 22.75C8.30444 22.75 8.3157 22.75 8.32699 22.75C8.33827 22.75 8.34956 22.75 8.36088 22.75C8.3722 22.75 8.38353 22.75 8.39489 22.75C8.40624 22.75 8.41761 22.75 8.429 22.75C8.44038 22.75 8.45179 22.75 8.46321 22.75C8.47464 22.75 8.48608 22.75 8.49754 22.75C8.50899 22.75 8.52047 22.75 8.53196 22.75C8.54346 22.75 8.55497 22.75 8.5665 22.75C8.57802 22.75 8.58957 22.75 8.60113 22.75C8.6127 22.75 8.62428 22.75 8.63587 22.75C8.64747 22.75 8.65908 22.75 8.67071 22.75C8.68234 22.75 8.69399 22.75 8.70566 22.75C8.71732 22.75 8.729 22.75 8.7407 22.75C8.7524 22.75 8.76411 22.75 8.77584 22.75C8.78758 22.75 8.79932 22.75 8.81109 22.75C8.82285 22.75 8.83463 22.75 8.84643 22.75C8.85823 22.75 8.87004 22.75 8.88187 22.75C8.8937 22.75 8.90555 22.75 8.91741 22.75C8.92927 22.75 8.94115 22.75 8.95304 22.75C8.96494 22.75 8.97685 22.75 8.98877 22.75C9.0007 22.75 9.01264 22.75 9.0246 22.75C9.03656 22.75 9.04853 22.75 9.06052 22.75C9.07251 22.75 9.08451 22.75 9.09653 22.75C9.10855 22.75 9.12059 22.75 9.13264 22.75C9.14469 22.75 9.15676 22.75 9.16884 22.75C9.18092 22.75 9.19302 22.75 9.20513 22.75C9.21724 22.75 9.22937 22.75 9.24151 22.75C9.25365 22.75 9.26581 22.75 9.27799 22.75C9.29016 22.75 9.30235 22.75 9.31455 22.75C9.32675 22.75 9.33897 22.75 9.3512 22.75C9.36343 22.75 9.37568 22.75 9.38794 22.75C9.4002 22.75 9.41248 22.75 9.42477 22.75C9.43706 22.75 9.44936 22.75 9.46168 22.75C9.474 22.75 9.48633 22.75 9.49868 22.75C9.51103 22.75 9.52339 22.75 9.53577 22.75C9.54814 22.75 9.56053 22.75 9.57294 22.75C9.58534 22.75 9.59776 22.75 9.61019 22.75C9.62262 22.75 9.63507 22.75 9.64753 22.75C9.65999 22.75 9.67246 22.75 9.68495 22.75C9.69744 22.75 9.70994 22.75 9.72245 22.75C9.73497 22.75 9.74749 22.75 9.76003 22.75C9.77258 22.75 9.78513 22.75 9.7977 22.75C9.81027 22.75 9.82285 22.75 9.83544 22.75C9.84804 22.75 9.86064 22.75 9.87327 22.75C9.88589 22.75 9.89852 22.75 9.91117 22.75C9.92381 22.75 9.93647 22.75 9.94915 22.75C9.96182 22.75 9.9745 22.75 9.9872 22.75C9.9999 22.75 10.0126 22.75 10.0253 22.75C10.0381 22.75 10.0508 22.75 10.0635 22.75C10.0763 22.75 10.0891 22.75 10.1018 22.75C10.1146 22.75 10.1274 22.75 10.1402 22.75C10.153 22.75 10.1658 22.75 10.1786 22.75C10.1914 22.75 10.2043 22.75 10.2171 22.75C10.23 22.75 10.2428 22.75 10.2557 22.75C10.2686 22.75 10.2814 22.75 10.2943 22.75C10.3072 22.75 10.3201 22.75 10.3331 22.75C10.346 22.75 10.3589 22.75 10.3718 22.75C10.3848 22.75 10.3977 22.75 10.4107 22.75C10.4237 22.75 10.4366 22.75 10.4496 22.75C10.4626 22.75 10.4756 22.75 10.4886 22.75C10.5016 22.75 10.5147 22.75 10.5277 22.75C10.5407 22.75 10.5538 22.75 10.5668 22.75C10.5799 22.75 10.5929 22.75 10.606 22.75C10.6191 22.75 10.6322 22.75 10.6453 22.75C10.6584 22.75 10.6715 22.75 10.6846 22.75C10.6977 22.75 10.7108 22.75 10.724 22.75C10.7371 22.75 10.7503 22.75 10.7634 22.75C10.7766 22.75 10.7898 22.75 10.8029 22.75C10.8161 22.75 10.8293 22.75 10.8425 22.75C10.8557 22.75 10.8689 22.75 10.8822 22.75C10.8954 22.75 10.9086 22.75 10.9218 22.75C10.9351 22.75 10.9483 22.75 10.9616 22.75C10.9749 22.75 10.9881 22.75 11.0014 22.75C11.0147 22.75 11.028 22.75 11.0413 22.75C11.0546 22.75 11.0679 22.75 11.0812 22.75C11.0945 22.75 11.1079 22.75 11.1212 22.75C11.1345 22.75 11.1479 22.75 11.1612 22.75C11.1746 22.75 11.188 22.75 11.2013 22.75C11.2147 22.75 11.2281 22.75 11.2415 22.75C11.2549 22.75 11.2683 22.75 11.2817 22.75C11.2951 22.75 11.3085 22.75 11.322 22.75C11.3354 22.75 11.3488 22.75 11.3623 22.75C11.3757 22.75 11.3892 22.75 11.4026 22.75C11.4161 22.75 11.4296 22.75 11.443 22.75C11.4565 22.75 11.47 22.75 11.4835 22.75C11.497 22.75 11.5105 22.75 11.524 22.75C11.5375 22.75 11.5511 22.75 11.5646 22.75C11.5781 22.75 11.5917 22.75 11.6052 22.75C11.6187 22.75 11.6323 22.75 11.6459 22.75C11.6594 22.75 11.673 22.75 11.6866 22.75C11.7001 22.75 11.7137 22.75 11.7273 22.75C11.7409 22.75 11.7545 22.75 11.7681 22.75C11.7817 22.75 11.7953 22.75 11.809 22.75C11.8226 22.75 11.8362 22.75 11.8498 22.75C11.8635 22.75 11.8771 22.75 11.8908 22.75C11.9044 22.75 11.9181 22.75 11.9317 22.75C11.9454 22.75 11.9591 22.75 11.9728 22.75C11.9864 22.75 12.0001 22.75 12.0138 22.75C12.0275 22.75 12.0412 22.75 12.0549 22.75C12.0686 22.75 12.0823 22.75 12.0961 22.75C12.1098 22.75 12.1235 22.75 12.1372 22.75C12.151 22.75 12.1647 22.75 12.1784 22.75C12.1922 22.75 12.2059 22.75 12.2197 22.75C12.2335 22.75 12.2472 22.75 12.261 22.75C12.2748 22.75 12.2885 22.75 12.3023 22.75C12.3161 22.75 12.3299 22.75 12.3437 22.75C12.3575 22.75 12.3713 22.75 12.3851 22.75C12.3989 22.75 12.4127 22.75 12.4265 22.75C12.4403 22.75 12.4541 22.75 12.468 22.75C12.4818 22.75 12.4956 22.75 12.5095 22.75C12.5233 22.75 12.5371 22.75 12.551 22.75C12.5648 22.75 12.5787 22.75 12.5926 22.75C12.6064 22.75 12.6203 22.75 12.6341 22.75C12.648 22.75 12.6619 22.75 12.6758 22.75C12.6896 22.75 12.7035 22.75 12.7174 22.75C12.7313 22.75 12.7452 22.75 12.7591 22.75C12.773 22.75 12.7869 22.75 12.8008 22.75C12.8147 22.75 12.8286 22.75 12.8425 22.75C12.8565 22.75 12.8704 22.75 12.8843 22.75C12.8982 22.75 12.9122 22.75 12.9261 22.75C12.94 22.75 12.954 22.75 12.9679 22.75C12.9818 22.75 12.9958 22.75 13.0097 22.75C13.0237 22.75 13.0376 22.75 13.0516 22.75C13.0656 22.75 13.0795 22.75 13.0935 22.75C13.1075 22.75 13.1214 22.75 13.1354 22.75C13.1494 22.75 13.1633 22.75 13.1773 22.75C13.1913 22.75 13.2053 22.75 13.2193 22.75C13.2333 22.75 13.2472 22.75 13.2612 22.75C13.2752 22.75 13.2892 22.75 13.3032 22.75C13.3172 22.75 13.3312 22.75 13.3452 22.75C13.3592 22.75 13.3733 22.75 13.3873 22.75C13.4013 22.75 13.4153 22.75 13.4293 22.75C13.4433 22.75 13.4573 22.75 13.4714 22.75C13.4854 22.75 13.4994 22.75 13.5134 22.75C13.5275 22.75 13.5415 22.75 13.5555 22.75C13.5696 22.75 13.5836 22.75 13.5976 22.75C13.6117 22.75 13.6257 22.75 13.6398 22.75C13.6538 22.75 13.6679 22.75 13.6819 22.75C13.6959 22.75 13.71 22.75 13.724 22.75C13.7381 22.75 13.7521 22.75 13.7662 22.75C13.7803 22.75 13.7943 22.75 13.8084 22.75C13.8224 22.75 13.8365 22.75 13.8506 22.75C13.8646 22.75 13.8787 22.75 13.8927 22.75C13.9068 22.75 13.9209 22.75 13.9349 22.75C13.949 22.75 13.9631 22.75 13.9771 22.75C13.9912 22.75 14.0053 22.75 14.0194 22.75C14.0334 22.75 14.0475 22.75 14.0616 22.75C14.0757 22.75 14.0897 22.75 14.1038 22.75C14.1179 22.75 14.132 22.75 14.146 22.75C14.1601 22.75 14.1742 22.75 14.1883 22.75C14.2024 22.75 14.2164 22.75 14.2305 22.75C14.2446 22.75 14.2587 22.75 14.2728 22.75C14.2869 22.75 14.3009 22.75 14.315 22.75C14.3291 22.75 14.3432 22.75 14.3573 22.75C14.3714 22.75 14.3854 22.75 14.3995 22.75C14.4136 22.75 14.4277 22.75 14.4418 22.75C14.4559 22.75 14.4699 22.75 14.484 22.75C14.4981 22.75 14.5122 22.75 14.5263 22.75C14.5404 22.75 14.5545 22.75 14.5685 22.75C14.5826 22.75 14.5967 22.75 14.6108 22.75C14.6249 22.75 14.6389 22.75 14.653 22.75C14.6671 22.75 14.6812 22.75 14.6953 22.75C14.7094 22.75 14.7234 22.75 14.7375 22.75C14.7516 22.75 14.7657 22.75 14.7797 22.75C14.7938 22.75 14.8079 22.75 14.822 22.75C14.836 22.75 14.8501 22.75 14.8642 22.75C14.8783 22.75 14.8923 22.75 14.9064 22.75C14.9205 22.75 14.9345 22.75 14.9486 22.75C14.9627 22.75 14.9767 22.75 14.9908 22.75C15.0049 22.75 15.0189 22.75 15.033 22.75C15.0471 22.75 15.0611 22.75 15.0752 22.75C15.0892 22.75 15.1033 22.75 15.1173 22.75C15.1314 22.75 15.1455 22.75 15.1595 22.75C15.1736 22.75 15.1876 22.75 15.2016 22.75C15.2157 22.75 15.2297 22.75 15.2438 22.75C15.2578 22.75 15.2719 22.75 15.2859 22.75C15.2999 22.75 15.314 22.75 15.328 22.75C15.342 22.75 15.3561 22.75 15.3701 22.75C15.3841 22.75 15.3981 22.75 15.4122 22.75C15.4262 22.75 15.4402 22.75 15.4542 22.75C15.4682 22.75 15.4823 22.75 15.4963 22.75C15.5103 22.75 15.5243 22.75 15.5383 22.75C15.5523 22.75 15.5663 22.75 15.5803 22.75C15.5943 22.75 15.6083 22.75 15.6223 22.75C15.6363 22.75 15.6503 22.75 15.6643 22.75C15.6782 22.75 15.6922 22.75 15.7062 22.75C15.7202 22.75 15.7342 22.75 15.7481 22.75C15.7621 22.75 15.7761 22.75 15.79 22.75C15.804 22.75 15.818 22.75 15.8319 22.75C15.8459 22.75 15.8598 22.75 15.8738 22.75C15.8877 22.75 15.9017 22.75 15.9156 22.75C15.9295 22.75 15.9435 22.75 15.9574 22.75C15.9713 22.75 15.9853 22.75 15.9992 22.75C16.0131 22.75 16.027 22.75 16.041 22.75C16.0549 22.75 16.0688 22.75 16.0827 22.75C16.0966 22.75 16.1105 22.75 16.1244 22.75C16.1383 22.75 16.1522 22.75 16.1661 22.75C16.18 22.75 16.1938 22.75 16.2077 22.75C16.2216 22.75 16.2355 22.75 16.2493 22.75C16.2632 22.75 16.2771 22.75 16.2909 22.75C16.3048 22.75 16.3186 22.75 16.3325 22.75C16.3463 22.75 16.3602 22.75 16.374 22.75C16.3879 22.75 16.4017 22.75 16.4155 22.75C16.4293 22.75 16.4432 22.75 16.457 22.75C16.4708 22.75 16.4846 22.75 16.4984 22.75C16.5122 22.75 16.526 22.75 16.5398 22.75C16.5536 22.75 16.5674 22.75 16.5811 22.75C16.5949 22.75 16.6087 22.75 16.6225 22.75C16.6362 22.75 16.65 22.75 16.6638 22.75C16.6775 22.75 16.6913 22.75 16.705 22.75C16.7187 22.75 16.7325 22.75 16.7462 22.75C16.7599 22.75 16.7737 22.75 16.7874 22.75C16.8011 22.75 16.8148 22.75 16.8285 22.75C16.8422 22.75 16.8559 22.75 16.8696 22.75C16.8833 22.75 16.897 22.75 16.9107 22.75C16.9243 22.75 16.938 22.75 16.9517 22.75C16.9653 22.75 16.979 22.75 16.9926 22.75C17.0063 22.75 17.0199 22.75 17.0336 22.75C17.0472 22.75 17.0608 22.75 17.0744 22.75C17.0881 22.75 17.1017 22.75 17.1153 22.75C17.1289 22.75 17.1425 22.75 17.1561 22.75C17.1697 22.75 17.1833 22.75 17.1968 22.75C17.2104 22.75 17.224 22.75 17.2375 22.75C17.2511 22.75 17.2646 22.75 17.2782 22.75C17.2917 22.75 17.3053 22.75 17.3188 22.75C17.3323 22.75 17.3458 22.75 17.3593 22.75C17.3729 22.75 17.3864 22.75 17.3999 22.75C17.4133 22.75 17.4268 22.75 17.4403 22.75C17.4538 22.75 17.4673 22.75 17.4807 22.75C17.4942 22.75 17.5076 22.75 17.5211 22.75C17.5345 22.75 17.548 22.75 17.5614 22.75C17.5748 22.75 17.5882 22.75 17.6016 22.75C17.615 22.75 17.6284 22.75 17.6418 22.75C17.6552 22.75 17.6686 22.75 17.682 22.75C17.6954 22.75 17.7087 22.75 17.7221 22.75C17.7354 22.75 17.7488 22.75 17.7621 22.75C17.7754 22.75 17.7888 22.75 17.8021 22.75C17.8154 22.75 17.8287 22.75 17.842 22.75C17.8553 22.75 17.8686 22.75 17.8819 22.75C17.8952 22.75 17.9084 22.75 17.9217 22.75C17.9349 22.75 17.9482 22.75 17.9614 22.75C17.9747 22.75 17.9879 22.75 18.0011 22.75C18.0143 22.75 18.0276 22.75 18.0408 22.75C18.0539 22.75 18.0671 22.75 18.0803 22.75C18.0935 22.75 18.1067 22.75 18.1198 22.75C18.133 22.75 18.1461 22.75 18.1593 22.75C18.1724 22.75 18.1855 22.75 18.1986 22.75C18.2118 22.75 18.2249 22.75 18.238 22.75C18.2511 22.75 18.2641 22.75 18.2772 22.75C18.2903 22.75 18.3033 22.75 18.3164 22.75C18.3295 22.75 18.3425 22.75 18.3555 22.75C18.3686 22.75 18.3816 22.75 18.3946 22.75C18.4076 22.75 18.4206 22.75 18.4336 22.75C18.4465 22.75 18.4595 22.75 18.4725 22.75C18.4854 22.75 18.4984 22.75 18.5113 22.75C18.5243 22.75 18.5372 22.75 18.5501 22.75C18.563 22.75 18.5759 22.75 18.5888 22.75C18.6017 22.75 18.6146 22.75 18.6275 22.75C18.6403 22.75 18.6532 22.75 18.666 22.75C18.6789 22.75 18.6917 22.75 18.7045 22.75C18.7173 22.75 18.7302 22.75 18.7429 22.75C18.7557 22.75 18.7685 22.75 18.7813 22.75C18.7941 22.75 18.8068 22.75 18.8196 22.75C18.8323 22.75 18.8451 22.75 18.8578 22.75C18.8705 22.75 18.8832 22.75 18.8959 22.75C18.9086 22.75 18.9213 22.75 18.9339 22.75C18.9466 22.75 18.9593 22.75 18.9719 22.75C18.9846 22.75 18.9972 22.75 19.0098 22.75C19.0224 22.75 19.035 22.75 19.0476 22.75C19.0602 22.75 19.0728 22.75 19.0854 22.75C19.0979 22.75 19.1105 22.75 19.123 22.75C19.1356 22.75 19.1481 22.75 19.1606 22.75C19.1731 22.75 19.1856 22.75 19.1981 22.75C19.2106 22.75 19.223 22.75 19.2355 22.75C19.248 22.75 19.2604 22.75 19.2728 22.75C19.2853 22.75 19.2977 22.75 19.3101 22.75C19.3225 22.75 19.3349 22.75 19.3472 22.75C19.3596 22.75 19.372 22.75 19.3843 22.75C19.3966 22.75 19.409 22.75 19.4213 22.75C19.4336 22.75 19.4459 22.75 19.4582 22.75C19.4705 22.75 19.4828 22.75 19.495 22.75C19.5073 22.75 19.5195 22.75 19.5317 22.75C19.544 22.75 19.5562 22.75 19.5684 22.75C19.5806 22.75 19.5928 22.75 19.6049 22.75C19.6171 22.75 19.6293 22.75 19.6414 22.75C19.6535 22.75 19.6657 22.75 19.6778 22.75C19.6899 22.75 19.702 22.75 19.7141 22.75C19.7261 22.75 19.7382 22.75 19.7502 22.75C19.7623 22.75 19.7743 22.75 19.7863 22.75C19.7984 22.75 19.8104 22.75 19.8223 22.75C19.8343 22.75 19.8463 22.75 19.8583 22.75C19.8702 22.75 19.8822 22.75 19.8941 22.75C19.906 22.75 19.9179 22.75 19.9298 22.75C19.9417 22.75 19.9536 22.75 19.9654 22.75C19.9773 22.75 19.9891 22.75 20.0009 22.75C20.0128 22.75 20.0246 22.75 20.0364 22.75C20.0482 22.75 20.0599 22.75 20.0717 22.75C20.0835 22.75 20.0952 22.75 20.1069 22.75C20.1187 22.75 20.1304 22.75 20.1421 22.75C20.1538 22.75 20.1654 22.75 20.1771 22.75C20.1888 22.75 20.2004 22.75 20.212 22.75C20.2237 22.75 20.2353 22.75 20.2469 22.75C20.2585 22.75 20.27 22.75 20.2816 22.75C20.2932 22.75 20.3047 22.75 20.3162 22.75C20.3277 22.75 20.3393 22.75 20.3507 22.75C20.3622 22.75 20.3737 22.75 20.3852 22.75C20.3966 22.75 20.408 22.75 20.4195 22.75C20.4309 22.75 20.4423 22.75 20.4537 22.75C20.4651 22.75 20.4764 22.75 20.4878 22.75C20.4991 22.75 20.5105 22.75 20.5218 22.75C20.5331 22.75 20.5444 22.75 20.5556 22.75C20.5669 22.75 20.5782 22.75 20.5894 22.75C20.6007 22.75 20.6119 22.75 20.6231 22.75C20.6343 22.75 20.6455 22.75 20.6566 22.75C20.6678 22.75 20.679 22.75 20.6901 22.75C20.7012 22.75 20.7123 22.75 20.7234 22.75C20.7345 22.75 20.7456 22.75 20.7566 22.75C20.7677 22.75 20.7787 22.75 20.7898 22.75C20.8008 22.75 20.8118 22.75 20.8228 22.75C20.8337 22.75 20.8447 22.75 20.8556 22.75C20.8666 22.75 20.8775 22.75 20.8884 22.75C20.8993 22.75 20.9102 22.75 20.921 22.75C20.9319 22.75 20.9428 22.75 20.9536 22.75C20.9644 22.75 20.9752 22.75 20.986 22.75C20.9968 22.75 21.0075 22.75 21.0183 22.75C21.029 22.75 21.0398 22.75 21.0505 22.75C21.0612 22.75 21.0719 22.75 21.0825 22.75C21.0932 22.75 21.1039 22.75 21.1145 22.75C21.1251 22.75 21.1357 22.75 21.1463 22.75C21.1569 22.75 21.1675 22.75 21.178 22.75C21.1885 22.75 21.1991 22.75 21.2096 22.75C21.2201 22.75 21.2306 22.75 21.241 22.75C21.2515 22.75 21.2619 22.75 21.2724 22.75C21.2828 22.75 21.2932 22.75 21.3036 22.75V21.25C21.2932 21.25 21.2828 21.25 21.2724 21.25C21.2619 21.25 21.2515 21.25 21.241 21.25C21.2306 21.25 21.2201 21.25 21.2096 21.25C21.1991 21.25 21.1885 21.25 21.178 21.25C21.1675 21.25 21.1569 21.25 21.1463 21.25C21.1357 21.25 21.1251 21.25 21.1145 21.25C21.1039 21.25 21.0932 21.25 21.0825 21.25C21.0719 21.25 21.0612 21.25 21.0505 21.25C21.0398 21.25 21.029 21.25 21.0183 21.25C21.0075 21.25 20.9968 21.25 20.986 21.25C20.9752 21.25 20.9644 21.25 20.9536 21.25C20.9428 21.25 20.9319 21.25 20.921 21.25C20.9102 21.25 20.8993 21.25 20.8884 21.25C20.8775 21.25 20.8666 21.25 20.8556 21.25C20.8447 21.25 20.8337 21.25 20.8228 21.25C20.8118 21.25 20.8008 21.25 20.7898 21.25C20.7787 21.25 20.7677 21.25 20.7566 21.25C20.7456 21.25 20.7345 21.25 20.7234 21.25C20.7123 21.25 20.7012 21.25 20.6901 21.25C20.679 21.25 20.6678 21.25 20.6566 21.25C20.6455 21.25 20.6343 21.25 20.6231 21.25C20.6119 21.25 20.6007 21.25 20.5894 21.25C20.5782 21.25 20.5669 21.25 20.5556 21.25C20.5444 21.25 20.5331 21.25 20.5218 21.25C20.5105 21.25 20.4991 21.25 20.4878 21.25C20.4764 21.25 20.4651 21.25 20.4537 21.25C20.4423 21.25 20.4309 21.25 20.4195 21.25C20.408 21.25 20.3966 21.25 20.3852 21.25C20.3737 21.25 20.3622 21.25 20.3507 21.25C20.3393 21.25 20.3277 21.25 20.3162 21.25C20.3047 21.25 20.2932 21.25 20.2816 21.25C20.27 21.25 20.2585 21.25 20.2469 21.25C20.2353 21.25 20.2237 21.25 20.212 21.25C20.2004 21.25 20.1888 21.25 20.1771 21.25C20.1654 21.25 20.1538 21.25 20.1421 21.25C20.1304 21.25 20.1187 21.25 20.1069 21.25C20.0952 21.25 20.0835 21.25 20.0717 21.25C20.0599 21.25 20.0482 21.25 20.0364 21.25C20.0246 21.25 20.0128 21.25 20.0009 21.25C19.9891 21.25 19.9773 21.25 19.9654 21.25C19.9536 21.25 19.9417 21.25 19.9298 21.25C19.9179 21.25 19.906 21.25 19.8941 21.25C19.8822 21.25 19.8702 21.25 19.8583 21.25C19.8463 21.25 19.8343 21.25 19.8223 21.25C19.8104 21.25 19.7984 21.25 19.7863 21.25C19.7743 21.25 19.7623 21.25 19.7502 21.25C19.7382 21.25 19.7261 21.25 19.7141 21.25C19.702 21.25 19.6899 21.25 19.6778 21.25C19.6657 21.25 19.6535 21.25 19.6414 21.25C19.6293 21.25 19.6171 21.25 19.6049 21.25C19.5928 21.25 19.5806 21.25 19.5684 21.25C19.5562 21.25 19.544 21.25 19.5317 21.25C19.5195 21.25 19.5073 21.25 19.495 21.25C19.4828 21.25 19.4705 21.25 19.4582 21.25C19.4459 21.25 19.4336 21.25 19.4213 21.25C19.409 21.25 19.3966 21.25 19.3843 21.25C19.372 21.25 19.3596 21.25 19.3472 21.25C19.3349 21.25 19.3225 21.25 19.3101 21.25C19.2977 21.25 19.2853 21.25 19.2728 21.25C19.2604 21.25 19.248 21.25 19.2355 21.25C19.223 21.25 19.2106 21.25 19.1981 21.25C19.1856 21.25 19.1731 21.25 19.1606 21.25C19.1481 21.25 19.1356 21.25 19.123 21.25C19.1105 21.25 19.0979 21.25 19.0854 21.25C19.0728 21.25 19.0602 21.25 19.0476 21.25C19.035 21.25 19.0224 21.25 19.0098 21.25C18.9972 21.25 18.9846 21.25 18.9719 21.25C18.9593 21.25 18.9466 21.25 18.9339 21.25C18.9213 21.25 18.9086 21.25 18.8959 21.25C18.8832 21.25 18.8705 21.25 18.8578 21.25C18.8451 21.25 18.8323 21.25 18.8196 21.25C18.8068 21.25 18.7941 21.25 18.7813 21.25C18.7685 21.25 18.7557 21.25 18.7429 21.25C18.7302 21.25 18.7173 21.25 18.7045 21.25C18.6917 21.25 18.6789 21.25 18.666 21.25C18.6532 21.25 18.6403 21.25 18.6275 21.25C18.6146 21.25 18.6017 21.25 18.5888 21.25C18.5759 21.25 18.563 21.25 18.5501 21.25C18.5372 21.25 18.5243 21.25 18.5113 21.25C18.4984 21.25 18.4854 21.25 18.4725 21.25C18.4595 21.25 18.4465 21.25 18.4336 21.25C18.4206 21.25 18.4076 21.25 18.3946 21.25C18.3816 21.25 18.3686 21.25 18.3555 21.25C18.3425 21.25 18.3295 21.25 18.3164 21.25C18.3033 21.25 18.2903 21.25 18.2772 21.25C18.2641 21.25 18.2511 21.25 18.238 21.25C18.2249 21.25 18.2118 21.25 18.1986 21.25C18.1855 21.25 18.1724 21.25 18.1593 21.25C18.1461 21.25 18.133 21.25 18.1198 21.25C18.1067 21.25 18.0935 21.25 18.0803 21.25C18.0671 21.25 18.0539 21.25 18.0408 21.25C18.0276 21.25 18.0143 21.25 18.0011 21.25C17.9879 21.25 17.9747 21.25 17.9614 21.25C17.9482 21.25 17.9349 21.25 17.9217 21.25C17.9084 21.25 17.8952 21.25 17.8819 21.25C17.8686 21.25 17.8553 21.25 17.842 21.25C17.8287 21.25 17.8154 21.25 17.8021 21.25C17.7888 21.25 17.7754 21.25 17.7621 21.25C17.7488 21.25 17.7354 21.25 17.7221 21.25C17.7087 21.25 17.6954 21.25 17.682 21.25C17.6686 21.25 17.6552 21.25 17.6418 21.25C17.6284 21.25 17.615 21.25 17.6016 21.25C17.5882 21.25 17.5748 21.25 17.5614 21.25C17.548 21.25 17.5345 21.25 17.5211 21.25C17.5076 21.25 17.4942 21.25 17.4807 21.25C17.4673 21.25 17.4538 21.25 17.4403 21.25C17.4268 21.25 17.4133 21.25 17.3999 21.25C17.3864 21.25 17.3729 21.25 17.3593 21.25C17.3458 21.25 17.3323 21.25 17.3188 21.25C17.3053 21.25 17.2917 21.25 17.2782 21.25C17.2646 21.25 17.2511 21.25 17.2375 21.25C17.224 21.25 17.2104 21.25 17.1968 21.25C17.1833 21.25 17.1697 21.25 17.1561 21.25C17.1425 21.25 17.1289 21.25 17.1153 21.25C17.1017 21.25 17.0881 21.25 17.0744 21.25C17.0608 21.25 17.0472 21.25 17.0336 21.25C17.0199 21.25 17.0063 21.25 16.9926 21.25C16.979 21.25 16.9653 21.25 16.9517 21.25C16.938 21.25 16.9243 21.25 16.9107 21.25C16.897 21.25 16.8833 21.25 16.8696 21.25C16.8559 21.25 16.8422 21.25 16.8285 21.25C16.8148 21.25 16.8011 21.25 16.7874 21.25C16.7737 21.25 16.7599 21.25 16.7462 21.25C16.7325 21.25 16.7187 21.25 16.705 21.25C16.6913 21.25 16.6775 21.25 16.6638 21.25C16.65 21.25 16.6362 21.25 16.6225 21.25C16.6087 21.25 16.5949 21.25 16.5811 21.25C16.5674 21.25 16.5536 21.25 16.5398 21.25C16.526 21.25 16.5122 21.25 16.4984 21.25C16.4846 21.25 16.4708 21.25 16.457 21.25C16.4432 21.25 16.4293 21.25 16.4155 21.25C16.4017 21.25 16.3879 21.25 16.374 21.25C16.3602 21.25 16.3463 21.25 16.3325 21.25C16.3186 21.25 16.3048 21.25 16.2909 21.25C16.2771 21.25 16.2632 21.25 16.2493 21.25C16.2355 21.25 16.2216 21.25 16.2077 21.25C16.1938 21.25 16.18 21.25 16.1661 21.25C16.1522 21.25 16.1383 21.25 16.1244 21.25C16.1105 21.25 16.0966 21.25 16.0827 21.25C16.0688 21.25 16.0549 21.25 16.041 21.25C16.027 21.25 16.0131 21.25 15.9992 21.25C15.9853 21.25 15.9713 21.25 15.9574 21.25C15.9435 21.25 15.9295 21.25 15.9156 21.25C15.9017 21.25 15.8877 21.25 15.8738 21.25C15.8598 21.25 15.8459 21.25 15.8319 21.25C15.818 21.25 15.804 21.25 15.79 21.25C15.7761 21.25 15.7621 21.25 15.7481 21.25C15.7342 21.25 15.7202 21.25 15.7062 21.25C15.6922 21.25 15.6782 21.25 15.6643 21.25C15.6503 21.25 15.6363 21.25 15.6223 21.25C15.6083 21.25 15.5943 21.25 15.5803 21.25C15.5663 21.25 15.5523 21.25 15.5383 21.25C15.5243 21.25 15.5103 21.25 15.4963 21.25C15.4823 21.25 15.4682 21.25 15.4542 21.25C15.4402 21.25 15.4262 21.25 15.4122 21.25C15.3981 21.25 15.3841 21.25 15.3701 21.25C15.3561 21.25 15.342 21.25 15.328 21.25C15.314 21.25 15.2999 21.25 15.2859 21.25C15.2719 21.25 15.2578 21.25 15.2438 21.25C15.2297 21.25 15.2157 21.25 15.2016 21.25C15.1876 21.25 15.1736 21.25 15.1595 21.25C15.1455 21.25 15.1314 21.25 15.1173 21.25C15.1033 21.25 15.0892 21.25 15.0752 21.25C15.0611 21.25 15.0471 21.25 15.033 21.25C15.0189 21.25 15.0049 21.25 14.9908 21.25C14.9767 21.25 14.9627 21.25 14.9486 21.25C14.9345 21.25 14.9205 21.25 14.9064 21.25C14.8923 21.25 14.8783 21.25 14.8642 21.25C14.8501 21.25 14.836 21.25 14.822 21.25C14.8079 21.25 14.7938 21.25 14.7797 21.25C14.7657 21.25 14.7516 21.25 14.7375 21.25C14.7234 21.25 14.7094 21.25 14.6953 21.25C14.6812 21.25 14.6671 21.25 14.653 21.25C14.6389 21.25 14.6249 21.25 14.6108 21.25C14.5967 21.25 14.5826 21.25 14.5685 21.25C14.5545 21.25 14.5404 21.25 14.5263 21.25C14.5122 21.25 14.4981 21.25 14.484 21.25C14.4699 21.25 14.4559 21.25 14.4418 21.25C14.4277 21.25 14.4136 21.25 14.3995 21.25C14.3854 21.25 14.3714 21.25 14.3573 21.25C14.3432 21.25 14.3291 21.25 14.315 21.25C14.3009 21.25 14.2869 21.25 14.2728 21.25C14.2587 21.25 14.2446 21.25 14.2305 21.25C14.2164 21.25 14.2024 21.25 14.1883 21.25C14.1742 21.25 14.1601 21.25 14.146 21.25C14.132 21.25 14.1179 21.25 14.1038 21.25C14.0897 21.25 14.0757 21.25 14.0616 21.25C14.0475 21.25 14.0334 21.25 14.0194 21.25C14.0053 21.25 13.9912 21.25 13.9771 21.25C13.9631 21.25 13.949 21.25 13.9349 21.25C13.9209 21.25 13.9068 21.25 13.8927 21.25C13.8787 21.25 13.8646 21.25 13.8506 21.25C13.8365 21.25 13.8224 21.25 13.8084 21.25C13.7943 21.25 13.7803 21.25 13.7662 21.25C13.7521 21.25 13.7381 21.25 13.724 21.25C13.71 21.25 13.6959 21.25 13.6819 21.25C13.6679 21.25 13.6538 21.25 13.6398 21.25C13.6257 21.25 13.6117 21.25 13.5976 21.25C13.5836 21.25 13.5696 21.25 13.5555 21.25C13.5415 21.25 13.5275 21.25 13.5134 21.25C13.4994 21.25 13.4854 21.25 13.4714 21.25C13.4573 21.25 13.4433 21.25 13.4293 21.25C13.4153 21.25 13.4013 21.25 13.3873 21.25C13.3733 21.25 13.3592 21.25 13.3452 21.25C13.3312 21.25 13.3172 21.25 13.3032 21.25C13.2892 21.25 13.2752 21.25 13.2612 21.25C13.2472 21.25 13.2333 21.25 13.2193 21.25C13.2053 21.25 13.1913 21.25 13.1773 21.25C13.1633 21.25 13.1494 21.25 13.1354 21.25C13.1214 21.25 13.1075 21.25 13.0935 21.25C13.0795 21.25 13.0656 21.25 13.0516 21.25C13.0376 21.25 13.0237 21.25 13.0097 21.25C12.9958 21.25 12.9818 21.25 12.9679 21.25C12.954 21.25 12.94 21.25 12.9261 21.25C12.9122 21.25 12.8982 21.25 12.8843 21.25C12.8704 21.25 12.8565 21.25 12.8425 21.25C12.8286 21.25 12.8147 21.25 12.8008 21.25C12.7869 21.25 12.773 21.25 12.7591 21.25C12.7452 21.25 12.7313 21.25 12.7174 21.25C12.7035 21.25 12.6896 21.25 12.6758 21.25C12.6619 21.25 12.648 21.25 12.6341 21.25C12.6203 21.25 12.6064 21.25 12.5926 21.25C12.5787 21.25 12.5648 21.25 12.551 21.25C12.5371 21.25 12.5233 21.25 12.5095 21.25C12.4956 21.25 12.4818 21.25 12.468 21.25C12.4541 21.25 12.4403 21.25 12.4265 21.25C12.4127 21.25 12.3989 21.25 12.3851 21.25C12.3713 21.25 12.3575 21.25 12.3437 21.25C12.3299 21.25 12.3161 21.25 12.3023 21.25C12.2885 21.25 12.2748 21.25 12.261 21.25C12.2472 21.25 12.2335 21.25 12.2197 21.25C12.2059 21.25 12.1922 21.25 12.1784 21.25C12.1647 21.25 12.151 21.25 12.1372 21.25C12.1235 21.25 12.1098 21.25 12.0961 21.25C12.0823 21.25 12.0686 21.25 12.0549 21.25C12.0412 21.25 12.0275 21.25 12.0138 21.25C12.0001 21.25 11.9864 21.25 11.9728 21.25C11.9591 21.25 11.9454 21.25 11.9317 21.25C11.9181 21.25 11.9044 21.25 11.8908 21.25C11.8771 21.25 11.8635 21.25 11.8498 21.25C11.8362 21.25 11.8226 21.25 11.809 21.25C11.7953 21.25 11.7817 21.25 11.7681 21.25C11.7545 21.25 11.7409 21.25 11.7273 21.25C11.7137 21.25 11.7001 21.25 11.6866 21.25C11.673 21.25 11.6594 21.25 11.6459 21.25C11.6323 21.25 11.6187 21.25 11.6052 21.25C11.5917 21.25 11.5781 21.25 11.5646 21.25C11.5511 21.25 11.5375 21.25 11.524 21.25C11.5105 21.25 11.497 21.25 11.4835 21.25C11.47 21.25 11.4565 21.25 11.443 21.25C11.4296 21.25 11.4161 21.25 11.4026 21.25C11.3892 21.25 11.3757 21.25 11.3623 21.25C11.3488 21.25 11.3354 21.25 11.322 21.25C11.3085 21.25 11.2951 21.25 11.2817 21.25C11.2683 21.25 11.2549 21.25 11.2415 21.25C11.2281 21.25 11.2147 21.25 11.2013 21.25C11.188 21.25 11.1746 21.25 11.1612 21.25C11.1479 21.25 11.1345 21.25 11.1212 21.25C11.1079 21.25 11.0945 21.25 11.0812 21.25C11.0679 21.25 11.0546 21.25 11.0413 21.25C11.028 21.25 11.0147 21.25 11.0014 21.25C10.9881 21.25 10.9749 21.25 10.9616 21.25C10.9483 21.25 10.9351 21.25 10.9218 21.25C10.9086 21.25 10.8954 21.25 10.8822 21.25C10.8689 21.25 10.8557 21.25 10.8425 21.25C10.8293 21.25 10.8161 21.25 10.8029 21.25C10.7898 21.25 10.7766 21.25 10.7634 21.25C10.7503 21.25 10.7371 21.25 10.724 21.25C10.7108 21.25 10.6977 21.25 10.6846 21.25C10.6715 21.25 10.6584 21.25 10.6453 21.25C10.6322 21.25 10.6191 21.25 10.606 21.25C10.5929 21.25 10.5799 21.25 10.5668 21.25C10.5538 21.25 10.5407 21.25 10.5277 21.25C10.5147 21.25 10.5016 21.25 10.4886 21.25C10.4756 21.25 10.4626 21.25 10.4496 21.25C10.4366 21.25 10.4237 21.25 10.4107 21.25C10.3977 21.25 10.3848 21.25 10.3718 21.25C10.3589 21.25 10.346 21.25 10.3331 21.25C10.3201 21.25 10.3072 21.25 10.2943 21.25C10.2814 21.25 10.2686 21.25 10.2557 21.25C10.2428 21.25 10.23 21.25 10.2171 21.25C10.2043 21.25 10.1914 21.25 10.1786 21.25C10.1658 21.25 10.153 21.25 10.1402 21.25C10.1274 21.25 10.1146 21.25 10.1018 21.25C10.0891 21.25 10.0763 21.25 10.0635 21.25C10.0508 21.25 10.0381 21.25 10.0253 21.25C10.0126 21.25 9.9999 21.25 9.9872 21.25C9.9745 21.25 9.96182 21.25 9.94915 21.25C9.93647 21.25 9.92381 21.25 9.91117 21.25C9.89852 21.25 9.88589 21.25 9.87327 21.25C9.86064 21.25 9.84804 21.25 9.83544 21.25C9.82285 21.25 9.81027 21.25 9.7977 21.25C9.78513 21.25 9.77258 21.25 9.76003 21.25C9.74749 21.25 9.73497 21.25 9.72245 21.25C9.70994 21.25 9.69744 21.25 9.68495 21.25C9.67246 21.25 9.65999 21.25 9.64753 21.25C9.63507 21.25 9.62262 21.25 9.61019 21.25C9.59776 21.25 9.58534 21.25 9.57294 21.25C9.56053 21.25 9.54814 21.25 9.53577 21.25C9.52339 21.25 9.51103 21.25 9.49868 21.25C9.48633 21.25 9.474 21.25 9.46168 21.25C9.44936 21.25 9.43706 21.25 9.42477 21.25C9.41248 21.25 9.4002 21.25 9.38794 21.25C9.37568 21.25 9.36343 21.25 9.3512 21.25C9.33897 21.25 9.32675 21.25 9.31455 21.25C9.30235 21.25 9.29016 21.25 9.27799 21.25C9.26581 21.25 9.25365 21.25 9.24151 21.25C9.22937 21.25 9.21724 21.25 9.20513 21.25C9.19302 21.25 9.18092 21.25 9.16884 21.25C9.15676 21.25 9.14469 21.25 9.13264 21.25C9.12059 21.25 9.10855 21.25 9.09653 21.25C9.08451 21.25 9.07251 21.25 9.06052 21.25C9.04853 21.25 9.03656 21.25 9.0246 21.25C9.01264 21.25 9.0007 21.25 8.98877 21.25C8.97685 21.25 8.96494 21.25 8.95304 21.25C8.94115 21.25 8.92927 21.25 8.91741 21.25C8.90555 21.25 8.8937 21.25 8.88187 21.25C8.87004 21.25 8.85823 21.25 8.84643 21.25C8.83463 21.25 8.82285 21.25 8.81109 21.25C8.79932 21.25 8.78758 21.25 8.77584 21.25C8.76411 21.25 8.7524 21.25 8.7407 21.25C8.729 21.25 8.71732 21.25 8.70566 21.25C8.69399 21.25 8.68234 21.25 8.67071 21.25C8.65908 21.25 8.64747 21.25 8.63587 21.25C8.62428 21.25 8.6127 21.25 8.60113 21.25C8.58957 21.25 8.57802 21.25 8.5665 21.25C8.55497 21.25 8.54346 21.25 8.53196 21.25C8.52047 21.25 8.50899 21.25 8.49754 21.25C8.48608 21.25 8.47464 21.25 8.46321 21.25C8.45179 21.25 8.44038 21.25 8.429 21.25C8.41761 21.25 8.40624 21.25 8.39489 21.25C8.38353 21.25 8.3722 21.25 8.36088 21.25C8.34956 21.25 8.33827 21.25 8.32699 21.25C8.3157 21.25 8.30444 21.25 8.2932 21.25C8.28195 21.25 8.27073 21.25 8.25952 21.25C8.24831 21.25 8.23712 21.25 8.22595 21.25C8.21478 21.25 8.20363 21.25 8.19249 21.25C8.18136 21.25 8.17025 21.25 8.15915 21.25C8.14805 21.25 8.13697 21.25 8.12592 21.25C8.11486 21.25 8.10382 21.25 8.09279 21.25C8.08177 21.25 8.07077 21.25 8.05979 21.25C8.0488 21.25 8.03784 21.25 8.02689 21.25C8.01595 21.25 8.00502 21.25 7.99411 21.25C7.98321 21.25 7.97232 21.25 7.96145 21.25C7.95058 21.25 7.93973 21.25 7.92891 21.25C7.91808 21.25 7.90727 21.25 7.89648 21.25C7.88569 21.25 7.87491 21.25 7.86416 21.25C7.85341 21.25 7.84268 21.25 7.83197 21.25C7.82126 21.25 7.81057 21.25 7.7999 21.25C7.78922 21.25 7.77857 21.25 7.76794 21.25C7.75731 21.25 7.7467 21.25 7.73611 21.25C7.72552 21.25 7.71494 21.25 7.70439 21.25C7.69384 21.25 7.68331 21.25 7.6728 21.25C7.66229 21.25 7.6518 21.25 7.64133 21.25C7.63087 21.25 7.62042 21.25 7.60999 21.25C7.59956 21.25 7.58915 21.25 7.57877 21.25C7.56838 21.25 7.55802 21.25 7.54767 21.25C7.53733 21.25 7.527 21.25 7.5167 21.25C7.5064 21.25 7.49612 21.25 7.48585 21.25C7.47559 21.25 7.46535 21.25 7.45514 21.25C7.44492 21.25 7.43472 21.25 7.42455 21.25C7.41437 21.25 7.40422 21.25 7.39408 21.25C7.38395 21.25 7.37384 21.25 7.36375 21.25C7.35366 21.25 7.34359 21.25 7.33354 21.25C7.3235 21.25 7.31347 21.25 7.30347 21.25C7.29347 21.25 7.28349 21.25 7.27353 21.25C7.26357 21.25 7.25363 21.25 7.24372 21.25C7.2338 21.25 7.22391 21.25 7.21404 21.25C7.20417 21.25 7.19432 21.25 7.18449 21.25C7.17467 21.25 7.16486 21.25 7.15508 21.25C7.1453 21.25 7.13554 21.25 7.1258 21.25C7.11607 21.25 7.10635 21.25 7.09666 21.25C7.08697 21.25 7.0773 21.25 7.06766 21.25C7.05801 21.25 7.04839 21.25 7.03879 21.25C7.02919 21.25 7.01961 21.25 7.01005 21.25C7.0005 21.25 6.99097 21.25 6.98146 21.25C6.97195 21.25 6.96247 21.25 6.953 21.25C6.94354 21.25 6.9341 21.25 6.92469 21.25C6.91527 21.25 6.90588 21.25 6.89651 21.25C6.88714 21.25 6.8778 21.25 6.86848 21.25C6.85915 21.25 6.84986 21.25 6.84058 21.25C6.83131 21.25 6.82206 21.25 6.81283 21.25C6.8036 21.25 6.7944 21.25 6.78522 21.25C6.77604 21.25 6.76689 21.25 6.75776 21.25C6.74863 21.25 6.73952 21.25 6.73044 21.25C6.72135 21.25 6.71229 21.25 6.70326 21.25C6.69423 21.25 6.68522 21.25 6.67623 21.25C6.66724 21.25 6.65828 21.25 6.64935 21.25C6.64041 21.25 6.6315 21.25 6.62261 21.25C6.61372 21.25 6.60486 21.25 6.59602 21.25C6.58718 21.25 6.57837 21.25 6.56958 21.25C6.56079 21.25 6.55203 21.25 6.54329 21.25C6.53455 21.25 6.52584 21.25 6.51715 21.25C6.50846 21.25 6.4998 21.25 6.49116 21.25C6.48252 21.25 6.47391 21.25 6.46532 21.25C6.45673 21.25 6.44817 21.25 6.43963 21.25C6.4311 21.25 6.42258 21.25 6.4141 21.25C6.40561 21.25 6.39715 21.25 6.38872 21.25C6.38028 21.25 6.37187 21.25 6.36349 21.25C6.35511 21.25 6.34675 21.25 6.33842 21.25C6.33009 21.25 6.32178 21.25 6.3135 21.25C6.30522 21.25 6.29697 21.25 6.28874 21.25C6.28051 21.25 6.27231 21.25 6.26414 21.25C6.25596 21.25 6.24782 21.25 6.23969 21.25C6.23157 21.25 6.22347 21.25 6.21541 21.25C6.20734 21.25 6.19929 21.25 6.19128 21.25C6.18326 21.25 6.17527 21.25 6.16731 21.25C6.15935 21.25 6.15141 21.25 6.1435 21.25C6.13559 21.25 6.12771 21.25 6.11985 21.25C6.112 21.25 6.10417 21.25 6.09637 21.25C6.08857 21.25 6.08079 21.25 6.07305 21.25C6.0653 21.25 6.05758 21.25 6.04989 21.25C6.04219 21.25 6.03453 21.25 6.02689 21.25C6.01925 21.25 6.01164 21.25 6.00406 21.25C5.99648 21.25 5.98892 21.25 5.98139 21.25C5.97387 21.25 5.96637 21.25 5.95889 21.25C5.95142 21.25 5.94398 21.25 5.93656 21.25C5.92915 21.25 5.92176 21.25 5.9144 21.25C5.90704 21.25 5.8997 21.25 5.8924 21.25C5.88509 21.25 5.87782 21.25 5.87057 21.25C5.86332 21.25 5.8561 21.25 5.84891 21.25C5.84172 21.25 5.83456 21.25 5.82742 21.25C5.82029 21.25 5.81318 21.25 5.80611 21.25C5.79903 21.25 5.79198 21.25 5.78496 21.25C5.77794 21.25 5.77095 21.25 5.76399 21.25C5.75702 21.25 5.75009 21.25 5.74319 21.25C5.73628 21.25 5.72941 21.25 5.72256 21.25C5.71571 21.25 5.70889 21.25 5.70211 21.25C5.69532 21.25 5.68856 21.25 5.68183 21.25C5.6751 21.25 5.6684 21.25 5.66173 21.25C5.65506 21.25 5.64841 21.25 5.6418 21.25C5.63519 21.25 5.62861 21.25 5.62205 21.25C5.6155 21.25 5.60898 21.25 5.60248 21.25C5.59599 21.25 5.58953 21.25 5.58309 21.25C5.57666 21.25 5.57026 21.25 5.56388 21.25C5.55751 21.25 5.55116 21.25 5.54485 21.25C5.53854 21.25 5.53225 21.25 5.526 21.25C5.51975 21.25 5.51352 21.25 5.50733 21.25C5.50114 21.25 5.49497 21.25 5.48884 21.25C5.48271 21.25 5.47661 21.25 5.47054 21.25C5.46447 21.25 5.45843 21.25 5.45242 21.25C5.44641 21.25 5.44043 21.25 5.43448 21.25C5.42853 21.25 5.42261 21.25 5.41673 21.25C5.41084 21.25 5.40499 21.25 5.39916 21.25C5.39334 21.25 5.38754 21.25 5.38178 21.25C5.37602 21.25 5.37029 21.25 5.36459 21.25C5.35889 21.25 5.35322 21.25 5.34759 21.25C5.34195 21.25 5.33634 21.25 5.33077 21.25C5.32519 21.25 5.31965 21.25 5.31414 21.25C5.30863 21.25 5.30315 21.25 5.2977 21.25C5.29226 21.25 5.28684 21.25 5.28146 21.25C5.27607 21.25 5.27072 21.25 5.2654 21.25C5.26008 21.25 5.25479 21.25 5.24954 21.25C5.24428 21.25 5.23906 21.25 5.23387 21.25C5.22868 21.25 5.22352 21.25 5.21839 21.25C5.21326 21.25 5.20817 21.25 5.20311 21.25C5.19804 21.25 5.19301 21.25 5.18802 21.25C5.18302 21.25 5.17806 21.25 5.17312 21.25C5.16819 21.25 5.16329 21.25 5.15843 21.25C5.15356 21.25 5.14873 21.25 5.14393 21.25C5.13913 21.25 5.13436 21.25 5.12962 21.25C5.12489 21.25 5.12019 21.25 5.11552 21.25C5.11085 21.25 5.10622 21.25 5.10161 21.25C5.09701 21.25 5.09244 21.25 5.08791 21.25C5.08337 21.25 5.07887 21.25 5.0744 21.25C5.06993 21.25 5.0655 21.25 5.0611 21.25C5.0567 21.25 5.05233 21.25 5.04799 21.25C5.04366 21.25 5.03936 21.25 5.03509 21.25C5.03083 21.25 5.0266 21.25 5.0224 21.25C5.0182 21.25 5.01403 21.25 5.0099 21.25C5.00577 21.25 5.00168 21.25 4.99762 21.25C4.99355 21.25 4.98953 21.25 4.98553 21.25C4.98154 21.25 4.97758 21.25 4.97366 21.25C4.96973 21.25 4.96584 21.25 4.96198 21.25C4.95813 21.25 4.95431 21.25 4.95052 21.25C4.94674 21.25 4.94298 21.25 4.93927 21.25C4.93555 21.25 4.93187 21.25 4.92822 21.25C4.92457 21.25 4.92096 21.25 4.91738 21.25C4.91381 21.25 4.91026 21.25 4.90676 21.25C4.90325 21.25 4.89978 21.25 4.89634 21.25C4.8929 21.25 4.8895 21.25 4.88614 21.25C4.88277 21.25 4.87944 21.25 4.87614 21.25C4.87285 21.25 4.86959 21.25 4.86637 21.25C4.86314 21.25 4.85995 21.25 4.8568 21.25C4.85365 21.25 4.85053 21.25 4.84745 21.25C4.84437 21.25 4.84132 21.25 4.83831 21.25C4.8353 21.25 4.83233 21.25 4.82939 21.25C4.82646 21.25 4.82355 21.25 4.82069 21.25C4.81782 21.25 4.815 21.25 4.8122 21.25C4.80941 21.25 4.80665 21.25 4.80393 21.25C4.80121 21.25 4.79853 21.25 4.79588 21.25C4.79324 21.25 4.79063 21.25 4.78805 21.25C4.78548 21.25 4.78294 21.25 4.78044 21.25C4.77794 21.25 4.77548 21.25 4.77305 21.25C4.77063 21.25 4.76824 21.25 4.76588 21.25C4.76353 21.25 4.76122 21.25 4.75894 21.25C4.75666 21.25 4.75442 21.25 4.75221 21.25C4.75001 21.25 4.74784 21.25 4.74571 21.25C4.74359 21.25 4.74149 21.25 4.73944 21.25C4.73738 21.25 4.73537 21.25 4.73339 21.25C4.73141 21.25 4.72947 21.25 4.72756 21.25C4.72566 21.25 4.72379 21.25 4.72196 21.25C4.72013 21.25 4.71834 21.25 4.71659 21.25C4.71484 21.25 4.71312 21.25 4.71145 21.25C4.70977 21.25 4.70813 21.25 4.70653 21.25C4.70493 21.25 4.70337 21.25 4.70184 21.25C4.70032 21.25 4.69883 21.25 4.69739 21.25C4.69594 21.25 4.69453 21.25 4.69316 21.25C4.69179 21.25 4.69046 21.25 4.68916 21.25C4.68787 21.25 4.68662 21.25 4.6854 21.25C4.68418 21.25 4.68301 21.25 4.68187 21.25C4.68073 21.25 4.67963 21.25 4.67857 21.25V22.75ZM8.79737 16.7793L11.8994 13.6569L10.8353 12.5997L7.73324 15.7221L8.79737 16.7793ZM11.9944 13.6527C12.2795 13.9442 12.5897 14.2354 12.8379 14.4642C12.962 14.5785 13.0737 14.6801 13.1575 14.7566C13.2001 14.7956 13.2347 14.8274 13.2617 14.8525C13.2751 14.865 13.2855 14.8748 13.2933 14.8822C13.3017 14.8903 13.3042 14.8929 13.3031 14.8917L14.3755 13.843C14.301 13.7668 14.0742 13.5636 13.8543 13.3611C13.6122 13.1379 13.3246 12.8674 13.0668 12.6039L11.9944 13.6527ZM13.3031 14.8917C13.4997 15.0928 13.8406 15.3296 14.276 15.4021C14.7607 15.4828 15.2897 15.3446 15.7326 14.8917L14.6602 13.843C14.5992 13.9053 14.562 13.9186 14.5543 13.9211C14.5463 13.9237 14.5381 13.9251 14.5223 13.9224C14.5028 13.9192 14.4743 13.9099 14.4409 13.8909C14.4066 13.8714 14.3832 13.8508 14.3755 13.843L13.3031 14.8917ZM15.7326 14.8917L23.5362 6.91214L22.4638 5.86337L14.6602 13.843L15.7326 14.8917ZM22.25 6.38776V11.5918H23.75V6.38776H22.25ZM23 5.63776H17.9107V7.13775H23V5.63776ZM11.9036 13.6527C11.936 13.6195 11.9617 13.597 11.9827 13.5824C12.0039 13.5676 12.0035 13.5728 11.9824 13.5776C11.9707 13.5802 11.9554 13.582 11.9381 13.5812C11.9206 13.5803 11.9076 13.577 11.9007 13.5746C11.8869 13.5698 11.9202 13.5768 11.9944 13.6527L13.0668 12.6039C12.6527 12.1804 12.1563 12.0012 11.6539 12.114C11.23 12.2091 10.9454 12.4871 10.8311 12.6039L11.9036 13.6527Z" fill="#868686"/>
</svg>
