<svg width="27" height="27" viewBox="0 0 27 27" fill="none" xmlns="http://www.w3.org/2000/svg">
<path d="M23.9133 15.6667C23.9705 15.373 24 15.0936 24 14.8333V8.5C24 5.16667 20.1667 3 18.1667 3H8.83333C6.83333 3 3 5.16667 3 8.5V18.5C3 21.8333 6.83333 24 8.83333 24H14.1667C14.7939 24 15.4067 23.921 16 23.7764M23.9133 15.6667H20.1667C19.1901 15.6667 17.9274 16.4678 17.0492 17.5M23.9133 15.6667C23.3546 18.5358 20.1529 22.764 16 23.7764M16 23.7764C16 23.8509 16 23.1667 16 19.8333C16 19.0742 16.4286 18.2294 17.0492 17.5M17.0492 17.5C15.8885 18.4333 14.6439 18.6667 14.1667 18.6667C10.7 18.6667 9.27778 17.1111 9 16.3333M9.83333 10.6667C9.66667 10.6667 9.33333 10.8333 9.33333 11.5C9.33333 12.1667 9.66667 12.3333 9.83333 12.3333C10 12.3333 10.3333 12.1667 10.3333 11.5C10.3333 10.8333 10 10.6667 9.83333 10.6667ZM17.1667 10.6667C17 10.6667 16.6667 10.8333 16.6667 11.5C16.6667 12.1667 17 12.3333 17.1667 12.3333C17.3333 12.3333 17.6667 12.1667 17.6667 11.5C17.6667 10.8333 17.3333 10.6667 17.1667 10.6667Z" stroke="#868686" stroke-width="1.5" stroke-linecap="round"/>
</svg>
