<svg width="27" height="27" viewBox="0 0 27 27" fill="none" xmlns="http://www.w3.org/2000/svg">
<path d="M15.2 15.88H18.94M15.2 18.26H18.94M15.2 10.1H19.28M8.06 10.1H12.14M10.1 8.06V12.14M8.50459 15.54L10.0673 17.1027M10.0673 17.1027L11.63 18.6654M10.0673 17.1027L11.63 15.54M10.0673 17.1027L8.50459 18.6654M18.6 5C19.7333 5 22 5.68 22 8.4V18.6C22 21.32 19.7333 22 18.6 22H8.4C7.26667 22 5 21.32 5 18.6V8.4C5 5.68 7.26667 5 8.4 5H18.6Z" stroke="#868686" stroke-width="1.3" stroke-linecap="round"/>
</svg>
