<svg width="27" height="27" viewBox="0 0 27 27" fill="none" xmlns="http://www.w3.org/2000/svg">
<path d="M6.16667 7.61049C6.58088 7.61049 6.91667 7.2747 6.91667 6.86049C6.91667 6.44627 6.58088 6.11049 6.16667 6.11049V7.61049ZM6.5 23.1598L7.03249 23.688H7.03249L6.5 23.1598ZM22.75 17.4467C22.75 17.0324 22.4142 16.6967 22 16.6967C21.5858 16.6967 21.25 17.0324 21.25 17.4467H22.75ZM21.25 12.4099C21.25 12.8241 21.5858 13.1599 22 13.1599C22.4142 13.1599 22.75 12.8241 22.75 12.4099H21.25ZM22 9.39393H22.75V9.37595L22.7491 9.35799L22 9.39393ZM10.3333 6.86048L9.80495 6.32821C9.66311 6.46902 9.58333 6.66062 9.58333 6.86048C9.58333 7.06035 9.66311 7.25195 9.80495 7.39276L10.3333 6.86048ZM14.7506 3.53227C15.0446 3.24045 15.0463 2.76558 14.7545 2.47162C14.4627 2.17765 13.9878 2.17591 13.6938 2.46773L14.7506 3.53227ZM13.6938 11.2532C13.9878 11.5451 14.4627 11.5433 14.7545 11.2494C15.0463 10.9554 15.0446 10.4805 14.7506 10.1887L13.6938 11.2532ZM4.75 22.9918V9.04493H3.25V22.9918H4.75ZM4.75 9.04493C4.75 8.79965 4.82911 8.41598 5.04368 8.11552C5.23071 7.85363 5.54703 7.61049 6.16667 7.61049V6.11049C5.05297 6.11049 4.28596 6.59549 3.82299 7.24378C3.38756 7.85352 3.25 8.56207 3.25 9.04493H4.75ZM9.03249 21.6716C9.07386 21.6299 9.17302 21.545 9.29177 21.4754C9.34895 21.4419 9.40005 21.4182 9.44184 21.4039C9.48458 21.3892 9.50293 21.3893 9.5 21.3893V19.8893C9.10709 19.8893 8.76193 20.0473 8.53323 20.1813C8.29365 20.3217 8.09281 20.4889 7.96751 20.6153L9.03249 21.6716ZM9.5 21.3893H20.1667V19.8893H9.5V21.3893ZM20.1667 21.3893C20.5935 21.3893 21.216 21.2664 21.7531 20.8766C22.328 20.4592 22.75 19.7722 22.75 18.7909H21.25C21.25 19.2884 21.0608 19.5255 20.8719 19.6627C20.6451 19.8274 20.351 19.8893 20.1667 19.8893V21.3893ZM7.03249 23.688L9.03249 21.6716L7.96751 20.6153L5.96751 22.6317L7.03249 23.688ZM3.25 22.9918C3.25 23.28 3.36309 23.6967 3.64503 24.0533C3.95797 24.4491 4.46382 24.75 5.16667 24.75V23.25C5.03836 23.25 4.96336 23.2246 4.92162 23.204C4.87898 23.1831 4.84741 23.1555 4.82163 23.1229C4.79405 23.088 4.77338 23.0473 4.7603 23.0092C4.74485 22.9643 4.75 22.9537 4.75 22.9918H3.25ZM5.16667 24.75C5.76375 24.75 6.23941 24.4326 6.52077 24.199C6.78575 23.9789 7.06391 23.6563 7.03249 23.688L5.96751 22.6317C5.82498 22.7754 5.7698 22.8728 5.56257 23.0449C5.3717 23.2034 5.23625 23.25 5.16667 23.25V24.75ZM22.75 18.7909V17.4467H21.25V18.7909H22.75ZM22.75 12.4099V9.39393H21.25V12.4099H22.75ZM22.7491 9.35799C22.7234 8.8212 22.5371 8.03619 22.0412 7.36489C21.5204 6.65988 20.6753 6.11048 19.4479 6.11048V7.61048C20.165 7.61048 20.5757 7.90557 20.8347 8.25616C21.1186 8.64046 21.2361 9.12217 21.2509 9.42986L22.7491 9.35799ZM19.4479 6.11048H10.3333V7.61048H19.4479V6.11048ZM10.8617 7.39276L14.7506 3.53227L13.6938 2.46773L9.80495 6.32821L10.8617 7.39276ZM9.80495 7.39276L13.6938 11.2532L14.7506 10.1887L10.8617 6.32821L9.80495 7.39276Z" fill="#868686"/>
</svg>
