<svg width="27" height="27" viewBox="0 0 27 27" fill="none" xmlns="http://www.w3.org/2000/svg">
<path d="M13.5 10.541V14.8033M11.3333 3H15.6667M19.0848 8.33645L20.3395 7.09439C20.5209 6.91481 20.8129 6.91434 20.9949 7.09333V7.09333C21.1808 7.27624 21.1808 7.57595 20.9946 7.75861C20.4642 8.27894 19.753 8.97606 19.7538 8.97686C19.5282 8.74398 19.331 8.53262 19.0848 8.33645ZM22 14.6393C22 19.2568 18.1944 23 13.5 23C8.80558 23 5 19.2568 5 14.6393C5 10.0219 8.80558 6.27869 13.5 6.27869C18.1944 6.27869 22 10.0219 22 14.6393Z" stroke="#868686" stroke-width="1.5" stroke-linecap="round"/>
</svg>
