<svg width="27" height="27" viewBox="0 0 27 27" fill="none" xmlns="http://www.w3.org/2000/svg">
<path d="M7 10V22C7 22.5523 7.44772 23 8 23H19C19.5523 23 20 22.5523 20 22V10M7 10H20M7 10C6.44772 10 6 9.55228 6 9V7C6 6.44772 6.44772 6 7 6H8.5H9.39445C9.7893 6 10.1753 5.88312 10.5038 5.6641L10.9962 5.3359C11.3247 5.11688 11.7107 5 12.1056 5H14.8944C15.2893 5 15.6753 5.11688 16.0038 5.3359L16.4962 5.6641C16.8247 5.88312 17.2107 6 17.6056 6H18.5H20C20.5523 6 21 6.44772 21 7V9C21 9.55228 20.5523 10 20 10" stroke="#868686" stroke-width="1.5" stroke-linecap="round"/>
</svg>
