<svg width="27" height="27" viewBox="0 0 27 27" fill="none" xmlns="http://www.w3.org/2000/svg">
<path d="M8.01183 15.9673C7.71765 16.2589 7.71556 16.7338 8.00716 17.028C8.29876 17.3222 8.77363 17.3243 9.06781 17.0327L8.01183 15.9673ZM12.7434 12.3333L13.2714 11.8007C12.979 11.5109 12.5077 11.5109 12.2154 11.8007L12.7434 12.3333ZM16.2743 15.8333L15.7463 16.366C15.8891 16.5075 16.0826 16.5857 16.2835 16.5833C16.4844 16.5808 16.6759 16.4979 16.8152 16.353L16.2743 15.8333ZM23 8.83333H23.75C23.75 8.41912 23.4142 8.08333 23 8.08333V8.83333ZM18.6283 8.08333C18.2141 8.08333 17.8783 8.41912 17.8783 8.83333C17.8783 9.24755 18.2141 9.58333 18.6283 9.58333V8.08333ZM22.25 13.3333C22.25 13.7475 22.5858 14.0833 23 14.0833C23.4142 14.0833 23.75 13.7475 23.75 13.3333H22.25ZM18.7481 6.34027C19.0281 6.64554 19.5026 6.66604 19.8078 6.38607C20.1131 6.1061 20.1336 5.63167 19.8536 5.3264L18.7481 6.34027ZM23.187 17.2906C23.3475 16.9088 23.1681 16.4691 22.7862 16.3086C22.4044 16.1481 21.9647 16.3275 21.8042 16.7094L23.187 17.2906ZM9.06781 17.0327L13.2714 12.866L12.2154 11.8007L8.01183 15.9673L9.06781 17.0327ZM12.2154 12.866L15.7463 16.366L16.8023 15.3007L13.2714 11.8007L12.2154 12.866ZM16.8152 16.353L23.5408 9.35296L22.4592 8.31371L15.7335 15.3137L16.8152 16.353ZM23 8.08333H18.6283V9.58333H23V8.08333ZM22.25 8.83333V13.3333H23.75V8.83333H22.25ZM13.5841 22.25C8.6989 22.25 4.75 18.3263 4.75 13.5H3.25C3.25 19.1671 7.88296 23.75 13.5841 23.75V22.25ZM4.75 13.5C4.75 8.67372 8.6989 4.75 13.5841 4.75V3.25C7.88296 3.25 3.25 7.83287 3.25 13.5H4.75ZM13.5841 4.75C14.203 4.75 15.2337 4.8359 16.2595 5.094C17.3074 5.35767 18.2256 5.77055 18.7481 6.34027L19.8536 5.3264C19.031 4.42945 17.7634 3.92566 16.6255 3.63934C15.4654 3.34743 14.3103 3.25 13.5841 3.25V4.75ZM13.5841 23.75C15.8844 23.75 21.0086 22.4728 23.187 17.2906L21.8042 16.7094C19.9471 21.1272 15.5433 22.25 13.5841 22.25V23.75Z" fill="#868686"/>
</svg>
