<svg width="27" height="27" viewBox="0 0 27 27" fill="none" xmlns="http://www.w3.org/2000/svg">
<path d="M5 12.25C4.58579 12.25 4.25 12.5858 4.25 13C4.25 13.4142 4.58579 13.75 5 13.75V12.25ZM9 13V13.75H9.75V13H9ZM9.75 10.6667C9.75 10.2525 9.41421 9.91667 9 9.91667C8.58579 9.91667 8.25 10.2525 8.25 10.6667H9.75ZM8.25 15.3333C8.25 15.7475 8.58579 16.0833 9 16.0833C9.41421 16.0833 9.75 15.7475 9.75 15.3333H8.25ZM12.6667 12.25C12.2525 12.25 11.9167 12.5858 11.9167 13C11.9167 13.4142 12.2525 13.75 12.6667 13.75V12.25ZM22 13.75C22.4142 13.75 22.75 13.4142 22.75 13C22.75 12.5858 22.4142 12.25 22 12.25V13.75ZM22 7.08333C22.4142 7.08333 22.75 6.74755 22.75 6.33333C22.75 5.91912 22.4142 5.58333 22 5.58333V7.08333ZM18 6.33333H17.25V7.08333H18V6.33333ZM18.75 4C18.75 3.58579 18.4142 3.25 18 3.25C17.5858 3.25 17.25 3.58579 17.25 4H18.75ZM17.25 8.66667C17.25 9.08088 17.5858 9.41667 18 9.41667C18.4142 9.41667 18.75 9.08088 18.75 8.66667H17.25ZM14.3333 7.08333C14.7475 7.08333 15.0833 6.74755 15.0833 6.33333C15.0833 5.91912 14.7475 5.58333 14.3333 5.58333V7.08333ZM5 5.58333C4.58579 5.58333 4.25 5.91912 4.25 6.33333C4.25 6.74755 4.58579 7.08333 5 7.08333V5.58333ZM22 20.4167C22.4142 20.4167 22.75 20.0809 22.75 19.6667C22.75 19.2525 22.4142 18.9167 22 18.9167V20.4167ZM18 19.6667H17.25V20.4167H18V19.6667ZM18.75 17.3333C18.75 16.9191 18.4142 16.5833 18 16.5833C17.5858 16.5833 17.25 16.9191 17.25 17.3333H18.75ZM17.25 22C17.25 22.4142 17.5858 22.75 18 22.75C18.4142 22.75 18.75 22.4142 18.75 22H17.25ZM14.3333 20.4167C14.7475 20.4167 15.0833 20.0809 15.0833 19.6667C15.0833 19.2525 14.7475 18.9167 14.3333 18.9167V20.4167ZM5 18.9167C4.58579 18.9167 4.25 19.2525 4.25 19.6667C4.25 20.0809 4.58579 20.4167 5 20.4167V18.9167ZM5 13.75H9V12.25H5V13.75ZM9.75 13V10.6667H8.25V13H9.75ZM8.25 10.6667V15.3333H9.75V10.6667H8.25ZM12.6667 13.75H22V12.25H12.6667V13.75ZM22 5.58333H18V7.08333H22V5.58333ZM18.75 6.33333V4H17.25V6.33333H18.75ZM17.25 4V8.66667H18.75V4H17.25ZM14.3333 5.58333H5V7.08333H14.3333V5.58333ZM22 18.9167H18V20.4167H22V18.9167ZM18.75 19.6667V17.3333H17.25V19.6667H18.75ZM17.25 17.3333V22H18.75V17.3333H17.25ZM14.3333 18.9167H5V20.4167H14.3333V18.9167Z" fill="#868686"/>
</svg>
