<svg width="27" height="27" viewBox="0 0 27 27" fill="none" xmlns="http://www.w3.org/2000/svg">
<path d="M8.25 20.4248C7.79825 20.0817 7.3811 19.6955 7.00468 19.2722C6.90645 19.1618 6.81098 19.0488 6.7184 18.9334C5.62997 20.0219 5.90282 20.7731 6.15884 21.0292C6.41485 21.2852 7.16156 21.5133 8.25 20.4248Z" fill="#868686"/>
<path d="M3 13.502C3 13.8641 3.33826 14.5846 4.87754 14.5846C4.83326 14.2291 4.81045 13.8669 4.81045 13.4994C4.81045 13.4557 4.81077 13.412 4.81142 13.3684C4.81618 13.0463 4.83865 12.7285 4.87754 12.4157C3.33826 12.4157 3 13.1399 3 13.502Z" fill="#868686"/>
<path d="M8.18696 6.62231C7.09852 5.53378 6.34731 5.80666 6.0913 6.0627C5.83555 6.31846 5.563 7.06841 6.64742 8.15508C7.09469 7.58232 7.61218 7.06708 8.18696 6.62231Z" fill="#868686"/>
<path d="M13.4999 4.80923C13.8678 4.80923 14.2303 4.83208 14.5861 4.87646C14.5857 3.33809 13.8619 3 13.4999 3C13.1379 3 12.4141 3.33809 12.4137 4.87646C12.7696 4.83208 13.1321 4.80923 13.4999 4.80923Z" fill="#868686"/>
<path d="M20.9085 6.0627C20.6525 5.80666 19.9013 5.53378 18.8128 6.62231C19.3876 7.06708 19.9051 7.58232 20.3524 8.15508C21.4368 7.06841 21.1643 6.31846 20.9085 6.0627Z" fill="#868686"/>
<path d="M18.806 20.3817C19.8945 21.4702 20.6457 21.1974 20.9017 20.9413C21.1573 20.6857 21.4297 19.9363 20.3471 18.8505C19.8993 19.4228 19.3813 19.9375 18.806 20.3817Z" fill="#868686"/>
<path d="M13.4999 22.1895C13.1321 22.1895 12.7696 22.1667 12.4137 22.1223C12.4137 23.6617 13.1378 24 13.4999 24C13.862 24 14.5861 23.6617 14.5861 22.1223C14.2303 22.1667 13.8678 22.1895 13.4999 22.1895Z" fill="#868686"/>
<path d="M22.1225 14.583C23.6617 14.583 24 13.8641 24 13.502C24 13.1399 23.6617 12.4157 22.1225 12.4157C22.1666 12.7708 22.1894 13.1324 22.1894 13.4994C22.1894 13.8663 22.1666 14.228 22.1225 14.583Z" fill="#868686"/>
<path d="M22.1894 13.4994C22.1894 15.5177 21.5013 17.3753 20.3471 18.8505M22.1894 13.4994C22.1894 13.1324 22.1666 12.7708 22.1225 12.4157M22.1894 13.4994C22.1894 11.4841 21.5035 9.62913 20.3524 8.15508M22.1894 13.4994C22.1894 13.8663 22.1666 14.228 22.1225 14.583C23.6617 14.583 24 13.8641 24 13.502C24 13.1399 23.6617 12.4157 22.1225 12.4157M13.4999 22.1895C13.1321 22.1895 12.7696 22.1667 12.4137 22.1223M13.4999 22.1895C13.8678 22.1895 14.2303 22.1667 14.5861 22.1223M13.4999 22.1895C16.2808 22.1895 18.7566 20.8831 20.3471 18.8505M4.81045 13.4994C4.81045 15.5557 5.5246 17.4452 6.7184 18.9334M4.81045 13.4994C4.81045 15.7152 5.63967 17.7373 7.00468 19.2722M4.81045 13.4994C4.81045 13.8669 4.83326 14.2291 4.87754 14.5846C3.33826 14.5846 3 13.8641 3 13.502C3 13.1399 3.33826 12.4157 4.87754 12.4157M4.81045 13.4994C4.81045 13.4557 4.81077 13.412 4.81142 13.3684M12.4137 22.1223C12.4137 23.6617 13.1378 24 13.4999 24C13.862 24 14.5861 23.6617 14.5861 22.1223M12.4137 22.1223C10.2705 21.855 8.3697 20.8072 7.00468 19.2722M14.5861 22.1223C16.1629 21.9257 17.6085 21.3065 18.806 20.3817M12.4137 4.87768L12.4137 4.87646M14.5861 4.87768L14.5861 4.87646M6.65086 8.15853L6.64743 8.15508M8.18696 6.62231C7.09852 5.53378 6.34731 5.80666 6.09129 6.0627C5.83555 6.31846 5.563 7.06841 6.64743 8.15508M8.18696 6.62231C9.38584 5.6946 10.8339 5.07347 12.4137 4.87646M8.18696 6.62231C7.61218 7.06708 7.09469 7.58232 6.64743 8.15508M20.3489 8.15853L20.3524 8.15508M18.8128 6.62231C19.9013 5.53378 20.6525 5.80666 20.9085 6.0627C21.1643 6.31846 21.4368 7.06841 20.3524 8.15508M18.8128 6.62231C19.3876 7.06708 19.9051 7.58232 20.3524 8.15508M18.8128 6.62231C17.614 5.6946 16.1659 5.07347 14.5861 4.87646M6.7184 18.9334C5.62997 20.0219 5.90282 20.7731 6.15884 21.0292C6.41485 21.2852 7.16156 21.5133 8.25 20.4248C7.79825 20.0817 7.3811 19.6955 7.00468 19.2722M6.7184 18.9334C6.81098 19.0488 6.90645 19.1618 7.00468 19.2722M20.3421 18.8455C20.3438 18.8472 20.3454 18.8488 20.3471 18.8505M18.806 20.3817C19.8945 21.4702 20.6457 21.1974 20.9017 20.9413C21.1573 20.6857 21.4297 19.9363 20.3471 18.8505M18.806 20.3817C19.3813 19.9375 19.8993 19.4228 20.3471 18.8505M22.1225 12.4157C21.9241 10.8212 21.2938 9.36071 20.3524 8.15508M4.87754 12.4157C5.07587 10.8212 5.70596 9.36071 6.64743 8.15508M4.87754 12.4157C4.83865 12.7285 4.81618 13.0463 4.81142 13.3684M20.3524 8.15508C18.9722 6.38764 16.9233 5.16792 14.5861 4.87646M14.5861 4.87646C14.2303 4.83208 13.8678 4.80923 13.4999 4.80923C13.1321 4.80923 12.7696 4.83208 12.4137 4.87646M14.5861 4.87646C14.5857 3.33809 13.8619 3 13.4999 3C13.1379 3 12.4141 3.33809 12.4137 4.87646M12.4137 4.87646C10.0765 5.16792 8.0276 6.38765 6.64743 8.15508M6.64743 8.15508C5.52133 9.59715 4.84044 11.4038 4.81142 13.3684" stroke="#868686" stroke-width="1.5"/>
</svg>
