<svg width="27" height="27" viewBox="0 0 27 27" fill="none" xmlns="http://www.w3.org/2000/svg">
<path d="M17.6667 11.375V9.275C17.6667 8.51667 17.2 7 15.3333 7H5.33333C3.46667 7 3 8.51667 3 9.275V18.725C3 19.4833 3.46667 21 5.33333 21H15.3333C17.2 21 17.6667 19.4833 17.6667 18.725V11.375ZM17.6667 11.375C18.5 10.5 20.3 8.61 20.8333 8.05C21.3667 7.49 22.0556 7.35 22.3333 7.35C23.6667 7.35 24 8.51667 24 9.1V18.9C24 19.4833 23.6667 20.65 22.3333 20.65C22.0556 20.65 21.3667 20.51 20.8333 19.95C20.3 19.39 18.5 17.5 17.6667 16.625" stroke="#868686" stroke-width="1.5"/>
</svg>
