<svg width="27" height="27" viewBox="0 0 27 27" fill="none" xmlns="http://www.w3.org/2000/svg">
<path d="M9.42857 23.4872C9.42857 24.1709 10.1071 24.1709 10.7857 23.4872L13.8393 20.4103C14.0089 20.2393 14.5179 19.7265 14.8571 19.7265H20.625C23 19.7265 23 18.0171 23 17.3333V6.05128C23 5.36752 23 4 20.625 4H6.375C4 4 4 5.36752 4 6.05128V17.3333C4 18.359 4 19.7265 6.375 19.7265H8.75C9.08929 19.7265 9.42857 20.0684 9.42857 20.4103M9.42857 23.4872C9.42857 22.4615 9.42857 20.6838 9.42857 20.4103M9.42857 23.4872C9.42857 22.2856 9.42857 20.4103 9.42857 20.4103M13.5 16.3077V8.10256M9.42857 9.12821L9.42857 15.2821M17.5714 9.81197V14.5983" stroke="#868686" stroke-width="1.5" stroke-linecap="round"/>
</svg>
