<svg width="27" height="27" viewBox="0 0 27 27" fill="none" xmlns="http://www.w3.org/2000/svg">
<path d="M4.52273 3.5396C4.2257 3.2509 3.75087 3.25766 3.46218 3.55469C3.17348 3.85172 3.18024 4.32655 3.47727 4.61524L4.52273 3.5396ZM23.4773 24.054C23.7743 24.3426 24.2491 24.3359 24.5378 24.0389C24.8265 23.7418 24.8198 23.267 24.5227 22.9783L23.4773 24.054ZM9.9542 9.86452L9.43147 10.4023L9.9542 9.86452ZM14.0786 2V2.75V2ZM23.2233 14.0194C23.2233 13.6051 22.8875 13.2694 22.4733 13.2694C22.0591 13.2694 21.7233 13.6051 21.7233 14.0194H23.2233ZM10.7042 14.6129C10.7042 14.1987 10.3684 13.8629 9.9542 13.8629C9.53999 13.8629 9.2042 14.1987 9.2042 14.6129H10.7042ZM13.313 18.479C13.7272 18.479 14.063 18.1432 14.063 17.729C14.063 17.3148 13.7272 16.979 13.313 16.979V18.479ZM6.42939 14.0194C6.42939 13.6051 6.0936 13.2694 5.67939 13.2694C5.26518 13.2694 4.92939 13.6051 4.92939 14.0194H6.42939ZM16.8969 22.5318C17.2547 22.3231 17.3756 21.8639 17.167 21.5061C16.9583 21.1482 16.4991 21.0273 16.1413 21.236L16.8969 22.5318ZM13.3263 25C13.3263 25.4142 13.6621 25.75 14.0763 25.75C14.4906 25.75 14.8263 25.4142 14.8263 25H13.3263ZM18.1985 5.57976L18.9485 5.57973L18.1985 5.57976ZM3.47727 4.61524L9.43147 10.4023L10.4769 9.32669L4.52273 3.5396L3.47727 4.61524ZM10.7042 9.86452V5.57982H9.2042V9.86452H10.7042ZM9.9542 5.57982C10.7042 5.57982 10.7042 5.58023 10.7042 5.58063C10.7042 5.58074 10.7042 5.58112 10.7042 5.58135C10.7042 5.58181 10.7042 5.58222 10.7042 5.58257C10.7042 5.58328 10.7042 5.58378 10.7042 5.58408C10.7042 5.58468 10.7042 5.58448 10.7042 5.58349C10.7042 5.5815 10.7043 5.5764 10.7047 5.5684C10.7053 5.55237 10.7067 5.52485 10.7097 5.48751C10.7159 5.41257 10.7287 5.29973 10.7552 5.16191C10.8087 4.88332 10.9145 4.52036 11.1196 4.16429C11.5016 3.50125 12.2852 2.75 14.0786 2.75V1.25C11.7477 1.25 10.469 2.28866 9.81988 3.41553C9.50944 3.95442 9.35749 4.48642 9.2821 4.87904C9.24412 5.07683 9.22473 5.24366 9.21478 5.36449C9.2098 5.42503 9.20716 5.47443 9.20576 5.51084C9.20506 5.52905 9.20467 5.54405 9.20445 5.55562C9.20435 5.5614 9.20428 5.56633 9.20425 5.57037C9.20423 5.57239 9.20422 5.57419 9.20421 5.57577C9.20421 5.57656 9.2042 5.57729 9.2042 5.57796C9.2042 5.5783 9.2042 5.57877 9.2042 5.57893C9.2042 5.57938 9.2042 5.57982 9.9542 5.57982ZM14.0786 2.75C15.8682 2.75 16.6505 3.49789 17.0321 4.15872C17.4498 4.88196 17.4485 5.61912 17.4485 5.5798L18.9485 5.57973C18.9485 5.52384 18.9447 4.47111 18.3311 3.40862C17.6815 2.28371 16.404 1.25 14.0786 1.25V2.75ZM17.4485 5.58058V14.4274H18.9485V5.58058H17.4485ZM9.43147 10.4023L16.4544 17.2281L17.4998 16.1525L10.4769 9.32669L9.43147 10.4023ZM17.4485 14.4274C17.4485 14.9068 17.3359 15.6442 16.6208 16.0304L17.3334 17.3503C18.8167 16.5493 18.9485 15.0362 18.9485 14.4274H17.4485ZM16.4544 17.2281L19.5078 20.1959L20.5533 19.1202L17.4998 16.1525L16.4544 17.2281ZM19.5078 20.1959L23.4773 24.054L24.5227 22.9783L20.5533 19.1202L19.5078 20.1959ZM21.7233 14.0194C21.7233 14.5299 21.5844 15.6756 21.226 16.7728C21.0481 17.3175 20.8259 17.819 20.5618 18.2139C20.2953 18.6122 20.019 18.8536 19.749 18.9629L20.3121 20.3532C20.9581 20.0916 21.4452 19.591 21.8085 19.048C22.1741 18.5015 22.4481 17.8623 22.6519 17.2385C23.0569 15.9986 23.2233 14.6959 23.2233 14.0194H21.7233ZM9.2042 14.6129C9.2042 15.4512 9.66276 16.4048 10.3423 17.1293C11.0396 17.8726 12.0659 18.479 13.313 18.479V16.979C12.5753 16.979 11.9222 16.621 11.4363 16.103C10.9327 15.5661 10.7042 14.9617 10.7042 14.6129H9.2042ZM4.92939 14.0194C4.92939 15.453 5.56084 17.688 6.99012 19.5733C8.44284 21.4895 10.7498 23.079 14.0763 23.079V21.579C11.296 21.579 9.40449 20.275 8.18545 18.6671C6.94297 17.0282 6.42939 15.1083 6.42939 14.0194H4.92939ZM14.0763 23.079C14.8025 23.079 15.9298 23.0957 16.8969 22.5318L16.1413 21.236C15.5817 21.5623 14.8769 21.579 14.0763 21.579V23.079ZM13.3263 22.329V25H14.8263V22.329H13.3263ZM17.4485 5.5798V5.58058H18.9485V5.57973L17.4485 5.5798ZM9.2042 5.57982C9.2042 5.57982 9.9542 5.57982 10.7042 5.57982C10.7042 5.57982 10.7042 5.57982 9.9542 5.57982C9.2042 5.57982 9.2042 5.57982 9.2042 5.57982C9.9542 5.57982 10.7042 5.57982 10.7042 5.57982H9.2042Z" fill="#868686"/>
</svg>
