<svg width="27" height="27" viewBox="0 0 27 27" fill="none" xmlns="http://www.w3.org/2000/svg">
<path d="M14.3333 22.6469L14.8678 22.1208L14.8502 22.1029L14.8315 22.0863L14.3333 22.6469ZM14.3333 3.35305L14.8315 3.91366L14.8502 3.89706L14.8678 3.87925L14.3333 3.35305ZM19.7538 9.33363C19.4108 9.1014 18.9445 9.19118 18.7123 9.53416C18.4801 9.87715 18.5698 10.3435 18.9128 10.5757L19.7538 9.33363ZM18.9128 15.4275C18.5698 15.6598 18.4801 16.1261 18.7123 16.4691C18.9445 16.8121 19.4108 16.9018 19.7538 16.6696L18.9128 15.4275ZM19.5661 5.00982C19.1723 4.88127 18.7489 5.09627 18.6204 5.49003C18.4918 5.88379 18.7068 6.30721 19.1006 6.43575L19.5661 5.00982ZM19.1006 19.5675C18.7068 19.696 18.4918 20.1194 18.6204 20.5132C18.7489 20.907 19.1723 21.122 19.5661 20.9934L19.1006 19.5675ZM4.83333 8.01641C4.40538 8.01641 3.78203 8.14055 3.24479 8.53342C2.66996 8.95378 2.25 9.64406 2.25 10.6284H3.75C3.75 10.1232 3.94115 9.88247 4.13021 9.74422C4.35686 9.57848 4.65017 9.51641 4.83333 9.51641V8.01641ZM2.25 10.6284V15.3681H3.75V10.6284H2.25ZM2.25 15.3681C2.25 15.8059 2.35384 16.4405 2.74294 16.9877C3.16143 17.5762 3.85283 17.9801 4.83333 17.9801V16.4801C4.31383 16.4801 4.08857 16.2916 3.96539 16.1184C3.81282 15.9039 3.75 15.6074 3.75 15.3681H2.25ZM4.83333 17.9801H7.83333V16.4801H4.83333V17.9801ZM7.83333 17.9801C7.7737 17.9801 7.86554 17.9729 8.10015 18.0967C8.3139 18.2094 8.6139 18.4148 8.96557 18.772L10.0344 17.7196C9.5861 17.2642 9.16388 16.9618 8.79985 16.7699C8.45668 16.5889 8.11519 16.4801 7.83333 16.4801V17.9801ZM8.96557 18.772C9.78826 19.6076 12.5153 22.0347 13.8351 23.2076L14.8315 22.0863C13.4847 20.8894 10.8117 18.5091 10.0344 17.7196L8.96557 18.772ZM17.0833 20.4464V15.8759H15.5833V20.4464H17.0833ZM13.7989 23.1731C14.3482 23.731 15.1564 23.8756 15.8281 23.6436C16.5453 23.396 17.0833 22.7318 17.0833 21.8006H15.5833C15.5833 21.9638 15.5406 22.0555 15.5045 22.106C15.4666 22.159 15.4115 22.2006 15.3385 22.2258C15.177 22.2816 14.9851 22.24 14.8678 22.1208L13.7989 23.1731ZM17.0833 21.8006V20.4464H15.5833V21.8006H17.0833ZM4.83333 16.4836C4.65017 16.4836 4.35686 16.4216 4.13021 16.2558C3.94115 16.1176 3.75 15.8768 3.75 15.3716H2.25C2.25 16.356 2.66996 17.0463 3.24479 17.4666C3.78203 17.8595 4.40538 17.9836 4.83333 17.9836V16.4836ZM3.75 15.3716V10.6319H2.25V15.3716H3.75ZM3.75 10.6319C3.75 10.3926 3.81282 10.0961 3.96539 9.88159C4.08857 9.70837 4.31383 9.51986 4.83333 9.51986V8.01986C3.85283 8.01986 3.16143 8.42381 2.74294 9.01232C2.35384 9.55951 2.25 10.1941 2.25 10.6319H3.75ZM4.83333 9.51986H7.83333V8.01986H4.83333V9.51986ZM7.83333 9.51986C8.11519 9.51986 8.45668 9.4111 8.79985 9.23013C9.16388 9.03816 9.5861 8.73575 10.0344 8.2804L8.96557 7.22801C8.6139 7.58519 8.3139 7.7906 8.10015 7.90332C7.86554 8.02705 7.7737 8.01986 7.83333 8.01986V9.51986ZM10.0344 8.2804C10.8117 7.49093 13.4847 5.11062 14.8315 3.91366L13.8351 2.79244C12.5153 3.96534 9.78826 6.39244 8.96557 7.22801L10.0344 8.2804ZM15.5833 5.55363V10.1241H17.0833V5.55363H15.5833ZM14.8678 3.87925C14.9851 3.76003 15.177 3.71842 15.3385 3.77421C15.4115 3.79939 15.4666 3.84096 15.5045 3.89403C15.5406 3.94445 15.5833 4.03616 15.5833 4.19943H17.0833C17.0833 3.26819 16.5453 2.604 15.8281 2.35636C15.1564 2.12438 14.3482 2.26897 13.7989 2.82686L14.8678 3.87925ZM15.5833 4.19943V5.55363H17.0833V4.19943H15.5833ZM15.5833 10.1241V15.8759H17.0833V10.1241H15.5833ZM18.9128 10.5757C19.1202 10.7161 19.3494 10.8942 19.5392 11.2205C19.7307 11.5497 19.9167 12.0907 19.9167 13.0016H21.4167C21.4167 11.8812 21.1859 11.068 20.8358 10.4662C20.484 9.86155 20.0465 9.53178 19.7538 9.33363L18.9128 10.5757ZM19.9167 13.0016C19.9167 13.9125 19.7307 14.4536 19.5392 14.7827C19.3494 15.1091 19.1202 15.2871 18.9128 15.4275L19.7538 16.6696C20.0465 16.4715 20.484 16.1417 20.8358 15.537C21.1859 14.9352 21.4167 14.122 21.4167 13.0016H19.9167ZM19.1006 6.43575C20.4225 6.86732 23.25 8.79429 23.25 13.0016H24.75C24.75 8.00037 21.3552 5.5939 19.5661 5.00982L19.1006 6.43575ZM23.25 13.0016C23.25 17.2089 20.4225 19.1359 19.1006 19.5675L19.5661 20.9934C21.3552 20.4093 24.75 18.0029 24.75 13.0016H23.25Z" fill="#868686"/>
</svg>
