<svg width="27" height="27" viewBox="0 0 27 27" fill="none" xmlns="http://www.w3.org/2000/svg">
<path d="M19.6667 7.73214C19.6667 8.01322 19.4428 8.24107 19.1667 8.24107C18.8905 8.24107 18.6667 8.01322 18.6667 7.73214C18.6667 7.45107 18.8905 7.22321 19.1667 7.22321C19.4428 7.22321 19.6667 7.45107 19.6667 7.73214Z" fill="#868686"/>
<path d="M9 20.625V20.9643C9 22.0886 9.89543 23 11 23H21C22.1046 23 23 22.0886 23 20.9643V19.2679M9 20.625V6.03571C9 4.91142 9.89543 4 11 4H21C22.1046 4 23 4.91142 23 6.03571V19.2679M9 20.625L11.8333 17.7411C12 17.5714 12.5 17.0625 13.1667 17.7411C13.7 18.2839 14.1111 18.7024 14.1667 18.7589C14.3333 18.9286 14.8333 19.4375 15.5 18.7589C16.0333 18.2161 17.5 16.497 18.1667 15.7054C18.3333 15.5357 18.8333 15.0268 19.5 15.7054C20.0333 16.2482 22.0556 18.3065 23 19.2679M6.66667 5.52679H5C4.44772 5.52679 4 5.9825 4 6.54464V20.7946C4 21.3568 4.44772 21.8125 5 21.8125H6.66667M19.6667 7.73214C19.6667 8.01322 19.4428 8.24107 19.1667 8.24107C18.8905 8.24107 18.6667 8.01322 18.6667 7.73214C18.6667 7.45107 18.8905 7.22321 19.1667 7.22321C19.4428 7.22321 19.6667 7.45107 19.6667 7.73214Z" stroke="#868686" stroke-width="1.5" stroke-linecap="round"/>
</svg>
