<svg width="27" height="27" viewBox="0 0 27 27" fill="none" xmlns="http://www.w3.org/2000/svg">
<path d="M18.2727 8.6875C18.2727 8.3078 18.578 8 18.9545 8H20.3182C20.6947 8 21 8.3078 21 8.6875V18.3125C21 18.6922 20.6947 19 20.3182 19H18.9545C18.578 19 18.2727 18.6922 18.2727 18.3125V8.6875Z" fill="#868686"/>
<path d="M14.1818 11.4375C14.1818 11.0578 14.4871 10.75 14.8636 10.75H16.2273C16.6038 10.75 16.9091 11.0578 16.9091 11.4375V18.3125C16.9091 18.6922 16.6038 19 16.2273 19H14.8636C14.4871 19 14.1818 18.6922 14.1818 18.3125V11.4375Z" fill="#868686"/>
<path d="M10.0909 14.1875C10.0909 13.8078 10.3962 13.5 10.7727 13.5H12.1364C12.5129 13.5 12.8182 13.8078 12.8182 14.1875V18.3125C12.8182 18.6922 12.5129 19 12.1364 19H10.7727C10.3962 19 10.0909 18.6922 10.0909 18.3125V14.1875Z" fill="#868686"/>
<path d="M6 16.9375C6 16.5578 6.30526 16.25 6.68182 16.25H8.04545C8.42201 16.25 8.72727 16.5578 8.72727 16.9375V18.3125C8.72727 18.6922 8.42201 19 8.04545 19H6.68182C6.30526 19 6 18.6922 6 18.3125V16.9375Z" fill="#868686"/>
</svg>
